<?xml version="1.0" encoding="utf-8" standalone="no"?>
<!DOCTYPE svg PUBLIC "-//W3C//DTD SVG 1.1//EN"
  "http://www.w3.org/Graphics/SVG/1.1/DTD/svg11.dtd">
<svg xmlns:xlink="http://www.w3.org/1999/xlink" width="460.8pt" height="345.6pt" viewBox="0 0 460.8 345.6" xmlns="http://www.w3.org/2000/svg" version="1.1">
 <metadata>
  <rdf:RDF xmlns:dc="http://purl.org/dc/elements/1.1/" xmlns:cc="http://creativecommons.org/ns#" xmlns:rdf="http://www.w3.org/1999/02/22-rdf-syntax-ns#">
   <cc:Work>
    <dc:type rdf:resource="http://purl.org/dc/dcmitype/StillImage"/>
    <dc:date>2025-06-03T15:10:03.594445</dc:date>
    <dc:format>image/svg+xml</dc:format>
    <dc:creator>
     <cc:Agent>
      <dc:title>Matplotlib v3.9.2, https://matplotlib.org/</dc:title>
     </cc:Agent>
    </dc:creator>
   </cc:Work>
  </rdf:RDF>
 </metadata>
 <defs>
  <style type="text/css">*{stroke-linejoin: round; stroke-linecap: butt}</style>
 </defs>
 <g id="figure_1">
  <g id="patch_1">
   <path d="M 0 345.6 
L 460.8 345.6 
L 460.8 0 
L 0 0 
z
" style="fill: #ffffff"/>
  </g>
  <g id="patch_2">
   <path d="M 103.104 307.584 
L 369.216 307.584 
L 369.216 41.472 
L 103.104 41.472 
z
" style="fill: #ffffff"/>
  </g>
  <g id="pane3d_1">
   <g id="patch_3">
    <path d="M 130.984494 235.910941 
L 243.250587 171.361816 
L 243.463783 46.055771 
L 123.895588 106.261494 
" style="fill: #f2f2f2; opacity: 0.5; stroke: #f2f2f2; stroke-linejoin: miter"/>
   </g>
  </g>
  <g id="pane3d_2">
   <g id="patch_4">
    <path d="M 243.250587 171.361816 
L 348.069021 231.389407 
L 355.096332 102.028823 
L 243.463783 46.055771 
" style="fill: #e6e6e6; opacity: 0.5; stroke: #e6e6e6; stroke-linejoin: miter"/>
   </g>
  </g>
  <g id="pane3d_3">
   <g id="patch_5">
    <path d="M 130.984494 235.910941 
L 235.80117 304.135934 
L 348.069021 231.389407 
L 243.250587 171.361816 
" style="fill: #ececec; opacity: 0.5; stroke: #ececec; stroke-linejoin: miter"/>
   </g>
  </g>
  <g id="grid3d_1">
   <g id="Line3DCollection_1">
    <path d="M 137.265031 239.998931 
L 249.553842 174.971574 
L 250.153869 49.41021 
" style="fill: none; stroke: #b0b0b0; stroke-width: 0.8"/>
    <path d="M 158.135989 253.583802 
L 270.479532 186.955332 
L 272.384756 60.556875 
" style="fill: none; stroke: #b0b0b0; stroke-width: 0.8"/>
    <path d="M 179.540554 267.515996 
L 291.907127 199.226522 
L 295.182342 71.987684 
" style="fill: none; stroke: #b0b0b0; stroke-width: 0.8"/>
    <path d="M 201.499454 281.809006 
L 313.854905 211.795611 
L 318.568574 83.713644 
" style="fill: none; stroke: #b0b0b0; stroke-width: 0.8"/>
    <path d="M 224.034506 296.477033 
L 336.34204 224.67358 
L 342.566551 95.746335 
" style="fill: none; stroke: #b0b0b0; stroke-width: 0.8"/>
   </g>
  </g>
  <g id="grid3d_2">
   <g id="Line3DCollection_2">
    <path d="M 131.971206 102.195209 
L 138.539289 231.567194 
L 243.383071 299.223068 
" style="fill: none; stroke: #b0b0b0; stroke-width: 0.8"/>
    <path d="M 156.197731 89.996517 
L 161.227323 218.522359 
L 266.129032 284.484301 
" style="fill: none; stroke: #b0b0b0; stroke-width: 0.8"/>
    <path d="M 179.802524 78.110885 
L 183.36773 205.79239 
L 288.292074 270.123249 
" style="fill: none; stroke: #b0b0b0; stroke-width: 0.8"/>
    <path d="M 202.809213 66.526414 
L 204.980101 193.366023 
L 309.894324 256.125577 
" style="fill: none; stroke: #b0b0b0; stroke-width: 0.8"/>
    <path d="M 225.240247 55.2318 
L 226.083104 181.232525 
L 330.956798 242.477663 
" style="fill: none; stroke: #b0b0b0; stroke-width: 0.8"/>
   </g>
  </g>
  <g id="grid3d_3">
   <g id="Line3DCollection_3">
    <path d="M 348.489801 223.643573 
L 243.263397 163.833035 
L 130.560135 228.149816 
" style="fill: none; stroke: #b0b0b0; stroke-width: 0.8"/>
    <path d="M 349.842987 198.73376 
L 243.304553 139.643514 
L 129.195346 203.189097 
" style="fill: none; stroke: #b0b0b0; stroke-width: 0.8"/>
    <path d="M 351.230279 173.196131 
L 243.346686 114.879551 
L 127.796009 177.596536 
" style="fill: none; stroke: #b0b0b0; stroke-width: 0.8"/>
    <path d="M 352.652982 147.006647 
L 243.389832 89.520436 
L 126.360796 151.347834 
" style="fill: none; stroke: #b0b0b0; stroke-width: 0.8"/>
    <path d="M 354.112469 120.140028 
L 243.434028 63.544455 
L 124.888309 124.417431 
" style="fill: none; stroke: #b0b0b0; stroke-width: 0.8"/>
   </g>
  </g>
  <g id="axis3d_1">
   <g id="line2d_1">
    <path d="M 130.984494 235.910941 
L 235.80117 304.135934 
" style="fill: none; stroke: #000000; stroke-width: 0.8; stroke-linecap: square"/>
   </g>
   <g id="xtick_1">
    <g id="line2d_2">
     <path d="M 138.220615 239.445545 
L 135.35091 241.107414 
" style="fill: none; stroke: #000000; stroke-width: 0.8; stroke-linecap: square"/>
    </g>
    <g id="text_1">
     <!-- −1.0 -->
     <g transform="translate(115.727664 263.460442) scale(0.1 -0.1)">
      <defs>
       <path id="DejaVuSans-2212" d="M 678 2272 
L 4684 2272 
L 4684 1741 
L 678 1741 
L 678 2272 
z
" transform="scale(0.015625)"/>
       <path id="DejaVuSans-31" d="M 794 531 
L 1825 531 
L 1825 4091 
L 703 3866 
L 703 4441 
L 1819 4666 
L 2450 4666 
L 2450 531 
L 3481 531 
L 3481 0 
L 794 0 
L 794 531 
z
" transform="scale(0.015625)"/>
       <path id="DejaVuSans-2e" d="M 684 794 
L 1344 794 
L 1344 0 
L 684 0 
L 684 794 
z
" transform="scale(0.015625)"/>
       <path id="DejaVuSans-30" d="M 2034 4250 
Q 1547 4250 1301 3770 
Q 1056 3291 1056 2328 
Q 1056 1369 1301 889 
Q 1547 409 2034 409 
Q 2525 409 2770 889 
Q 3016 1369 3016 2328 
Q 3016 3291 2770 3770 
Q 2525 4250 2034 4250 
z
M 2034 4750 
Q 2819 4750 3233 4129 
Q 3647 3509 3647 2328 
Q 3647 1150 3233 529 
Q 2819 -91 2034 -91 
Q 1250 -91 836 529 
Q 422 1150 422 2328 
Q 422 3509 836 4129 
Q 1250 4750 2034 4750 
z
" transform="scale(0.015625)"/>
      </defs>
      <use xlink:href="#DejaVuSans-2212"/>
      <use xlink:href="#DejaVuSans-31" x="83.789062"/>
      <use xlink:href="#DejaVuSans-2e" x="147.412109"/>
      <use xlink:href="#DejaVuSans-30" x="179.199219"/>
     </g>
    </g>
   </g>
   <g id="xtick_2">
    <g id="line2d_3">
     <path d="M 159.092762 253.016361 
L 156.21945 254.720459 
" style="fill: none; stroke: #000000; stroke-width: 0.8; stroke-linecap: square"/>
    </g>
    <g id="text_2">
     <!-- −0.5 -->
     <g transform="translate(136.485059 277.248882) scale(0.1 -0.1)">
      <defs>
       <path id="DejaVuSans-35" d="M 691 4666 
L 3169 4666 
L 3169 4134 
L 1269 4134 
L 1269 2991 
Q 1406 3038 1543 3061 
Q 1681 3084 1819 3084 
Q 2600 3084 3056 2656 
Q 3513 2228 3513 1497 
Q 3513 744 3044 326 
Q 2575 -91 1722 -91 
Q 1428 -91 1123 -41 
Q 819 9 494 109 
L 494 744 
Q 775 591 1075 516 
Q 1375 441 1709 441 
Q 2250 441 2565 725 
Q 2881 1009 2881 1497 
Q 2881 1984 2565 2268 
Q 2250 2553 1709 2553 
Q 1456 2553 1204 2497 
Q 953 2441 691 2322 
L 691 4666 
z
" transform="scale(0.015625)"/>
      </defs>
      <use xlink:href="#DejaVuSans-2212"/>
      <use xlink:href="#DejaVuSans-30" x="83.789062"/>
      <use xlink:href="#DejaVuSans-2e" x="147.412109"/>
      <use xlink:href="#DejaVuSans-35" x="179.199219"/>
     </g>
    </g>
   </g>
   <g id="xtick_3">
    <g id="line2d_4">
     <path d="M 180.498264 266.933959 
L 177.622099 268.681915 
" style="fill: none; stroke: #000000; stroke-width: 0.8; stroke-linecap: square"/>
    </g>
    <g id="text_3">
     <!-- 0.0 -->
     <g transform="translate(161.963131 291.389936) scale(0.1 -0.1)">
      <use xlink:href="#DejaVuSans-30"/>
      <use xlink:href="#DejaVuSans-2e" x="63.623047"/>
      <use xlink:href="#DejaVuSans-30" x="95.410156"/>
     </g>
    </g>
   </g>
   <g id="xtick_4">
    <g id="line2d_5">
     <path d="M 202.45783 281.211802 
L 199.579625 283.005332 
" style="fill: none; stroke: #000000; stroke-width: 0.8; stroke-linecap: square"/>
    </g>
    <g id="text_4">
     <!-- 0.5 -->
     <g transform="translate(183.802818 305.897307) scale(0.1 -0.1)">
      <use xlink:href="#DejaVuSans-30"/>
      <use xlink:href="#DejaVuSans-2e" x="63.623047"/>
      <use xlink:href="#DejaVuSans-35" x="95.410156"/>
     </g>
    </g>
   </g>
   <g id="xtick_5">
    <g id="line2d_6">
     <path d="M 224.993253 295.864061 
L 222.113893 297.70497 
" style="fill: none; stroke: #000000; stroke-width: 0.8; stroke-linecap: square"/>
    </g>
    <g id="text_5">
     <!-- 1.0 -->
     <g transform="translate(206.215674 320.785414) scale(0.1 -0.1)">
      <use xlink:href="#DejaVuSans-31"/>
      <use xlink:href="#DejaVuSans-2e" x="63.623047"/>
      <use xlink:href="#DejaVuSans-30" x="95.410156"/>
     </g>
    </g>
   </g>
   <g id="text_6">
    <!-- x -->
    <g transform="translate(157.859218 307.17017) scale(0.1 -0.1)">
     <defs>
      <path id="DejaVuSans-78" d="M 3513 3500 
L 2247 1797 
L 3578 0 
L 2900 0 
L 1881 1375 
L 863 0 
L 184 0 
L 1544 1831 
L 300 3500 
L 978 3500 
L 1906 2253 
L 2834 3500 
L 3513 3500 
z
" transform="scale(0.015625)"/>
     </defs>
     <use xlink:href="#DejaVuSans-78"/>
    </g>
   </g>
  </g>
  <g id="axis3d_2">
   <g id="line2d_7">
    <path d="M 348.069021 231.389407 
L 235.80117 304.135934 
" style="fill: none; stroke: #000000; stroke-width: 0.8; stroke-linecap: square"/>
   </g>
   <g id="xtick_6">
    <g id="line2d_8">
     <path d="M 242.491631 298.64782 
L 245.168664 300.375314 
" style="fill: none; stroke: #000000; stroke-width: 0.8; stroke-linecap: square"/>
    </g>
    <g id="text_7">
     <!-- −1.0 -->
     <g transform="translate(240.471377 323.143919) scale(0.1 -0.1)">
      <use xlink:href="#DejaVuSans-2212"/>
      <use xlink:href="#DejaVuSans-31" x="83.789062"/>
      <use xlink:href="#DejaVuSans-2e" x="147.412109"/>
      <use xlink:href="#DejaVuSans-30" x="179.199219"/>
     </g>
    </g>
   </g>
   <g id="xtick_7">
    <g id="line2d_9">
     <path d="M 265.237784 283.923886 
L 267.914206 285.606814 
" style="fill: none; stroke: #000000; stroke-width: 0.8; stroke-linecap: square"/>
    </g>
    <g id="text_8">
     <!-- −0.5 -->
     <g transform="translate(263.094868 308.195051) scale(0.1 -0.1)">
      <use xlink:href="#DejaVuSans-2212"/>
      <use xlink:href="#DejaVuSans-30" x="83.789062"/>
      <use xlink:href="#DejaVuSans-2e" x="147.412109"/>
      <use xlink:href="#DejaVuSans-35" x="179.199219"/>
     </g>
    </g>
   </g>
   <g id="xtick_8">
    <g id="line2d_10">
     <path d="M 287.401301 269.577101 
L 290.076264 271.217166 
" style="fill: none; stroke: #000000; stroke-width: 0.8; stroke-linecap: square"/>
    </g>
    <g id="text_9">
     <!-- 0.0 -->
     <g transform="translate(289.328491 293.629238) scale(0.1 -0.1)">
      <use xlink:href="#DejaVuSans-30"/>
      <use xlink:href="#DejaVuSans-2e" x="63.623047"/>
      <use xlink:href="#DejaVuSans-30" x="95.410156"/>
     </g>
    </g>
   </g>
   <g id="xtick_9">
    <g id="line2d_11">
     <path d="M 309.004286 255.593157 
L 311.677007 257.191975 
" style="fill: none; stroke: #000000; stroke-width: 0.8; stroke-linecap: square"/>
    </g>
    <g id="text_10">
     <!-- 0.5 -->
     <g transform="translate(310.814558 279.431942) scale(0.1 -0.1)">
      <use xlink:href="#DejaVuSans-30"/>
      <use xlink:href="#DejaVuSans-2e" x="63.623047"/>
      <use xlink:href="#DejaVuSans-35" x="95.410156"/>
     </g>
    </g>
   </g>
   <g id="xtick_10">
    <g id="line2d_12">
     <path d="M 330.067737 241.958461 
L 332.737492 243.51757 
" style="fill: none; stroke: #000000; stroke-width: 0.8; stroke-linecap: square"/>
    </g>
    <g id="text_11">
     <!-- 1.0 -->
     <g transform="translate(331.763814 265.589354) scale(0.1 -0.1)">
      <use xlink:href="#DejaVuSans-31"/>
      <use xlink:href="#DejaVuSans-2e" x="63.623047"/>
      <use xlink:href="#DejaVuSans-30" x="95.410156"/>
     </g>
    </g>
   </g>
   <g id="text_12">
    <!-- y -->
    <g transform="translate(310.297289 303.790315) scale(0.1 -0.1)">
     <defs>
      <path id="DejaVuSans-79" d="M 2059 -325 
Q 1816 -950 1584 -1140 
Q 1353 -1331 966 -1331 
L 506 -1331 
L 506 -850 
L 844 -850 
Q 1081 -850 1212 -737 
Q 1344 -625 1503 -206 
L 1606 56 
L 191 3500 
L 800 3500 
L 1894 763 
L 2988 3500 
L 3597 3500 
L 2059 -325 
z
" transform="scale(0.015625)"/>
     </defs>
     <use xlink:href="#DejaVuSans-79"/>
    </g>
   </g>
  </g>
  <g id="axis3d_3">
   <g id="line2d_13">
    <path d="M 348.069021 231.389407 
L 355.096332 102.028823 
" style="fill: none; stroke: #000000; stroke-width: 0.8; stroke-linecap: square"/>
   </g>
   <g id="xtick_11">
    <g id="line2d_14">
     <path d="M 347.598073 223.136716 
L 350.27582 224.658744 
" style="fill: none; stroke: #000000; stroke-width: 0.8; stroke-linecap: square"/>
    </g>
    <g id="text_13">
     <!-- −1.0 -->
     <g transform="translate(354.347709 230.86983) scale(0.1 -0.1)">
      <use xlink:href="#DejaVuSans-2212"/>
      <use xlink:href="#DejaVuSans-31" x="83.789062"/>
      <use xlink:href="#DejaVuSans-2e" x="147.412109"/>
      <use xlink:href="#DejaVuSans-30" x="179.199219"/>
     </g>
    </g>
   </g>
   <g id="xtick_12">
    <g id="line2d_15">
     <path d="M 348.939512 198.232658 
L 351.652567 199.737421 
" style="fill: none; stroke: #000000; stroke-width: 0.8; stroke-linecap: square"/>
    </g>
    <g id="text_14">
     <!-- −0.5 -->
     <g transform="translate(355.924335 205.964242) scale(0.1 -0.1)">
      <use xlink:href="#DejaVuSans-2212"/>
      <use xlink:href="#DejaVuSans-30" x="83.789062"/>
      <use xlink:href="#DejaVuSans-2e" x="147.412109"/>
      <use xlink:href="#DejaVuSans-35" x="179.199219"/>
     </g>
    </g>
   </g>
   <g id="xtick_13">
    <g id="line2d_16">
     <path d="M 350.314744 172.701237 
L 353.064047 174.187376 
" style="fill: none; stroke: #000000; stroke-width: 0.8; stroke-linecap: square"/>
    </g>
    <g id="text_15">
     <!-- 0.0 -->
     <g transform="translate(361.730528 180.431171) scale(0.1 -0.1)">
      <use xlink:href="#DejaVuSans-30"/>
      <use xlink:href="#DejaVuSans-2e" x="63.623047"/>
      <use xlink:href="#DejaVuSans-30" x="95.410156"/>
     </g>
    </g>
   </g>
   <g id="xtick_14">
    <g id="line2d_17">
     <path d="M 351.725061 146.518443 
L 354.511592 147.98451 
" style="fill: none; stroke: #000000; stroke-width: 0.8; stroke-linecap: square"/>
    </g>
    <g id="text_16">
     <!-- 0.5 -->
     <g transform="translate(363.38812 154.246599) scale(0.1 -0.1)">
      <use xlink:href="#DejaVuSans-30"/>
      <use xlink:href="#DejaVuSans-2e" x="63.623047"/>
      <use xlink:href="#DejaVuSans-35" x="95.410156"/>
     </g>
    </g>
   </g>
   <g id="xtick_15">
    <g id="line2d_18">
     <path d="M 353.171825 119.659028 
L 355.996601 121.103481 
" style="fill: none; stroke: #000000; stroke-width: 0.8; stroke-linecap: square"/>
    </g>
    <g id="text_17">
     <!-- 1.0 -->
     <g transform="translate(365.088553 127.385269) scale(0.1 -0.1)">
      <use xlink:href="#DejaVuSans-31"/>
      <use xlink:href="#DejaVuSans-2e" x="63.623047"/>
      <use xlink:href="#DejaVuSans-30" x="95.410156"/>
     </g>
    </g>
   </g>
   <g id="text_18">
    <!-- z -->
    <g transform="translate(389.03053 170.712901) scale(0.1 -0.1)">
     <defs>
      <path id="DejaVuSans-7a" d="M 353 3500 
L 3084 3500 
L 3084 2975 
L 922 459 
L 3084 459 
L 3084 0 
L 275 0 
L 275 525 
L 2438 3041 
L 353 3041 
L 353 3500 
z
" transform="scale(0.015625)"/>
     </defs>
     <use xlink:href="#DejaVuSans-7a"/>
    </g>
   </g>
  </g>
  <g id="axes_1">
   <g id="line2d_19">
    <path d="M 231.590148 124.142125 
L 231.636631 126.063156 
L 231.807707 128.130402 
L 232.103321 130.335808 
L 232.522849 132.670604 
L 233.065089 135.125334 
L 233.728256 137.689895 
L 234.509982 140.353583 
L 235.407321 143.105136 
L 236.416755 145.932792 
L 237.534206 148.824344 
L 238.755053 151.767207 
L 240.074153 154.74848 
L 241.485863 157.755017 
L 242.984068 160.773502 
L 244.562216 163.79052 
L 246.21335 166.792637 
L 247.930148 169.766472 
L 249.704965 172.698777 
L 251.529873 175.576512 
L 253.396713 178.386916 
L 255.297135 181.117585 
L 257.22265 183.756534 
L 259.16468 186.292266 
L 261.114604 188.713834 
L 263.063807 191.010895 
L 265.003728 193.17376 
L 266.92591 195.193445 
L 268.822038 197.061705 
L 270.683988 198.771071 
L 272.503864 200.31488 
L 274.274037 201.687291 
L 275.98718 202.883308 
L 277.6363 203.898784 
L 279.214767 204.730428 
L 280.716339 205.375802 
L 282.135185 205.833318 
L 283.465903 206.102223 
L 284.703537 206.182584 
L 285.843588 206.07527 
L 286.882023 205.781927 
L 287.815284 205.30495 
L 288.640287 204.647458 
L 289.35443 203.813259 
L 289.955584 202.806817 
L 290.442093 201.633217 
L 290.81277 200.298131 
L 291.066886 198.807778 
L 291.204164 197.168889 
L 291.224765 195.38867 
L 291.129283 193.474761 
L 290.918724 191.435205 
L 290.594501 189.278407 
L 290.158414 187.013103 
L 289.612642 184.648318 
L 288.95972 182.193341 
L 288.202534 179.657685 
L 287.344298 177.051061 
L 286.388543 174.383342 
L 285.339103 171.664537 
L 284.200098 168.904761 
L 282.975921 166.114207 
L 281.67122 163.303118 
L 280.290891 160.481764 
L 278.840058 157.660412 
L 277.324057 154.849305 
L 275.748431 152.058634 
L 274.118907 149.298515 
L 272.441387 146.578966 
L 270.721931 143.909881 
L 268.966747 141.301006 
L 267.182172 138.761917 
L 265.374659 136.301991 
L 263.550765 133.930385 
L 261.717129 131.65601 
L 259.880461 129.487502 
L 258.047523 127.4332 
L 256.225114 125.501115 
L 254.420046 123.698907 
L 252.639132 122.033852 
L 250.889161 120.512815 
L 249.176878 119.142224 
L 247.508964 117.928036 
L 245.89201 116.875712 
L 244.332498 115.990181 
L 242.836769 115.27582 
L 241.411004 114.736414 
L 240.061196 114.375138 
L 238.793121 114.19452 
L 237.612309 114.196422 
L 236.524022 114.382011 
L 235.53322 114.751736 
L 234.644533 115.305311 
L 233.862236 116.041692 
L 233.190218 116.959063 
L 232.631957 118.054828 
L 232.19049 119.325598 
L 231.868392 120.767188 
L 231.667752 122.374619 
L 231.590148 124.142125 
" clip-path="url(#p981f616874)" style="fill: none; stroke-dasharray: 1.5,2.475; stroke-dashoffset: 0; stroke: #ff0000; stroke-width: 1.5"/>
   </g>
   <g id="line2d_20">
    <path d="M 171.384903 159.891268 
L 171.31881 161.845929 
L 171.379372 163.941702 
L 171.567007 166.170378 
L 171.881558 168.523058 
L 172.322282 170.990183 
L 172.887843 173.561578 
L 173.576311 176.226489 
L 174.38516 178.973637 
L 175.311275 181.79127 
L 176.350963 184.667223 
L 177.499964 187.588978 
L 178.75347 190.543733 
L 180.106147 193.518467 
L 181.552162 196.500018 
L 183.085212 199.475151 
L 184.698557 202.430634 
L 186.385059 205.353314 
L 188.137219 208.230194 
L 189.947221 211.048502 
L 191.806979 213.795766 
L 193.708181 216.459883 
L 195.642335 219.029188 
L 197.600824 221.492513 
L 199.574947 223.839249 
L 201.555975 226.059398 
L 203.535198 228.143625 
L 205.503968 230.083299 
L 207.453751 231.870531 
L 209.376168 233.498209 
L 211.263038 234.960019 
L 213.106419 236.250469 
L 214.898641 237.364905 
L 216.632346 238.299512 
L 218.300515 239.051326 
L 219.896497 239.618223 
L 221.414034 239.998919 
L 222.847284 240.192952 
L 224.190834 240.200667 
L 225.43972 240.023198 
L 226.589439 239.662441 
L 227.635952 239.121029 
L 228.575698 238.402301 
L 229.40559 237.510269 
L 230.12302 236.449589 
L 230.725857 235.225522 
L 231.212442 233.843897 
L 231.581584 232.311078 
L 231.83255 230.633925 
L 231.965061 228.819755 
L 231.979277 226.87631 
L 231.87579 224.811714 
L 231.655609 222.63444 
L 231.320149 220.353278 
L 230.871219 217.977293 
L 230.311006 215.515799 
L 229.64206 212.978319 
L 228.867284 210.37456 
L 227.989918 207.714379 
L 227.013521 205.007754 
L 225.941964 202.264756 
L 224.779408 199.495518 
L 223.530296 196.710214 
L 222.199336 193.919027 
L 220.791486 191.132127 
L 219.311945 188.359644 
L 217.766134 185.611646 
L 216.159682 182.898111 
L 214.498418 180.228906 
L 212.788351 177.61376 
L 211.035658 175.062244 
L 209.246671 172.583743 
L 207.42786 170.187433 
L 205.585818 167.882257 
L 203.727246 165.676899 
L 201.858938 163.579757 
L 199.987763 161.598921 
L 198.120645 159.74214 
L 196.264549 158.016804 
L 194.426458 156.429906 
L 192.613355 154.988023 
L 190.832201 153.697283 
L 189.089912 152.563336 
L 187.393337 151.591329 
L 185.749233 150.785875 
L 184.164241 150.151023 
L 182.644858 149.690234 
L 181.19741 149.406353 
L 179.828028 149.301578 
L 178.542614 149.377444 
L 177.346816 149.63479 
L 176.245994 150.073746 
L 175.245198 150.693709 
L 174.349132 151.493327 
L 173.562126 152.470487 
L 172.888108 153.622307 
L 172.330578 154.945124 
L 171.892578 156.434497 
L 171.576668 158.085209 
L 171.384903 159.891268 
" clip-path="url(#p981f616874)" style="fill: none; stroke-dasharray: 1.5,2.475; stroke-dashoffset: 0; stroke: #ff0000; stroke-width: 1.5"/>
   </g>
   <g id="Path3DCollection_1">
    <defs>
     <path id="m61db03c810" d="M -2.236068 2.236068 
L 2.236068 -2.236068 
M -2.236068 -2.236068 
L 2.236068 2.236068 
" style="stroke: #000000; stroke-width: 1.5"/>
    </defs>
    <g clip-path="url(#p981f616874)">
     <use xlink:href="#m61db03c810" x="231.793559" y="177.315367" style="stroke: #000000; stroke-width: 1.5"/>
    </g>
   </g>
   <g id="Path3DCollection_2">
    <defs>
     <path id="C0_0_fb24dca910" d="M 0 -2.236068 
L -0.502029 -0.690983 
L -2.126627 -0.690983 
L -0.812299 0.263932 
L -1.314328 1.809017 
L -0 0.854102 
L 1.314328 1.809017 
L 0.812299 0.263932 
L 2.126627 -0.690983 
L 0.502029 -0.690983 
z
"/>
    </defs>
    <g clip-path="url(#p981f616874)">
     <use xlink:href="#C0_0_fb24dca910" x="275.750029" y="152.057711" style="fill: #ff0000; fill-opacity: 0.3; stroke: #ff0000; stroke-opacity: 0.3; stroke-width: 4"/>
    </g>
    <g clip-path="url(#p981f616874)">
     <use xlink:href="#C0_0_fb24dca910" x="231.586824" y="124.144093" style="fill: #ff0000; fill-opacity: 0.996407; stroke: #ff0000; stroke-opacity: 0.996407; stroke-width: 4"/>
    </g>
    <g clip-path="url(#p981f616874)">
     <use xlink:href="#C0_0_fb24dca910" x="277.637982" y="203.897839" style="fill: #ff0000; stroke: #ff0000; stroke-width: 4"/>
    </g>
   </g>
   <g id="Path3DCollection_3">
    <defs>
     <path id="C1_0_5ad6c3084d" d="M 0 1.118034 
C 0.296506 1.118034 0.580908 1.000231 0.790569 0.790569 
C 1.000231 0.580908 1.118034 0.296506 1.118034 -0 
C 1.118034 -0.296506 1.000231 -0.580908 0.790569 -0.790569 
C 0.580908 -1.000231 0.296506 -1.118034 0 -1.118034 
C -0.296506 -1.118034 -0.580908 -1.000231 -0.790569 -0.790569 
C -1.000231 -0.580908 -1.118034 -0.296506 -1.118034 0 
C -1.118034 0.296506 -1.000231 0.580908 -0.790569 0.790569 
C -0.580908 1.000231 -0.296506 1.118034 0 1.118034 
z
"/>
    </defs>
    <g clip-path="url(#p981f616874)">
     <use xlink:href="#C1_0_5ad6c3084d" x="282.455731" y="152.245469" style="fill: #228b22; fill-opacity: 0.3; stroke: #228b22; stroke-opacity: 0.3"/>
    </g>
    <g clip-path="url(#p981f616874)">
     <use xlink:href="#C1_0_5ad6c3084d" x="280.385029" y="150.947599" style="fill: #228b22; fill-opacity: 0.321447; stroke: #228b22; stroke-opacity: 0.321447"/>
    </g>
    <g clip-path="url(#p981f616874)">
     <use xlink:href="#C1_0_5ad6c3084d" x="281.588098" y="154.47239" style="fill: #228b22; fill-opacity: 0.33309; stroke: #228b22; stroke-opacity: 0.33309"/>
    </g>
    <g clip-path="url(#p981f616874)">
     <use xlink:href="#C1_0_5ad6c3084d" x="283.736967" y="159.988041" style="fill: #228b22; fill-opacity: 0.351054; stroke: #228b22; stroke-opacity: 0.351054"/>
    </g>
    <g clip-path="url(#p981f616874)">
     <use xlink:href="#C1_0_5ad6c3084d" x="274.611357" y="145.50231" style="fill: #228b22; fill-opacity: 0.36244; stroke: #228b22; stroke-opacity: 0.36244"/>
    </g>
    <g clip-path="url(#p981f616874)">
     <use xlink:href="#C1_0_5ad6c3084d" x="273.20514" y="143.26884" style="fill: #228b22; fill-opacity: 0.365437; stroke: #228b22; stroke-opacity: 0.365437"/>
    </g>
    <g clip-path="url(#p981f616874)">
     <use xlink:href="#C1_0_5ad6c3084d" x="267.242592" y="133.58634" style="fill: #228b22; fill-opacity: 0.36924; stroke: #228b22; stroke-opacity: 0.36924"/>
    </g>
    <g clip-path="url(#p981f616874)">
     <use xlink:href="#C1_0_5ad6c3084d" x="286.754044" y="167.282941" style="fill: #228b22; fill-opacity: 0.37237; stroke: #228b22; stroke-opacity: 0.37237"/>
    </g>
    <g clip-path="url(#p981f616874)">
     <use xlink:href="#C1_0_5ad6c3084d" x="275.732221" y="149.251055" style="fill: #228b22; fill-opacity: 0.379657; stroke: #228b22; stroke-opacity: 0.379657"/>
    </g>
    <g clip-path="url(#p981f616874)">
     <use xlink:href="#C1_0_5ad6c3084d" x="288.694594" y="171.930318" style="fill: #228b22; fill-opacity: 0.382006; stroke: #228b22; stroke-opacity: 0.382006"/>
    </g>
    <g clip-path="url(#p981f616874)">
     <use xlink:href="#C1_0_5ad6c3084d" x="267.311899" y="137.049835" style="fill: #228b22; fill-opacity: 0.399578; stroke: #228b22; stroke-opacity: 0.399578"/>
    </g>
    <g clip-path="url(#p981f616874)">
     <use xlink:href="#C1_0_5ad6c3084d" x="265.382689" y="134.317615" style="fill: #228b22; fill-opacity: 0.405367; stroke: #228b22; stroke-opacity: 0.405367"/>
    </g>
    <g clip-path="url(#p981f616874)">
     <use xlink:href="#C1_0_5ad6c3084d" x="279.729205" y="158.957911" style="fill: #228b22; fill-opacity: 0.4054; stroke: #228b22; stroke-opacity: 0.4054"/>
    </g>
    <g clip-path="url(#p981f616874)">
     <use xlink:href="#C1_0_5ad6c3084d" x="264.813834" y="134.65633" style="fill: #228b22; fill-opacity: 0.416735; stroke: #228b22; stroke-opacity: 0.416735"/>
    </g>
    <g clip-path="url(#p981f616874)">
     <use xlink:href="#C1_0_5ad6c3084d" x="280.371578" y="162.431723" style="fill: #228b22; fill-opacity: 0.425826; stroke: #228b22; stroke-opacity: 0.425826"/>
    </g>
    <g clip-path="url(#p981f616874)">
     <use xlink:href="#C1_0_5ad6c3084d" x="285.003452" y="170.753527" style="fill: #228b22; fill-opacity: 0.430716; stroke: #228b22; stroke-opacity: 0.430716"/>
    </g>
    <g clip-path="url(#p981f616874)">
     <use xlink:href="#C1_0_5ad6c3084d" x="286.688666" y="174.333124" style="fill: #228b22; fill-opacity: 0.43577; stroke: #228b22; stroke-opacity: 0.43577"/>
    </g>
    <g clip-path="url(#p981f616874)">
     <use xlink:href="#C1_0_5ad6c3084d" x="254.755539" y="122.448076" style="fill: #228b22; fill-opacity: 0.46474; stroke: #228b22; stroke-opacity: 0.46474"/>
    </g>
    <g clip-path="url(#p981f616874)">
     <use xlink:href="#C1_0_5ad6c3084d" x="291.615684" y="186.745882" style="fill: #228b22; fill-opacity: 0.471056; stroke: #228b22; stroke-opacity: 0.471056"/>
    </g>
    <g clip-path="url(#p981f616874)">
     <use xlink:href="#C1_0_5ad6c3084d" x="287.040589" y="179.438104" style="fill: #228b22; fill-opacity: 0.475087; stroke: #228b22; stroke-opacity: 0.475087"/>
    </g>
    <g clip-path="url(#p981f616874)">
     <use xlink:href="#C1_0_5ad6c3084d" x="279.558685" y="167.783701" style="fill: #228b22; fill-opacity: 0.487227; stroke: #228b22; stroke-opacity: 0.487227"/>
    </g>
    <g clip-path="url(#p981f616874)">
     <use xlink:href="#C1_0_5ad6c3084d" x="285.995232" y="179.354026" style="fill: #228b22; fill-opacity: 0.491644; stroke: #228b22; stroke-opacity: 0.491644"/>
    </g>
    <g clip-path="url(#p981f616874)">
     <use xlink:href="#C1_0_5ad6c3084d" x="291.434045" y="192.466115" style="fill: #228b22; fill-opacity: 0.525123; stroke: #228b22; stroke-opacity: 0.525123"/>
    </g>
    <g clip-path="url(#p981f616874)">
     <use xlink:href="#C1_0_5ad6c3084d" x="266.60213" y="150.803957" style="fill: #228b22; fill-opacity: 0.535904; stroke: #228b22; stroke-opacity: 0.535904"/>
    </g>
    <g clip-path="url(#p981f616874)">
     <use xlink:href="#C1_0_5ad6c3084d" x="279.934367" y="177.64415" style="fill: #228b22; fill-opacity: 0.573553; stroke: #228b22; stroke-opacity: 0.573553"/>
    </g>
    <g clip-path="url(#p981f616874)">
     <use xlink:href="#C1_0_5ad6c3084d" x="288.846134" y="193.732551" style="fill: #228b22; fill-opacity: 0.579254; stroke: #228b22; stroke-opacity: 0.579254"/>
    </g>
    <g clip-path="url(#p981f616874)">
     <use xlink:href="#C1_0_5ad6c3084d" x="277.714293" y="175.845128" style="fill: #228b22; fill-opacity: 0.591243; stroke: #228b22; stroke-opacity: 0.591243"/>
    </g>
    <g clip-path="url(#p981f616874)">
     <use xlink:href="#C1_0_5ad6c3084d" x="245.981891" y="122.199983" style="fill: #228b22; fill-opacity: 0.601085; stroke: #228b22; stroke-opacity: 0.601085"/>
    </g>
    <g clip-path="url(#p981f616874)">
     <use xlink:href="#C1_0_5ad6c3084d" x="236.304347" y="108.667282" style="fill: #228b22; fill-opacity: 0.630839; stroke: #228b22; stroke-opacity: 0.630839"/>
    </g>
    <g clip-path="url(#p981f616874)">
     <use xlink:href="#C1_0_5ad6c3084d" x="291.534364" y="204.400288" style="fill: #228b22; fill-opacity: 0.634229; stroke: #228b22; stroke-opacity: 0.634229"/>
    </g>
    <g clip-path="url(#p981f616874)">
     <use xlink:href="#C1_0_5ad6c3084d" x="292.73708" y="206.730177" style="fill: #228b22; fill-opacity: 0.636179; stroke: #228b22; stroke-opacity: 0.636179"/>
    </g>
    <g clip-path="url(#p981f616874)">
     <use xlink:href="#C1_0_5ad6c3084d" x="291.641" y="206.087192" style="fill: #228b22; fill-opacity: 0.647624; stroke: #228b22; stroke-opacity: 0.647624"/>
    </g>
    <g clip-path="url(#p981f616874)">
     <use xlink:href="#C1_0_5ad6c3084d" x="262.242055" y="155.56609" style="fill: #228b22; fill-opacity: 0.650775; stroke: #228b22; stroke-opacity: 0.650775"/>
    </g>
    <g clip-path="url(#p981f616874)">
     <use xlink:href="#C1_0_5ad6c3084d" x="286.434549" y="198.855568" style="fill: #228b22; fill-opacity: 0.663639; stroke: #228b22; stroke-opacity: 0.663639"/>
    </g>
    <g clip-path="url(#p981f616874)">
     <use xlink:href="#C1_0_5ad6c3084d" x="253.837309" y="148.336081" style="fill: #228b22; fill-opacity: 0.718118; stroke: #228b22; stroke-opacity: 0.718118"/>
    </g>
    <g clip-path="url(#p981f616874)">
     <use xlink:href="#C1_0_5ad6c3084d" x="230.574796" y="111.531684" style="fill: #228b22; fill-opacity: 0.747566; stroke: #228b22; stroke-opacity: 0.747566"/>
    </g>
    <g clip-path="url(#p981f616874)">
     <use xlink:href="#C1_0_5ad6c3084d" x="279.666502" y="197.677074" style="fill: #228b22; fill-opacity: 0.759018; stroke: #228b22; stroke-opacity: 0.759018"/>
    </g>
    <g clip-path="url(#p981f616874)">
     <use xlink:href="#C1_0_5ad6c3084d" x="232.519225" y="117.114408" style="fill: #228b22; fill-opacity: 0.767842; stroke: #228b22; stroke-opacity: 0.767842"/>
    </g>
    <g clip-path="url(#p981f616874)">
     <use xlink:href="#C1_0_5ad6c3084d" x="224.775648" y="104.462761" style="fill: #228b22; fill-opacity: 0.774319; stroke: #228b22; stroke-opacity: 0.774319"/>
    </g>
    <g clip-path="url(#p981f616874)">
     <use xlink:href="#C1_0_5ad6c3084d" x="228.569122" y="112.780131" style="fill: #228b22; fill-opacity: 0.79091; stroke: #228b22; stroke-opacity: 0.79091"/>
    </g>
    <g clip-path="url(#p981f616874)">
     <use xlink:href="#C1_0_5ad6c3084d" x="279.886594" y="203.342156" style="fill: #228b22; fill-opacity: 0.808186; stroke: #228b22; stroke-opacity: 0.808186"/>
    </g>
    <g clip-path="url(#p981f616874)">
     <use xlink:href="#C1_0_5ad6c3084d" x="229.865219" y="117.12157" style="fill: #228b22; fill-opacity: 0.809702; stroke: #228b22; stroke-opacity: 0.809702"/>
    </g>
    <g clip-path="url(#p981f616874)">
     <use xlink:href="#C1_0_5ad6c3084d" x="283.437322" y="209.690392" style="fill: #228b22; fill-opacity: 0.810136; stroke: #228b22; stroke-opacity: 0.810136"/>
    </g>
    <g clip-path="url(#p981f616874)">
     <use xlink:href="#C1_0_5ad6c3084d" x="279.98736" y="204.137321" style="fill: #228b22; fill-opacity: 0.813462; stroke: #228b22; stroke-opacity: 0.813462"/>
    </g>
    <g clip-path="url(#p981f616874)">
     <use xlink:href="#C1_0_5ad6c3084d" x="269.506892" y="188.101471" style="fill: #228b22; fill-opacity: 0.832801; stroke: #228b22; stroke-opacity: 0.832801"/>
    </g>
    <g clip-path="url(#p981f616874)">
     <use xlink:href="#C1_0_5ad6c3084d" x="268.919961" y="189.001307" style="fill: #228b22; fill-opacity: 0.850295; stroke: #228b22; stroke-opacity: 0.850295"/>
    </g>
    <g clip-path="url(#p981f616874)">
     <use xlink:href="#C1_0_5ad6c3084d" x="279.208138" y="207.634336" style="fill: #228b22; fill-opacity: 0.859174; stroke: #228b22; stroke-opacity: 0.859174"/>
    </g>
    <g clip-path="url(#p981f616874)">
     <use xlink:href="#C1_0_5ad6c3084d" x="224.719722" y="113.71653" style="fill: #228b22; fill-opacity: 0.860136; stroke: #228b22; stroke-opacity: 0.860136"/>
    </g>
    <g clip-path="url(#p981f616874)">
     <use xlink:href="#C1_0_5ad6c3084d" x="281.006945" y="211.341948" style="fill: #228b22; fill-opacity: 0.86307; stroke: #228b22; stroke-opacity: 0.86307"/>
    </g>
    <g clip-path="url(#p981f616874)">
     <use xlink:href="#C1_0_5ad6c3084d" x="223.643082" y="112.330821" style="fill: #228b22; fill-opacity: 0.863409; stroke: #228b22; stroke-opacity: 0.863409"/>
    </g>
    <g clip-path="url(#p981f616874)">
     <use xlink:href="#C1_0_5ad6c3084d" x="276.431661" y="203.807837" style="fill: #228b22; fill-opacity: 0.867458; stroke: #228b22; stroke-opacity: 0.867458"/>
    </g>
    <g clip-path="url(#p981f616874)">
     <use xlink:href="#C1_0_5ad6c3084d" x="272.024707" y="196.290682" style="fill: #228b22; fill-opacity: 0.867733; stroke: #228b22; stroke-opacity: 0.867733"/>
    </g>
    <g clip-path="url(#p981f616874)">
     <use xlink:href="#C1_0_5ad6c3084d" x="226.788669" y="118.59431" style="fill: #228b22; fill-opacity: 0.870949; stroke: #228b22; stroke-opacity: 0.870949"/>
    </g>
    <g clip-path="url(#p981f616874)">
     <use xlink:href="#C1_0_5ad6c3084d" x="229.21585" y="122.987359" style="fill: #228b22; fill-opacity: 0.873073; stroke: #228b22; stroke-opacity: 0.873073"/>
    </g>
    <g clip-path="url(#p981f616874)">
     <use xlink:href="#C1_0_5ad6c3084d" x="277.376345" y="206.653943" style="fill: #228b22; fill-opacity: 0.876144; stroke: #228b22; stroke-opacity: 0.876144"/>
    </g>
    <g clip-path="url(#p981f616874)">
     <use xlink:href="#C1_0_5ad6c3084d" x="238.462055" y="140.175873" style="fill: #228b22; fill-opacity: 0.883255; stroke: #228b22; stroke-opacity: 0.883255"/>
    </g>
    <g clip-path="url(#p981f616874)">
     <use xlink:href="#C1_0_5ad6c3084d" x="273.821161" y="201.388452" style="fill: #228b22; fill-opacity: 0.886753; stroke: #228b22; stroke-opacity: 0.886753"/>
    </g>
    <g clip-path="url(#p981f616874)">
     <use xlink:href="#C1_0_5ad6c3084d" x="226.333957" y="120.922569" style="fill: #228b22; fill-opacity: 0.900327; stroke: #228b22; stroke-opacity: 0.900327"/>
    </g>
    <g clip-path="url(#p981f616874)">
     <use xlink:href="#C1_0_5ad6c3084d" x="275.673122" y="206.785189" style="fill: #228b22; fill-opacity: 0.906168; stroke: #228b22; stroke-opacity: 0.906168"/>
    </g>
    <g clip-path="url(#p981f616874)">
     <use xlink:href="#C1_0_5ad6c3084d" x="270.787555" y="198.773261" style="fill: #228b22; fill-opacity: 0.908747; stroke: #228b22; stroke-opacity: 0.908747"/>
    </g>
    <g clip-path="url(#p981f616874)">
     <use xlink:href="#C1_0_5ad6c3084d" x="230.142609" y="129.525123" style="fill: #228b22; fill-opacity: 0.918481; stroke: #228b22; stroke-opacity: 0.918481"/>
    </g>
    <g clip-path="url(#p981f616874)">
     <use xlink:href="#C1_0_5ad6c3084d" x="228.049246" y="126.419231" style="fill: #228b22; fill-opacity: 0.921509; stroke: #228b22; stroke-opacity: 0.921509"/>
    </g>
    <g clip-path="url(#p981f616874)">
     <use xlink:href="#C1_0_5ad6c3084d" x="270.426881" y="202.849545" style="fill: #228b22; fill-opacity: 0.951373; stroke: #228b22; stroke-opacity: 0.951373"/>
    </g>
    <g clip-path="url(#p981f616874)">
     <use xlink:href="#C1_0_5ad6c3084d" x="252.10114" y="176.319049" style="fill: #228b22; stroke: #228b22"/>
    </g>
   </g>
   <g id="legend_1">
    <g id="patch_6">
     <path d="M 240.144125 108.1845 
L 362.216 108.1845 
Q 364.216 108.1845 364.216 106.1845 
L 364.216 48.472 
Q 364.216 46.472 362.216 46.472 
L 240.144125 46.472 
Q 238.144125 46.472 238.144125 48.472 
L 238.144125 106.1845 
Q 238.144125 108.1845 240.144125 108.1845 
z
" style="fill: #ffffff; opacity: 0.8; stroke: #cccccc; stroke-linejoin: miter"/>
    </g>
    <g id="Path3DCollection_4">
     <g>
      <use xlink:href="#m61db03c810" x="252.144125" y="55.445438" style="stroke: #000000; stroke-width: 1.5"/>
     </g>
    </g>
    <g id="text_19">
     <!-- Origin -->
     <g transform="translate(270.144125 58.070438) scale(0.1 -0.1)">
      <defs>
       <path id="DejaVuSans-4f" d="M 2522 4238 
Q 1834 4238 1429 3725 
Q 1025 3213 1025 2328 
Q 1025 1447 1429 934 
Q 1834 422 2522 422 
Q 3209 422 3611 934 
Q 4013 1447 4013 2328 
Q 4013 3213 3611 3725 
Q 3209 4238 2522 4238 
z
M 2522 4750 
Q 3503 4750 4090 4092 
Q 4678 3434 4678 2328 
Q 4678 1225 4090 567 
Q 3503 -91 2522 -91 
Q 1538 -91 948 565 
Q 359 1222 359 2328 
Q 359 3434 948 4092 
Q 1538 4750 2522 4750 
z
" transform="scale(0.015625)"/>
       <path id="DejaVuSans-72" d="M 2631 2963 
Q 2534 3019 2420 3045 
Q 2306 3072 2169 3072 
Q 1681 3072 1420 2755 
Q 1159 2438 1159 1844 
L 1159 0 
L 581 0 
L 581 3500 
L 1159 3500 
L 1159 2956 
Q 1341 3275 1631 3429 
Q 1922 3584 2338 3584 
Q 2397 3584 2469 3576 
Q 2541 3569 2628 3553 
L 2631 2963 
z
" transform="scale(0.015625)"/>
       <path id="DejaVuSans-69" d="M 603 3500 
L 1178 3500 
L 1178 0 
L 603 0 
L 603 3500 
z
M 603 4863 
L 1178 4863 
L 1178 4134 
L 603 4134 
L 603 4863 
z
" transform="scale(0.015625)"/>
       <path id="DejaVuSans-67" d="M 2906 1791 
Q 2906 2416 2648 2759 
Q 2391 3103 1925 3103 
Q 1463 3103 1205 2759 
Q 947 2416 947 1791 
Q 947 1169 1205 825 
Q 1463 481 1925 481 
Q 2391 481 2648 825 
Q 2906 1169 2906 1791 
z
M 3481 434 
Q 3481 -459 3084 -895 
Q 2688 -1331 1869 -1331 
Q 1566 -1331 1297 -1286 
Q 1028 -1241 775 -1147 
L 775 -588 
Q 1028 -725 1275 -790 
Q 1522 -856 1778 -856 
Q 2344 -856 2625 -561 
Q 2906 -266 2906 331 
L 2906 616 
Q 2728 306 2450 153 
Q 2172 0 1784 0 
Q 1141 0 747 490 
Q 353 981 353 1791 
Q 353 2603 747 3093 
Q 1141 3584 1784 3584 
Q 2172 3584 2450 3431 
Q 2728 3278 2906 2969 
L 2906 3500 
L 3481 3500 
L 3481 434 
z
" transform="scale(0.015625)"/>
       <path id="DejaVuSans-6e" d="M 3513 2113 
L 3513 0 
L 2938 0 
L 2938 2094 
Q 2938 2591 2744 2837 
Q 2550 3084 2163 3084 
Q 1697 3084 1428 2787 
Q 1159 2491 1159 1978 
L 1159 0 
L 581 0 
L 581 3500 
L 1159 3500 
L 1159 2956 
Q 1366 3272 1645 3428 
Q 1925 3584 2291 3584 
Q 2894 3584 3203 3211 
Q 3513 2838 3513 2113 
z
" transform="scale(0.015625)"/>
      </defs>
      <use xlink:href="#DejaVuSans-4f"/>
      <use xlink:href="#DejaVuSans-72" x="78.710938"/>
      <use xlink:href="#DejaVuSans-69" x="119.824219"/>
      <use xlink:href="#DejaVuSans-67" x="147.607422"/>
      <use xlink:href="#DejaVuSans-69" x="211.083984"/>
      <use xlink:href="#DejaVuSans-6e" x="238.867188"/>
     </g>
    </g>
    <g id="Path3DCollection_5">
     <defs>
      <path id="md61cf9cd4a" d="M 0 1.118034 
C 0.296506 1.118034 0.580908 1.000231 0.790569 0.790569 
C 1.000231 0.580908 1.118034 0.296506 1.118034 0 
C 1.118034 -0.296506 1.000231 -0.580908 0.790569 -0.790569 
C 0.580908 -1.000231 0.296506 -1.118034 0 -1.118034 
C -0.296506 -1.118034 -0.580908 -1.000231 -0.790569 -0.790569 
C -1.000231 -0.580908 -1.118034 -0.296506 -1.118034 0 
C -1.118034 0.296506 -1.000231 0.580908 -0.790569 0.790569 
C -0.580908 1.000231 -0.296506 1.118034 0 1.118034 
z
" style="stroke: #228b22"/>
     </defs>
     <g>
      <use xlink:href="#md61cf9cd4a" x="252.144125" y="70.123563" style="fill: #228b22; stroke: #228b22"/>
     </g>
    </g>
    <g id="text_20">
     <!-- Posterior Samples -->
     <g transform="translate(270.144125 72.748563) scale(0.1 -0.1)">
      <defs>
       <path id="DejaVuSans-50" d="M 1259 4147 
L 1259 2394 
L 2053 2394 
Q 2494 2394 2734 2622 
Q 2975 2850 2975 3272 
Q 2975 3691 2734 3919 
Q 2494 4147 2053 4147 
L 1259 4147 
z
M 628 4666 
L 2053 4666 
Q 2838 4666 3239 4311 
Q 3641 3956 3641 3272 
Q 3641 2581 3239 2228 
Q 2838 1875 2053 1875 
L 1259 1875 
L 1259 0 
L 628 0 
L 628 4666 
z
" transform="scale(0.015625)"/>
       <path id="DejaVuSans-6f" d="M 1959 3097 
Q 1497 3097 1228 2736 
Q 959 2375 959 1747 
Q 959 1119 1226 758 
Q 1494 397 1959 397 
Q 2419 397 2687 759 
Q 2956 1122 2956 1747 
Q 2956 2369 2687 2733 
Q 2419 3097 1959 3097 
z
M 1959 3584 
Q 2709 3584 3137 3096 
Q 3566 2609 3566 1747 
Q 3566 888 3137 398 
Q 2709 -91 1959 -91 
Q 1206 -91 779 398 
Q 353 888 353 1747 
Q 353 2609 779 3096 
Q 1206 3584 1959 3584 
z
" transform="scale(0.015625)"/>
       <path id="DejaVuSans-73" d="M 2834 3397 
L 2834 2853 
Q 2591 2978 2328 3040 
Q 2066 3103 1784 3103 
Q 1356 3103 1142 2972 
Q 928 2841 928 2578 
Q 928 2378 1081 2264 
Q 1234 2150 1697 2047 
L 1894 2003 
Q 2506 1872 2764 1633 
Q 3022 1394 3022 966 
Q 3022 478 2636 193 
Q 2250 -91 1575 -91 
Q 1294 -91 989 -36 
Q 684 19 347 128 
L 347 722 
Q 666 556 975 473 
Q 1284 391 1588 391 
Q 1994 391 2212 530 
Q 2431 669 2431 922 
Q 2431 1156 2273 1281 
Q 2116 1406 1581 1522 
L 1381 1569 
Q 847 1681 609 1914 
Q 372 2147 372 2553 
Q 372 3047 722 3315 
Q 1072 3584 1716 3584 
Q 2034 3584 2315 3537 
Q 2597 3491 2834 3397 
z
" transform="scale(0.015625)"/>
       <path id="DejaVuSans-74" d="M 1172 4494 
L 1172 3500 
L 2356 3500 
L 2356 3053 
L 1172 3053 
L 1172 1153 
Q 1172 725 1289 603 
Q 1406 481 1766 481 
L 2356 481 
L 2356 0 
L 1766 0 
Q 1100 0 847 248 
Q 594 497 594 1153 
L 594 3053 
L 172 3053 
L 172 3500 
L 594 3500 
L 594 4494 
L 1172 4494 
z
" transform="scale(0.015625)"/>
       <path id="DejaVuSans-65" d="M 3597 1894 
L 3597 1613 
L 953 1613 
Q 991 1019 1311 708 
Q 1631 397 2203 397 
Q 2534 397 2845 478 
Q 3156 559 3463 722 
L 3463 178 
Q 3153 47 2828 -22 
Q 2503 -91 2169 -91 
Q 1331 -91 842 396 
Q 353 884 353 1716 
Q 353 2575 817 3079 
Q 1281 3584 2069 3584 
Q 2775 3584 3186 3129 
Q 3597 2675 3597 1894 
z
M 3022 2063 
Q 3016 2534 2758 2815 
Q 2500 3097 2075 3097 
Q 1594 3097 1305 2825 
Q 1016 2553 972 2059 
L 3022 2063 
z
" transform="scale(0.015625)"/>
       <path id="DejaVuSans-20" transform="scale(0.015625)"/>
       <path id="DejaVuSans-53" d="M 3425 4513 
L 3425 3897 
Q 3066 4069 2747 4153 
Q 2428 4238 2131 4238 
Q 1616 4238 1336 4038 
Q 1056 3838 1056 3469 
Q 1056 3159 1242 3001 
Q 1428 2844 1947 2747 
L 2328 2669 
Q 3034 2534 3370 2195 
Q 3706 1856 3706 1288 
Q 3706 609 3251 259 
Q 2797 -91 1919 -91 
Q 1588 -91 1214 -16 
Q 841 59 441 206 
L 441 856 
Q 825 641 1194 531 
Q 1563 422 1919 422 
Q 2459 422 2753 634 
Q 3047 847 3047 1241 
Q 3047 1584 2836 1778 
Q 2625 1972 2144 2069 
L 1759 2144 
Q 1053 2284 737 2584 
Q 422 2884 422 3419 
Q 422 4038 858 4394 
Q 1294 4750 2059 4750 
Q 2388 4750 2728 4690 
Q 3069 4631 3425 4513 
z
" transform="scale(0.015625)"/>
       <path id="DejaVuSans-61" d="M 2194 1759 
Q 1497 1759 1228 1600 
Q 959 1441 959 1056 
Q 959 750 1161 570 
Q 1363 391 1709 391 
Q 2188 391 2477 730 
Q 2766 1069 2766 1631 
L 2766 1759 
L 2194 1759 
z
M 3341 1997 
L 3341 0 
L 2766 0 
L 2766 531 
Q 2569 213 2275 61 
Q 1981 -91 1556 -91 
Q 1019 -91 701 211 
Q 384 513 384 1019 
Q 384 1609 779 1909 
Q 1175 2209 1959 2209 
L 2766 2209 
L 2766 2266 
Q 2766 2663 2505 2880 
Q 2244 3097 1772 3097 
Q 1472 3097 1187 3025 
Q 903 2953 641 2809 
L 641 3341 
Q 956 3463 1253 3523 
Q 1550 3584 1831 3584 
Q 2591 3584 2966 3190 
Q 3341 2797 3341 1997 
z
" transform="scale(0.015625)"/>
       <path id="DejaVuSans-6d" d="M 3328 2828 
Q 3544 3216 3844 3400 
Q 4144 3584 4550 3584 
Q 5097 3584 5394 3201 
Q 5691 2819 5691 2113 
L 5691 0 
L 5113 0 
L 5113 2094 
Q 5113 2597 4934 2840 
Q 4756 3084 4391 3084 
Q 3944 3084 3684 2787 
Q 3425 2491 3425 1978 
L 3425 0 
L 2847 0 
L 2847 2094 
Q 2847 2600 2669 2842 
Q 2491 3084 2119 3084 
Q 1678 3084 1418 2786 
Q 1159 2488 1159 1978 
L 1159 0 
L 581 0 
L 581 3500 
L 1159 3500 
L 1159 2956 
Q 1356 3278 1631 3431 
Q 1906 3584 2284 3584 
Q 2666 3584 2933 3390 
Q 3200 3197 3328 2828 
z
" transform="scale(0.015625)"/>
       <path id="DejaVuSans-70" d="M 1159 525 
L 1159 -1331 
L 581 -1331 
L 581 3500 
L 1159 3500 
L 1159 2969 
Q 1341 3281 1617 3432 
Q 1894 3584 2278 3584 
Q 2916 3584 3314 3078 
Q 3713 2572 3713 1747 
Q 3713 922 3314 415 
Q 2916 -91 2278 -91 
Q 1894 -91 1617 61 
Q 1341 213 1159 525 
z
M 3116 1747 
Q 3116 2381 2855 2742 
Q 2594 3103 2138 3103 
Q 1681 3103 1420 2742 
Q 1159 2381 1159 1747 
Q 1159 1113 1420 752 
Q 1681 391 2138 391 
Q 2594 391 2855 752 
Q 3116 1113 3116 1747 
z
" transform="scale(0.015625)"/>
       <path id="DejaVuSans-6c" d="M 603 4863 
L 1178 4863 
L 1178 0 
L 603 0 
L 603 4863 
z
" transform="scale(0.015625)"/>
      </defs>
      <use xlink:href="#DejaVuSans-50"/>
      <use xlink:href="#DejaVuSans-6f" x="56.677734"/>
      <use xlink:href="#DejaVuSans-73" x="117.859375"/>
      <use xlink:href="#DejaVuSans-74" x="169.958984"/>
      <use xlink:href="#DejaVuSans-65" x="209.167969"/>
      <use xlink:href="#DejaVuSans-72" x="270.691406"/>
      <use xlink:href="#DejaVuSans-69" x="311.804688"/>
      <use xlink:href="#DejaVuSans-6f" x="339.587891"/>
      <use xlink:href="#DejaVuSans-72" x="400.769531"/>
      <use xlink:href="#DejaVuSans-20" x="441.882812"/>
      <use xlink:href="#DejaVuSans-53" x="473.669922"/>
      <use xlink:href="#DejaVuSans-61" x="537.146484"/>
      <use xlink:href="#DejaVuSans-6d" x="598.425781"/>
      <use xlink:href="#DejaVuSans-70" x="695.837891"/>
      <use xlink:href="#DejaVuSans-6c" x="759.314453"/>
      <use xlink:href="#DejaVuSans-65" x="787.097656"/>
      <use xlink:href="#DejaVuSans-73" x="848.621094"/>
     </g>
    </g>
    <g id="Path3DCollection_6">
     <defs>
      <path id="m4465540547" d="M 0 -2.236068 
L -0.502029 -0.690983 
L -2.126627 -0.690983 
L -0.812299 0.263932 
L -1.314328 1.809017 
L -0 0.854102 
L 1.314328 1.809017 
L 0.812299 0.263932 
L 2.126627 -0.690983 
L 0.502029 -0.690983 
z
" style="stroke: #ff0000; stroke-width: 4"/>
     </defs>
     <g>
      <use xlink:href="#m4465540547" x="252.144125" y="84.801688" style="fill: #ff0000; stroke: #ff0000; stroke-width: 4"/>
     </g>
    </g>
    <g id="text_21">
     <!-- True Signal -->
     <g transform="translate(270.144125 87.426688) scale(0.1 -0.1)">
      <defs>
       <path id="DejaVuSans-54" d="M -19 4666 
L 3928 4666 
L 3928 4134 
L 2272 4134 
L 2272 0 
L 1638 0 
L 1638 4134 
L -19 4134 
L -19 4666 
z
" transform="scale(0.015625)"/>
       <path id="DejaVuSans-75" d="M 544 1381 
L 544 3500 
L 1119 3500 
L 1119 1403 
Q 1119 906 1312 657 
Q 1506 409 1894 409 
Q 2359 409 2629 706 
Q 2900 1003 2900 1516 
L 2900 3500 
L 3475 3500 
L 3475 0 
L 2900 0 
L 2900 538 
Q 2691 219 2414 64 
Q 2138 -91 1772 -91 
Q 1169 -91 856 284 
Q 544 659 544 1381 
z
M 1991 3584 
L 1991 3584 
z
" transform="scale(0.015625)"/>
      </defs>
      <use xlink:href="#DejaVuSans-54"/>
      <use xlink:href="#DejaVuSans-72" x="46.333984"/>
      <use xlink:href="#DejaVuSans-75" x="87.447266"/>
      <use xlink:href="#DejaVuSans-65" x="150.826172"/>
      <use xlink:href="#DejaVuSans-20" x="212.349609"/>
      <use xlink:href="#DejaVuSans-53" x="244.136719"/>
      <use xlink:href="#DejaVuSans-69" x="307.613281"/>
      <use xlink:href="#DejaVuSans-67" x="335.396484"/>
      <use xlink:href="#DejaVuSans-6e" x="398.873047"/>
      <use xlink:href="#DejaVuSans-61" x="462.251953"/>
      <use xlink:href="#DejaVuSans-6c" x="523.53125"/>
     </g>
    </g>
    <g id="line2d_21">
     <path d="M 242.144125 98.604813 
L 252.144125 98.604813 
L 262.144125 98.604813 
" style="fill: none; stroke-dasharray: 1.5,2.475; stroke-dashoffset: 0; stroke: #ff0000; stroke-width: 1.5"/>
    </g>
    <g id="text_22">
     <!-- Phase Manifold -->
     <g transform="translate(270.144125 102.104813) scale(0.1 -0.1)">
      <defs>
       <path id="DejaVuSans-68" d="M 3513 2113 
L 3513 0 
L 2938 0 
L 2938 2094 
Q 2938 2591 2744 2837 
Q 2550 3084 2163 3084 
Q 1697 3084 1428 2787 
Q 1159 2491 1159 1978 
L 1159 0 
L 581 0 
L 581 4863 
L 1159 4863 
L 1159 2956 
Q 1366 3272 1645 3428 
Q 1925 3584 2291 3584 
Q 2894 3584 3203 3211 
Q 3513 2838 3513 2113 
z
" transform="scale(0.015625)"/>
       <path id="DejaVuSans-4d" d="M 628 4666 
L 1569 4666 
L 2759 1491 
L 3956 4666 
L 4897 4666 
L 4897 0 
L 4281 0 
L 4281 4097 
L 3078 897 
L 2444 897 
L 1241 4097 
L 1241 0 
L 628 0 
L 628 4666 
z
" transform="scale(0.015625)"/>
       <path id="DejaVuSans-66" d="M 2375 4863 
L 2375 4384 
L 1825 4384 
Q 1516 4384 1395 4259 
Q 1275 4134 1275 3809 
L 1275 3500 
L 2222 3500 
L 2222 3053 
L 1275 3053 
L 1275 0 
L 697 0 
L 697 3053 
L 147 3053 
L 147 3500 
L 697 3500 
L 697 3744 
Q 697 4328 969 4595 
Q 1241 4863 1831 4863 
L 2375 4863 
z
" transform="scale(0.015625)"/>
       <path id="DejaVuSans-64" d="M 2906 2969 
L 2906 4863 
L 3481 4863 
L 3481 0 
L 2906 0 
L 2906 525 
Q 2725 213 2448 61 
Q 2172 -91 1784 -91 
Q 1150 -91 751 415 
Q 353 922 353 1747 
Q 353 2572 751 3078 
Q 1150 3584 1784 3584 
Q 2172 3584 2448 3432 
Q 2725 3281 2906 2969 
z
M 947 1747 
Q 947 1113 1208 752 
Q 1469 391 1925 391 
Q 2381 391 2643 752 
Q 2906 1113 2906 1747 
Q 2906 2381 2643 2742 
Q 2381 3103 1925 3103 
Q 1469 3103 1208 2742 
Q 947 2381 947 1747 
z
" transform="scale(0.015625)"/>
      </defs>
      <use xlink:href="#DejaVuSans-50"/>
      <use xlink:href="#DejaVuSans-68" x="60.302734"/>
      <use xlink:href="#DejaVuSans-61" x="123.681641"/>
      <use xlink:href="#DejaVuSans-73" x="184.960938"/>
      <use xlink:href="#DejaVuSans-65" x="237.060547"/>
      <use xlink:href="#DejaVuSans-20" x="298.583984"/>
      <use xlink:href="#DejaVuSans-4d" x="330.371094"/>
      <use xlink:href="#DejaVuSans-61" x="416.650391"/>
      <use xlink:href="#DejaVuSans-6e" x="477.929688"/>
      <use xlink:href="#DejaVuSans-69" x="541.308594"/>
      <use xlink:href="#DejaVuSans-66" x="569.091797"/>
      <use xlink:href="#DejaVuSans-6f" x="604.296875"/>
      <use xlink:href="#DejaVuSans-6c" x="665.478516"/>
      <use xlink:href="#DejaVuSans-64" x="693.261719"/>
     </g>
    </g>
   </g>
  </g>
 </g>
 <defs>
  <clipPath id="p981f616874">
   <rect x="103.104" y="41.472" width="266.112" height="266.112"/>
  </clipPath>
 </defs>
</svg>
