<?xml version="1.0" encoding="utf-8" standalone="no"?>
<!DOCTYPE svg PUBLIC "-//W3C//DTD SVG 1.1//EN"
  "http://www.w3.org/Graphics/SVG/1.1/DTD/svg11.dtd">
<svg xmlns:xlink="http://www.w3.org/1999/xlink" width="460.8pt" height="345.6pt" viewBox="0 0 460.8 345.6" xmlns="http://www.w3.org/2000/svg" version="1.1">
 <metadata>
  <rdf:RDF xmlns:dc="http://purl.org/dc/elements/1.1/" xmlns:cc="http://creativecommons.org/ns#" xmlns:rdf="http://www.w3.org/1999/02/22-rdf-syntax-ns#">
   <cc:Work>
    <dc:type rdf:resource="http://purl.org/dc/dcmitype/StillImage"/>
    <dc:date>2025-06-02T16:26:33.579759</dc:date>
    <dc:format>image/svg+xml</dc:format>
    <dc:creator>
     <cc:Agent>
      <dc:title>Matplotlib v3.9.2, https://matplotlib.org/</dc:title>
     </cc:Agent>
    </dc:creator>
   </cc:Work>
  </rdf:RDF>
 </metadata>
 <defs>
  <style type="text/css">*{stroke-linejoin: round; stroke-linecap: butt}</style>
 </defs>
 <g id="figure_1">
  <g id="patch_1">
   <path d="M 0 345.6 
L 460.8 345.6 
L 460.8 0 
L 0 0 
z
" style="fill: #ffffff"/>
  </g>
  <g id="patch_2">
   <path d="M 103.104 307.584 
L 369.216 307.584 
L 369.216 41.472 
L 103.104 41.472 
z
" style="fill: #ffffff"/>
  </g>
  <g id="pane3d_1">
   <g id="patch_3">
    <path d="M 240.919843 170.642579 
L 348.723362 232.417437 
L 355.746557 103.975255 
L 240.990251 46.336605 
" style="fill: #f2f2f2; opacity: 0.5; stroke: #f2f2f2; stroke-linejoin: miter"/>
   </g>
  </g>
  <g id="pane3d_2">
   <g id="patch_4">
    <path d="M 240.919843 170.642579 
L 130.635349 233.922933 
L 123.591714 105.38531 
L 240.990251 46.336605 
" style="fill: #e6e6e6; opacity: 0.5; stroke: #e6e6e6; stroke-linejoin: miter"/>
   </g>
  </g>
  <g id="pane3d_3">
   <g id="patch_5">
    <path d="M 240.919843 170.642579 
L 130.635349 233.922933 
L 238.438274 303.976415 
L 348.723362 232.417437 
" style="fill: #ececec; opacity: 0.5; stroke: #ececec; stroke-linejoin: miter"/>
   </g>
  </g>
  <g id="grid3d_1">
   <g id="Line3DCollection_1">
    <path d="M 342.134502 236.692648 
L 234.307046 174.436949 
L 233.976052 49.864582 
" style="fill: none; stroke: #b0b0b0; stroke-width: 0.8"/>
    <path d="M 320.278123 250.874259 
L 212.393138 187.010972 
L 210.709074 61.567325 
" style="fill: none; stroke: #b0b0b0; stroke-width: 0.8"/>
    <path d="M 297.836246 265.435772 
L 189.927111 199.901797 
L 186.819325 73.583307 
" style="fill: none; stroke: #b0b0b0; stroke-width: 0.8"/>
    <path d="M 274.785026 280.39266 
L 166.887834 213.121549 
L 162.281462 85.925276 
" style="fill: none; stroke: #b0b0b0; stroke-width: 0.8"/>
    <path d="M 251.099304 295.761248 
L 143.25308 226.68298 
L 137.068749 98.606678 
" style="fill: none; stroke: #b0b0b0; stroke-width: 0.8"/>
   </g>
  </g>
  <g id="grid3d_2">
   <g id="Line3DCollection_2">
    <path d="M 247.855888 49.785008 
L 247.392095 174.351386 
L 137.084104 238.113521 
" style="fill: none; stroke: #b0b0b0; stroke-width: 0.8"/>
    <path d="M 271.151381 61.485636 
L 269.331329 186.923267 
L 158.965923 252.332966 
" style="fill: none; stroke: #b0b0b0; stroke-width: 0.8"/>
    <path d="M 295.070352 73.499417 
L 291.823272 199.811868 
L 181.434719 266.933844 
" style="fill: none; stroke: #b0b0b0; stroke-width: 0.8"/>
    <path d="M 319.638168 85.839094 
L 314.889077 213.029311 
L 204.514429 281.931712 
" style="fill: none; stroke: #b0b0b0; stroke-width: 0.8"/>
    <path d="M 344.881595 98.518111 
L 338.550991 226.588343 
L 228.230314 297.342985 
" style="fill: none; stroke: #b0b0b0; stroke-width: 0.8"/>
   </g>
  </g>
  <g id="grid3d_3">
   <g id="Line3DCollection_3">
    <path d="M 130.213514 226.224968 
L 240.924075 163.171336 
L 349.144009 224.724531 
" style="fill: none; stroke: #b0b0b0; stroke-width: 0.8"/>
    <path d="M 128.778133 200.031034 
L 240.93846 137.77443 
L 350.575313 198.548438 
" style="fill: none; stroke: #b0b0b0; stroke-width: 0.8"/>
    <path d="M 127.304635 173.141525 
L 240.953204 111.744136 
L 352.044569 171.678253 
" style="fill: none; stroke: #b0b0b0; stroke-width: 0.8"/>
    <path d="M 125.791482 145.528363 
L 240.96832 85.056459 
L 353.553309 144.085997 
" style="fill: none; stroke: #b0b0b0; stroke-width: 0.8"/>
    <path d="M 124.237052 117.161937 
L 240.983822 57.686178 
L 355.103144 115.742167 
" style="fill: none; stroke: #b0b0b0; stroke-width: 0.8"/>
   </g>
  </g>
  <g id="axis3d_1">
   <g id="line2d_1">
    <path d="M 348.723362 232.417437 
L 238.438274 303.976415 
" style="fill: none; stroke: #000000; stroke-width: 0.8; stroke-linecap: square"/>
   </g>
   <g id="xtick_1">
    <g id="line2d_2">
     <path d="M 341.2192 236.164186 
L 343.967816 237.751138 
" style="fill: none; stroke: #000000; stroke-width: 0.8; stroke-linecap: square"/>
    </g>
    <g id="text_1">
     <!-- −1.0 -->
     <g transform="translate(338.975094 259.806188) scale(0.1 -0.1)">
      <defs>
       <path id="DejaVuSans-2212" d="M 678 2272 
L 4684 2272 
L 4684 1741 
L 678 1741 
L 678 2272 
z
" transform="scale(0.015625)"/>
       <path id="DejaVuSans-31" d="M 794 531 
L 1825 531 
L 1825 4091 
L 703 3866 
L 703 4441 
L 1819 4666 
L 2450 4666 
L 2450 531 
L 3481 531 
L 3481 0 
L 794 0 
L 794 531 
z
" transform="scale(0.015625)"/>
       <path id="DejaVuSans-2e" d="M 684 794 
L 1344 794 
L 1344 0 
L 684 0 
L 684 794 
z
" transform="scale(0.015625)"/>
       <path id="DejaVuSans-30" d="M 2034 4250 
Q 1547 4250 1301 3770 
Q 1056 3291 1056 2328 
Q 1056 1369 1301 889 
Q 1547 409 2034 409 
Q 2525 409 2770 889 
Q 3016 1369 3016 2328 
Q 3016 3291 2770 3770 
Q 2525 4250 2034 4250 
z
M 2034 4750 
Q 2819 4750 3233 4129 
Q 3647 3509 3647 2328 
Q 3647 1150 3233 529 
Q 2819 -91 2034 -91 
Q 1250 -91 836 529 
Q 422 1150 422 2328 
Q 422 3509 836 4129 
Q 1250 4750 2034 4750 
z
" transform="scale(0.015625)"/>
      </defs>
      <use xlink:href="#DejaVuSans-2212"/>
      <use xlink:href="#DejaVuSans-31" x="83.789062"/>
      <use xlink:href="#DejaVuSans-2e" x="147.412109"/>
      <use xlink:href="#DejaVuSans-30" x="179.199219"/>
     </g>
    </g>
   </g>
   <g id="xtick_2">
    <g id="line2d_3">
     <path d="M 319.361636 250.331738 
L 322.113845 251.960928 
" style="fill: none; stroke: #000000; stroke-width: 0.8; stroke-linecap: square"/>
    </g>
    <g id="text_2">
     <!-- −0.5 -->
     <g transform="translate(317.235962 274.193836) scale(0.1 -0.1)">
      <defs>
       <path id="DejaVuSans-35" d="M 691 4666 
L 3169 4666 
L 3169 4134 
L 1269 4134 
L 1269 2991 
Q 1406 3038 1543 3061 
Q 1681 3084 1819 3084 
Q 2600 3084 3056 2656 
Q 3513 2228 3513 1497 
Q 3513 744 3044 326 
Q 2575 -91 1722 -91 
Q 1428 -91 1123 -41 
Q 819 9 494 109 
L 494 744 
Q 775 591 1075 516 
Q 1375 441 1709 441 
Q 2250 441 2565 725 
Q 2881 1009 2881 1497 
Q 2881 1984 2565 2268 
Q 2250 2553 1709 2553 
Q 1456 2553 1204 2497 
Q 953 2441 691 2322 
L 691 4666 
z
" transform="scale(0.015625)"/>
      </defs>
      <use xlink:href="#DejaVuSans-2212"/>
      <use xlink:href="#DejaVuSans-30" x="83.789062"/>
      <use xlink:href="#DejaVuSans-2e" x="147.412109"/>
      <use xlink:href="#DejaVuSans-35" x="179.199219"/>
     </g>
    </g>
   </g>
   <g id="xtick_3">
    <g id="line2d_4">
     <path d="M 296.918839 264.878624 
L 299.673849 266.551761 
" style="fill: none; stroke: #000000; stroke-width: 0.8; stroke-linecap: square"/>
    </g>
    <g id="text_3">
     <!-- 0.0 -->
     <g transform="translate(299.104278 288.966933) scale(0.1 -0.1)">
      <use xlink:href="#DejaVuSans-30"/>
      <use xlink:href="#DejaVuSans-2e" x="63.623047"/>
      <use xlink:href="#DejaVuSans-30" x="95.410156"/>
     </g>
    </g>
   </g>
   <g id="xtick_4">
    <g id="line2d_5">
     <path d="M 273.866986 279.820286 
L 276.623935 281.539172 
" style="fill: none; stroke: #000000; stroke-width: 0.8; stroke-linecap: square"/>
    </g>
    <g id="text_4">
     <!-- 0.5 -->
     <g transform="translate(276.176632 304.141177) scale(0.1 -0.1)">
      <use xlink:href="#DejaVuSans-30"/>
      <use xlink:href="#DejaVuSans-2e" x="63.623047"/>
      <use xlink:href="#DejaVuSans-35" x="95.410156"/>
     </g>
    </g>
   </g>
   <g id="xtick_5">
    <g id="line2d_6">
     <path d="M 250.180943 295.173014 
L 252.938894 296.939552 
" style="fill: none; stroke: #000000; stroke-width: 0.8; stroke-linecap: square"/>
    </g>
    <g id="text_5">
     <!-- 1.0 -->
     <g transform="translate(252.617841 319.733134) scale(0.1 -0.1)">
      <use xlink:href="#DejaVuSans-31"/>
      <use xlink:href="#DejaVuSans-2e" x="63.623047"/>
      <use xlink:href="#DejaVuSans-30" x="95.410156"/>
     </g>
    </g>
   </g>
   <g id="text_6">
    <!-- x -->
    <g transform="translate(312.48078 304.48698) scale(0.1 -0.1)">
     <defs>
      <path id="DejaVuSans-78" d="M 3513 3500 
L 2247 1797 
L 3578 0 
L 2900 0 
L 1881 1375 
L 863 0 
L 184 0 
L 1544 1831 
L 300 3500 
L 978 3500 
L 1906 2253 
L 2834 3500 
L 3513 3500 
z
" transform="scale(0.015625)"/>
     </defs>
     <use xlink:href="#DejaVuSans-78"/>
    </g>
   </g>
  </g>
  <g id="axis3d_2">
   <g id="line2d_7">
    <path d="M 130.635349 233.922933 
L 238.438274 303.976415 
" style="fill: none; stroke: #000000; stroke-width: 0.8; stroke-linecap: square"/>
   </g>
   <g id="xtick_6">
    <g id="line2d_8">
     <path d="M 138.02177 237.571515 
L 135.205928 239.199177 
" style="fill: none; stroke: #000000; stroke-width: 0.8; stroke-linecap: square"/>
    </g>
    <g id="text_7">
     <!-- −1.0 -->
     <g transform="translate(115.729584 261.375622) scale(0.1 -0.1)">
      <use xlink:href="#DejaVuSans-2212"/>
      <use xlink:href="#DejaVuSans-31" x="83.789062"/>
      <use xlink:href="#DejaVuSans-2e" x="147.412109"/>
      <use xlink:href="#DejaVuSans-30" x="179.199219"/>
     </g>
    </g>
   </g>
   <g id="xtick_7">
    <g id="line2d_9">
     <path d="M 159.904809 251.776521 
L 157.085269 253.447564 
" style="fill: none; stroke: #000000; stroke-width: 0.8; stroke-linecap: square"/>
    </g>
    <g id="text_8">
     <!-- −0.5 -->
     <g transform="translate(137.49353 275.805065) scale(0.1 -0.1)">
      <use xlink:href="#DejaVuSans-2212"/>
      <use xlink:href="#DejaVuSans-30" x="83.789062"/>
      <use xlink:href="#DejaVuSans-2e" x="147.412109"/>
      <use xlink:href="#DejaVuSans-35" x="179.199219"/>
     </g>
    </g>
   </g>
   <g id="xtick_8">
    <g id="line2d_10">
     <path d="M 182.374552 266.362377 
L 179.552128 268.078557 
" style="fill: none; stroke: #000000; stroke-width: 0.8; stroke-linecap: square"/>
    </g>
    <g id="text_9">
     <!-- 0.0 -->
     <g transform="translate(164.031243 290.621648) scale(0.1 -0.1)">
      <use xlink:href="#DejaVuSans-30"/>
      <use xlink:href="#DejaVuSans-2e" x="63.623047"/>
      <use xlink:href="#DejaVuSans-30" x="95.410156"/>
     </g>
    </g>
   </g>
   <g id="xtick_9">
    <g id="line2d_11">
     <path d="M 205.454914 281.344606 
L 202.630492 283.107777 
" style="fill: none; stroke: #000000; stroke-width: 0.8; stroke-linecap: square"/>
    </g>
    <g id="text_10">
     <!-- 0.5 -->
     <g transform="translate(186.986856 305.841164) scale(0.1 -0.1)">
      <use xlink:href="#DejaVuSans-30"/>
      <use xlink:href="#DejaVuSans-2e" x="63.623047"/>
      <use xlink:href="#DejaVuSans-35" x="95.410156"/>
     </g>
    </g>
   </g>
   <g id="xtick_10">
    <g id="line2d_12">
     <path d="M 229.171131 296.739588 
L 226.345672 298.551709 
" style="fill: none; stroke: #000000; stroke-width: 0.8; stroke-linecap: square"/>
    </g>
    <g id="text_11">
     <!-- 1.0 -->
     <g transform="translate(210.575346 321.480276) scale(0.1 -0.1)">
      <use xlink:href="#DejaVuSans-31"/>
      <use xlink:href="#DejaVuSans-2e" x="63.623047"/>
      <use xlink:href="#DejaVuSans-30" x="95.410156"/>
     </g>
    </g>
   </g>
   <g id="text_12">
    <!-- y -->
    <g transform="translate(159.300689 305.612743) scale(0.1 -0.1)">
     <defs>
      <path id="DejaVuSans-79" d="M 2059 -325 
Q 1816 -950 1584 -1140 
Q 1353 -1331 966 -1331 
L 506 -1331 
L 506 -850 
L 844 -850 
Q 1081 -850 1212 -737 
Q 1344 -625 1503 -206 
L 1606 56 
L 191 3500 
L 800 3500 
L 1894 763 
L 2988 3500 
L 3597 3500 
L 2059 -325 
z
" transform="scale(0.015625)"/>
     </defs>
     <use xlink:href="#DejaVuSans-79"/>
    </g>
   </g>
  </g>
  <g id="axis3d_3">
   <g id="line2d_13">
    <path d="M 130.635349 233.922933 
L 123.591714 105.38531 
" style="fill: none; stroke: #000000; stroke-width: 0.8; stroke-linecap: square"/>
   </g>
   <g id="xtick_11">
    <g id="line2d_14">
     <path d="M 131.1546 225.688986 
L 128.328489 227.298557 
" style="fill: none; stroke: #000000; stroke-width: 0.8; stroke-linecap: square"/>
    </g>
    <g id="text_13">
     <!-- −1.0 -->
     <g transform="translate(99.879056 233.948091) scale(0.1 -0.1)">
      <use xlink:href="#DejaVuSans-2212"/>
      <use xlink:href="#DejaVuSans-31" x="83.789062"/>
      <use xlink:href="#DejaVuSans-2e" x="147.412109"/>
      <use xlink:href="#DejaVuSans-30" x="179.199219"/>
     </g>
    </g>
   </g>
   <g id="xtick_12">
    <g id="line2d_15">
     <path d="M 129.732277 199.501418 
L 126.866913 201.09189 
" style="fill: none; stroke: #000000; stroke-width: 0.8; stroke-linecap: square"/>
    </g>
    <g id="text_14">
     <!-- −0.5 -->
     <g transform="translate(98.205084 207.752677) scale(0.1 -0.1)">
      <use xlink:href="#DejaVuSans-2212"/>
      <use xlink:href="#DejaVuSans-30" x="83.789062"/>
      <use xlink:href="#DejaVuSans-2e" x="147.412109"/>
      <use xlink:href="#DejaVuSans-35" x="179.199219"/>
     </g>
    </g>
   </g>
   <g id="xtick_13">
    <g id="line2d_16">
     <path d="M 128.272205 172.618806 
L 125.366485 174.188589 
" style="fill: none; stroke: #000000; stroke-width: 0.8; stroke-linecap: square"/>
    </g>
    <g id="text_15">
     <!-- 0.0 -->
     <g transform="translate(100.676499 180.861565) scale(0.1 -0.1)">
      <use xlink:href="#DejaVuSans-30"/>
      <use xlink:href="#DejaVuSans-2e" x="63.623047"/>
      <use xlink:href="#DejaVuSans-30" x="95.410156"/>
     </g>
    </g>
   </g>
   <g id="xtick_14">
    <g id="line2d_17">
     <path d="M 126.772859 145.013106 
L 123.825634 146.560503 
" style="fill: none; stroke: #000000; stroke-width: 0.8; stroke-linecap: square"/>
    </g>
    <g id="text_16">
     <!-- 0.5 -->
     <g transform="translate(98.911818 153.246668) scale(0.1 -0.1)">
      <use xlink:href="#DejaVuSans-30"/>
      <use xlink:href="#DejaVuSans-2e" x="63.623047"/>
      <use xlink:href="#DejaVuSans-35" x="95.410156"/>
     </g>
    </g>
   </g>
   <g id="xtick_15">
    <g id="line2d_18">
     <path d="M 125.232634 116.654746 
L 122.242706 118.177942 
" style="fill: none; stroke: #000000; stroke-width: 0.8; stroke-linecap: square"/>
    </g>
    <g id="text_17">
     <!-- 1.0 -->
     <g transform="translate(97.098993 124.878367) scale(0.1 -0.1)">
      <use xlink:href="#DejaVuSans-31"/>
      <use xlink:href="#DejaVuSans-2e" x="63.623047"/>
      <use xlink:href="#DejaVuSans-30" x="95.410156"/>
     </g>
    </g>
   </g>
   <g id="text_18">
    <!-- z -->
    <g transform="translate(83.963159 174.687081) scale(0.1 -0.1)">
     <defs>
      <path id="DejaVuSans-7a" d="M 353 3500 
L 3084 3500 
L 3084 2975 
L 922 459 
L 3084 459 
L 3084 0 
L 275 0 
L 275 525 
L 2438 3041 
L 353 3041 
L 353 3500 
z
" transform="scale(0.015625)"/>
     </defs>
     <use xlink:href="#DejaVuSans-7a"/>
    </g>
   </g>
  </g>
  <g id="axes_1">
   <g id="line2d_19">
    <path d="M 240.895346 114.232892 
L 237.363471 114.344986 
L 233.845812 114.680818 
L 230.356525 115.239037 
L 226.909653 116.017397 
L 223.519068 117.012768 
L 220.198417 118.221146 
L 216.961066 119.637669 
L 213.820044 121.256639 
L 210.787996 123.071544 
L 207.877127 125.075081 
L 205.099154 127.259192 
L 202.465263 129.615087 
L 199.986059 132.133288 
L 197.671523 134.803663 
L 195.530978 137.615467 
L 193.573044 140.557384 
L 191.805608 143.617575 
L 190.235791 146.783725 
L 188.869918 150.043091 
L 187.713495 153.382553 
L 186.771183 156.78867 
L 186.046784 160.24773 
L 185.543222 163.745807 
L 185.262531 167.268818 
L 185.205848 170.802579 
L 185.373411 174.33286 
L 185.76455 177.845446 
L 186.3777 181.326191 
L 187.210397 184.761076 
L 188.259295 188.136268 
L 189.520178 191.438171 
L 190.987973 194.653485 
L 192.656776 197.769256 
L 194.51987 200.772934 
L 196.569757 203.652415 
L 198.798185 206.396099 
L 201.196182 208.992931 
L 203.754095 211.432446 
L 206.461621 213.704813 
L 209.307858 215.800876 
L 212.281342 217.712188 
L 215.370098 219.431044 
L 218.561684 220.950518 
L 221.843244 222.264485 
L 225.201559 223.36765 
L 228.6231 224.255565 
L 232.094083 224.924652 
L 235.600525 225.372215 
L 239.128299 225.596448 
L 242.663193 225.596448 
L 246.190965 225.372215 
L 249.697404 224.924652 
L 253.168382 224.255565 
L 256.589917 223.36765 
L 259.948224 222.264485 
L 263.229774 220.950518 
L 266.421349 219.431044 
L 269.510093 217.712188 
L 272.483564 215.800876 
L 275.329785 213.704813 
L 278.037295 211.432446 
L 280.59519 208.992931 
L 282.993169 206.396099 
L 285.221577 203.652415 
L 287.271444 200.772934 
L 289.134516 197.769256 
L 290.803296 194.653485 
L 292.271068 191.438171 
L 293.531927 188.136268 
L 294.580801 184.761076 
L 295.413474 181.326191 
L 296.026598 177.845446 
L 296.417713 174.33286 
L 296.585249 170.802579 
L 296.528542 167.268818 
L 296.247825 163.745807 
L 295.744238 160.24773 
L 295.019814 156.78867 
L 294.077478 153.382553 
L 292.921031 150.043091 
L 291.555134 146.783725 
L 289.985294 143.617575 
L 288.217836 140.557384 
L 286.259881 137.615467 
L 284.119316 134.803663 
L 281.804761 132.133288 
L 279.325538 129.615087 
L 276.69163 127.259192 
L 273.913642 125.075081 
L 271.002759 123.071544 
L 267.970697 121.256639 
L 264.829664 119.637669 
L 261.592303 118.221146 
L 258.271643 117.012768 
L 254.881051 116.017397 
L 251.434173 115.239037 
L 247.944882 114.680818 
L 244.427221 114.344986 
L 240.895346 114.232892 
" clip-path="url(#p8ba52aa0c5)" style="fill: none; stroke-dasharray: 1.5,2.475; stroke-dashoffset: 0; stroke: #ff0000; stroke-width: 1.5"/>
   </g>
   <g id="line2d_20">
    <path d="M 240.836212 117.520472 
L 237.487665 117.626749 
L 234.152595 117.945152 
L 230.844425 118.474402 
L 227.576469 119.212367 
L 224.361881 120.156081 
L 221.213599 121.301747 
L 218.144294 122.644755 
L 215.16632 124.179703 
L 212.291666 125.900416 
L 209.531904 127.799971 
L 206.898142 129.870725 
L 204.400986 132.104347 
L 202.050489 134.491849 
L 199.856117 137.023625 
L 197.826706 139.689487 
L 195.970429 142.478706 
L 194.294765 145.380057 
L 192.806463 148.381865 
L 191.51152 151.472046 
L 190.415156 154.638163 
L 189.52179 157.86747 
L 188.835026 161.146969 
L 188.357635 164.463456 
L 188.091545 167.803579 
L 188.037835 171.15389 
L 188.196728 174.500898 
L 188.567591 177.831125 
L 189.148937 181.13116 
L 189.938431 184.387714 
L 190.932901 187.587669 
L 192.128347 190.718137 
L 193.519961 193.766508 
L 195.102143 196.720502 
L 196.868528 199.56822 
L 198.812004 202.298188 
L 200.924749 204.899407 
L 203.198257 207.361396 
L 205.623373 209.674236 
L 208.190332 211.828606 
L 210.888797 213.815825 
L 213.7079 215.627885 
L 216.636287 217.257483 
L 219.662162 218.698051 
L 222.773337 219.943784 
L 225.95728 220.989661 
L 229.201164 221.831467 
L 232.491923 222.465808 
L 235.816298 222.890128 
L 239.160897 223.102716 
L 242.512246 223.102716 
L 245.856844 222.890128 
L 249.181216 222.465808 
L 252.47197 221.831467 
L 255.715849 220.989661 
L 258.899785 219.943784 
L 262.010952 218.698051 
L 265.036817 217.257483 
L 267.965192 215.627885 
L 270.784283 213.815825 
L 273.482734 211.828606 
L 276.049679 209.674236 
L 278.474779 207.361396 
L 280.74827 204.899407 
L 282.860997 202.298188 
L 284.804455 199.56822 
L 286.57082 196.720502 
L 288.152983 193.766508 
L 289.544576 190.718137 
L 290.740001 187.587669 
L 291.734448 184.387714 
L 292.52392 181.13116 
L 293.105244 177.831125 
L 293.476084 174.500898 
L 293.634954 171.15389 
L 293.581221 167.803579 
L 293.315109 164.463456 
L 292.837695 161.146969 
L 292.150909 157.86747 
L 291.257521 154.638163 
L 290.161135 151.472046 
L 288.866171 148.381865 
L 287.377849 145.380057 
L 285.702164 142.478706 
L 283.845869 139.689487 
L 281.81644 137.023625 
L 279.62205 134.491849 
L 277.271537 132.104347 
L 274.774366 129.870725 
L 272.14059 127.799971 
L 269.380815 125.900416 
L 266.506149 124.179703 
L 263.528165 122.644755 
L 260.458851 121.301747 
L 257.31056 120.156081 
L 254.095966 119.212367 
L 250.828005 118.474402 
L 247.519832 117.945152 
L 244.18476 117.626749 
L 240.836212 117.520472 
" clip-path="url(#p8ba52aa0c5)" style="fill: none; stroke-dasharray: 1.5,2.475; stroke-dashoffset: 0; stroke: #ff0000; stroke-width: 1.5"/>
   </g>
   <g id="Path3DCollection_1">
    <defs>
     <path id="m96ea957b34" d="M -2.236068 2.236068 
L 2.236068 -2.236068 
M -2.236068 -2.236068 
L 2.236068 2.236068 
" style="stroke: #000000; stroke-width: 1.5"/>
    </defs>
    <g clip-path="url(#p8ba52aa0c5)">
     <use xlink:href="#m96ea957b34" x="240.865181" y="170.122794" style="stroke: #000000; stroke-width: 1.5"/>
    </g>
   </g>
   <g id="Path3DCollection_2">
    <defs>
     <path id="C0_0_a8643ccacf" d="M 0 -2.236068 
L -0.502029 -0.690983 
L -2.126627 -0.690983 
L -0.812299 0.263932 
L -1.314328 1.809017 
L -0 0.854102 
L 1.314328 1.809017 
L 0.812299 0.263932 
L 2.126627 -0.690983 
L 0.502029 -0.690983 
z
"/>
    </defs>
    <g clip-path="url(#p8ba52aa0c5)">
     <use xlink:href="#C0_0_a8643ccacf" x="240.895342" y="114.233074" style="fill: #ff0000; fill-opacity: 0.3; stroke: #ff0000; stroke-opacity: 0.3; stroke-width: 4"/>
    </g>
    <g clip-path="url(#p8ba52aa0c5)">
     <use xlink:href="#C0_0_a8643ccacf" x="289.134591" y="197.769289" style="fill: #ff0000; stroke: #ff0000; stroke-width: 4"/>
    </g>
    <g clip-path="url(#p8ba52aa0c5)">
     <use xlink:href="#C0_0_a8643ccacf" x="192.656704" y="197.769289" style="fill: #ff0000; stroke: #ff0000; stroke-width: 4"/>
    </g>
   </g>
   <g id="Path3DCollection_3">
    <defs>
     <path id="C1_0_3e6edf142b" d="M 0 1.118034 
C 0.296506 1.118034 0.580908 1.000231 0.790569 0.790569 
C 1.000231 0.580908 1.118034 0.296506 1.118034 -0 
C 1.118034 -0.296506 1.000231 -0.580908 0.790569 -0.790569 
C 0.580908 -1.000231 0.296506 -1.118034 0 -1.118034 
C -0.296506 -1.118034 -0.580908 -1.000231 -0.790569 -0.790569 
C -1.000231 -0.580908 -1.118034 -0.296506 -1.118034 0 
C -1.118034 0.296506 -1.000231 0.580908 -0.790569 0.790569 
C -0.580908 1.000231 -0.296506 1.118034 0 1.118034 
z
"/>
    </defs>
    <g clip-path="url(#p8ba52aa0c5)">
     <use xlink:href="#C1_0_3e6edf142b" x="246.787367" y="109.693996" style="fill: #228b22; fill-opacity: 0.3; stroke: #228b22; stroke-opacity: 0.3"/>
    </g>
    <g clip-path="url(#p8ba52aa0c5)">
     <use xlink:href="#C1_0_3e6edf142b" x="244.932951" y="114.647656" style="fill: #228b22; fill-opacity: 0.328282; stroke: #228b22; stroke-opacity: 0.328282"/>
    </g>
    <g clip-path="url(#p8ba52aa0c5)">
     <use xlink:href="#C1_0_3e6edf142b" x="230.945121" y="113.829893" style="fill: #228b22; fill-opacity: 0.354125; stroke: #228b22; stroke-opacity: 0.354125"/>
    </g>
    <g clip-path="url(#p8ba52aa0c5)">
     <use xlink:href="#C1_0_3e6edf142b" x="225.735664" y="111.393233" style="fill: #228b22; fill-opacity: 0.359207; stroke: #228b22; stroke-opacity: 0.359207"/>
    </g>
    <g clip-path="url(#p8ba52aa0c5)">
     <use xlink:href="#C1_0_3e6edf142b" x="246.849365" y="114.07044" style="fill: #228b22; fill-opacity: 0.369801; stroke: #228b22; stroke-opacity: 0.369801"/>
    </g>
    <g clip-path="url(#p8ba52aa0c5)">
     <use xlink:href="#C1_0_3e6edf142b" x="254.491628" y="118.046801" style="fill: #228b22; fill-opacity: 0.381414; stroke: #228b22; stroke-opacity: 0.381414"/>
    </g>
    <g clip-path="url(#p8ba52aa0c5)">
     <use xlink:href="#C1_0_3e6edf142b" x="233.66493" y="119.659586" style="fill: #228b22; fill-opacity: 0.387159; stroke: #228b22; stroke-opacity: 0.387159"/>
    </g>
    <g clip-path="url(#p8ba52aa0c5)">
     <use xlink:href="#C1_0_3e6edf142b" x="243.198172" y="116.973779" style="fill: #228b22; fill-opacity: 0.398374; stroke: #228b22; stroke-opacity: 0.398374"/>
    </g>
    <g clip-path="url(#p8ba52aa0c5)">
     <use xlink:href="#C1_0_3e6edf142b" x="235.012535" y="124.406628" style="fill: #228b22; fill-opacity: 0.415093; stroke: #228b22; stroke-opacity: 0.415093"/>
    </g>
    <g clip-path="url(#p8ba52aa0c5)">
     <use xlink:href="#C1_0_3e6edf142b" x="238.487738" y="119.554849" style="fill: #228b22; fill-opacity: 0.418662; stroke: #228b22; stroke-opacity: 0.418662"/>
    </g>
    <g clip-path="url(#p8ba52aa0c5)">
     <use xlink:href="#C1_0_3e6edf142b" x="242.563142" y="114.196263" style="fill: #228b22; fill-opacity: 0.424399; stroke: #228b22; stroke-opacity: 0.424399"/>
    </g>
    <g clip-path="url(#p8ba52aa0c5)">
     <use xlink:href="#C1_0_3e6edf142b" x="265.925132" y="119.577143" style="fill: #228b22; fill-opacity: 0.433798; stroke: #228b22; stroke-opacity: 0.433798"/>
    </g>
    <g clip-path="url(#p8ba52aa0c5)">
     <use xlink:href="#C1_0_3e6edf142b" x="227.857929" y="125.077362" style="fill: #228b22; fill-opacity: 0.474765; stroke: #228b22; stroke-opacity: 0.474765"/>
    </g>
    <g clip-path="url(#p8ba52aa0c5)">
     <use xlink:href="#C1_0_3e6edf142b" x="256.6657" y="129.726934" style="fill: #228b22; fill-opacity: 0.499971; stroke: #228b22; stroke-opacity: 0.499971"/>
    </g>
    <g clip-path="url(#p8ba52aa0c5)">
     <use xlink:href="#C1_0_3e6edf142b" x="244.088714" y="133.118664" style="fill: #228b22; fill-opacity: 0.555575; stroke: #228b22; stroke-opacity: 0.555575"/>
    </g>
    <g clip-path="url(#p8ba52aa0c5)">
     <use xlink:href="#C1_0_3e6edf142b" x="223.637162" y="133.270262" style="fill: #228b22; fill-opacity: 0.570688; stroke: #228b22; stroke-opacity: 0.570688"/>
    </g>
    <g clip-path="url(#p8ba52aa0c5)">
     <use xlink:href="#C1_0_3e6edf142b" x="196.871164" y="147.972489" style="fill: #228b22; fill-opacity: 0.593199; stroke: #228b22; stroke-opacity: 0.593199"/>
    </g>
    <g clip-path="url(#p8ba52aa0c5)">
     <use xlink:href="#C1_0_3e6edf142b" x="192.654691" y="170.018268" style="fill: #228b22; fill-opacity: 0.630217; stroke: #228b22; stroke-opacity: 0.630217"/>
    </g>
    <g clip-path="url(#p8ba52aa0c5)">
     <use xlink:href="#C1_0_3e6edf142b" x="266.814629" y="147.574178" style="fill: #228b22; fill-opacity: 0.65137; stroke: #228b22; stroke-opacity: 0.65137"/>
    </g>
    <g clip-path="url(#p8ba52aa0c5)">
     <use xlink:href="#C1_0_3e6edf142b" x="279.499117" y="154.87868" style="fill: #228b22; fill-opacity: 0.652286; stroke: #228b22; stroke-opacity: 0.652286"/>
    </g>
    <g clip-path="url(#p8ba52aa0c5)">
     <use xlink:href="#C1_0_3e6edf142b" x="281.971656" y="159.216702" style="fill: #228b22; fill-opacity: 0.655156; stroke: #228b22; stroke-opacity: 0.655156"/>
    </g>
    <g clip-path="url(#p8ba52aa0c5)">
     <use xlink:href="#C1_0_3e6edf142b" x="214.217821" y="170.952405" style="fill: #228b22; fill-opacity: 0.680026; stroke: #228b22; stroke-opacity: 0.680026"/>
    </g>
    <g clip-path="url(#p8ba52aa0c5)">
     <use xlink:href="#C1_0_3e6edf142b" x="211.112446" y="143.535964" style="fill: #228b22; fill-opacity: 0.682108; stroke: #228b22; stroke-opacity: 0.682108"/>
    </g>
    <g clip-path="url(#p8ba52aa0c5)">
     <use xlink:href="#C1_0_3e6edf142b" x="211.203572" y="166.157335" style="fill: #228b22; fill-opacity: 0.695005; stroke: #228b22; stroke-opacity: 0.695005"/>
    </g>
    <g clip-path="url(#p8ba52aa0c5)">
     <use xlink:href="#C1_0_3e6edf142b" x="195.824446" y="195.893793" style="fill: #228b22; fill-opacity: 0.699235; stroke: #228b22; stroke-opacity: 0.699235"/>
    </g>
    <g clip-path="url(#p8ba52aa0c5)">
     <use xlink:href="#C1_0_3e6edf142b" x="291.359183" y="194.075479" style="fill: #228b22; fill-opacity: 0.701149; stroke: #228b22; stroke-opacity: 0.701149"/>
    </g>
    <g clip-path="url(#p8ba52aa0c5)">
     <use xlink:href="#C1_0_3e6edf142b" x="280.21087" y="174.899577" style="fill: #228b22; fill-opacity: 0.703747; stroke: #228b22; stroke-opacity: 0.703747"/>
    </g>
    <g clip-path="url(#p8ba52aa0c5)">
     <use xlink:href="#C1_0_3e6edf142b" x="282.075514" y="169.253848" style="fill: #228b22; fill-opacity: 0.704096; stroke: #228b22; stroke-opacity: 0.704096"/>
    </g>
    <g clip-path="url(#p8ba52aa0c5)">
     <use xlink:href="#C1_0_3e6edf142b" x="287.935259" y="167.877047" style="fill: #228b22; fill-opacity: 0.704474; stroke: #228b22; stroke-opacity: 0.704474"/>
    </g>
    <g clip-path="url(#p8ba52aa0c5)">
     <use xlink:href="#C1_0_3e6edf142b" x="184.792436" y="196.829696" style="fill: #228b22; fill-opacity: 0.71781; stroke: #228b22; stroke-opacity: 0.71781"/>
    </g>
    <g clip-path="url(#p8ba52aa0c5)">
     <use xlink:href="#C1_0_3e6edf142b" x="269.224054" y="143.13305" style="fill: #228b22; fill-opacity: 0.723027; stroke: #228b22; stroke-opacity: 0.723027"/>
    </g>
    <g clip-path="url(#p8ba52aa0c5)">
     <use xlink:href="#C1_0_3e6edf142b" x="288.220396" y="164.760946" style="fill: #228b22; fill-opacity: 0.72752; stroke: #228b22; stroke-opacity: 0.72752"/>
    </g>
    <g clip-path="url(#p8ba52aa0c5)">
     <use xlink:href="#C1_0_3e6edf142b" x="185.763442" y="187.287836" style="fill: #228b22; fill-opacity: 0.73174; stroke: #228b22; stroke-opacity: 0.73174"/>
    </g>
    <g clip-path="url(#p8ba52aa0c5)">
     <use xlink:href="#C1_0_3e6edf142b" x="194.524694" y="174.946349" style="fill: #228b22; fill-opacity: 0.736174; stroke: #228b22; stroke-opacity: 0.736174"/>
    </g>
    <g clip-path="url(#p8ba52aa0c5)">
     <use xlink:href="#C1_0_3e6edf142b" x="192.949148" y="181.074224" style="fill: #228b22; fill-opacity: 0.7376; stroke: #228b22; stroke-opacity: 0.7376"/>
    </g>
    <g clip-path="url(#p8ba52aa0c5)">
     <use xlink:href="#C1_0_3e6edf142b" x="288.714728" y="199.271108" style="fill: #228b22; fill-opacity: 0.759664; stroke: #228b22; stroke-opacity: 0.759664"/>
    </g>
    <g clip-path="url(#p8ba52aa0c5)">
     <use xlink:href="#C1_0_3e6edf142b" x="290.597083" y="165.262281" style="fill: #228b22; fill-opacity: 0.762215; stroke: #228b22; stroke-opacity: 0.762215"/>
    </g>
    <g clip-path="url(#p8ba52aa0c5)">
     <use xlink:href="#C1_0_3e6edf142b" x="189.3317" y="180.60329" style="fill: #228b22; fill-opacity: 0.770981; stroke: #228b22; stroke-opacity: 0.770981"/>
    </g>
    <g clip-path="url(#p8ba52aa0c5)">
     <use xlink:href="#C1_0_3e6edf142b" x="192.140008" y="193.846955" style="fill: #228b22; fill-opacity: 0.790124; stroke: #228b22; stroke-opacity: 0.790124"/>
    </g>
    <g clip-path="url(#p8ba52aa0c5)">
     <use xlink:href="#C1_0_3e6edf142b" x="196.838395" y="184.610679" style="fill: #228b22; fill-opacity: 0.794583; stroke: #228b22; stroke-opacity: 0.794583"/>
    </g>
    <g clip-path="url(#p8ba52aa0c5)">
     <use xlink:href="#C1_0_3e6edf142b" x="261.513044" y="178.674015" style="fill: #228b22; fill-opacity: 0.795644; stroke: #228b22; stroke-opacity: 0.795644"/>
    </g>
    <g clip-path="url(#p8ba52aa0c5)">
     <use xlink:href="#C1_0_3e6edf142b" x="268.803237" y="185.910324" style="fill: #228b22; fill-opacity: 0.800627; stroke: #228b22; stroke-opacity: 0.800627"/>
    </g>
    <g clip-path="url(#p8ba52aa0c5)">
     <use xlink:href="#C1_0_3e6edf142b" x="271.26517" y="190.176853" style="fill: #228b22; fill-opacity: 0.804441; stroke: #228b22; stroke-opacity: 0.804441"/>
    </g>
    <g clip-path="url(#p8ba52aa0c5)">
     <use xlink:href="#C1_0_3e6edf142b" x="285.709377" y="200.810896" style="fill: #228b22; fill-opacity: 0.805079; stroke: #228b22; stroke-opacity: 0.805079"/>
    </g>
    <g clip-path="url(#p8ba52aa0c5)">
     <use xlink:href="#C1_0_3e6edf142b" x="181.477426" y="196.482972" style="fill: #228b22; fill-opacity: 0.817402; stroke: #228b22; stroke-opacity: 0.817402"/>
    </g>
    <g clip-path="url(#p8ba52aa0c5)">
     <use xlink:href="#C1_0_3e6edf142b" x="192.702885" y="208.561971" style="fill: #228b22; fill-opacity: 0.818037; stroke: #228b22; stroke-opacity: 0.818037"/>
    </g>
    <g clip-path="url(#p8ba52aa0c5)">
     <use xlink:href="#C1_0_3e6edf142b" x="291.029397" y="197.250707" style="fill: #228b22; fill-opacity: 0.830715; stroke: #228b22; stroke-opacity: 0.830715"/>
    </g>
    <g clip-path="url(#p8ba52aa0c5)">
     <use xlink:href="#C1_0_3e6edf142b" x="196.689541" y="193.596571" style="fill: #228b22; fill-opacity: 0.836533; stroke: #228b22; stroke-opacity: 0.836533"/>
    </g>
    <g clip-path="url(#p8ba52aa0c5)">
     <use xlink:href="#C1_0_3e6edf142b" x="293.874572" y="199.726788" style="fill: #228b22; fill-opacity: 0.84876; stroke: #228b22; stroke-opacity: 0.84876"/>
    </g>
    <g clip-path="url(#p8ba52aa0c5)">
     <use xlink:href="#C1_0_3e6edf142b" x="284.03443" y="204.745855" style="fill: #228b22; fill-opacity: 0.853438; stroke: #228b22; stroke-opacity: 0.853438"/>
    </g>
    <g clip-path="url(#p8ba52aa0c5)">
     <use xlink:href="#C1_0_3e6edf142b" x="228.645383" y="214.499967" style="fill: #228b22; fill-opacity: 0.864611; stroke: #228b22; stroke-opacity: 0.864611"/>
    </g>
    <g clip-path="url(#p8ba52aa0c5)">
     <use xlink:href="#C1_0_3e6edf142b" x="194.951792" y="193.97185" style="fill: #228b22; fill-opacity: 0.871876; stroke: #228b22; stroke-opacity: 0.871876"/>
    </g>
    <g clip-path="url(#p8ba52aa0c5)">
     <use xlink:href="#C1_0_3e6edf142b" x="288.613858" y="198.904055" style="fill: #228b22; fill-opacity: 0.872667; stroke: #228b22; stroke-opacity: 0.872667"/>
    </g>
    <g clip-path="url(#p8ba52aa0c5)">
     <use xlink:href="#C1_0_3e6edf142b" x="280.664408" y="203.582933" style="fill: #228b22; fill-opacity: 0.878091; stroke: #228b22; stroke-opacity: 0.878091"/>
    </g>
    <g clip-path="url(#p8ba52aa0c5)">
     <use xlink:href="#C1_0_3e6edf142b" x="275.772555" y="195.7903" style="fill: #228b22; fill-opacity: 0.887304; stroke: #228b22; stroke-opacity: 0.887304"/>
    </g>
    <g clip-path="url(#p8ba52aa0c5)">
     <use xlink:href="#C1_0_3e6edf142b" x="286.307383" y="197.659343" style="fill: #228b22; fill-opacity: 0.889208; stroke: #228b22; stroke-opacity: 0.889208"/>
    </g>
    <g clip-path="url(#p8ba52aa0c5)">
     <use xlink:href="#C1_0_3e6edf142b" x="187.958268" y="199.543356" style="fill: #228b22; fill-opacity: 0.903474; stroke: #228b22; stroke-opacity: 0.903474"/>
    </g>
    <g clip-path="url(#p8ba52aa0c5)">
     <use xlink:href="#C1_0_3e6edf142b" x="285.004991" y="206.218269" style="fill: #228b22; fill-opacity: 0.904735; stroke: #228b22; stroke-opacity: 0.904735"/>
    </g>
    <g clip-path="url(#p8ba52aa0c5)">
     <use xlink:href="#C1_0_3e6edf142b" x="219.267435" y="203.592056" style="fill: #228b22; fill-opacity: 0.967167; stroke: #228b22; stroke-opacity: 0.967167"/>
    </g>
    <g clip-path="url(#p8ba52aa0c5)">
     <use xlink:href="#C1_0_3e6edf142b" x="220.825627" y="205.944116" style="fill: #228b22; fill-opacity: 0.967919; stroke: #228b22; stroke-opacity: 0.967919"/>
    </g>
    <g clip-path="url(#p8ba52aa0c5)">
     <use xlink:href="#C1_0_3e6edf142b" x="233.859805" y="216.902287" style="fill: #228b22; fill-opacity: 0.975585; stroke: #228b22; stroke-opacity: 0.975585"/>
    </g>
    <g clip-path="url(#p8ba52aa0c5)">
     <use xlink:href="#C1_0_3e6edf142b" x="278.150367" y="218.311439" style="fill: #228b22; fill-opacity: 0.984028; stroke: #228b22; stroke-opacity: 0.984028"/>
    </g>
    <g clip-path="url(#p8ba52aa0c5)">
     <use xlink:href="#C1_0_3e6edf142b" x="266.428816" y="208.995141" style="fill: #228b22; fill-opacity: 0.998263; stroke: #228b22; stroke-opacity: 0.998263"/>
    </g>
    <g clip-path="url(#p8ba52aa0c5)">
     <use xlink:href="#C1_0_3e6edf142b" x="273.812822" y="208.556153" style="fill: #228b22; stroke: #228b22"/>
    </g>
   </g>
   <g id="legend_1">
    <g id="patch_6">
     <path d="M 240.144125 108.1845 
L 362.216 108.1845 
Q 364.216 108.1845 364.216 106.1845 
L 364.216 48.472 
Q 364.216 46.472 362.216 46.472 
L 240.144125 46.472 
Q 238.144125 46.472 238.144125 48.472 
L 238.144125 106.1845 
Q 238.144125 108.1845 240.144125 108.1845 
z
" style="fill: #ffffff; opacity: 0.8; stroke: #cccccc; stroke-linejoin: miter"/>
    </g>
    <g id="Path3DCollection_4">
     <g>
      <use xlink:href="#m96ea957b34" x="252.144125" y="55.445438" style="stroke: #000000; stroke-width: 1.5"/>
     </g>
    </g>
    <g id="text_19">
     <!-- Origin -->
     <g transform="translate(270.144125 58.070438) scale(0.1 -0.1)">
      <defs>
       <path id="DejaVuSans-4f" d="M 2522 4238 
Q 1834 4238 1429 3725 
Q 1025 3213 1025 2328 
Q 1025 1447 1429 934 
Q 1834 422 2522 422 
Q 3209 422 3611 934 
Q 4013 1447 4013 2328 
Q 4013 3213 3611 3725 
Q 3209 4238 2522 4238 
z
M 2522 4750 
Q 3503 4750 4090 4092 
Q 4678 3434 4678 2328 
Q 4678 1225 4090 567 
Q 3503 -91 2522 -91 
Q 1538 -91 948 565 
Q 359 1222 359 2328 
Q 359 3434 948 4092 
Q 1538 4750 2522 4750 
z
" transform="scale(0.015625)"/>
       <path id="DejaVuSans-72" d="M 2631 2963 
Q 2534 3019 2420 3045 
Q 2306 3072 2169 3072 
Q 1681 3072 1420 2755 
Q 1159 2438 1159 1844 
L 1159 0 
L 581 0 
L 581 3500 
L 1159 3500 
L 1159 2956 
Q 1341 3275 1631 3429 
Q 1922 3584 2338 3584 
Q 2397 3584 2469 3576 
Q 2541 3569 2628 3553 
L 2631 2963 
z
" transform="scale(0.015625)"/>
       <path id="DejaVuSans-69" d="M 603 3500 
L 1178 3500 
L 1178 0 
L 603 0 
L 603 3500 
z
M 603 4863 
L 1178 4863 
L 1178 4134 
L 603 4134 
L 603 4863 
z
" transform="scale(0.015625)"/>
       <path id="DejaVuSans-67" d="M 2906 1791 
Q 2906 2416 2648 2759 
Q 2391 3103 1925 3103 
Q 1463 3103 1205 2759 
Q 947 2416 947 1791 
Q 947 1169 1205 825 
Q 1463 481 1925 481 
Q 2391 481 2648 825 
Q 2906 1169 2906 1791 
z
M 3481 434 
Q 3481 -459 3084 -895 
Q 2688 -1331 1869 -1331 
Q 1566 -1331 1297 -1286 
Q 1028 -1241 775 -1147 
L 775 -588 
Q 1028 -725 1275 -790 
Q 1522 -856 1778 -856 
Q 2344 -856 2625 -561 
Q 2906 -266 2906 331 
L 2906 616 
Q 2728 306 2450 153 
Q 2172 0 1784 0 
Q 1141 0 747 490 
Q 353 981 353 1791 
Q 353 2603 747 3093 
Q 1141 3584 1784 3584 
Q 2172 3584 2450 3431 
Q 2728 3278 2906 2969 
L 2906 3500 
L 3481 3500 
L 3481 434 
z
" transform="scale(0.015625)"/>
       <path id="DejaVuSans-6e" d="M 3513 2113 
L 3513 0 
L 2938 0 
L 2938 2094 
Q 2938 2591 2744 2837 
Q 2550 3084 2163 3084 
Q 1697 3084 1428 2787 
Q 1159 2491 1159 1978 
L 1159 0 
L 581 0 
L 581 3500 
L 1159 3500 
L 1159 2956 
Q 1366 3272 1645 3428 
Q 1925 3584 2291 3584 
Q 2894 3584 3203 3211 
Q 3513 2838 3513 2113 
z
" transform="scale(0.015625)"/>
      </defs>
      <use xlink:href="#DejaVuSans-4f"/>
      <use xlink:href="#DejaVuSans-72" x="78.710938"/>
      <use xlink:href="#DejaVuSans-69" x="119.824219"/>
      <use xlink:href="#DejaVuSans-67" x="147.607422"/>
      <use xlink:href="#DejaVuSans-69" x="211.083984"/>
      <use xlink:href="#DejaVuSans-6e" x="238.867188"/>
     </g>
    </g>
    <g id="Path3DCollection_5">
     <defs>
      <path id="m721890347e" d="M 0 1.118034 
C 0.296506 1.118034 0.580908 1.000231 0.790569 0.790569 
C 1.000231 0.580908 1.118034 0.296506 1.118034 0 
C 1.118034 -0.296506 1.000231 -0.580908 0.790569 -0.790569 
C 0.580908 -1.000231 0.296506 -1.118034 0 -1.118034 
C -0.296506 -1.118034 -0.580908 -1.000231 -0.790569 -0.790569 
C -1.000231 -0.580908 -1.118034 -0.296506 -1.118034 0 
C -1.118034 0.296506 -1.000231 0.580908 -0.790569 0.790569 
C -0.580908 1.000231 -0.296506 1.118034 0 1.118034 
z
" style="stroke: #228b22"/>
     </defs>
     <g>
      <use xlink:href="#m721890347e" x="252.144125" y="70.123563" style="fill: #228b22; stroke: #228b22"/>
     </g>
    </g>
    <g id="text_20">
     <!-- Posterior Samples -->
     <g transform="translate(270.144125 72.748563) scale(0.1 -0.1)">
      <defs>
       <path id="DejaVuSans-50" d="M 1259 4147 
L 1259 2394 
L 2053 2394 
Q 2494 2394 2734 2622 
Q 2975 2850 2975 3272 
Q 2975 3691 2734 3919 
Q 2494 4147 2053 4147 
L 1259 4147 
z
M 628 4666 
L 2053 4666 
Q 2838 4666 3239 4311 
Q 3641 3956 3641 3272 
Q 3641 2581 3239 2228 
Q 2838 1875 2053 1875 
L 1259 1875 
L 1259 0 
L 628 0 
L 628 4666 
z
" transform="scale(0.015625)"/>
       <path id="DejaVuSans-6f" d="M 1959 3097 
Q 1497 3097 1228 2736 
Q 959 2375 959 1747 
Q 959 1119 1226 758 
Q 1494 397 1959 397 
Q 2419 397 2687 759 
Q 2956 1122 2956 1747 
Q 2956 2369 2687 2733 
Q 2419 3097 1959 3097 
z
M 1959 3584 
Q 2709 3584 3137 3096 
Q 3566 2609 3566 1747 
Q 3566 888 3137 398 
Q 2709 -91 1959 -91 
Q 1206 -91 779 398 
Q 353 888 353 1747 
Q 353 2609 779 3096 
Q 1206 3584 1959 3584 
z
" transform="scale(0.015625)"/>
       <path id="DejaVuSans-73" d="M 2834 3397 
L 2834 2853 
Q 2591 2978 2328 3040 
Q 2066 3103 1784 3103 
Q 1356 3103 1142 2972 
Q 928 2841 928 2578 
Q 928 2378 1081 2264 
Q 1234 2150 1697 2047 
L 1894 2003 
Q 2506 1872 2764 1633 
Q 3022 1394 3022 966 
Q 3022 478 2636 193 
Q 2250 -91 1575 -91 
Q 1294 -91 989 -36 
Q 684 19 347 128 
L 347 722 
Q 666 556 975 473 
Q 1284 391 1588 391 
Q 1994 391 2212 530 
Q 2431 669 2431 922 
Q 2431 1156 2273 1281 
Q 2116 1406 1581 1522 
L 1381 1569 
Q 847 1681 609 1914 
Q 372 2147 372 2553 
Q 372 3047 722 3315 
Q 1072 3584 1716 3584 
Q 2034 3584 2315 3537 
Q 2597 3491 2834 3397 
z
" transform="scale(0.015625)"/>
       <path id="DejaVuSans-74" d="M 1172 4494 
L 1172 3500 
L 2356 3500 
L 2356 3053 
L 1172 3053 
L 1172 1153 
Q 1172 725 1289 603 
Q 1406 481 1766 481 
L 2356 481 
L 2356 0 
L 1766 0 
Q 1100 0 847 248 
Q 594 497 594 1153 
L 594 3053 
L 172 3053 
L 172 3500 
L 594 3500 
L 594 4494 
L 1172 4494 
z
" transform="scale(0.015625)"/>
       <path id="DejaVuSans-65" d="M 3597 1894 
L 3597 1613 
L 953 1613 
Q 991 1019 1311 708 
Q 1631 397 2203 397 
Q 2534 397 2845 478 
Q 3156 559 3463 722 
L 3463 178 
Q 3153 47 2828 -22 
Q 2503 -91 2169 -91 
Q 1331 -91 842 396 
Q 353 884 353 1716 
Q 353 2575 817 3079 
Q 1281 3584 2069 3584 
Q 2775 3584 3186 3129 
Q 3597 2675 3597 1894 
z
M 3022 2063 
Q 3016 2534 2758 2815 
Q 2500 3097 2075 3097 
Q 1594 3097 1305 2825 
Q 1016 2553 972 2059 
L 3022 2063 
z
" transform="scale(0.015625)"/>
       <path id="DejaVuSans-20" transform="scale(0.015625)"/>
       <path id="DejaVuSans-53" d="M 3425 4513 
L 3425 3897 
Q 3066 4069 2747 4153 
Q 2428 4238 2131 4238 
Q 1616 4238 1336 4038 
Q 1056 3838 1056 3469 
Q 1056 3159 1242 3001 
Q 1428 2844 1947 2747 
L 2328 2669 
Q 3034 2534 3370 2195 
Q 3706 1856 3706 1288 
Q 3706 609 3251 259 
Q 2797 -91 1919 -91 
Q 1588 -91 1214 -16 
Q 841 59 441 206 
L 441 856 
Q 825 641 1194 531 
Q 1563 422 1919 422 
Q 2459 422 2753 634 
Q 3047 847 3047 1241 
Q 3047 1584 2836 1778 
Q 2625 1972 2144 2069 
L 1759 2144 
Q 1053 2284 737 2584 
Q 422 2884 422 3419 
Q 422 4038 858 4394 
Q 1294 4750 2059 4750 
Q 2388 4750 2728 4690 
Q 3069 4631 3425 4513 
z
" transform="scale(0.015625)"/>
       <path id="DejaVuSans-61" d="M 2194 1759 
Q 1497 1759 1228 1600 
Q 959 1441 959 1056 
Q 959 750 1161 570 
Q 1363 391 1709 391 
Q 2188 391 2477 730 
Q 2766 1069 2766 1631 
L 2766 1759 
L 2194 1759 
z
M 3341 1997 
L 3341 0 
L 2766 0 
L 2766 531 
Q 2569 213 2275 61 
Q 1981 -91 1556 -91 
Q 1019 -91 701 211 
Q 384 513 384 1019 
Q 384 1609 779 1909 
Q 1175 2209 1959 2209 
L 2766 2209 
L 2766 2266 
Q 2766 2663 2505 2880 
Q 2244 3097 1772 3097 
Q 1472 3097 1187 3025 
Q 903 2953 641 2809 
L 641 3341 
Q 956 3463 1253 3523 
Q 1550 3584 1831 3584 
Q 2591 3584 2966 3190 
Q 3341 2797 3341 1997 
z
" transform="scale(0.015625)"/>
       <path id="DejaVuSans-6d" d="M 3328 2828 
Q 3544 3216 3844 3400 
Q 4144 3584 4550 3584 
Q 5097 3584 5394 3201 
Q 5691 2819 5691 2113 
L 5691 0 
L 5113 0 
L 5113 2094 
Q 5113 2597 4934 2840 
Q 4756 3084 4391 3084 
Q 3944 3084 3684 2787 
Q 3425 2491 3425 1978 
L 3425 0 
L 2847 0 
L 2847 2094 
Q 2847 2600 2669 2842 
Q 2491 3084 2119 3084 
Q 1678 3084 1418 2786 
Q 1159 2488 1159 1978 
L 1159 0 
L 581 0 
L 581 3500 
L 1159 3500 
L 1159 2956 
Q 1356 3278 1631 3431 
Q 1906 3584 2284 3584 
Q 2666 3584 2933 3390 
Q 3200 3197 3328 2828 
z
" transform="scale(0.015625)"/>
       <path id="DejaVuSans-70" d="M 1159 525 
L 1159 -1331 
L 581 -1331 
L 581 3500 
L 1159 3500 
L 1159 2969 
Q 1341 3281 1617 3432 
Q 1894 3584 2278 3584 
Q 2916 3584 3314 3078 
Q 3713 2572 3713 1747 
Q 3713 922 3314 415 
Q 2916 -91 2278 -91 
Q 1894 -91 1617 61 
Q 1341 213 1159 525 
z
M 3116 1747 
Q 3116 2381 2855 2742 
Q 2594 3103 2138 3103 
Q 1681 3103 1420 2742 
Q 1159 2381 1159 1747 
Q 1159 1113 1420 752 
Q 1681 391 2138 391 
Q 2594 391 2855 752 
Q 3116 1113 3116 1747 
z
" transform="scale(0.015625)"/>
       <path id="DejaVuSans-6c" d="M 603 4863 
L 1178 4863 
L 1178 0 
L 603 0 
L 603 4863 
z
" transform="scale(0.015625)"/>
      </defs>
      <use xlink:href="#DejaVuSans-50"/>
      <use xlink:href="#DejaVuSans-6f" x="56.677734"/>
      <use xlink:href="#DejaVuSans-73" x="117.859375"/>
      <use xlink:href="#DejaVuSans-74" x="169.958984"/>
      <use xlink:href="#DejaVuSans-65" x="209.167969"/>
      <use xlink:href="#DejaVuSans-72" x="270.691406"/>
      <use xlink:href="#DejaVuSans-69" x="311.804688"/>
      <use xlink:href="#DejaVuSans-6f" x="339.587891"/>
      <use xlink:href="#DejaVuSans-72" x="400.769531"/>
      <use xlink:href="#DejaVuSans-20" x="441.882812"/>
      <use xlink:href="#DejaVuSans-53" x="473.669922"/>
      <use xlink:href="#DejaVuSans-61" x="537.146484"/>
      <use xlink:href="#DejaVuSans-6d" x="598.425781"/>
      <use xlink:href="#DejaVuSans-70" x="695.837891"/>
      <use xlink:href="#DejaVuSans-6c" x="759.314453"/>
      <use xlink:href="#DejaVuSans-65" x="787.097656"/>
      <use xlink:href="#DejaVuSans-73" x="848.621094"/>
     </g>
    </g>
    <g id="Path3DCollection_6">
     <defs>
      <path id="m00fc527d30" d="M 0 -2.236068 
L -0.502029 -0.690983 
L -2.126627 -0.690983 
L -0.812299 0.263932 
L -1.314328 1.809017 
L -0 0.854102 
L 1.314328 1.809017 
L 0.812299 0.263932 
L 2.126627 -0.690983 
L 0.502029 -0.690983 
z
" style="stroke: #ff0000; stroke-width: 4"/>
     </defs>
     <g>
      <use xlink:href="#m00fc527d30" x="252.144125" y="84.801688" style="fill: #ff0000; stroke: #ff0000; stroke-width: 4"/>
     </g>
    </g>
    <g id="text_21">
     <!-- True Signal -->
     <g transform="translate(270.144125 87.426688) scale(0.1 -0.1)">
      <defs>
       <path id="DejaVuSans-54" d="M -19 4666 
L 3928 4666 
L 3928 4134 
L 2272 4134 
L 2272 0 
L 1638 0 
L 1638 4134 
L -19 4134 
L -19 4666 
z
" transform="scale(0.015625)"/>
       <path id="DejaVuSans-75" d="M 544 1381 
L 544 3500 
L 1119 3500 
L 1119 1403 
Q 1119 906 1312 657 
Q 1506 409 1894 409 
Q 2359 409 2629 706 
Q 2900 1003 2900 1516 
L 2900 3500 
L 3475 3500 
L 3475 0 
L 2900 0 
L 2900 538 
Q 2691 219 2414 64 
Q 2138 -91 1772 -91 
Q 1169 -91 856 284 
Q 544 659 544 1381 
z
M 1991 3584 
L 1991 3584 
z
" transform="scale(0.015625)"/>
      </defs>
      <use xlink:href="#DejaVuSans-54"/>
      <use xlink:href="#DejaVuSans-72" x="46.333984"/>
      <use xlink:href="#DejaVuSans-75" x="87.447266"/>
      <use xlink:href="#DejaVuSans-65" x="150.826172"/>
      <use xlink:href="#DejaVuSans-20" x="212.349609"/>
      <use xlink:href="#DejaVuSans-53" x="244.136719"/>
      <use xlink:href="#DejaVuSans-69" x="307.613281"/>
      <use xlink:href="#DejaVuSans-67" x="335.396484"/>
      <use xlink:href="#DejaVuSans-6e" x="398.873047"/>
      <use xlink:href="#DejaVuSans-61" x="462.251953"/>
      <use xlink:href="#DejaVuSans-6c" x="523.53125"/>
     </g>
    </g>
    <g id="line2d_21">
     <path d="M 242.144125 98.604813 
L 252.144125 98.604813 
L 262.144125 98.604813 
" style="fill: none; stroke-dasharray: 1.5,2.475; stroke-dashoffset: 0; stroke: #ff0000; stroke-width: 1.5"/>
    </g>
    <g id="text_22">
     <!-- Phase Manifold -->
     <g transform="translate(270.144125 102.104813) scale(0.1 -0.1)">
      <defs>
       <path id="DejaVuSans-68" d="M 3513 2113 
L 3513 0 
L 2938 0 
L 2938 2094 
Q 2938 2591 2744 2837 
Q 2550 3084 2163 3084 
Q 1697 3084 1428 2787 
Q 1159 2491 1159 1978 
L 1159 0 
L 581 0 
L 581 4863 
L 1159 4863 
L 1159 2956 
Q 1366 3272 1645 3428 
Q 1925 3584 2291 3584 
Q 2894 3584 3203 3211 
Q 3513 2838 3513 2113 
z
" transform="scale(0.015625)"/>
       <path id="DejaVuSans-4d" d="M 628 4666 
L 1569 4666 
L 2759 1491 
L 3956 4666 
L 4897 4666 
L 4897 0 
L 4281 0 
L 4281 4097 
L 3078 897 
L 2444 897 
L 1241 4097 
L 1241 0 
L 628 0 
L 628 4666 
z
" transform="scale(0.015625)"/>
       <path id="DejaVuSans-66" d="M 2375 4863 
L 2375 4384 
L 1825 4384 
Q 1516 4384 1395 4259 
Q 1275 4134 1275 3809 
L 1275 3500 
L 2222 3500 
L 2222 3053 
L 1275 3053 
L 1275 0 
L 697 0 
L 697 3053 
L 147 3053 
L 147 3500 
L 697 3500 
L 697 3744 
Q 697 4328 969 4595 
Q 1241 4863 1831 4863 
L 2375 4863 
z
" transform="scale(0.015625)"/>
       <path id="DejaVuSans-64" d="M 2906 2969 
L 2906 4863 
L 3481 4863 
L 3481 0 
L 2906 0 
L 2906 525 
Q 2725 213 2448 61 
Q 2172 -91 1784 -91 
Q 1150 -91 751 415 
Q 353 922 353 1747 
Q 353 2572 751 3078 
Q 1150 3584 1784 3584 
Q 2172 3584 2448 3432 
Q 2725 3281 2906 2969 
z
M 947 1747 
Q 947 1113 1208 752 
Q 1469 391 1925 391 
Q 2381 391 2643 752 
Q 2906 1113 2906 1747 
Q 2906 2381 2643 2742 
Q 2381 3103 1925 3103 
Q 1469 3103 1208 2742 
Q 947 2381 947 1747 
z
" transform="scale(0.015625)"/>
      </defs>
      <use xlink:href="#DejaVuSans-50"/>
      <use xlink:href="#DejaVuSans-68" x="60.302734"/>
      <use xlink:href="#DejaVuSans-61" x="123.681641"/>
      <use xlink:href="#DejaVuSans-73" x="184.960938"/>
      <use xlink:href="#DejaVuSans-65" x="237.060547"/>
      <use xlink:href="#DejaVuSans-20" x="298.583984"/>
      <use xlink:href="#DejaVuSans-4d" x="330.371094"/>
      <use xlink:href="#DejaVuSans-61" x="416.650391"/>
      <use xlink:href="#DejaVuSans-6e" x="477.929688"/>
      <use xlink:href="#DejaVuSans-69" x="541.308594"/>
      <use xlink:href="#DejaVuSans-66" x="569.091797"/>
      <use xlink:href="#DejaVuSans-6f" x="604.296875"/>
      <use xlink:href="#DejaVuSans-6c" x="665.478516"/>
      <use xlink:href="#DejaVuSans-64" x="693.261719"/>
     </g>
    </g>
   </g>
  </g>
 </g>
 <defs>
  <clipPath id="p8ba52aa0c5">
   <rect x="103.104" y="41.472" width="266.112" height="266.112"/>
  </clipPath>
 </defs>
</svg>
