<?xml version="1.0" encoding="utf-8" standalone="no"?>
<!DOCTYPE svg PUBLIC "-//W3C//DTD SVG 1.1//EN"
  "http://www.w3.org/Graphics/SVG/1.1/DTD/svg11.dtd">
<svg xmlns:xlink="http://www.w3.org/1999/xlink" width="460.8pt" height="345.6pt" viewBox="0 0 460.8 345.6" xmlns="http://www.w3.org/2000/svg" version="1.1">
 <metadata>
  <rdf:RDF xmlns:dc="http://purl.org/dc/elements/1.1/" xmlns:cc="http://creativecommons.org/ns#" xmlns:rdf="http://www.w3.org/1999/02/22-rdf-syntax-ns#">
   <cc:Work>
    <dc:type rdf:resource="http://purl.org/dc/dcmitype/StillImage"/>
    <dc:date>2025-06-03T15:10:03.652479</dc:date>
    <dc:format>image/svg+xml</dc:format>
    <dc:creator>
     <cc:Agent>
      <dc:title>Matplotlib v3.9.2, https://matplotlib.org/</dc:title>
     </cc:Agent>
    </dc:creator>
   </cc:Work>
  </rdf:RDF>
 </metadata>
 <defs>
  <style type="text/css">*{stroke-linejoin: round; stroke-linecap: butt}</style>
 </defs>
 <g id="figure_1">
  <g id="patch_1">
   <path d="M 0 345.6 
L 460.8 345.6 
L 460.8 0 
L 0 0 
z
" style="fill: #ffffff"/>
  </g>
  <g id="patch_2">
   <path d="M 103.104 307.584 
L 369.216 307.584 
L 369.216 41.472 
L 103.104 41.472 
z
" style="fill: #ffffff"/>
  </g>
  <g id="pane3d_1">
   <g id="patch_3">
    <path d="M 236.261629 171.361816 
L 348.527722 235.910941 
L 355.616629 106.261494 
L 236.048433 46.055771 
" style="fill: #f2f2f2; opacity: 0.5; stroke: #f2f2f2; stroke-linejoin: miter"/>
   </g>
  </g>
  <g id="pane3d_2">
   <g id="patch_4">
    <path d="M 236.261629 171.361816 
L 131.443196 231.389407 
L 124.415884 102.028823 
L 236.048433 46.055771 
" style="fill: #e6e6e6; opacity: 0.5; stroke: #e6e6e6; stroke-linejoin: miter"/>
   </g>
  </g>
  <g id="pane3d_3">
   <g id="patch_5">
    <path d="M 236.261629 171.361816 
L 131.443196 231.389407 
L 243.711046 304.135934 
L 348.527722 235.910941 
" style="fill: #ececec; opacity: 0.5; stroke: #ececec; stroke-linejoin: miter"/>
   </g>
  </g>
  <g id="grid3d_1">
   <g id="Line3DCollection_1">
    <path d="M 342.247186 239.998931 
L 229.958374 174.971574 
L 229.358347 49.41021 
" style="fill: none; stroke: #b0b0b0; stroke-width: 0.8"/>
    <path d="M 321.376227 253.583802 
L 209.032684 186.955332 
L 207.12746 60.556875 
" style="fill: none; stroke: #b0b0b0; stroke-width: 0.8"/>
    <path d="M 299.971662 267.515996 
L 187.605089 199.226522 
L 184.329874 71.987684 
" style="fill: none; stroke: #b0b0b0; stroke-width: 0.8"/>
    <path d="M 278.012762 281.809006 
L 165.657312 211.795611 
L 160.943642 83.713644 
" style="fill: none; stroke: #b0b0b0; stroke-width: 0.8"/>
    <path d="M 255.47771 296.477033 
L 143.170176 224.67358 
L 136.945666 95.746335 
" style="fill: none; stroke: #b0b0b0; stroke-width: 0.8"/>
   </g>
  </g>
  <g id="grid3d_2">
   <g id="Line3DCollection_2">
    <path d="M 243.184932 49.649186 
L 242.987014 175.228679 
L 138.144552 235.731704 
" style="fill: none; stroke: #b0b0b0; stroke-width: 0.8"/>
    <path d="M 265.334163 60.801904 
L 263.840246 187.218568 
L 158.942777 249.208391 
" style="fill: none; stroke: #b0b0b0; stroke-width: 0.8"/>
    <path d="M 288.048167 72.239001 
L 285.193777 199.49611 
L 180.270588 263.028235 
" style="fill: none; stroke: #b0b0b0; stroke-width: 0.8"/>
    <path d="M 311.348823 83.971493 
L 307.065829 212.071785 
L 202.148471 277.204511 
" style="fill: none; stroke: #b0b0b0; stroke-width: 0.8"/>
    <path d="M 335.259159 96.010974 
L 329.475521 224.956583 
L 224.597986 291.751188 
" style="fill: none; stroke: #b0b0b0; stroke-width: 0.8"/>
   </g>
  </g>
  <g id="grid3d_3">
   <g id="Line3DCollection_3">
    <path d="M 131.022415 223.643573 
L 236.24882 163.833035 
L 348.952081 228.149816 
" style="fill: none; stroke: #b0b0b0; stroke-width: 0.8"/>
    <path d="M 129.669229 198.73376 
L 236.207664 139.643514 
L 350.316871 203.189097 
" style="fill: none; stroke: #b0b0b0; stroke-width: 0.8"/>
    <path d="M 128.281937 173.196131 
L 236.16553 114.879551 
L 351.716208 177.596536 
" style="fill: none; stroke: #b0b0b0; stroke-width: 0.8"/>
    <path d="M 126.859234 147.006647 
L 236.122384 89.520436 
L 353.151421 151.347834 
" style="fill: none; stroke: #b0b0b0; stroke-width: 0.8"/>
    <path d="M 125.399747 120.140028 
L 236.078188 63.544455 
L 354.623908 124.417431 
" style="fill: none; stroke: #b0b0b0; stroke-width: 0.8"/>
   </g>
  </g>
  <g id="axis3d_1">
   <g id="line2d_1">
    <path d="M 348.527722 235.910941 
L 243.711046 304.135934 
" style="fill: none; stroke: #000000; stroke-width: 0.8; stroke-linecap: square"/>
   </g>
   <g id="xtick_1">
    <g id="line2d_2">
     <path d="M 341.291602 239.445545 
L 344.161306 241.107414 
" style="fill: none; stroke: #000000; stroke-width: 0.8; stroke-linecap: square"/>
    </g>
    <g id="text_1">
     <!-- −1.0 -->
     <g transform="translate(339.501739 263.460442) scale(0.1 -0.1)">
      <defs>
       <path id="DejaVuSans-2212" d="M 678 2272 
L 4684 2272 
L 4684 1741 
L 678 1741 
L 678 2272 
z
" transform="scale(0.015625)"/>
       <path id="DejaVuSans-31" d="M 794 531 
L 1825 531 
L 1825 4091 
L 703 3866 
L 703 4441 
L 1819 4666 
L 2450 4666 
L 2450 531 
L 3481 531 
L 3481 0 
L 794 0 
L 794 531 
z
" transform="scale(0.015625)"/>
       <path id="DejaVuSans-2e" d="M 684 794 
L 1344 794 
L 1344 0 
L 684 0 
L 684 794 
z
" transform="scale(0.015625)"/>
       <path id="DejaVuSans-30" d="M 2034 4250 
Q 1547 4250 1301 3770 
Q 1056 3291 1056 2328 
Q 1056 1369 1301 889 
Q 1547 409 2034 409 
Q 2525 409 2770 889 
Q 3016 1369 3016 2328 
Q 3016 3291 2770 3770 
Q 2525 4250 2034 4250 
z
M 2034 4750 
Q 2819 4750 3233 4129 
Q 3647 3509 3647 2328 
Q 3647 1150 3233 529 
Q 2819 -91 2034 -91 
Q 1250 -91 836 529 
Q 422 1150 422 2328 
Q 422 3509 836 4129 
Q 1250 4750 2034 4750 
z
" transform="scale(0.015625)"/>
      </defs>
      <use xlink:href="#DejaVuSans-2212"/>
      <use xlink:href="#DejaVuSans-31" x="83.789062"/>
      <use xlink:href="#DejaVuSans-2e" x="147.412109"/>
      <use xlink:href="#DejaVuSans-30" x="179.199219"/>
     </g>
    </g>
   </g>
   <g id="xtick_2">
    <g id="line2d_3">
     <path d="M 320.419455 253.016361 
L 323.292766 254.720459 
" style="fill: none; stroke: #000000; stroke-width: 0.8; stroke-linecap: square"/>
    </g>
    <g id="text_2">
     <!-- −0.5 -->
     <g transform="translate(318.744344 277.248882) scale(0.1 -0.1)">
      <defs>
       <path id="DejaVuSans-35" d="M 691 4666 
L 3169 4666 
L 3169 4134 
L 1269 4134 
L 1269 2991 
Q 1406 3038 1543 3061 
Q 1681 3084 1819 3084 
Q 2600 3084 3056 2656 
Q 3513 2228 3513 1497 
Q 3513 744 3044 326 
Q 2575 -91 1722 -91 
Q 1428 -91 1123 -41 
Q 819 9 494 109 
L 494 744 
Q 775 591 1075 516 
Q 1375 441 1709 441 
Q 2250 441 2565 725 
Q 2881 1009 2881 1497 
Q 2881 1984 2565 2268 
Q 2250 2553 1709 2553 
Q 1456 2553 1204 2497 
Q 953 2441 691 2322 
L 691 4666 
z
" transform="scale(0.015625)"/>
      </defs>
      <use xlink:href="#DejaVuSans-2212"/>
      <use xlink:href="#DejaVuSans-30" x="83.789062"/>
      <use xlink:href="#DejaVuSans-2e" x="147.412109"/>
      <use xlink:href="#DejaVuSans-35" x="179.199219"/>
     </g>
    </g>
   </g>
   <g id="xtick_3">
    <g id="line2d_4">
     <path d="M 299.013952 266.933959 
L 301.890118 268.681915 
" style="fill: none; stroke: #000000; stroke-width: 0.8; stroke-linecap: square"/>
    </g>
    <g id="text_3">
     <!-- 0.0 -->
     <g transform="translate(301.64596 291.389936) scale(0.1 -0.1)">
      <use xlink:href="#DejaVuSans-30"/>
      <use xlink:href="#DejaVuSans-2e" x="63.623047"/>
      <use xlink:href="#DejaVuSans-30" x="95.410156"/>
     </g>
    </g>
   </g>
   <g id="xtick_4">
    <g id="line2d_5">
     <path d="M 277.054386 281.211802 
L 279.932591 283.005332 
" style="fill: none; stroke: #000000; stroke-width: 0.8; stroke-linecap: square"/>
    </g>
    <g id="text_4">
     <!-- 0.5 -->
     <g transform="translate(279.806273 305.897307) scale(0.1 -0.1)">
      <use xlink:href="#DejaVuSans-30"/>
      <use xlink:href="#DejaVuSans-2e" x="63.623047"/>
      <use xlink:href="#DejaVuSans-35" x="95.410156"/>
     </g>
    </g>
   </g>
   <g id="xtick_5">
    <g id="line2d_6">
     <path d="M 254.518963 295.864061 
L 257.398323 297.70497 
" style="fill: none; stroke: #000000; stroke-width: 0.8; stroke-linecap: square"/>
    </g>
    <g id="text_5">
     <!-- 1.0 -->
     <g transform="translate(257.393417 320.785414) scale(0.1 -0.1)">
      <use xlink:href="#DejaVuSans-31"/>
      <use xlink:href="#DejaVuSans-2e" x="63.623047"/>
      <use xlink:href="#DejaVuSans-30" x="95.410156"/>
     </g>
    </g>
   </g>
   <g id="text_6">
    <!-- x -->
    <g transform="translate(315.734248 307.17017) scale(0.1 -0.1)">
     <defs>
      <path id="DejaVuSans-78" d="M 3513 3500 
L 2247 1797 
L 3578 0 
L 2900 0 
L 1881 1375 
L 863 0 
L 184 0 
L 1544 1831 
L 300 3500 
L 978 3500 
L 1906 2253 
L 2834 3500 
L 3513 3500 
z
" transform="scale(0.015625)"/>
     </defs>
     <use xlink:href="#DejaVuSans-78"/>
    </g>
   </g>
  </g>
  <g id="axis3d_2">
   <g id="line2d_7">
    <path d="M 131.443196 231.389407 
L 243.711046 304.135934 
" style="fill: none; stroke: #000000; stroke-width: 0.8; stroke-linecap: square"/>
   </g>
   <g id="xtick_6">
    <g id="line2d_8">
     <path d="M 139.033035 235.218973 
L 136.365031 236.758639 
" style="fill: none; stroke: #000000; stroke-width: 0.8; stroke-linecap: square"/>
    </g>
    <g id="text_7">
     <!-- −1.0 -->
     <g transform="translate(117.300507 258.747154) scale(0.1 -0.1)">
      <use xlink:href="#DejaVuSans-2212"/>
      <use xlink:href="#DejaVuSans-31" x="83.789062"/>
      <use xlink:href="#DejaVuSans-2e" x="147.412109"/>
      <use xlink:href="#DejaVuSans-30" x="179.199219"/>
     </g>
    </g>
   </g>
   <g id="xtick_7">
    <g id="line2d_9">
     <path d="M 159.832352 248.682691 
L 157.161038 250.261321 
" style="fill: none; stroke: #000000; stroke-width: 0.8; stroke-linecap: square"/>
    </g>
    <g id="text_8">
     <!-- −0.5 -->
     <g transform="translate(137.986964 272.416094) scale(0.1 -0.1)">
      <use xlink:href="#DejaVuSans-2212"/>
      <use xlink:href="#DejaVuSans-30" x="83.789062"/>
      <use xlink:href="#DejaVuSans-2e" x="147.412109"/>
      <use xlink:href="#DejaVuSans-35" x="179.199219"/>
     </g>
    </g>
   </g>
   <g id="xtick_8">
    <g id="line2d_10">
     <path d="M 181.161022 262.489067 
L 178.487094 264.108159 
" style="fill: none; stroke: #000000; stroke-width: 0.8; stroke-linecap: square"/>
    </g>
    <g id="text_9">
     <!-- 0.0 -->
     <g transform="translate(163.389944 286.433045) scale(0.1 -0.1)">
      <use xlink:href="#DejaVuSans-30"/>
      <use xlink:href="#DejaVuSans-2e" x="63.623047"/>
      <use xlink:href="#DejaVuSans-30" x="95.410156"/>
     </g>
    </g>
   </g>
   <g id="xtick_9">
    <g id="line2d_11">
     <path d="M 203.039514 276.651351 
L 200.363725 278.312482 
" style="fill: none; stroke: #000000; stroke-width: 0.8; stroke-linecap: square"/>
    </g>
    <g id="text_10">
     <!-- 0.5 -->
     <g transform="translate(185.15013 300.81147) scale(0.1 -0.1)">
      <use xlink:href="#DejaVuSans-30"/>
      <use xlink:href="#DejaVuSans-2e" x="63.623047"/>
      <use xlink:href="#DejaVuSans-35" x="95.410156"/>
     </g>
    </g>
   </g>
   <g id="xtick_10">
    <g id="line2d_12">
     <path d="M 225.489365 291.183485 
L 222.81253 292.888313 
" style="fill: none; stroke: #000000; stroke-width: 0.8; stroke-linecap: square"/>
    </g>
    <g id="text_11">
     <!-- 1.0 -->
     <g transform="translate(207.478806 315.565534) scale(0.1 -0.1)">
      <use xlink:href="#DejaVuSans-31"/>
      <use xlink:href="#DejaVuSans-2e" x="63.623047"/>
      <use xlink:href="#DejaVuSans-30" x="95.410156"/>
     </g>
    </g>
   </g>
   <g id="text_12">
    <!-- y -->
    <g transform="translate(163.296177 303.790315) scale(0.1 -0.1)">
     <defs>
      <path id="DejaVuSans-79" d="M 2059 -325 
Q 1816 -950 1584 -1140 
Q 1353 -1331 966 -1331 
L 506 -1331 
L 506 -850 
L 844 -850 
Q 1081 -850 1212 -737 
Q 1344 -625 1503 -206 
L 1606 56 
L 191 3500 
L 800 3500 
L 1894 763 
L 2988 3500 
L 3597 3500 
L 2059 -325 
z
" transform="scale(0.015625)"/>
     </defs>
     <use xlink:href="#DejaVuSans-79"/>
    </g>
   </g>
  </g>
  <g id="axis3d_3">
   <g id="line2d_13">
    <path d="M 131.443196 231.389407 
L 124.415884 102.028823 
" style="fill: none; stroke: #000000; stroke-width: 0.8; stroke-linecap: square"/>
   </g>
   <g id="xtick_11">
    <g id="line2d_14">
     <path d="M 131.914144 223.136716 
L 129.236397 224.658744 
" style="fill: none; stroke: #000000; stroke-width: 0.8; stroke-linecap: square"/>
    </g>
    <g id="text_13">
     <!-- −1.0 -->
     <g transform="translate(100.881695 230.86983) scale(0.1 -0.1)">
      <use xlink:href="#DejaVuSans-2212"/>
      <use xlink:href="#DejaVuSans-31" x="83.789062"/>
      <use xlink:href="#DejaVuSans-2e" x="147.412109"/>
      <use xlink:href="#DejaVuSans-30" x="179.199219"/>
     </g>
    </g>
   </g>
   <g id="xtick_12">
    <g id="line2d_15">
     <path d="M 130.572704 198.232658 
L 127.859649 199.737421 
" style="fill: none; stroke: #000000; stroke-width: 0.8; stroke-linecap: square"/>
    </g>
    <g id="text_14">
     <!-- −0.5 -->
     <g transform="translate(99.305068 205.964242) scale(0.1 -0.1)">
      <use xlink:href="#DejaVuSans-2212"/>
      <use xlink:href="#DejaVuSans-30" x="83.789062"/>
      <use xlink:href="#DejaVuSans-2e" x="147.412109"/>
      <use xlink:href="#DejaVuSans-35" x="179.199219"/>
     </g>
    </g>
   </g>
   <g id="xtick_13">
    <g id="line2d_16">
     <path d="M 129.197472 172.701237 
L 126.448169 174.187376 
" style="fill: none; stroke: #000000; stroke-width: 0.8; stroke-linecap: square"/>
    </g>
    <g id="text_15">
     <!-- 0.0 -->
     <g transform="translate(101.878563 180.431171) scale(0.1 -0.1)">
      <use xlink:href="#DejaVuSans-30"/>
      <use xlink:href="#DejaVuSans-2e" x="63.623047"/>
      <use xlink:href="#DejaVuSans-30" x="95.410156"/>
     </g>
    </g>
   </g>
   <g id="xtick_14">
    <g id="line2d_17">
     <path d="M 127.787155 146.518443 
L 125.000624 147.98451 
" style="fill: none; stroke: #000000; stroke-width: 0.8; stroke-linecap: square"/>
    </g>
    <g id="text_16">
     <!-- 0.5 -->
     <g transform="translate(100.220971 154.246599) scale(0.1 -0.1)">
      <use xlink:href="#DejaVuSans-30"/>
      <use xlink:href="#DejaVuSans-2e" x="63.623047"/>
      <use xlink:href="#DejaVuSans-35" x="95.410156"/>
     </g>
    </g>
   </g>
   <g id="xtick_15">
    <g id="line2d_18">
     <path d="M 126.340392 119.659028 
L 123.515615 121.103481 
" style="fill: none; stroke: #000000; stroke-width: 0.8; stroke-linecap: square"/>
    </g>
    <g id="text_17">
     <!-- 1.0 -->
     <g transform="translate(98.520538 127.385269) scale(0.1 -0.1)">
      <use xlink:href="#DejaVuSans-31"/>
      <use xlink:href="#DejaVuSans-2e" x="63.623047"/>
      <use xlink:href="#DejaVuSans-30" x="95.410156"/>
     </g>
    </g>
   </g>
   <g id="text_18">
    <!-- z -->
    <g transform="translate(85.233249 170.712901) scale(0.1 -0.1)">
     <defs>
      <path id="DejaVuSans-7a" d="M 353 3500 
L 3084 3500 
L 3084 2975 
L 922 459 
L 3084 459 
L 3084 0 
L 275 0 
L 275 525 
L 2438 3041 
L 353 3041 
L 353 3500 
z
" transform="scale(0.015625)"/>
     </defs>
     <use xlink:href="#DejaVuSans-7a"/>
    </g>
   </g>
  </g>
  <g id="axes_1">
   <g id="line2d_19">
    <path d="M 236.352582 117.843703 
L 233.002813 117.950019 
L 229.666524 118.268539 
L 226.357142 118.797982 
L 223.087985 119.536217 
L 219.872213 120.480276 
L 216.722767 121.62636 
L 213.652325 122.969859 
L 210.673245 124.505368 
L 207.797519 126.226709 
L 205.036724 128.126958 
L 202.401974 130.198469 
L 199.903876 132.432907 
L 197.552489 134.821281 
L 195.357282 137.353982 
L 193.327093 140.020817 
L 191.470101 142.811056 
L 189.793784 145.713467 
L 188.304898 148.716371 
L 187.009439 151.807682 
L 185.912631 154.974955 
L 185.018893 158.205443 
L 184.331832 161.48614 
L 183.85422 164.803839 
L 183.587986 168.145183 
L 183.534209 171.496718 
L 183.693112 174.844949 
L 184.064063 178.176393 
L 184.645574 181.477634 
L 185.435309 184.735378 
L 186.430096 187.936502 
L 187.625933 191.068115 
L 189.018011 194.1176 
L 190.600728 197.072674 
L 192.367716 199.921432 
L 194.311861 202.652398 
L 196.425339 205.254568 
L 198.69964 207.717457 
L 201.125607 210.031142 
L 203.693471 212.1863 
L 206.392892 214.174245 
L 209.212996 215.986967 
L 212.142427 217.617161 
L 215.169384 219.058256 
L 218.281675 220.304445 
L 221.466764 221.350704 
L 224.711818 222.192817 
L 228.003767 222.82739 
L 231.329347 223.251865 
L 234.675163 223.464531 
L 238.027733 223.464531 
L 241.373553 223.251865 
L 244.699142 222.82739 
L 247.991105 222.192817 
L 251.236177 221.350704 
L 254.421288 220.304445 
L 257.533606 219.058256 
L 260.560595 217.617161 
L 263.49006 215.986967 
L 266.310204 214.174245 
L 269.009666 212.1863 
L 271.577577 210.031142 
L 274.003593 207.717457 
L 276.277947 205.254568 
L 278.391481 202.652398 
L 280.335686 199.921432 
L 282.102734 197.072674 
L 283.685515 194.1176 
L 285.077658 191.068115 
L 286.273563 187.936502 
L 287.268418 184.735378 
L 288.058224 181.477634 
L 288.639805 178.176393 
L 289.010827 174.844949 
L 289.169803 171.496718 
L 289.116098 168.145183 
L 288.849936 164.803839 
L 288.372394 161.48614 
L 287.685404 158.205443 
L 286.791736 154.974955 
L 285.694995 151.807682 
L 284.399604 148.716371 
L 282.910781 145.713467 
L 281.234527 142.811056 
L 279.377595 140.020817 
L 277.347463 137.353982 
L 275.15231 134.821281 
L 272.800975 132.432907 
L 270.302925 130.198469 
L 267.668219 128.126958 
L 264.907465 126.226709 
L 262.031776 124.505368 
L 259.052729 122.969859 
L 255.982316 121.62636 
L 252.832895 120.480276 
L 249.617142 119.536217 
L 246.348002 118.797982 
L 243.038631 118.268539 
L 239.702348 117.950019 
L 236.352582 117.843703 
" clip-path="url(#p9cf1f7165a)" style="fill: none; stroke-dasharray: 1.5,2.475; stroke-dashoffset: 0; stroke: #ff0000; stroke-width: 1.5"/>
   </g>
   <g id="line2d_20">
    <path d="M 236.520587 120.791903 
L 233.336171 120.892971 
L 230.164569 121.195771 
L 227.018546 121.699084 
L 223.910764 122.400885 
L 220.853733 123.29835 
L 217.859755 124.38787 
L 214.940884 125.665061 
L 212.108866 127.124785 
L 209.375104 128.761169 
L 206.750601 130.567629 
L 204.245923 132.536897 
L 201.871155 134.661049 
L 199.635857 136.931538 
L 197.549032 139.339228 
L 195.619082 141.87443 
L 193.853781 144.526941 
L 192.260239 147.286086 
L 190.844876 150.140761 
L 189.613394 153.079475 
L 188.570757 156.0904 
L 187.721168 159.161415 
L 187.068053 162.280158 
L 186.614047 165.434073 
L 186.360984 168.610462 
L 186.30989 171.796536 
L 186.460977 174.979466 
L 186.813641 178.146434 
L 187.366468 181.284688 
L 188.11724 184.381588 
L 189.062937 187.424662 
L 190.199756 190.401652 
L 191.523126 193.300568 
L 193.027721 196.109731 
L 194.707485 198.817826 
L 196.555659 201.413941 
L 198.564801 203.887619 
L 200.726823 206.228892 
L 203.03302 208.428327 
L 205.474105 210.477061 
L 208.040248 212.366838 
L 210.721114 214.090044 
L 213.505906 215.639735 
L 216.383406 217.009664 
L 219.342026 218.194311 
L 222.369846 219.188902 
L 225.45467 219.989429 
L 228.584071 220.592664 
L 231.745442 220.996176 
L 234.926048 221.19834 
L 238.113076 221.19834 
L 241.293687 220.996176 
L 244.455067 220.592664 
L 247.58448 219.989429 
L 250.66932 219.188902 
L 253.697161 218.194311 
L 256.655804 217.009664 
L 259.533333 215.639735 
L 262.318156 214.090044 
L 264.999057 212.366838 
L 267.565239 210.477061 
L 270.006366 208.428327 
L 272.312608 206.228892 
L 274.474678 203.887619 
L 276.48387 201.413941 
L 278.332097 198.817826 
L 280.011917 196.109731 
L 281.516568 193.300568 
L 282.839997 190.401652 
L 283.976878 187.424662 
L 284.922637 184.381588 
L 285.673472 181.284688 
L 286.226363 178.146434 
L 286.579092 174.979466 
L 286.730243 171.796536 
L 286.679214 168.610462 
L 286.426217 165.434073 
L 285.972275 162.280158 
L 285.319224 159.161415 
L 284.469697 156.0904 
L 283.427122 153.079475 
L 282.1957 150.140761 
L 280.780395 147.286086 
L 279.186909 144.526941 
L 277.421662 141.87443 
L 275.491764 139.339228 
L 273.404988 136.931538 
L 271.169737 134.661049 
L 268.795012 132.536897 
L 266.290375 130.567629 
L 263.665908 128.761169 
L 260.932179 127.124785 
L 258.100192 125.665061 
L 255.181346 124.38787 
L 252.187391 123.29835 
L 249.130378 122.400885 
L 246.022611 121.699084 
L 242.876598 121.195771 
L 239.705002 120.892971 
L 236.520587 120.791903 
" clip-path="url(#p9cf1f7165a)" style="fill: none; stroke-dasharray: 1.5,2.475; stroke-dashoffset: 0; stroke: #ff0000; stroke-width: 1.5"/>
   </g>
   <g id="Path3DCollection_1">
    <defs>
     <path id="m774a1b6f2a" d="M -2.236068 2.236068 
L 2.236068 -2.236068 
M -2.236068 -2.236068 
L 2.236068 2.236068 
" style="stroke: #000000; stroke-width: 1.5"/>
    </defs>
    <g clip-path="url(#p9cf1f7165a)">
     <use xlink:href="#m774a1b6f2a" x="236.438172" y="170.833531" style="stroke: #000000; stroke-width: 1.5"/>
    </g>
   </g>
   <g id="Path3DCollection_2">
    <defs>
     <path id="C0_0_33f0125ae8" d="M 0 -2.236068 
L -0.502029 -0.690983 
L -2.126627 -0.690983 
L -0.812299 0.263932 
L -1.314328 1.809017 
L -0 0.854102 
L 1.314328 1.809017 
L 0.812299 0.263932 
L 2.126627 -0.690983 
L 0.502029 -0.690983 
z
"/>
    </defs>
    <g clip-path="url(#p9cf1f7165a)">
     <use xlink:href="#C0_0_33f0125ae8" x="236.352592" y="117.843867" style="fill: #ff0000; fill-opacity: 0.3; stroke: #ff0000; stroke-opacity: 0.3; stroke-width: 4"/>
    </g>
    <g clip-path="url(#p9cf1f7165a)">
     <use xlink:href="#C0_0_33f0125ae8" x="282.102796" y="197.072704" style="fill: #ff0000; stroke: #ff0000; stroke-width: 4"/>
    </g>
    <g clip-path="url(#p9cf1f7165a)">
     <use xlink:href="#C0_0_33f0125ae8" x="190.600657" y="197.072704" style="fill: #ff0000; stroke: #ff0000; stroke-width: 4"/>
    </g>
   </g>
   <g id="Path3DCollection_3">
    <defs>
     <path id="C1_0_521486e586" d="M 0 1.118034 
C 0.296506 1.118034 0.580908 1.000231 0.790569 0.790569 
C 1.000231 0.580908 1.118034 0.296506 1.118034 -0 
C 1.118034 -0.296506 1.000231 -0.580908 0.790569 -0.790569 
C 0.580908 -1.000231 0.296506 -1.118034 0 -1.118034 
C -0.296506 -1.118034 -0.580908 -1.000231 -0.790569 -0.790569 
C -1.000231 -0.580908 -1.118034 -0.296506 -1.118034 0 
C -1.118034 0.296506 -1.000231 0.580908 -0.790569 0.790569 
C -0.580908 1.000231 -0.296506 1.118034 0 1.118034 
z
"/>
    </defs>
    <g clip-path="url(#p9cf1f7165a)">
     <use xlink:href="#C1_0_521486e586" x="225.032175" y="112.025097" style="fill: #228b22; fill-opacity: 0.3; stroke: #228b22; stroke-opacity: 0.3"/>
    </g>
    <g clip-path="url(#p9cf1f7165a)">
     <use xlink:href="#C1_0_521486e586" x="240.765939" y="104.246186" style="fill: #228b22; fill-opacity: 0.322262; stroke: #228b22; stroke-opacity: 0.322262"/>
    </g>
    <g clip-path="url(#p9cf1f7165a)">
     <use xlink:href="#C1_0_521486e586" x="236.192325" y="109.670994" style="fill: #228b22; fill-opacity: 0.344499; stroke: #228b22; stroke-opacity: 0.344499"/>
    </g>
    <g clip-path="url(#p9cf1f7165a)">
     <use xlink:href="#C1_0_521486e586" x="257.405118" y="105.880275" style="fill: #228b22; fill-opacity: 0.366228; stroke: #228b22; stroke-opacity: 0.366228"/>
    </g>
    <g clip-path="url(#p9cf1f7165a)">
     <use xlink:href="#C1_0_521486e586" x="233.411911" y="113.818862" style="fill: #228b22; fill-opacity: 0.378811; stroke: #228b22; stroke-opacity: 0.378811"/>
    </g>
    <g clip-path="url(#p9cf1f7165a)">
     <use xlink:href="#C1_0_521486e586" x="240.418609" y="106.006366" style="fill: #228b22; fill-opacity: 0.386549; stroke: #228b22; stroke-opacity: 0.386549"/>
    </g>
    <g clip-path="url(#p9cf1f7165a)">
     <use xlink:href="#C1_0_521486e586" x="230.948247" y="108.896962" style="fill: #228b22; fill-opacity: 0.390089; stroke: #228b22; stroke-opacity: 0.390089"/>
    </g>
    <g clip-path="url(#p9cf1f7165a)">
     <use xlink:href="#C1_0_521486e586" x="222.298288" y="129.756351" style="fill: #228b22; fill-opacity: 0.401051; stroke: #228b22; stroke-opacity: 0.401051"/>
    </g>
    <g clip-path="url(#p9cf1f7165a)">
     <use xlink:href="#C1_0_521486e586" x="223.675709" y="115.470513" style="fill: #228b22; fill-opacity: 0.401877; stroke: #228b22; stroke-opacity: 0.401877"/>
    </g>
    <g clip-path="url(#p9cf1f7165a)">
     <use xlink:href="#C1_0_521486e586" x="245.302094" y="114.775792" style="fill: #228b22; fill-opacity: 0.408738; stroke: #228b22; stroke-opacity: 0.408738"/>
    </g>
    <g clip-path="url(#p9cf1f7165a)">
     <use xlink:href="#C1_0_521486e586" x="250.352734" y="112.463084" style="fill: #228b22; fill-opacity: 0.420934; stroke: #228b22; stroke-opacity: 0.420934"/>
    </g>
    <g clip-path="url(#p9cf1f7165a)">
     <use xlink:href="#C1_0_521486e586" x="257.033741" y="115.878942" style="fill: #228b22; fill-opacity: 0.421642; stroke: #228b22; stroke-opacity: 0.421642"/>
    </g>
    <g clip-path="url(#p9cf1f7165a)">
     <use xlink:href="#C1_0_521486e586" x="251.026678" y="119.295425" style="fill: #228b22; fill-opacity: 0.434525; stroke: #228b22; stroke-opacity: 0.434525"/>
    </g>
    <g clip-path="url(#p9cf1f7165a)">
     <use xlink:href="#C1_0_521486e586" x="275.067593" y="125.777956" style="fill: #228b22; fill-opacity: 0.460546; stroke: #228b22; stroke-opacity: 0.460546"/>
    </g>
    <g clip-path="url(#p9cf1f7165a)">
     <use xlink:href="#C1_0_521486e586" x="271.385496" y="142.935799" style="fill: #228b22; fill-opacity: 0.502038; stroke: #228b22; stroke-opacity: 0.502038"/>
    </g>
    <g clip-path="url(#p9cf1f7165a)">
     <use xlink:href="#C1_0_521486e586" x="290.952961" y="158.900383" style="fill: #228b22; fill-opacity: 0.567072; stroke: #228b22; stroke-opacity: 0.567072"/>
    </g>
    <g clip-path="url(#p9cf1f7165a)">
     <use xlink:href="#C1_0_521486e586" x="186.797704" y="152.733773" style="fill: #228b22; fill-opacity: 0.597853; stroke: #228b22; stroke-opacity: 0.597853"/>
    </g>
    <g clip-path="url(#p9cf1f7165a)">
     <use xlink:href="#C1_0_521486e586" x="290.735636" y="177.307353" style="fill: #228b22; fill-opacity: 0.605479; stroke: #228b22; stroke-opacity: 0.605479"/>
    </g>
    <g clip-path="url(#p9cf1f7165a)">
     <use xlink:href="#C1_0_521486e586" x="263.844608" y="179.879481" style="fill: #228b22; fill-opacity: 0.609244; stroke: #228b22; stroke-opacity: 0.609244"/>
    </g>
    <g clip-path="url(#p9cf1f7165a)">
     <use xlink:href="#C1_0_521486e586" x="178.04749" y="184.156321" style="fill: #228b22; fill-opacity: 0.645429; stroke: #228b22; stroke-opacity: 0.645429"/>
    </g>
    <g clip-path="url(#p9cf1f7165a)">
     <use xlink:href="#C1_0_521486e586" x="291.840212" y="181.896507" style="fill: #228b22; fill-opacity: 0.648651; stroke: #228b22; stroke-opacity: 0.648651"/>
    </g>
    <g clip-path="url(#p9cf1f7165a)">
     <use xlink:href="#C1_0_521486e586" x="292.621463" y="178.344635" style="fill: #228b22; fill-opacity: 0.649711; stroke: #228b22; stroke-opacity: 0.649711"/>
    </g>
    <g clip-path="url(#p9cf1f7165a)">
     <use xlink:href="#C1_0_521486e586" x="298.436406" y="181.93382" style="fill: #228b22; fill-opacity: 0.660868; stroke: #228b22; stroke-opacity: 0.660868"/>
    </g>
    <g clip-path="url(#p9cf1f7165a)">
     <use xlink:href="#C1_0_521486e586" x="185.768276" y="184.99863" style="fill: #228b22; fill-opacity: 0.665703; stroke: #228b22; stroke-opacity: 0.665703"/>
    </g>
    <g clip-path="url(#p9cf1f7165a)">
     <use xlink:href="#C1_0_521486e586" x="239.841989" y="156.343902" style="fill: #228b22; fill-opacity: 0.681759; stroke: #228b22; stroke-opacity: 0.681759"/>
    </g>
    <g clip-path="url(#p9cf1f7165a)">
     <use xlink:href="#C1_0_521486e586" x="185.476096" y="196.542766" style="fill: #228b22; fill-opacity: 0.685071; stroke: #228b22; stroke-opacity: 0.685071"/>
    </g>
    <g clip-path="url(#p9cf1f7165a)">
     <use xlink:href="#C1_0_521486e586" x="244.914865" y="171.383077" style="fill: #228b22; fill-opacity: 0.709948; stroke: #228b22; stroke-opacity: 0.709948"/>
    </g>
    <g clip-path="url(#p9cf1f7165a)">
     <use xlink:href="#C1_0_521486e586" x="198.857822" y="182.034257" style="fill: #228b22; fill-opacity: 0.724704; stroke: #228b22; stroke-opacity: 0.724704"/>
    </g>
    <g clip-path="url(#p9cf1f7165a)">
     <use xlink:href="#C1_0_521486e586" x="201.653684" y="183.145543" style="fill: #228b22; fill-opacity: 0.729381; stroke: #228b22; stroke-opacity: 0.729381"/>
    </g>
    <g clip-path="url(#p9cf1f7165a)">
     <use xlink:href="#C1_0_521486e586" x="192.446835" y="187.280939" style="fill: #228b22; fill-opacity: 0.739595; stroke: #228b22; stroke-opacity: 0.739595"/>
    </g>
    <g clip-path="url(#p9cf1f7165a)">
     <use xlink:href="#C1_0_521486e586" x="291.233983" y="208.402854" style="fill: #228b22; fill-opacity: 0.748294; stroke: #228b22; stroke-opacity: 0.748294"/>
    </g>
    <g clip-path="url(#p9cf1f7165a)">
     <use xlink:href="#C1_0_521486e586" x="260.740191" y="203.346602" style="fill: #228b22; fill-opacity: 0.752543; stroke: #228b22; stroke-opacity: 0.752543"/>
    </g>
    <g clip-path="url(#p9cf1f7165a)">
     <use xlink:href="#C1_0_521486e586" x="292.275577" y="195.342358" style="fill: #228b22; fill-opacity: 0.756737; stroke: #228b22; stroke-opacity: 0.756737"/>
    </g>
    <g clip-path="url(#p9cf1f7165a)">
     <use xlink:href="#C1_0_521486e586" x="205.871043" y="201.307338" style="fill: #228b22; fill-opacity: 0.762292; stroke: #228b22; stroke-opacity: 0.762292"/>
    </g>
    <g clip-path="url(#p9cf1f7165a)">
     <use xlink:href="#C1_0_521486e586" x="181.558412" y="193.274252" style="fill: #228b22; fill-opacity: 0.773277; stroke: #228b22; stroke-opacity: 0.773277"/>
    </g>
    <g clip-path="url(#p9cf1f7165a)">
     <use xlink:href="#C1_0_521486e586" x="272.784962" y="205.30758" style="fill: #228b22; fill-opacity: 0.779906; stroke: #228b22; stroke-opacity: 0.779906"/>
    </g>
    <g clip-path="url(#p9cf1f7165a)">
     <use xlink:href="#C1_0_521486e586" x="255.547521" y="216.932099" style="fill: #228b22; fill-opacity: 0.78393; stroke: #228b22; stroke-opacity: 0.78393"/>
    </g>
    <g clip-path="url(#p9cf1f7165a)">
     <use xlink:href="#C1_0_521486e586" x="184.485769" y="202.776866" style="fill: #228b22; fill-opacity: 0.787351; stroke: #228b22; stroke-opacity: 0.787351"/>
    </g>
    <g clip-path="url(#p9cf1f7165a)">
     <use xlink:href="#C1_0_521486e586" x="195.013203" y="201.401552" style="fill: #228b22; fill-opacity: 0.788259; stroke: #228b22; stroke-opacity: 0.788259"/>
    </g>
    <g clip-path="url(#p9cf1f7165a)">
     <use xlink:href="#C1_0_521486e586" x="187.099821" y="190.185176" style="fill: #228b22; fill-opacity: 0.794781; stroke: #228b22; stroke-opacity: 0.794781"/>
    </g>
    <g clip-path="url(#p9cf1f7165a)">
     <use xlink:href="#C1_0_521486e586" x="241.316974" y="199.126141" style="fill: #228b22; fill-opacity: 0.801879; stroke: #228b22; stroke-opacity: 0.801879"/>
    </g>
    <g clip-path="url(#p9cf1f7165a)">
     <use xlink:href="#C1_0_521486e586" x="287.464785" y="197.199798" style="fill: #228b22; fill-opacity: 0.801944; stroke: #228b22; stroke-opacity: 0.801944"/>
    </g>
    <g clip-path="url(#p9cf1f7165a)">
     <use xlink:href="#C1_0_521486e586" x="188.205884" y="194.80966" style="fill: #228b22; fill-opacity: 0.805337; stroke: #228b22; stroke-opacity: 0.805337"/>
    </g>
    <g clip-path="url(#p9cf1f7165a)">
     <use xlink:href="#C1_0_521486e586" x="196.155772" y="201.239845" style="fill: #228b22; fill-opacity: 0.808906; stroke: #228b22; stroke-opacity: 0.808906"/>
    </g>
    <g clip-path="url(#p9cf1f7165a)">
     <use xlink:href="#C1_0_521486e586" x="297.546383" y="210.224587" style="fill: #228b22; fill-opacity: 0.810501; stroke: #228b22; stroke-opacity: 0.810501"/>
    </g>
    <g clip-path="url(#p9cf1f7165a)">
     <use xlink:href="#C1_0_521486e586" x="293.177257" y="192.668004" style="fill: #228b22; fill-opacity: 0.812833; stroke: #228b22; stroke-opacity: 0.812833"/>
    </g>
    <g clip-path="url(#p9cf1f7165a)">
     <use xlink:href="#C1_0_521486e586" x="253.241678" y="214.831335" style="fill: #228b22; fill-opacity: 0.820365; stroke: #228b22; stroke-opacity: 0.820365"/>
    </g>
    <g clip-path="url(#p9cf1f7165a)">
     <use xlink:href="#C1_0_521486e586" x="295.111679" y="206.187785" style="fill: #228b22; fill-opacity: 0.827488; stroke: #228b22; stroke-opacity: 0.827488"/>
    </g>
    <g clip-path="url(#p9cf1f7165a)">
     <use xlink:href="#C1_0_521486e586" x="192.267409" y="207.364616" style="fill: #228b22; fill-opacity: 0.835896; stroke: #228b22; stroke-opacity: 0.835896"/>
    </g>
    <g clip-path="url(#p9cf1f7165a)">
     <use xlink:href="#C1_0_521486e586" x="240.751925" y="224.260153" style="fill: #228b22; fill-opacity: 0.836036; stroke: #228b22; stroke-opacity: 0.836036"/>
    </g>
    <g clip-path="url(#p9cf1f7165a)">
     <use xlink:href="#C1_0_521486e586" x="277.847343" y="204.232064" style="fill: #228b22; fill-opacity: 0.841091; stroke: #228b22; stroke-opacity: 0.841091"/>
    </g>
    <g clip-path="url(#p9cf1f7165a)">
     <use xlink:href="#C1_0_521486e586" x="285.233125" y="212.045268" style="fill: #228b22; fill-opacity: 0.848526; stroke: #228b22; stroke-opacity: 0.848526"/>
    </g>
    <g clip-path="url(#p9cf1f7165a)">
     <use xlink:href="#C1_0_521486e586" x="217.945517" y="213.914931" style="fill: #228b22; fill-opacity: 0.856192; stroke: #228b22; stroke-opacity: 0.856192"/>
    </g>
    <g clip-path="url(#p9cf1f7165a)">
     <use xlink:href="#C1_0_521486e586" x="187.094006" y="199.600757" style="fill: #228b22; fill-opacity: 0.857637; stroke: #228b22; stroke-opacity: 0.857637"/>
    </g>
    <g clip-path="url(#p9cf1f7165a)">
     <use xlink:href="#C1_0_521486e586" x="242.723544" y="203.139775" style="fill: #228b22; fill-opacity: 0.870364; stroke: #228b22; stroke-opacity: 0.870364"/>
    </g>
    <g clip-path="url(#p9cf1f7165a)">
     <use xlink:href="#C1_0_521486e586" x="264.231035" y="216.557607" style="fill: #228b22; fill-opacity: 0.88122; stroke: #228b22; stroke-opacity: 0.88122"/>
    </g>
    <g clip-path="url(#p9cf1f7165a)">
     <use xlink:href="#C1_0_521486e586" x="273.482022" y="220.752293" style="fill: #228b22; fill-opacity: 0.892253; stroke: #228b22; stroke-opacity: 0.892253"/>
    </g>
    <g clip-path="url(#p9cf1f7165a)">
     <use xlink:href="#C1_0_521486e586" x="251.77508" y="225.09286" style="fill: #228b22; fill-opacity: 0.899114; stroke: #228b22; stroke-opacity: 0.899114"/>
    </g>
    <g clip-path="url(#p9cf1f7165a)">
     <use xlink:href="#C1_0_521486e586" x="215.897818" y="223.230205" style="fill: #228b22; fill-opacity: 0.902965; stroke: #228b22; stroke-opacity: 0.902965"/>
    </g>
    <g clip-path="url(#p9cf1f7165a)">
     <use xlink:href="#C1_0_521486e586" x="232.475068" y="218.961341" style="fill: #228b22; fill-opacity: 0.906368; stroke: #228b22; stroke-opacity: 0.906368"/>
    </g>
    <g clip-path="url(#p9cf1f7165a)">
     <use xlink:href="#C1_0_521486e586" x="217.071805" y="225.285086" style="fill: #228b22; fill-opacity: 0.911234; stroke: #228b22; stroke-opacity: 0.911234"/>
    </g>
    <g clip-path="url(#p9cf1f7165a)">
     <use xlink:href="#C1_0_521486e586" x="218.696514" y="223.158369" style="fill: #228b22; fill-opacity: 0.92104; stroke: #228b22; stroke-opacity: 0.92104"/>
    </g>
    <g clip-path="url(#p9cf1f7165a)">
     <use xlink:href="#C1_0_521486e586" x="267.101608" y="213.484757" style="fill: #228b22; fill-opacity: 0.926411; stroke: #228b22; stroke-opacity: 0.926411"/>
    </g>
    <g clip-path="url(#p9cf1f7165a)">
     <use xlink:href="#C1_0_521486e586" x="277.693787" y="217.158379" style="fill: #228b22; stroke: #228b22"/>
    </g>
   </g>
   <g id="legend_1">
    <g id="patch_6">
     <path d="M 110.104 108.1845 
L 232.175875 108.1845 
Q 234.175875 108.1845 234.175875 106.1845 
L 234.175875 48.472 
Q 234.175875 46.472 232.175875 46.472 
L 110.104 46.472 
Q 108.104 46.472 108.104 48.472 
L 108.104 106.1845 
Q 108.104 108.1845 110.104 108.1845 
z
" style="fill: #ffffff; opacity: 0.8; stroke: #cccccc; stroke-linejoin: miter"/>
    </g>
    <g id="Path3DCollection_4">
     <g>
      <use xlink:href="#m774a1b6f2a" x="122.104" y="55.445438" style="stroke: #000000; stroke-width: 1.5"/>
     </g>
    </g>
    <g id="text_19">
     <!-- Origin -->
     <g transform="translate(140.104 58.070438) scale(0.1 -0.1)">
      <defs>
       <path id="DejaVuSans-4f" d="M 2522 4238 
Q 1834 4238 1429 3725 
Q 1025 3213 1025 2328 
Q 1025 1447 1429 934 
Q 1834 422 2522 422 
Q 3209 422 3611 934 
Q 4013 1447 4013 2328 
Q 4013 3213 3611 3725 
Q 3209 4238 2522 4238 
z
M 2522 4750 
Q 3503 4750 4090 4092 
Q 4678 3434 4678 2328 
Q 4678 1225 4090 567 
Q 3503 -91 2522 -91 
Q 1538 -91 948 565 
Q 359 1222 359 2328 
Q 359 3434 948 4092 
Q 1538 4750 2522 4750 
z
" transform="scale(0.015625)"/>
       <path id="DejaVuSans-72" d="M 2631 2963 
Q 2534 3019 2420 3045 
Q 2306 3072 2169 3072 
Q 1681 3072 1420 2755 
Q 1159 2438 1159 1844 
L 1159 0 
L 581 0 
L 581 3500 
L 1159 3500 
L 1159 2956 
Q 1341 3275 1631 3429 
Q 1922 3584 2338 3584 
Q 2397 3584 2469 3576 
Q 2541 3569 2628 3553 
L 2631 2963 
z
" transform="scale(0.015625)"/>
       <path id="DejaVuSans-69" d="M 603 3500 
L 1178 3500 
L 1178 0 
L 603 0 
L 603 3500 
z
M 603 4863 
L 1178 4863 
L 1178 4134 
L 603 4134 
L 603 4863 
z
" transform="scale(0.015625)"/>
       <path id="DejaVuSans-67" d="M 2906 1791 
Q 2906 2416 2648 2759 
Q 2391 3103 1925 3103 
Q 1463 3103 1205 2759 
Q 947 2416 947 1791 
Q 947 1169 1205 825 
Q 1463 481 1925 481 
Q 2391 481 2648 825 
Q 2906 1169 2906 1791 
z
M 3481 434 
Q 3481 -459 3084 -895 
Q 2688 -1331 1869 -1331 
Q 1566 -1331 1297 -1286 
Q 1028 -1241 775 -1147 
L 775 -588 
Q 1028 -725 1275 -790 
Q 1522 -856 1778 -856 
Q 2344 -856 2625 -561 
Q 2906 -266 2906 331 
L 2906 616 
Q 2728 306 2450 153 
Q 2172 0 1784 0 
Q 1141 0 747 490 
Q 353 981 353 1791 
Q 353 2603 747 3093 
Q 1141 3584 1784 3584 
Q 2172 3584 2450 3431 
Q 2728 3278 2906 2969 
L 2906 3500 
L 3481 3500 
L 3481 434 
z
" transform="scale(0.015625)"/>
       <path id="DejaVuSans-6e" d="M 3513 2113 
L 3513 0 
L 2938 0 
L 2938 2094 
Q 2938 2591 2744 2837 
Q 2550 3084 2163 3084 
Q 1697 3084 1428 2787 
Q 1159 2491 1159 1978 
L 1159 0 
L 581 0 
L 581 3500 
L 1159 3500 
L 1159 2956 
Q 1366 3272 1645 3428 
Q 1925 3584 2291 3584 
Q 2894 3584 3203 3211 
Q 3513 2838 3513 2113 
z
" transform="scale(0.015625)"/>
      </defs>
      <use xlink:href="#DejaVuSans-4f"/>
      <use xlink:href="#DejaVuSans-72" x="78.710938"/>
      <use xlink:href="#DejaVuSans-69" x="119.824219"/>
      <use xlink:href="#DejaVuSans-67" x="147.607422"/>
      <use xlink:href="#DejaVuSans-69" x="211.083984"/>
      <use xlink:href="#DejaVuSans-6e" x="238.867188"/>
     </g>
    </g>
    <g id="Path3DCollection_5">
     <defs>
      <path id="mc553b39d1b" d="M 0 1.118034 
C 0.296506 1.118034 0.580908 1.000231 0.790569 0.790569 
C 1.000231 0.580908 1.118034 0.296506 1.118034 0 
C 1.118034 -0.296506 1.000231 -0.580908 0.790569 -0.790569 
C 0.580908 -1.000231 0.296506 -1.118034 0 -1.118034 
C -0.296506 -1.118034 -0.580908 -1.000231 -0.790569 -0.790569 
C -1.000231 -0.580908 -1.118034 -0.296506 -1.118034 0 
C -1.118034 0.296506 -1.000231 0.580908 -0.790569 0.790569 
C -0.580908 1.000231 -0.296506 1.118034 0 1.118034 
z
" style="stroke: #228b22"/>
     </defs>
     <g>
      <use xlink:href="#mc553b39d1b" x="122.104" y="70.123563" style="fill: #228b22; stroke: #228b22"/>
     </g>
    </g>
    <g id="text_20">
     <!-- Posterior Samples -->
     <g transform="translate(140.104 72.748563) scale(0.1 -0.1)">
      <defs>
       <path id="DejaVuSans-50" d="M 1259 4147 
L 1259 2394 
L 2053 2394 
Q 2494 2394 2734 2622 
Q 2975 2850 2975 3272 
Q 2975 3691 2734 3919 
Q 2494 4147 2053 4147 
L 1259 4147 
z
M 628 4666 
L 2053 4666 
Q 2838 4666 3239 4311 
Q 3641 3956 3641 3272 
Q 3641 2581 3239 2228 
Q 2838 1875 2053 1875 
L 1259 1875 
L 1259 0 
L 628 0 
L 628 4666 
z
" transform="scale(0.015625)"/>
       <path id="DejaVuSans-6f" d="M 1959 3097 
Q 1497 3097 1228 2736 
Q 959 2375 959 1747 
Q 959 1119 1226 758 
Q 1494 397 1959 397 
Q 2419 397 2687 759 
Q 2956 1122 2956 1747 
Q 2956 2369 2687 2733 
Q 2419 3097 1959 3097 
z
M 1959 3584 
Q 2709 3584 3137 3096 
Q 3566 2609 3566 1747 
Q 3566 888 3137 398 
Q 2709 -91 1959 -91 
Q 1206 -91 779 398 
Q 353 888 353 1747 
Q 353 2609 779 3096 
Q 1206 3584 1959 3584 
z
" transform="scale(0.015625)"/>
       <path id="DejaVuSans-73" d="M 2834 3397 
L 2834 2853 
Q 2591 2978 2328 3040 
Q 2066 3103 1784 3103 
Q 1356 3103 1142 2972 
Q 928 2841 928 2578 
Q 928 2378 1081 2264 
Q 1234 2150 1697 2047 
L 1894 2003 
Q 2506 1872 2764 1633 
Q 3022 1394 3022 966 
Q 3022 478 2636 193 
Q 2250 -91 1575 -91 
Q 1294 -91 989 -36 
Q 684 19 347 128 
L 347 722 
Q 666 556 975 473 
Q 1284 391 1588 391 
Q 1994 391 2212 530 
Q 2431 669 2431 922 
Q 2431 1156 2273 1281 
Q 2116 1406 1581 1522 
L 1381 1569 
Q 847 1681 609 1914 
Q 372 2147 372 2553 
Q 372 3047 722 3315 
Q 1072 3584 1716 3584 
Q 2034 3584 2315 3537 
Q 2597 3491 2834 3397 
z
" transform="scale(0.015625)"/>
       <path id="DejaVuSans-74" d="M 1172 4494 
L 1172 3500 
L 2356 3500 
L 2356 3053 
L 1172 3053 
L 1172 1153 
Q 1172 725 1289 603 
Q 1406 481 1766 481 
L 2356 481 
L 2356 0 
L 1766 0 
Q 1100 0 847 248 
Q 594 497 594 1153 
L 594 3053 
L 172 3053 
L 172 3500 
L 594 3500 
L 594 4494 
L 1172 4494 
z
" transform="scale(0.015625)"/>
       <path id="DejaVuSans-65" d="M 3597 1894 
L 3597 1613 
L 953 1613 
Q 991 1019 1311 708 
Q 1631 397 2203 397 
Q 2534 397 2845 478 
Q 3156 559 3463 722 
L 3463 178 
Q 3153 47 2828 -22 
Q 2503 -91 2169 -91 
Q 1331 -91 842 396 
Q 353 884 353 1716 
Q 353 2575 817 3079 
Q 1281 3584 2069 3584 
Q 2775 3584 3186 3129 
Q 3597 2675 3597 1894 
z
M 3022 2063 
Q 3016 2534 2758 2815 
Q 2500 3097 2075 3097 
Q 1594 3097 1305 2825 
Q 1016 2553 972 2059 
L 3022 2063 
z
" transform="scale(0.015625)"/>
       <path id="DejaVuSans-20" transform="scale(0.015625)"/>
       <path id="DejaVuSans-53" d="M 3425 4513 
L 3425 3897 
Q 3066 4069 2747 4153 
Q 2428 4238 2131 4238 
Q 1616 4238 1336 4038 
Q 1056 3838 1056 3469 
Q 1056 3159 1242 3001 
Q 1428 2844 1947 2747 
L 2328 2669 
Q 3034 2534 3370 2195 
Q 3706 1856 3706 1288 
Q 3706 609 3251 259 
Q 2797 -91 1919 -91 
Q 1588 -91 1214 -16 
Q 841 59 441 206 
L 441 856 
Q 825 641 1194 531 
Q 1563 422 1919 422 
Q 2459 422 2753 634 
Q 3047 847 3047 1241 
Q 3047 1584 2836 1778 
Q 2625 1972 2144 2069 
L 1759 2144 
Q 1053 2284 737 2584 
Q 422 2884 422 3419 
Q 422 4038 858 4394 
Q 1294 4750 2059 4750 
Q 2388 4750 2728 4690 
Q 3069 4631 3425 4513 
z
" transform="scale(0.015625)"/>
       <path id="DejaVuSans-61" d="M 2194 1759 
Q 1497 1759 1228 1600 
Q 959 1441 959 1056 
Q 959 750 1161 570 
Q 1363 391 1709 391 
Q 2188 391 2477 730 
Q 2766 1069 2766 1631 
L 2766 1759 
L 2194 1759 
z
M 3341 1997 
L 3341 0 
L 2766 0 
L 2766 531 
Q 2569 213 2275 61 
Q 1981 -91 1556 -91 
Q 1019 -91 701 211 
Q 384 513 384 1019 
Q 384 1609 779 1909 
Q 1175 2209 1959 2209 
L 2766 2209 
L 2766 2266 
Q 2766 2663 2505 2880 
Q 2244 3097 1772 3097 
Q 1472 3097 1187 3025 
Q 903 2953 641 2809 
L 641 3341 
Q 956 3463 1253 3523 
Q 1550 3584 1831 3584 
Q 2591 3584 2966 3190 
Q 3341 2797 3341 1997 
z
" transform="scale(0.015625)"/>
       <path id="DejaVuSans-6d" d="M 3328 2828 
Q 3544 3216 3844 3400 
Q 4144 3584 4550 3584 
Q 5097 3584 5394 3201 
Q 5691 2819 5691 2113 
L 5691 0 
L 5113 0 
L 5113 2094 
Q 5113 2597 4934 2840 
Q 4756 3084 4391 3084 
Q 3944 3084 3684 2787 
Q 3425 2491 3425 1978 
L 3425 0 
L 2847 0 
L 2847 2094 
Q 2847 2600 2669 2842 
Q 2491 3084 2119 3084 
Q 1678 3084 1418 2786 
Q 1159 2488 1159 1978 
L 1159 0 
L 581 0 
L 581 3500 
L 1159 3500 
L 1159 2956 
Q 1356 3278 1631 3431 
Q 1906 3584 2284 3584 
Q 2666 3584 2933 3390 
Q 3200 3197 3328 2828 
z
" transform="scale(0.015625)"/>
       <path id="DejaVuSans-70" d="M 1159 525 
L 1159 -1331 
L 581 -1331 
L 581 3500 
L 1159 3500 
L 1159 2969 
Q 1341 3281 1617 3432 
Q 1894 3584 2278 3584 
Q 2916 3584 3314 3078 
Q 3713 2572 3713 1747 
Q 3713 922 3314 415 
Q 2916 -91 2278 -91 
Q 1894 -91 1617 61 
Q 1341 213 1159 525 
z
M 3116 1747 
Q 3116 2381 2855 2742 
Q 2594 3103 2138 3103 
Q 1681 3103 1420 2742 
Q 1159 2381 1159 1747 
Q 1159 1113 1420 752 
Q 1681 391 2138 391 
Q 2594 391 2855 752 
Q 3116 1113 3116 1747 
z
" transform="scale(0.015625)"/>
       <path id="DejaVuSans-6c" d="M 603 4863 
L 1178 4863 
L 1178 0 
L 603 0 
L 603 4863 
z
" transform="scale(0.015625)"/>
      </defs>
      <use xlink:href="#DejaVuSans-50"/>
      <use xlink:href="#DejaVuSans-6f" x="56.677734"/>
      <use xlink:href="#DejaVuSans-73" x="117.859375"/>
      <use xlink:href="#DejaVuSans-74" x="169.958984"/>
      <use xlink:href="#DejaVuSans-65" x="209.167969"/>
      <use xlink:href="#DejaVuSans-72" x="270.691406"/>
      <use xlink:href="#DejaVuSans-69" x="311.804688"/>
      <use xlink:href="#DejaVuSans-6f" x="339.587891"/>
      <use xlink:href="#DejaVuSans-72" x="400.769531"/>
      <use xlink:href="#DejaVuSans-20" x="441.882812"/>
      <use xlink:href="#DejaVuSans-53" x="473.669922"/>
      <use xlink:href="#DejaVuSans-61" x="537.146484"/>
      <use xlink:href="#DejaVuSans-6d" x="598.425781"/>
      <use xlink:href="#DejaVuSans-70" x="695.837891"/>
      <use xlink:href="#DejaVuSans-6c" x="759.314453"/>
      <use xlink:href="#DejaVuSans-65" x="787.097656"/>
      <use xlink:href="#DejaVuSans-73" x="848.621094"/>
     </g>
    </g>
    <g id="Path3DCollection_6">
     <defs>
      <path id="m67c70f4ef4" d="M 0 -2.236068 
L -0.502029 -0.690983 
L -2.126627 -0.690983 
L -0.812299 0.263932 
L -1.314328 1.809017 
L -0 0.854102 
L 1.314328 1.809017 
L 0.812299 0.263932 
L 2.126627 -0.690983 
L 0.502029 -0.690983 
z
" style="stroke: #ff0000; stroke-width: 4"/>
     </defs>
     <g>
      <use xlink:href="#m67c70f4ef4" x="122.104" y="84.801688" style="fill: #ff0000; stroke: #ff0000; stroke-width: 4"/>
     </g>
    </g>
    <g id="text_21">
     <!-- True Signal -->
     <g transform="translate(140.104 87.426688) scale(0.1 -0.1)">
      <defs>
       <path id="DejaVuSans-54" d="M -19 4666 
L 3928 4666 
L 3928 4134 
L 2272 4134 
L 2272 0 
L 1638 0 
L 1638 4134 
L -19 4134 
L -19 4666 
z
" transform="scale(0.015625)"/>
       <path id="DejaVuSans-75" d="M 544 1381 
L 544 3500 
L 1119 3500 
L 1119 1403 
Q 1119 906 1312 657 
Q 1506 409 1894 409 
Q 2359 409 2629 706 
Q 2900 1003 2900 1516 
L 2900 3500 
L 3475 3500 
L 3475 0 
L 2900 0 
L 2900 538 
Q 2691 219 2414 64 
Q 2138 -91 1772 -91 
Q 1169 -91 856 284 
Q 544 659 544 1381 
z
M 1991 3584 
L 1991 3584 
z
" transform="scale(0.015625)"/>
      </defs>
      <use xlink:href="#DejaVuSans-54"/>
      <use xlink:href="#DejaVuSans-72" x="46.333984"/>
      <use xlink:href="#DejaVuSans-75" x="87.447266"/>
      <use xlink:href="#DejaVuSans-65" x="150.826172"/>
      <use xlink:href="#DejaVuSans-20" x="212.349609"/>
      <use xlink:href="#DejaVuSans-53" x="244.136719"/>
      <use xlink:href="#DejaVuSans-69" x="307.613281"/>
      <use xlink:href="#DejaVuSans-67" x="335.396484"/>
      <use xlink:href="#DejaVuSans-6e" x="398.873047"/>
      <use xlink:href="#DejaVuSans-61" x="462.251953"/>
      <use xlink:href="#DejaVuSans-6c" x="523.53125"/>
     </g>
    </g>
    <g id="line2d_21">
     <path d="M 112.104 98.604813 
L 122.104 98.604813 
L 132.104 98.604813 
" style="fill: none; stroke-dasharray: 1.5,2.475; stroke-dashoffset: 0; stroke: #ff0000; stroke-width: 1.5"/>
    </g>
    <g id="text_22">
     <!-- Phase Manifold -->
     <g transform="translate(140.104 102.104813) scale(0.1 -0.1)">
      <defs>
       <path id="DejaVuSans-68" d="M 3513 2113 
L 3513 0 
L 2938 0 
L 2938 2094 
Q 2938 2591 2744 2837 
Q 2550 3084 2163 3084 
Q 1697 3084 1428 2787 
Q 1159 2491 1159 1978 
L 1159 0 
L 581 0 
L 581 4863 
L 1159 4863 
L 1159 2956 
Q 1366 3272 1645 3428 
Q 1925 3584 2291 3584 
Q 2894 3584 3203 3211 
Q 3513 2838 3513 2113 
z
" transform="scale(0.015625)"/>
       <path id="DejaVuSans-4d" d="M 628 4666 
L 1569 4666 
L 2759 1491 
L 3956 4666 
L 4897 4666 
L 4897 0 
L 4281 0 
L 4281 4097 
L 3078 897 
L 2444 897 
L 1241 4097 
L 1241 0 
L 628 0 
L 628 4666 
z
" transform="scale(0.015625)"/>
       <path id="DejaVuSans-66" d="M 2375 4863 
L 2375 4384 
L 1825 4384 
Q 1516 4384 1395 4259 
Q 1275 4134 1275 3809 
L 1275 3500 
L 2222 3500 
L 2222 3053 
L 1275 3053 
L 1275 0 
L 697 0 
L 697 3053 
L 147 3053 
L 147 3500 
L 697 3500 
L 697 3744 
Q 697 4328 969 4595 
Q 1241 4863 1831 4863 
L 2375 4863 
z
" transform="scale(0.015625)"/>
       <path id="DejaVuSans-64" d="M 2906 2969 
L 2906 4863 
L 3481 4863 
L 3481 0 
L 2906 0 
L 2906 525 
Q 2725 213 2448 61 
Q 2172 -91 1784 -91 
Q 1150 -91 751 415 
Q 353 922 353 1747 
Q 353 2572 751 3078 
Q 1150 3584 1784 3584 
Q 2172 3584 2448 3432 
Q 2725 3281 2906 2969 
z
M 947 1747 
Q 947 1113 1208 752 
Q 1469 391 1925 391 
Q 2381 391 2643 752 
Q 2906 1113 2906 1747 
Q 2906 2381 2643 2742 
Q 2381 3103 1925 3103 
Q 1469 3103 1208 2742 
Q 947 2381 947 1747 
z
" transform="scale(0.015625)"/>
      </defs>
      <use xlink:href="#DejaVuSans-50"/>
      <use xlink:href="#DejaVuSans-68" x="60.302734"/>
      <use xlink:href="#DejaVuSans-61" x="123.681641"/>
      <use xlink:href="#DejaVuSans-73" x="184.960938"/>
      <use xlink:href="#DejaVuSans-65" x="237.060547"/>
      <use xlink:href="#DejaVuSans-20" x="298.583984"/>
      <use xlink:href="#DejaVuSans-4d" x="330.371094"/>
      <use xlink:href="#DejaVuSans-61" x="416.650391"/>
      <use xlink:href="#DejaVuSans-6e" x="477.929688"/>
      <use xlink:href="#DejaVuSans-69" x="541.308594"/>
      <use xlink:href="#DejaVuSans-66" x="569.091797"/>
      <use xlink:href="#DejaVuSans-6f" x="604.296875"/>
      <use xlink:href="#DejaVuSans-6c" x="665.478516"/>
      <use xlink:href="#DejaVuSans-64" x="693.261719"/>
     </g>
    </g>
   </g>
  </g>
 </g>
 <defs>
  <clipPath id="p9cf1f7165a">
   <rect x="103.104" y="41.472" width="266.112" height="266.112"/>
  </clipPath>
 </defs>
</svg>
