<?xml version="1.0" encoding="utf-8" standalone="no"?>
<!DOCTYPE svg PUBLIC "-//W3C//DTD SVG 1.1//EN"
  "http://www.w3.org/Graphics/SVG/1.1/DTD/svg11.dtd">
<svg xmlns:xlink="http://www.w3.org/1999/xlink" width="460.8pt" height="345.6pt" viewBox="0 0 460.8 345.6" xmlns="http://www.w3.org/2000/svg" version="1.1">
 <metadata>
  <rdf:RDF xmlns:dc="http://purl.org/dc/elements/1.1/" xmlns:cc="http://creativecommons.org/ns#" xmlns:rdf="http://www.w3.org/1999/02/22-rdf-syntax-ns#">
   <cc:Work>
    <dc:type rdf:resource="http://purl.org/dc/dcmitype/StillImage"/>
    <dc:date>2025-06-13T11:08:46.672833</dc:date>
    <dc:format>image/svg+xml</dc:format>
    <dc:creator>
     <cc:Agent>
      <dc:title>Matplotlib v3.9.2, https://matplotlib.org/</dc:title>
     </cc:Agent>
    </dc:creator>
   </cc:Work>
  </rdf:RDF>
 </metadata>
 <defs>
  <style type="text/css">*{stroke-linejoin: round; stroke-linecap: butt}</style>
 </defs>
 <g id="figure_1">
  <g id="patch_1">
   <path d="M 0 345.6 
L 460.8 345.6 
L 460.8 0 
L 0 0 
z
" style="fill: #ffffff"/>
  </g>
  <g id="axes_1">
   <g id="patch_2">
    <path d="M 57.6 307.584 
L 414.72 307.584 
L 414.72 41.472 
L 57.6 41.472 
z
" style="fill: #ffffff"/>
   </g>
   <g id="PathCollection_1">
    <defs>
     <path id="m906d41f29a" d="M 3 0 
L -3 -0 
" style="stroke: #ff0000; stroke-width: 2"/>
    </defs>
    <g clip-path="url(#p12d73452bb)">
     <use xlink:href="#m906d41f29a" x="81.562597" y="263.884012" style="fill: #ff0000; stroke: #ff0000; stroke-width: 2"/>
     <use xlink:href="#m906d41f29a" x="112.482078" y="263.884012" style="fill: #ff0000; stroke: #ff0000; stroke-width: 2"/>
     <use xlink:href="#m906d41f29a" x="143.401558" y="263.884012" style="fill: #ff0000; stroke: #ff0000; stroke-width: 2"/>
     <use xlink:href="#m906d41f29a" x="174.321039" y="263.884012" style="fill: #ff0000; stroke: #ff0000; stroke-width: 2"/>
     <use xlink:href="#m906d41f29a" x="205.240519" y="263.884012" style="fill: #ff0000; stroke: #ff0000; stroke-width: 2"/>
     <use xlink:href="#m906d41f29a" x="236.16" y="263.884012" style="fill: #ff0000; stroke: #ff0000; stroke-width: 2"/>
     <use xlink:href="#m906d41f29a" x="267.079481" y="263.884012" style="fill: #ff0000; stroke: #ff0000; stroke-width: 2"/>
     <use xlink:href="#m906d41f29a" x="297.998961" y="263.884012" style="fill: #ff0000; stroke: #ff0000; stroke-width: 2"/>
     <use xlink:href="#m906d41f29a" x="328.918442" y="263.884012" style="fill: #ff0000; stroke: #ff0000; stroke-width: 2"/>
     <use xlink:href="#m906d41f29a" x="359.837922" y="263.884012" style="fill: #ff0000; stroke: #ff0000; stroke-width: 2"/>
     <use xlink:href="#m906d41f29a" x="390.757403" y="263.884012" style="fill: #ff0000; stroke: #ff0000; stroke-width: 2"/>
    </g>
   </g>
   <g id="PolyCollection_1">
    <defs>
     <path id="m3781c898bb" d="M 86.548973 -50.112 
L 76.576222 -50.112 
L 75.676639 -52.555636 
L 74.930152 -54.999273 
L 74.380545 -57.44291 
L 74.033975 -59.886546 
L 73.865323 -62.330182 
L 73.832727 -64.773819 
L 73.893581 -67.217454 
L 74.016051 -69.661091 
L 74.183143 -72.104728 
L 74.389793 -74.548364 
L 74.635875 -76.992001 
L 74.918899 -79.435638 
L 75.22956 -81.879271 
L 75.551694 -84.322906 
L 75.866167 -86.766545 
L 76.156673 -89.21018 
L 76.414744 -91.653816 
L 76.641783 -94.097455 
L 76.847401 -96.54109 
L 77.044925 -98.984725 
L 77.246077 -101.428364 
L 77.457019 -103.871999 
L 77.677173 -106.315634 
L 77.900954 -108.759273 
L 78.12131 -111.202908 
L 78.333275 -113.646544 
L 78.535877 -116.090183 
L 78.731626 -118.533814 
L 78.924118 -120.977453 
L 79.115227 -123.421092 
L 79.303594 -125.864723 
L 79.485209 -128.308362 
L 79.655607 -130.752001 
L 79.812216 -133.195633 
L 79.955385 -135.639272 
L 80.087593 -138.082911 
L 80.211497 -140.526542 
L 80.328115 -142.970181 
L 80.436217 -145.41382 
L 80.533111 -147.857452 
L 80.616223 -150.301091 
L 80.68447 -152.74473 
L 80.738771 -155.188361 
L 80.781624 -157.632 
L 80.816184 -160.075639 
L 80.845418 -162.51927 
L 80.87167 -164.962909 
L 80.896632 -167.406548 
L 80.921531 -169.85018 
L 80.947303 -172.293819 
L 80.97467 -174.73745 
L 81.004122 -177.181097 
L 81.035838 -179.624728 
L 81.069599 -182.068375 
L 81.104733 -184.512006 
L 81.140158 -186.955637 
L 81.174579 -189.399284 
L 81.206808 -191.842915 
L 81.236121 -194.286547 
L 81.26249 -196.730193 
L 81.286587 -199.173825 
L 81.309554 -201.617456 
L 81.3326 -204.061103 
L 81.356592 -206.504734 
L 81.381746 -208.948365 
L 81.407544 -211.392012 
L 81.43288 -213.835643 
L 81.456426 -216.279275 
L 81.477059 -218.722921 
L 81.494213 -221.166553 
L 81.507987 -223.610184 
L 81.51899 -226.053831 
L 81.52801 -228.497462 
L 81.535696 -230.941094 
L 81.542385 -233.38474 
L 81.548127 -235.828372 
L 81.552833 -238.272003 
L 81.556433 -240.715649 
L 81.558975 -243.159281 
L 81.56062 -245.602912 
L 81.561588 -248.046559 
L 81.562091 -250.49019 
L 81.562285 -252.933822 
L 81.562241 -255.377468 
L 81.561944 -257.8211 
L 81.561285 -260.264731 
L 81.560086 -262.708378 
L 81.558128 -265.152009 
L 81.555222 -267.59564 
L 81.551296 -270.039287 
L 81.546478 -272.482918 
L 81.541122 -274.92655 
L 81.535762 -277.370196 
L 81.530996 -279.813828 
L 81.527361 -282.257459 
L 81.525242 -284.701106 
L 81.524846 -287.144737 
L 81.52621 -289.588369 
L 81.529204 -292.032 
L 81.59599 -292.032 
L 81.59599 -292.032 
L 81.598985 -289.588369 
L 81.600349 -287.144737 
L 81.599953 -284.701106 
L 81.597834 -282.257459 
L 81.594198 -279.813828 
L 81.589433 -277.370196 
L 81.584073 -274.92655 
L 81.578717 -272.482918 
L 81.573899 -270.039287 
L 81.569973 -267.59564 
L 81.567067 -265.152009 
L 81.565108 -262.708378 
L 81.563909 -260.264731 
L 81.563251 -257.8211 
L 81.562953 -255.377468 
L 81.56291 -252.933822 
L 81.563103 -250.49019 
L 81.563607 -248.046559 
L 81.564575 -245.602912 
L 81.56622 -243.159281 
L 81.568762 -240.715649 
L 81.572362 -238.272003 
L 81.577067 -235.828372 
L 81.58281 -233.38474 
L 81.589499 -230.941094 
L 81.597185 -228.497462 
L 81.606205 -226.053831 
L 81.617207 -223.610184 
L 81.630982 -221.166553 
L 81.648136 -218.722921 
L 81.668769 -216.279275 
L 81.692314 -213.835643 
L 81.717651 -211.392012 
L 81.743449 -208.948365 
L 81.768603 -206.504734 
L 81.792594 -204.061103 
L 81.815641 -201.617456 
L 81.838608 -199.173825 
L 81.862705 -196.730193 
L 81.889073 -194.286547 
L 81.918387 -191.842915 
L 81.950616 -189.399284 
L 81.985037 -186.955637 
L 82.020462 -184.512006 
L 82.055595 -182.068375 
L 82.089357 -179.624728 
L 82.121073 -177.181097 
L 82.150525 -174.73745 
L 82.177892 -172.293819 
L 82.203664 -169.85018 
L 82.228563 -167.406548 
L 82.253525 -164.962909 
L 82.279776 -162.51927 
L 82.309011 -160.075639 
L 82.343571 -157.632 
L 82.386424 -155.188361 
L 82.440725 -152.74473 
L 82.508972 -150.301091 
L 82.592084 -147.857452 
L 82.688978 -145.41382 
L 82.797079 -142.970181 
L 82.913698 -140.526542 
L 83.037602 -138.082911 
L 83.16981 -135.639272 
L 83.312979 -133.195633 
L 83.469587 -130.752001 
L 83.639986 -128.308362 
L 83.821601 -125.864723 
L 84.009968 -123.421092 
L 84.201077 -120.977453 
L 84.393568 -118.533814 
L 84.589318 -116.090183 
L 84.79192 -113.646544 
L 85.003885 -111.202908 
L 85.224241 -108.759273 
L 85.448022 -106.315634 
L 85.668176 -103.871999 
L 85.879118 -101.428364 
L 86.08027 -98.984725 
L 86.277793 -96.54109 
L 86.483412 -94.097455 
L 86.710451 -91.653816 
L 86.968522 -89.21018 
L 87.259028 -86.766545 
L 87.573501 -84.322906 
L 87.895635 -81.879271 
L 88.206296 -79.435638 
L 88.489319 -76.992001 
L 88.735402 -74.548364 
L 88.942052 -72.104728 
L 89.109144 -69.661091 
L 89.231614 -67.217454 
L 89.292468 -64.773819 
L 89.259871 -62.330182 
L 89.09122 -59.886546 
L 88.74465 -57.44291 
L 88.195042 -54.999273 
L 87.448555 -52.555636 
L 86.548973 -50.112 
z
" style="stroke: #008000; stroke-opacity: 0.3"/>
    </defs>
    <g clip-path="url(#p12d73452bb)">
     <use xlink:href="#m3781c898bb" x="0" y="345.6" style="fill: #90ee90; fill-opacity: 0.3; stroke: #008000; stroke-opacity: 0.3"/>
    </g>
   </g>
   <g id="PolyCollection_2">
    <defs>
     <path id="mf5940a32b6" d="M 114.102836 -50.3071 
L 110.861319 -50.3071 
L 110.314918 -52.249515 
L 109.71825 -54.191931 
L 109.096728 -56.134346 
L 108.471313 -58.076762 
L 107.855781 -60.019177 
L 107.258242 -61.961593 
L 106.685933 -63.904008 
L 106.150685 -65.846424 
L 105.671899 -67.78884 
L 105.274694 -69.731257 
L 104.983011 -71.673671 
L 104.810269 -73.616088 
L 104.752208 -75.558502 
L 104.786257 -77.500918 
L 104.87869 -79.443333 
L 104.996453 -81.385749 
L 105.117865 -83.328162 
L 105.237211 -85.270578 
L 105.362053 -87.212995 
L 105.506128 -89.155411 
L 105.682214 -91.097824 
L 105.897917 -93.04024 
L 106.154586 -94.982657 
L 106.447919 -96.925073 
L 106.768955 -98.867489 
L 107.105213 -100.809902 
L 107.442359 -102.752318 
L 107.766415 -104.694735 
L 108.065942 -106.637151 
L 108.333492 -108.579564 
L 108.566191 -110.52198 
L 108.765751 -112.464397 
L 108.93817 -114.406809 
L 109.09298 -116.349226 
L 109.241831 -118.291642 
L 109.396532 -120.234059 
L 109.566999 -122.176475 
L 109.759578 -124.118891 
L 109.975944 -126.061308 
L 110.212753 -128.003724 
L 110.462363 -129.946141 
L 110.714709 -131.888549 
L 110.959839 -133.830966 
L 111.189954 -135.773382 
L 111.40008 -137.715799 
L 111.587325 -139.658215 
L 111.749561 -141.600631 
L 111.884502 -143.543048 
L 111.989734 -145.485464 
L 112.0636 -147.427881 
L 112.106463 -149.37029 
L 112.12174 -151.312706 
L 112.116105 -153.255122 
L 112.098566 -155.197539 
L 112.078534 -157.139955 
L 112.063582 -159.082372 
L 112.057844 -161.024788 
L 112.061806 -162.967204 
L 112.073553 -164.909621 
L 112.090717 -166.85203 
L 112.112017 -168.794446 
L 112.137614 -170.736862 
L 112.168261 -172.679279 
L 112.203996 -174.621695 
L 112.243257 -176.564119 
L 112.283014 -178.506528 
L 112.31978 -180.448952 
L 112.350904 -182.391361 
L 112.375393 -184.333785 
L 112.393877 -186.276194 
L 112.407861 -188.218618 
L 112.418799 -190.161026 
L 112.427533 -192.10345 
L 112.434321 -194.045859 
L 112.439286 -195.988268 
L 112.442854 -197.930692 
L 112.445855 -199.873101 
L 112.449223 -201.815525 
L 112.453557 -203.757934 
L 112.45885 -205.700358 
L 112.464565 -207.642767 
L 112.469951 -209.58519 
L 112.4744 -211.527599 
L 112.477645 -213.470008 
L 112.479745 -215.412432 
L 112.480955 -217.354841 
L 112.481564 -219.297265 
L 112.4818 -221.239674 
L 112.481773 -223.182098 
L 112.481471 -225.124507 
L 112.480757 -227.066931 
L 112.479387 -229.009339 
L 112.477078 -230.951748 
L 112.473627 -232.894172 
L 112.469094 -234.836581 
L 112.463945 -236.779005 
L 112.45906 -238.721414 
L 112.455517 -240.663838 
L 112.454219 -242.606247 
L 112.509936 -242.606247 
L 112.509936 -242.606247 
L 112.508638 -240.663838 
L 112.505096 -238.721414 
L 112.50021 -236.779005 
L 112.495062 -234.836581 
L 112.490529 -232.894172 
L 112.487078 -230.951748 
L 112.484769 -229.009339 
L 112.483399 -227.066931 
L 112.482685 -225.124507 
L 112.482383 -223.182098 
L 112.482356 -221.239674 
L 112.482592 -219.297265 
L 112.483201 -217.354841 
L 112.484411 -215.412432 
L 112.486511 -213.470008 
L 112.489756 -211.527599 
L 112.494205 -209.58519 
L 112.499591 -207.642767 
L 112.505305 -205.700358 
L 112.510599 -203.757934 
L 112.514933 -201.815525 
L 112.5183 -199.873101 
L 112.521302 -197.930692 
L 112.52487 -195.988268 
L 112.529835 -194.045859 
L 112.536623 -192.10345 
L 112.545356 -190.161026 
L 112.556295 -188.218618 
L 112.570279 -186.276194 
L 112.588762 -184.333785 
L 112.613252 -182.391361 
L 112.644376 -180.448952 
L 112.681142 -178.506528 
L 112.720898 -176.564119 
L 112.76016 -174.621695 
L 112.795895 -172.679279 
L 112.826542 -170.736862 
L 112.852138 -168.794446 
L 112.873439 -166.85203 
L 112.890603 -164.909621 
L 112.90235 -162.967204 
L 112.906312 -161.024788 
L 112.900574 -159.082372 
L 112.885622 -157.139955 
L 112.86559 -155.197539 
L 112.848051 -153.255122 
L 112.842416 -151.312706 
L 112.857693 -149.37029 
L 112.900556 -147.427881 
L 112.974422 -145.485464 
L 113.079654 -143.543048 
L 113.214595 -141.600631 
L 113.37683 -139.658215 
L 113.564076 -137.715799 
L 113.774202 -135.773382 
L 114.004317 -133.830966 
L 114.249446 -131.888549 
L 114.501793 -129.946141 
L 114.751402 -128.003724 
L 114.988212 -126.061308 
L 115.204577 -124.118891 
L 115.397157 -122.176475 
L 115.567624 -120.234059 
L 115.722325 -118.291642 
L 115.871176 -116.349226 
L 116.025986 -114.406809 
L 116.198405 -112.464397 
L 116.397965 -110.52198 
L 116.630664 -108.579564 
L 116.898214 -106.637151 
L 117.197741 -104.694735 
L 117.521797 -102.752318 
L 117.858942 -100.809902 
L 118.195201 -98.867489 
L 118.516237 -96.925073 
L 118.80957 -94.982657 
L 119.066239 -93.04024 
L 119.281942 -91.097824 
L 119.458028 -89.155411 
L 119.602102 -87.212995 
L 119.726945 -85.270578 
L 119.846291 -83.328162 
L 119.967703 -81.385749 
L 120.085465 -79.443333 
L 120.177898 -77.500918 
L 120.211948 -75.558502 
L 120.153887 -73.616088 
L 119.981145 -71.673671 
L 119.689462 -69.731257 
L 119.292257 -67.78884 
L 118.813471 -65.846424 
L 118.278223 -63.904008 
L 117.705914 -61.961593 
L 117.108375 -60.019177 
L 116.492843 -58.076762 
L 115.867428 -56.134346 
L 115.245906 -54.191931 
L 114.649238 -52.249515 
L 114.102836 -50.3071 
z
" style="stroke: #008000; stroke-opacity: 0.3"/>
    </defs>
    <g clip-path="url(#p12d73452bb)">
     <use xlink:href="#mf5940a32b6" x="0" y="345.6" style="fill: #90ee90; fill-opacity: 0.3; stroke: #008000; stroke-opacity: 0.3"/>
    </g>
   </g>
   <g id="PolyCollection_3">
    <defs>
     <path id="mb83543c1b2" d="M 144.430478 -50.296753 
L 142.372639 -50.296753 
L 142.093286 -51.626013 
L 141.783308 -52.955272 
L 141.447888 -54.284532 
L 141.09169 -55.613792 
L 140.717972 -56.943051 
L 140.32817 -58.272311 
L 139.922102 -59.601571 
L 139.498813 -60.930831 
L 139.05788 -62.26009 
L 138.600922 -63.58935 
L 138.132974 -64.91861 
L 137.66338 -66.247868 
L 137.20593 -67.577127 
L 136.778061 -68.906388 
L 136.39908 -70.235648 
L 136.087568 -71.564907 
L 135.858364 -72.894166 
L 135.719766 -74.223426 
L 135.671688 -75.552687 
L 135.705385 -76.881946 
L 135.804968 -78.211205 
L 135.95038 -79.540465 
L 136.121011 -80.869724 
L 136.298962 -82.198983 
L 136.471173 -83.528243 
L 136.630072 -84.857502 
L 136.772983 -86.186765 
L 136.900804 -87.516024 
L 137.016569 -88.845284 
L 137.124321 -90.174543 
L 137.228477 -91.503802 
L 137.333621 -92.833062 
L 137.444536 -94.162321 
L 137.566169 -95.49158 
L 137.703283 -96.820839 
L 137.859691 -98.150099 
L 138.037192 -99.479358 
L 138.234582 -100.808621 
L 138.447206 -102.13788 
L 138.667402 -103.46714 
L 138.885848 -104.796399 
L 139.093456 -106.125658 
L 139.283255 -107.454918 
L 139.451728 -108.784177 
L 139.599303 -110.113436 
L 139.730003 -111.442696 
L 139.85047 -112.771955 
L 139.968669 -114.101214 
L 140.092508 -115.430473 
L 140.228612 -116.759733 
L 140.381374 -118.088992 
L 140.552431 -119.418251 
L 140.740568 -120.747511 
L 140.94202 -122.076778 
L 141.151034 -123.406037 
L 141.360571 -124.735296 
L 141.563042 -126.064555 
L 141.751094 -127.393815 
L 141.91842 -128.723074 
L 142.060578 -130.052333 
L 142.175664 -131.381593 
L 142.264653 -132.710852 
L 142.33125 -134.040111 
L 142.381201 -135.369371 
L 142.421199 -136.69863 
L 142.457642 -138.027889 
L 142.49555 -139.357148 
L 142.537894 -140.686408 
L 142.585468 -142.015667 
L 142.637241 -143.344926 
L 142.691052 -144.674186 
L 142.74439 -146.003445 
L 142.795084 -147.332704 
L 142.841721 -148.661964 
L 142.883792 -149.99123 
L 142.921571 -151.32049 
L 142.955864 -152.649749 
L 142.987703 -153.979008 
L 143.018102 -155.308268 
L 143.047902 -156.637527 
L 143.077702 -157.966786 
L 143.107838 -159.296046 
L 143.138376 -160.625305 
L 143.169096 -161.954564 
L 143.199486 -163.283823 
L 143.228773 -164.613083 
L 143.256023 -165.942342 
L 143.280297 -167.271601 
L 143.300844 -168.600861 
L 143.317258 -169.93012 
L 143.329564 -171.259379 
L 143.338193 -172.588639 
L 143.343881 -173.917898 
L 143.347511 -175.247157 
L 143.349974 -176.576417 
L 143.352047 -177.905676 
L 143.354337 -179.234935 
L 143.357246 -180.564194 
L 143.360966 -181.893454 
L 143.442151 -181.893454 
L 143.442151 -181.893454 
L 143.44587 -180.564194 
L 143.448779 -179.234935 
L 143.45107 -177.905676 
L 143.453143 -176.576417 
L 143.455605 -175.247157 
L 143.459236 -173.917898 
L 143.464923 -172.588639 
L 143.473553 -171.259379 
L 143.485858 -169.93012 
L 143.502273 -168.600861 
L 143.52282 -167.271601 
L 143.547094 -165.942342 
L 143.574343 -164.613083 
L 143.603631 -163.283823 
L 143.634021 -161.954564 
L 143.664741 -160.625305 
L 143.695279 -159.296046 
L 143.725415 -157.966786 
L 143.755215 -156.637527 
L 143.785015 -155.308268 
L 143.815414 -153.979008 
L 143.847253 -152.649749 
L 143.881546 -151.32049 
L 143.919325 -149.99123 
L 143.961396 -148.661964 
L 144.008033 -147.332704 
L 144.058727 -146.003445 
L 144.112065 -144.674186 
L 144.165875 -143.344926 
L 144.217649 -142.015667 
L 144.265223 -140.686408 
L 144.307567 -139.357148 
L 144.345474 -138.027889 
L 144.381918 -136.69863 
L 144.421916 -135.369371 
L 144.471867 -134.040111 
L 144.538464 -132.710852 
L 144.627453 -131.381593 
L 144.742539 -130.052333 
L 144.884697 -128.723074 
L 145.052023 -127.393815 
L 145.240075 -126.064555 
L 145.442546 -124.735296 
L 145.652082 -123.406037 
L 145.861097 -122.076778 
L 146.062549 -120.747511 
L 146.250686 -119.418251 
L 146.421743 -118.088992 
L 146.574505 -116.759733 
L 146.710608 -115.430473 
L 146.834448 -114.101214 
L 146.952647 -112.771955 
L 147.073114 -111.442696 
L 147.203813 -110.113436 
L 147.351389 -108.784177 
L 147.519862 -107.454918 
L 147.709661 -106.125658 
L 147.917268 -104.796399 
L 148.135715 -103.46714 
L 148.355911 -102.13788 
L 148.568535 -100.808621 
L 148.765925 -99.479358 
L 148.943426 -98.150099 
L 149.099834 -96.820839 
L 149.236948 -95.49158 
L 149.35858 -94.162321 
L 149.469496 -92.833062 
L 149.57464 -91.503802 
L 149.678796 -90.174543 
L 149.786548 -88.845284 
L 149.902313 -87.516024 
L 150.030134 -86.186765 
L 150.173045 -84.857502 
L 150.331944 -83.528243 
L 150.504155 -82.198983 
L 150.682106 -80.869724 
L 150.852736 -79.540465 
L 150.998149 -78.211205 
L 151.097732 -76.881946 
L 151.131429 -75.552687 
L 151.08335 -74.223426 
L 150.944753 -72.894166 
L 150.715548 -71.564907 
L 150.404036 -70.235648 
L 150.025056 -68.906388 
L 149.597187 -67.577127 
L 149.139737 -66.247868 
L 148.670143 -64.91861 
L 148.202195 -63.58935 
L 147.745237 -62.26009 
L 147.304303 -60.930831 
L 146.881015 -59.601571 
L 146.474947 -58.272311 
L 146.085145 -56.943051 
L 145.711427 -55.613792 
L 145.355229 -54.284532 
L 145.019808 -52.955272 
L 144.709831 -51.626013 
L 144.430478 -50.296753 
z
" style="stroke: #008000; stroke-opacity: 0.3"/>
    </defs>
    <g clip-path="url(#p12d73452bb)">
     <use xlink:href="#mb83543c1b2" x="0" y="345.6" style="fill: #90ee90; fill-opacity: 0.3; stroke: #008000; stroke-opacity: 0.3"/>
    </g>
   </g>
   <g id="PolyCollection_4">
    <defs>
     <path id="mde5adc257e" d="M 175.656011 -50.146962 
L 172.986067 -50.146962 
L 172.388617 -52.323171 
L 171.685119 -54.49938 
L 170.910982 -56.675589 
L 170.113772 -58.851798 
L 169.345788 -61.028008 
L 168.654058 -63.204216 
L 168.070944 -65.380425 
L 167.609211 -67.556635 
L 167.263067 -69.732845 
L 167.013774 -71.909054 
L 166.837493 -74.085263 
L 166.71351 -76.26147 
L 166.630889 -78.43768 
L 166.591169 -80.613889 
L 166.605773 -82.790096 
L 166.689282 -84.966306 
L 166.851499 -87.142515 
L 167.091298 -89.318724 
L 167.394358 -91.494933 
L 167.735705 -93.671143 
L 168.086397 -95.847352 
L 168.421742 -98.023561 
L 168.727892 -100.19977 
L 169.004848 -102.375976 
L 169.265519 -104.552185 
L 169.530823 -106.728394 
L 169.821248 -108.904604 
L 170.147368 -111.080813 
L 170.504211 -113.257022 
L 170.873468 -115.433231 
L 171.232368 -117.609441 
L 171.56332 -119.78565 
L 171.858573 -121.961859 
L 172.118716 -124.138068 
L 172.348114 -126.314278 
L 172.551079 -128.490487 
L 172.730468 -130.666696 
L 172.888095 -132.842905 
L 173.025618 -135.019115 
L 173.145077 -137.195324 
L 173.248965 -139.371533 
L 173.340027 -141.547742 
L 173.420983 -143.723952 
L 173.4944 -145.900161 
L 173.562719 -148.07637 
L 173.628099 -150.252579 
L 173.691618 -152.428789 
L 173.752152 -154.60499 
L 173.806249 -156.7812 
L 173.850111 -158.957409 
L 173.882903 -161.133618 
L 173.908792 -163.309827 
L 173.935554 -165.486036 
L 173.970321 -167.662246 
L 174.01548 -169.838455 
L 174.067581 -172.014664 
L 174.119649 -174.190873 
L 174.164937 -176.367083 
L 174.199707 -178.5433 
L 174.223878 -180.719509 
L 174.23994 -182.895718 
L 174.251305 -185.071927 
L 174.260952 -187.248137 
L 174.27071 -189.424346 
L 174.281095 -191.600555 
L 174.291575 -193.776764 
L 174.301123 -195.952974 
L 174.308828 -198.129183 
L 174.314297 -200.305392 
L 174.317706 -202.481601 
L 174.319568 -204.657811 
L 174.320462 -206.83402 
L 174.320838 -209.010229 
L 174.320977 -211.186438 
L 174.321022 -213.362648 
L 174.321035 -215.538857 
L 174.321038 -217.715066 
L 174.321039 -219.891275 
L 174.321039 -222.067485 
L 174.321039 -224.243694 
L 174.321039 -226.419903 
L 174.321039 -228.596112 
L 174.321039 -230.772321 
L 174.321039 -232.948531 
L 174.321039 -235.12474 
L 174.321038 -237.300949 
L 174.321035 -239.477158 
L 174.321022 -241.653368 
L 174.320978 -243.829577 
L 174.320844 -246.005786 
L 174.320486 -248.181995 
L 174.319648 -250.358205 
L 174.317948 -252.534414 
L 174.314962 -254.710623 
L 174.310474 -256.886832 
L 174.304795 -259.063027 
L 174.298953 -261.239236 
L 174.294482 -263.415445 
L 174.292799 -265.591669 
L 174.349279 -265.591669 
L 174.349279 -265.591669 
L 174.347596 -263.415445 
L 174.343125 -261.239236 
L 174.337283 -259.063027 
L 174.331604 -256.886832 
L 174.327116 -254.710623 
L 174.32413 -252.534414 
L 174.32243 -250.358205 
L 174.321592 -248.181995 
L 174.321234 -246.005786 
L 174.3211 -243.829577 
L 174.321056 -241.653368 
L 174.321043 -239.477158 
L 174.32104 -237.300949 
L 174.321039 -235.12474 
L 174.321039 -232.948531 
L 174.321039 -230.772321 
L 174.321039 -228.596112 
L 174.321039 -226.419903 
L 174.321039 -224.243694 
L 174.321039 -222.067485 
L 174.321039 -219.891275 
L 174.32104 -217.715066 
L 174.321043 -215.538857 
L 174.321056 -213.362648 
L 174.321101 -211.186438 
L 174.32124 -209.010229 
L 174.321616 -206.83402 
L 174.32251 -204.657811 
L 174.324372 -202.481601 
L 174.32778 -200.305392 
L 174.33325 -198.129183 
L 174.340955 -195.952974 
L 174.350502 -193.776764 
L 174.360983 -191.600555 
L 174.371368 -189.424346 
L 174.381126 -187.248137 
L 174.390773 -185.071927 
L 174.402138 -182.895718 
L 174.4182 -180.719509 
L 174.44237 -178.5433 
L 174.477141 -176.367083 
L 174.522429 -174.190873 
L 174.574497 -172.014664 
L 174.626598 -169.838455 
L 174.671757 -167.662246 
L 174.706523 -165.486036 
L 174.733286 -163.309827 
L 174.759175 -161.133618 
L 174.791967 -158.957409 
L 174.835829 -156.7812 
L 174.889926 -154.60499 
L 174.950459 -152.428789 
L 175.013979 -150.252579 
L 175.079359 -148.07637 
L 175.147678 -145.900161 
L 175.221095 -143.723952 
L 175.302051 -141.547742 
L 175.393112 -139.371533 
L 175.497001 -137.195324 
L 175.61646 -135.019115 
L 175.753983 -132.842905 
L 175.91161 -130.666696 
L 176.090999 -128.490487 
L 176.293964 -126.314278 
L 176.523362 -124.138068 
L 176.783505 -121.961859 
L 177.078758 -119.78565 
L 177.40971 -117.609441 
L 177.76861 -115.433231 
L 178.137867 -113.257022 
L 178.49471 -111.080813 
L 178.82083 -108.904604 
L 179.111255 -106.728394 
L 179.376558 -104.552185 
L 179.63723 -102.375976 
L 179.914186 -100.19977 
L 180.220335 -98.023561 
L 180.555681 -95.847352 
L 180.906373 -93.671143 
L 181.24772 -91.494933 
L 181.550779 -89.318724 
L 181.790579 -87.142515 
L 181.952796 -84.966306 
L 182.036305 -82.790096 
L 182.050909 -80.613889 
L 182.011189 -78.43768 
L 181.928568 -76.26147 
L 181.804585 -74.085263 
L 181.628304 -71.909054 
L 181.379011 -69.732845 
L 181.032867 -67.556635 
L 180.571134 -65.380425 
L 179.98802 -63.204216 
L 179.29629 -61.028008 
L 178.528306 -58.851798 
L 177.731096 -56.675589 
L 176.956958 -54.49938 
L 176.253461 -52.323171 
L 175.656011 -50.146962 
z
" style="stroke: #008000; stroke-opacity: 0.3"/>
    </defs>
    <g clip-path="url(#p12d73452bb)">
     <use xlink:href="#mde5adc257e" x="0" y="345.6" style="fill: #90ee90; fill-opacity: 0.3; stroke: #008000; stroke-opacity: 0.3"/>
    </g>
   </g>
   <g id="PolyCollection_5">
    <defs>
     <path id="m2cd8a627c8" d="M 206.331168 -50.681638 
L 204.149871 -50.681638 
L 203.81246 -52.225156 
L 203.428615 -53.768674 
L 203.004424 -55.312192 
L 202.546871 -56.85571 
L 202.063472 -58.399227 
L 201.562317 -59.942746 
L 201.052232 -61.486263 
L 200.542708 -63.029781 
L 200.04349 -64.573299 
L 199.56404 -66.116817 
L 199.113265 -67.660334 
L 198.69979 -69.203853 
L 198.332614 -70.74737 
L 198.021593 -72.290888 
L 197.777055 -73.834407 
L 197.608126 -75.377924 
L 197.519946 -76.921442 
L 197.510649 -78.464961 
L 197.569384 -80.008478 
L 197.676617 -81.551995 
L 197.80728 -83.095514 
L 197.936261 -84.639032 
L 198.044657 -86.182553 
L 198.124608 -87.72607 
L 198.180887 -89.269587 
L 198.228562 -90.813105 
L 198.287581 -92.356622 
L 198.376334 -93.900139 
L 198.506527 -95.44366 
L 198.681023 -96.987178 
L 198.894979 -98.530695 
L 199.139222 -100.074212 
L 199.404091 -101.61773 
L 199.682104 -103.161247 
L 199.968639 -104.704764 
L 200.260943 -106.248285 
L 200.556511 -107.791803 
L 200.85199 -109.33532 
L 201.143214 -110.878837 
L 201.42621 -112.422354 
L 201.698439 -113.965875 
L 201.959451 -115.509389 
L 202.210519 -117.05291 
L 202.453379 -118.596424 
L 202.688709 -120.139945 
L 202.91502 -121.683466 
L 203.128478 -123.226979 
L 203.323722 -124.7705 
L 203.49537 -126.314014 
L 203.639681 -127.857535 
L 203.755776 -129.401048 
L 203.846051 -130.944569 
L 203.915617 -132.488091 
L 203.971026 -134.031604 
L 204.018734 -135.575125 
L 204.06386 -137.118639 
L 204.109608 -138.66216 
L 204.157407 -140.205681 
L 204.2075 -141.749194 
L 204.259576 -143.292715 
L 204.313141 -144.836229 
L 204.367571 -146.37975 
L 204.422025 -147.923263 
L 204.475462 -149.466785 
L 204.52687 -151.010306 
L 204.575627 -152.553819 
L 204.621789 -154.09734 
L 204.666113 -155.640854 
L 204.709786 -157.184375 
L 204.753954 -158.727888 
L 204.799285 -160.271409 
L 204.845692 -161.81493 
L 204.892352 -163.358444 
L 204.93796 -164.901965 
L 204.981118 -166.445479 
L 205.020714 -167.989 
L 205.056134 -169.532521 
L 205.087256 -171.076034 
L 205.114254 -172.619555 
L 205.137301 -174.163069 
L 205.156344 -175.70659 
L 205.171035 -177.250103 
L 205.180866 -178.793617 
L 205.185464 -180.33713 
L 205.184932 -181.880659 
L 205.180093 -183.424173 
L 205.172523 -184.967686 
L 205.164334 -186.5112 
L 205.157718 -188.054728 
L 205.154408 -189.598242 
L 205.155235 -191.141755 
L 205.15996 -192.685284 
L 205.167443 -194.228797 
L 205.176096 -195.772311 
L 205.18443 -197.315824 
L 205.191495 -198.859353 
L 205.197053 -200.402867 
L 205.201465 -201.94638 
L 205.205384 -203.489909 
L 205.275655 -203.489909 
L 205.275655 -203.489909 
L 205.279574 -201.94638 
L 205.283986 -200.402867 
L 205.289544 -198.859353 
L 205.296609 -197.315824 
L 205.304943 -195.772311 
L 205.313596 -194.228797 
L 205.321079 -192.685284 
L 205.325804 -191.141755 
L 205.326631 -189.598242 
L 205.323321 -188.054728 
L 205.316705 -186.5112 
L 205.308516 -184.967686 
L 205.300946 -183.424173 
L 205.296107 -181.880659 
L 205.295575 -180.33713 
L 205.300173 -178.793617 
L 205.310004 -177.250103 
L 205.324695 -175.70659 
L 205.343738 -174.163069 
L 205.366785 -172.619555 
L 205.393782 -171.076034 
L 205.424905 -169.532521 
L 205.460325 -167.989 
L 205.499921 -166.445479 
L 205.543079 -164.901965 
L 205.588687 -163.358444 
L 205.635347 -161.81493 
L 205.681754 -160.271409 
L 205.727084 -158.727888 
L 205.771253 -157.184375 
L 205.814925 -155.640854 
L 205.85925 -154.09734 
L 205.905412 -152.553819 
L 205.954169 -151.010306 
L 206.005577 -149.466785 
L 206.059014 -147.923263 
L 206.113468 -146.37975 
L 206.167898 -144.836229 
L 206.221463 -143.292715 
L 206.273539 -141.749194 
L 206.323632 -140.205681 
L 206.371431 -138.66216 
L 206.417179 -137.118639 
L 206.462305 -135.575125 
L 206.510013 -134.031604 
L 206.565422 -132.488091 
L 206.634988 -130.944569 
L 206.725263 -129.401048 
L 206.841358 -127.857535 
L 206.985669 -126.314014 
L 207.157317 -124.7705 
L 207.352561 -123.226979 
L 207.566019 -121.683466 
L 207.79233 -120.139945 
L 208.02766 -118.596424 
L 208.27052 -117.05291 
L 208.521588 -115.509389 
L 208.7826 -113.965875 
L 209.054829 -112.422354 
L 209.337825 -110.878837 
L 209.629049 -109.33532 
L 209.924528 -107.791803 
L 210.220096 -106.248285 
L 210.5124 -104.704764 
L 210.798935 -103.161247 
L 211.076948 -101.61773 
L 211.341817 -100.074212 
L 211.58606 -98.530695 
L 211.800016 -96.987178 
L 211.974512 -95.44366 
L 212.104705 -93.900139 
L 212.193458 -92.356622 
L 212.252477 -90.813105 
L 212.300152 -89.269587 
L 212.356431 -87.72607 
L 212.436382 -86.182553 
L 212.544778 -84.639032 
L 212.673759 -83.095514 
L 212.804422 -81.551995 
L 212.911654 -80.008478 
L 212.97039 -78.464961 
L 212.961093 -76.921442 
L 212.872913 -75.377924 
L 212.703984 -73.834407 
L 212.459446 -72.290888 
L 212.148425 -70.74737 
L 211.781249 -69.203853 
L 211.367774 -67.660334 
L 210.916999 -66.116817 
L 210.437549 -64.573299 
L 209.938331 -63.029781 
L 209.428807 -61.486263 
L 208.918722 -59.942746 
L 208.417567 -58.399227 
L 207.934168 -56.85571 
L 207.476615 -55.312192 
L 207.052424 -53.768674 
L 206.668579 -52.225156 
L 206.331168 -50.681638 
z
" style="stroke: #008000; stroke-opacity: 0.3"/>
    </defs>
    <g clip-path="url(#p12d73452bb)">
     <use xlink:href="#m2cd8a627c8" x="0" y="345.6" style="fill: #90ee90; fill-opacity: 0.3; stroke: #008000; stroke-opacity: 0.3"/>
    </g>
   </g>
   <g id="PolyCollection_6">
    <defs>
     <path id="mae491d615d" d="M 237.313257 -50.115413 
L 235.006743 -50.115413 
L 234.63605 -51.715123 
L 234.204463 -53.314832 
L 233.718783 -54.914542 
L 233.190867 -56.514252 
L 232.636502 -58.113961 
L 232.072985 -59.713671 
L 231.516238 -61.31338 
L 230.978854 -62.91309 
L 230.47013 -64.5128 
L 229.997952 -66.11251 
L 229.571177 -67.712219 
L 229.200639 -69.31193 
L 228.897721 -70.91164 
L 228.670958 -72.511349 
L 228.522483 -74.111058 
L 228.446399 -75.710768 
L 228.43013 -77.310479 
L 228.458302 -78.910188 
L 228.517413 -80.509896 
L 228.599318 -82.109605 
L 228.702212 -83.709316 
L 228.829044 -85.309023 
L 228.984357 -86.908733 
L 229.170984 -88.508444 
L 229.387779 -90.108155 
L 229.628805 -91.707865 
L 229.88375 -93.307572 
L 230.139159 -94.907283 
L 230.380292 -96.506993 
L 230.593662 -98.1067 
L 230.770121 -99.706411 
L 230.907774 -101.306121 
L 231.013491 -102.905832 
L 231.101955 -104.505543 
L 231.192109 -106.105249 
L 231.302117 -107.70496 
L 231.444728 -109.304671 
L 231.624697 -110.904377 
L 231.838904 -112.504088 
L 232.078576 -114.103799 
L 232.332386 -115.703509 
L 232.58923 -117.30322 
L 232.840092 -118.902931 
L 233.078979 -120.502634 
L 233.303187 -122.102344 
L 233.513059 -123.702055 
L 233.711269 -125.301765 
L 233.901572 -126.901476 
L 234.087208 -128.501187 
L 234.269382 -130.100897 
L 234.446432 -131.700608 
L 234.614159 -133.300319 
L 234.767364 -134.900022 
L 234.902054 -136.499732 
L 235.01736 -138.099443 
L 235.116239 -139.699153 
L 235.204518 -141.298864 
L 235.288655 -142.898575 
L 235.373202 -144.498285 
L 235.459148 -146.097988 
L 235.543846 -147.697699 
L 235.622453 -149.29741 
L 235.690138 -150.89712 
L 235.744061 -152.496831 
L 235.78436 -154.096541 
L 235.813919 -155.696252 
L 235.837212 -157.295963 
L 235.858783 -158.895673 
L 235.881943 -160.495376 
L 235.908049 -162.095087 
L 235.936494 -163.694798 
L 235.96526 -165.294508 
L 235.99176 -166.894219 
L 236.013656 -168.493929 
L 236.029426 -170.09364 
L 236.038605 -171.693343 
L 236.041749 -173.293054 
L 236.040218 -174.892764 
L 236.035885 -176.492475 
L 236.030792 -178.092186 
L 236.026784 -179.691896 
L 236.025166 -181.291607 
L 236.026475 -182.891317 
L 236.030462 -184.491028 
L 236.036322 -186.090739 
L 236.043098 -187.690449 
L 236.050082 -189.29016 
L 236.057053 -190.889856 
L 236.064229 -192.489566 
L 236.072004 -194.089277 
L 236.080587 -195.688987 
L 236.089762 -197.288698 
L 236.098886 -198.888409 
L 236.107115 -200.488119 
L 236.113763 -202.08783 
L 236.11859 -203.68754 
L 236.121901 -205.287251 
L 236.124401 -206.886962 
L 236.126906 -208.486672 
L 236.193094 -208.486672 
L 236.193094 -208.486672 
L 236.195599 -206.886962 
L 236.198099 -205.287251 
L 236.20141 -203.68754 
L 236.206237 -202.08783 
L 236.212885 -200.488119 
L 236.221114 -198.888409 
L 236.230238 -197.288698 
L 236.239413 -195.688987 
L 236.247996 -194.089277 
L 236.255771 -192.489566 
L 236.262947 -190.889856 
L 236.269918 -189.29016 
L 236.276902 -187.690449 
L 236.283678 -186.090739 
L 236.289538 -184.491028 
L 236.293525 -182.891317 
L 236.294834 -181.291607 
L 236.293216 -179.691896 
L 236.289208 -178.092186 
L 236.284115 -176.492475 
L 236.279782 -174.892764 
L 236.278251 -173.293054 
L 236.281395 -171.693343 
L 236.290574 -170.09364 
L 236.306344 -168.493929 
L 236.32824 -166.894219 
L 236.35474 -165.294508 
L 236.383506 -163.694798 
L 236.411951 -162.095087 
L 236.438057 -160.495376 
L 236.461217 -158.895673 
L 236.482788 -157.295963 
L 236.506081 -155.696252 
L 236.53564 -154.096541 
L 236.575939 -152.496831 
L 236.629862 -150.89712 
L 236.697547 -149.29741 
L 236.776154 -147.697699 
L 236.860852 -146.097988 
L 236.946798 -144.498285 
L 237.031345 -142.898575 
L 237.115482 -141.298864 
L 237.203761 -139.699153 
L 237.30264 -138.099443 
L 237.417946 -136.499732 
L 237.552636 -134.900022 
L 237.705841 -133.300319 
L 237.873568 -131.700608 
L 238.050618 -130.100897 
L 238.232792 -128.501187 
L 238.418428 -126.901476 
L 238.608731 -125.301765 
L 238.806941 -123.702055 
L 239.016813 -122.102344 
L 239.241021 -120.502634 
L 239.479908 -118.902931 
L 239.73077 -117.30322 
L 239.987614 -115.703509 
L 240.241424 -114.103799 
L 240.481096 -112.504088 
L 240.695303 -110.904377 
L 240.875272 -109.304671 
L 241.017883 -107.70496 
L 241.127891 -106.105249 
L 241.218045 -104.505543 
L 241.306509 -102.905832 
L 241.412226 -101.306121 
L 241.549879 -99.706411 
L 241.726338 -98.1067 
L 241.939708 -96.506993 
L 242.180841 -94.907283 
L 242.43625 -93.307572 
L 242.691195 -91.707865 
L 242.932221 -90.108155 
L 243.149016 -88.508444 
L 243.335643 -86.908733 
L 243.490956 -85.309023 
L 243.617788 -83.709316 
L 243.720682 -82.109605 
L 243.802587 -80.509896 
L 243.861698 -78.910188 
L 243.88987 -77.310479 
L 243.873601 -75.710768 
L 243.797517 -74.111058 
L 243.649042 -72.511349 
L 243.422279 -70.91164 
L 243.119361 -69.31193 
L 242.748823 -67.712219 
L 242.322048 -66.11251 
L 241.84987 -64.5128 
L 241.341146 -62.91309 
L 240.803762 -61.31338 
L 240.247015 -59.713671 
L 239.683498 -58.113961 
L 239.129133 -56.514252 
L 238.601217 -54.914542 
L 238.115537 -53.314832 
L 237.68395 -51.715123 
L 237.313257 -50.115413 
z
" style="stroke: #008000; stroke-opacity: 0.3"/>
    </defs>
    <g clip-path="url(#p12d73452bb)">
     <use xlink:href="#mae491d615d" x="0" y="345.6" style="fill: #90ee90; fill-opacity: 0.3; stroke: #008000; stroke-opacity: 0.3"/>
    </g>
   </g>
   <g id="PolyCollection_7">
    <defs>
     <path id="md9374f3dd5" d="M 268.607144 -50.71163 
L 265.551817 -50.71163 
L 265.189759 -52.20132 
L 264.804821 -53.691009 
L 264.405832 -55.180698 
L 263.999945 -56.670388 
L 263.592041 -58.160077 
L 263.184933 -59.649767 
L 262.780176 -61.139456 
L 262.379117 -62.629145 
L 261.983831 -64.118834 
L 261.597631 -65.608523 
L 261.225098 -67.098212 
L 260.871704 -68.587902 
L 260.54325 -70.077591 
L 260.245359 -71.567281 
L 259.983182 -73.056969 
L 259.761318 -74.546659 
L 259.583844 -76.036349 
L 259.45431 -77.526037 
L 259.375584 -79.015727 
L 259.34961 -80.505415 
L 259.377194 -81.995105 
L 259.457915 -83.484795 
L 259.590176 -84.974485 
L 259.771232 -86.464175 
L 259.997066 -87.953861 
L 260.262094 -89.443551 
L 260.558817 -90.933241 
L 260.877739 -92.422931 
L 261.207747 -93.912621 
L 261.537044 -95.402308 
L 261.854453 -96.891998 
L 262.150791 -98.381688 
L 262.419965 -99.871378 
L 262.65954 -101.361068 
L 262.870649 -102.850754 
L 263.057288 -104.340444 
L 263.225163 -105.830134 
L 263.380352 -107.319824 
L 263.528099 -108.809514 
L 263.672004 -110.2992 
L 263.813764 -111.78889 
L 263.953444 -113.27858 
L 264.090108 -114.76827 
L 264.222538 -116.25796 
L 264.349823 -117.74765 
L 264.471684 -119.23734 
L 264.588533 -120.72703 
L 264.701342 -122.21672 
L 264.811423 -123.706403 
L 264.920155 -125.196093 
L 265.028712 -126.685783 
L 265.137781 -128.175473 
L 265.247339 -129.665163 
L 265.356537 -131.154853 
L 265.463748 -132.644543 
L 265.566822 -134.134233 
L 265.663488 -135.623923 
L 265.75184 -137.113613 
L 265.830791 -138.603295 
L 265.900378 -140.092985 
L 265.961815 -141.582675 
L 266.01726 -143.072365 
L 266.069326 -144.562055 
L 266.120429 -146.051745 
L 266.172206 -147.541435 
L 266.225154 -149.031125 
L 266.278653 -150.520815 
L 266.331342 -152.010505 
L 266.381697 -153.500195 
L 266.428586 -154.989878 
L 266.471596 -156.479568 
L 266.511029 -157.969258 
L 266.547651 -159.458948 
L 266.582328 -160.948638 
L 266.615724 -162.438328 
L 266.648176 -163.928018 
L 266.67972 -165.417708 
L 266.710227 -166.907398 
L 266.739532 -168.397088 
L 266.767507 -169.88677 
L 266.794091 -171.37646 
L 266.819278 -172.86615 
L 266.843115 -174.35584 
L 266.865705 -175.84553 
L 266.887203 -177.335235 
L 266.907789 -178.824918 
L 266.927604 -180.3146 
L 266.946684 -181.804298 
L 266.964907 -183.29398 
L 266.98198 -184.783678 
L 266.997492 -186.27336 
L 267.011008 -187.763058 
L 267.022184 -189.25274 
L 267.030878 -190.742438 
L 267.037217 -192.23212 
L 267.041597 -193.721818 
L 267.044616 -195.2115 
L 267.046951 -196.701183 
L 267.049215 -198.190881 
L 267.109746 -198.190881 
L 267.109746 -198.190881 
L 267.11201 -196.701183 
L 267.114345 -195.2115 
L 267.117364 -193.721818 
L 267.121744 -192.23212 
L 267.128083 -190.742438 
L 267.136777 -189.25274 
L 267.147953 -187.763058 
L 267.161469 -186.27336 
L 267.176981 -184.783678 
L 267.194055 -183.29398 
L 267.212277 -181.804298 
L 267.231357 -180.3146 
L 267.251172 -178.824918 
L 267.271758 -177.335235 
L 267.293257 -175.84553 
L 267.315846 -174.35584 
L 267.339683 -172.86615 
L 267.36487 -171.37646 
L 267.391454 -169.88677 
L 267.419429 -168.397088 
L 267.448734 -166.907398 
L 267.479241 -165.417708 
L 267.510785 -163.928018 
L 267.543237 -162.438328 
L 267.576633 -160.948638 
L 267.61131 -159.458948 
L 267.647932 -157.969258 
L 267.687366 -156.479568 
L 267.730375 -154.989878 
L 267.777265 -153.500195 
L 267.827619 -152.010505 
L 267.880308 -150.520815 
L 267.933807 -149.031125 
L 267.986755 -147.541435 
L 268.038532 -146.051745 
L 268.089635 -144.562055 
L 268.141701 -143.072365 
L 268.197146 -141.582675 
L 268.258583 -140.092985 
L 268.32817 -138.603295 
L 268.407121 -137.113613 
L 268.495473 -135.623923 
L 268.592139 -134.134233 
L 268.695213 -132.644543 
L 268.802424 -131.154853 
L 268.911622 -129.665163 
L 269.02118 -128.175473 
L 269.130249 -126.685783 
L 269.238806 -125.196093 
L 269.347538 -123.706403 
L 269.457619 -122.21672 
L 269.570428 -120.72703 
L 269.687277 -119.23734 
L 269.809138 -117.74765 
L 269.936423 -116.25796 
L 270.068853 -114.76827 
L 270.205517 -113.27858 
L 270.345197 -111.78889 
L 270.486957 -110.2992 
L 270.630862 -108.809514 
L 270.778609 -107.319824 
L 270.933798 -105.830134 
L 271.101673 -104.340444 
L 271.288312 -102.850754 
L 271.499421 -101.361068 
L 271.738996 -99.871378 
L 272.008171 -98.381688 
L 272.304508 -96.891998 
L 272.621917 -95.402308 
L 272.951214 -93.912621 
L 273.281222 -92.422931 
L 273.600144 -90.933241 
L 273.896867 -89.443551 
L 274.161895 -87.953861 
L 274.387729 -86.464175 
L 274.568785 -84.974485 
L 274.701046 -83.484795 
L 274.781768 -81.995105 
L 274.809351 -80.505415 
L 274.783377 -79.015727 
L 274.704651 -77.526037 
L 274.575117 -76.036349 
L 274.397643 -74.546659 
L 274.175779 -73.056969 
L 273.913602 -71.567281 
L 273.615712 -70.077591 
L 273.287257 -68.587902 
L 272.933863 -67.098212 
L 272.56133 -65.608523 
L 272.17513 -64.118834 
L 271.779844 -62.629145 
L 271.378785 -61.139456 
L 270.974028 -59.649767 
L 270.56692 -58.160077 
L 270.159016 -56.670388 
L 269.753129 -55.180698 
L 269.35414 -53.691009 
L 268.969202 -52.20132 
L 268.607144 -50.71163 
z
" style="stroke: #008000; stroke-opacity: 0.3"/>
    </defs>
    <g clip-path="url(#p12d73452bb)">
     <use xlink:href="#md9374f3dd5" x="0" y="345.6" style="fill: #90ee90; fill-opacity: 0.3; stroke: #008000; stroke-opacity: 0.3"/>
    </g>
   </g>
   <g id="PolyCollection_8">
    <defs>
     <path id="me3df6ba6c8" d="M 299.290138 -50.779024 
L 296.707784 -50.779024 
L 296.373199 -52.254236 
L 295.99957 -53.729449 
L 295.588884 -55.204662 
L 295.144445 -56.679875 
L 294.672524 -58.155087 
L 294.183713 -59.6303 
L 293.693007 -61.105512 
L 293.218097 -62.580725 
L 292.77614 -64.055938 
L 292.380019 -65.531151 
L 292.035509 -67.006365 
L 291.74048 -68.481578 
L 291.486506 -69.956791 
L 291.262362 -71.432002 
L 291.058141 -72.907215 
L 290.868537 -74.382428 
L 290.694202 -75.857642 
L 290.54082 -77.332855 
L 290.416423 -78.808066 
L 290.328095 -80.283279 
L 290.279346 -81.75849 
L 290.269091 -83.233705 
L 290.292434 -84.708916 
L 290.34273 -86.184131 
L 290.413935 -87.659343 
L 290.502256 -89.134558 
L 290.60653 -90.609769 
L 290.727356 -92.08498 
L 290.865577 -93.560195 
L 291.020954 -95.035406 
L 291.191729 -96.510621 
L 291.3753 -97.985833 
L 291.569681 -99.461044 
L 291.774924 -100.936259 
L 291.993694 -102.41147 
L 292.230476 -103.886685 
L 292.489565 -105.361896 
L 292.772569 -106.837108 
L 293.076439 -108.312323 
L 293.392913 -109.787534 
L 293.709707 -111.262749 
L 294.013126 -112.73796 
L 294.29124 -114.213171 
L 294.536552 -115.688386 
L 294.747332 -117.163601 
L 294.927293 -118.638809 
L 295.083863 -120.114024 
L 295.225785 -121.589239 
L 295.360889 -123.064446 
L 295.494677 -124.539661 
L 295.629953 -126.014876 
L 295.767315 -127.490091 
L 295.906078 -128.965299 
L 296.045138 -130.440514 
L 296.183464 -131.915729 
L 296.320121 -133.390936 
L 296.453965 -134.866151 
L 296.583277 -136.341366 
L 296.705655 -137.816574 
L 296.818329 -139.291789 
L 296.918856 -140.767004 
L 297.00595 -142.242219 
L 297.080042 -143.717426 
L 297.143309 -145.192641 
L 297.199076 -146.667856 
L 297.250863 -148.143064 
L 297.301424 -149.618279 
L 297.352172 -151.093494 
L 297.403129 -152.568709 
L 297.453321 -154.043916 
L 297.501388 -155.519131 
L 297.546138 -156.994346 
L 297.586865 -158.469554 
L 297.623412 -159.944769 
L 297.656012 -161.419984 
L 297.685066 -162.895191 
L 297.710932 -164.370406 
L 297.733827 -165.845621 
L 297.753839 -167.320836 
L 297.771025 -168.796043 
L 297.785561 -170.271258 
L 297.797868 -171.746473 
L 297.808684 -173.221681 
L 297.819014 -174.696896 
L 297.829972 -176.172111 
L 297.842522 -177.647311 
L 297.85721 -179.122526 
L 297.873977 -180.597741 
L 297.892121 -182.072956 
L 297.910451 -183.548171 
L 297.927565 -185.023371 
L 297.942184 -186.498586 
L 297.953436 -187.973801 
L 297.961032 -189.449016 
L 297.965285 -190.924231 
L 297.967005 -192.399446 
L 297.967288 -193.874661 
L 297.967254 -195.349861 
L 297.967816 -196.825076 
L 298.030106 -196.825076 
L 298.030106 -196.825076 
L 298.030668 -195.349861 
L 298.030635 -193.874661 
L 298.030917 -192.399446 
L 298.032638 -190.924231 
L 298.03689 -189.449016 
L 298.044486 -187.973801 
L 298.055738 -186.498586 
L 298.070357 -185.023371 
L 298.087471 -183.548171 
L 298.105801 -182.072956 
L 298.123946 -180.597741 
L 298.140712 -179.122526 
L 298.1554 -177.647311 
L 298.16795 -176.172111 
L 298.178908 -174.696896 
L 298.189238 -173.221681 
L 298.200054 -171.746473 
L 298.212361 -170.271258 
L 298.226897 -168.796043 
L 298.244083 -167.320836 
L 298.264095 -165.845621 
L 298.28699 -164.370406 
L 298.312856 -162.895191 
L 298.34191 -161.419984 
L 298.37451 -159.944769 
L 298.411057 -158.469554 
L 298.451784 -156.994346 
L 298.496534 -155.519131 
L 298.544601 -154.043916 
L 298.594793 -152.568709 
L 298.64575 -151.093494 
L 298.696498 -149.618279 
L 298.747059 -148.143064 
L 298.798846 -146.667856 
L 298.854614 -145.192641 
L 298.91788 -143.717426 
L 298.991972 -142.242219 
L 299.079066 -140.767004 
L 299.179593 -139.291789 
L 299.292267 -137.816574 
L 299.414646 -136.341366 
L 299.543958 -134.866151 
L 299.677801 -133.390936 
L 299.814459 -131.915729 
L 299.952785 -130.440514 
L 300.091844 -128.965299 
L 300.230607 -127.490091 
L 300.367969 -126.014876 
L 300.503245 -124.539661 
L 300.637033 -123.064446 
L 300.772137 -121.589239 
L 300.914059 -120.114024 
L 301.070629 -118.638809 
L 301.25059 -117.163601 
L 301.461371 -115.688386 
L 301.706682 -114.213171 
L 301.984796 -112.73796 
L 302.288215 -111.262749 
L 302.605009 -109.787534 
L 302.921483 -108.312323 
L 303.225353 -106.837108 
L 303.508357 -105.361896 
L 303.767446 -103.886685 
L 304.004228 -102.41147 
L 304.222998 -100.936259 
L 304.428241 -99.461044 
L 304.622622 -97.985833 
L 304.806193 -96.510621 
L 304.976968 -95.035406 
L 305.132345 -93.560195 
L 305.270566 -92.08498 
L 305.391392 -90.609769 
L 305.495666 -89.134558 
L 305.583988 -87.659343 
L 305.655192 -86.184131 
L 305.705488 -84.708916 
L 305.728831 -83.233705 
L 305.718576 -81.75849 
L 305.669827 -80.283279 
L 305.581499 -78.808066 
L 305.457102 -77.332855 
L 305.30372 -75.857642 
L 305.129385 -74.382428 
L 304.939781 -72.907215 
L 304.73556 -71.432002 
L 304.511416 -69.956791 
L 304.257442 -68.481578 
L 303.962413 -67.006365 
L 303.617903 -65.531151 
L 303.221782 -64.055938 
L 302.779825 -62.580725 
L 302.304915 -61.105512 
L 301.814209 -59.6303 
L 301.325398 -58.155087 
L 300.853477 -56.679875 
L 300.409038 -55.204662 
L 299.998352 -53.729449 
L 299.624723 -52.254236 
L 299.290138 -50.779024 
z
" style="stroke: #008000; stroke-opacity: 0.3"/>
    </defs>
    <g clip-path="url(#p12d73452bb)">
     <use xlink:href="#me3df6ba6c8" x="0" y="345.6" style="fill: #90ee90; fill-opacity: 0.3; stroke: #008000; stroke-opacity: 0.3"/>
    </g>
   </g>
   <g id="PolyCollection_9">
    <defs>
     <path id="m54e4f5b3e2" d="M 330.864653 -51.835596 
L 326.97223 -51.835596 
L 326.41542 -53.456818 
L 325.81156 -55.07804 
L 325.185286 -56.699263 
L 324.563032 -58.320484 
L 323.969536 -59.941707 
L 323.424608 -61.562929 
L 322.940839 -63.184151 
L 322.522945 -64.805373 
L 322.169141 -66.426596 
L 321.874221 -68.047817 
L 321.633216 -69.669039 
L 321.4439 -71.290262 
L 321.306824 -72.911484 
L 321.2227 -74.532705 
L 321.188571 -76.153929 
L 321.195162 -77.77515 
L 321.227432 -79.396372 
L 321.268831 -81.017596 
L 321.307652 -82.638817 
L 321.342562 -84.260041 
L 321.384487 -85.881264 
L 321.45359 -87.50248 
L 321.57232 -89.123703 
L 321.757216 -90.744927 
L 322.012691 -92.36615 
L 322.329031 -93.987374 
L 322.68507 -95.608597 
L 323.054193 -97.229813 
L 323.411249 -98.851036 
L 323.738008 -100.47226 
L 324.025736 -102.093483 
L 324.274721 -103.714707 
L 324.491654 -105.33593 
L 324.686255 -106.957146 
L 324.868387 -108.57837 
L 325.046318 -110.199593 
L 325.226167 -111.820816 
L 325.412071 -113.44204 
L 325.606477 -115.063256 
L 325.810155 -116.684479 
L 326.021931 -118.305703 
L 326.23845 -119.926926 
L 326.454373 -121.54815 
L 326.663159 -123.169366 
L 326.858274 -124.790589 
L 327.034388 -126.411812 
L 327.188205 -128.033036 
L 327.31874 -129.654259 
L 327.427134 -131.275483 
L 327.516219 -132.896699 
L 327.58998 -134.517922 
L 327.653017 -136.139146 
L 327.710034 -137.760369 
L 327.765369 -139.381592 
L 327.822638 -141.002816 
L 327.884498 -142.624032 
L 327.952524 -144.245255 
L 328.027141 -145.866479 
L 328.107558 -147.487702 
L 328.191729 -149.108926 
L 328.276453 -150.730149 
L 328.357704 -152.351365 
L 328.431245 -153.972588 
L 328.493428 -155.593812 
L 328.541974 -157.215035 
L 328.576493 -158.836259 
L 328.598574 -160.457475 
L 328.611443 -162.078698 
L 328.61929 -163.699922 
L 328.626468 -165.321145 
L 328.636732 -166.942368 
L 328.652651 -168.563592 
L 328.675241 -170.184808 
L 328.703887 -171.806031 
L 328.736531 -173.427255 
L 328.770136 -175.048478 
L 328.801321 -176.669702 
L 328.82703 -178.290917 
L 328.845095 -179.912148 
L 328.854584 -181.533364 
L 328.855896 -183.154595 
L 328.85063 -184.775811 
L 328.841268 -186.397027 
L 328.83072 -188.018258 
L 328.821791 -189.639474 
L 328.81667 -191.260705 
L 328.816569 -192.881921 
L 328.821578 -194.503137 
L 328.830793 -196.124368 
L 328.84263 -197.745584 
L 328.855245 -199.366815 
L 328.866921 -200.988031 
L 328.87638 -202.609262 
L 328.882956 -204.230478 
L 328.886651 -205.851693 
L 328.888049 -207.472924 
L 328.888127 -209.09414 
L 328.887979 -210.715371 
L 328.888533 -212.336587 
L 328.94835 -212.336587 
L 328.94835 -212.336587 
L 328.948905 -210.715371 
L 328.948756 -209.09414 
L 328.948834 -207.472924 
L 328.950232 -205.851693 
L 328.953927 -204.230478 
L 328.960503 -202.609262 
L 328.969962 -200.988031 
L 328.981638 -199.366815 
L 328.994253 -197.745584 
L 329.00609 -196.124368 
L 329.015305 -194.503137 
L 329.020314 -192.881921 
L 329.020213 -191.260705 
L 329.015093 -189.639474 
L 329.006163 -188.018258 
L 328.995615 -186.397027 
L 328.986254 -184.775811 
L 328.980987 -183.154595 
L 328.982299 -181.533364 
L 328.991788 -179.912148 
L 329.009854 -178.290917 
L 329.035562 -176.669702 
L 329.066747 -175.048478 
L 329.100352 -173.427255 
L 329.132996 -171.806031 
L 329.161642 -170.184808 
L 329.184233 -168.563592 
L 329.200151 -166.942368 
L 329.210415 -165.321145 
L 329.217593 -163.699922 
L 329.22544 -162.078698 
L 329.238309 -160.457475 
L 329.26039 -158.836259 
L 329.294909 -157.215035 
L 329.343455 -155.593812 
L 329.405638 -153.972588 
L 329.479179 -152.351365 
L 329.56043 -150.730149 
L 329.645154 -149.108926 
L 329.729325 -147.487702 
L 329.809742 -145.866479 
L 329.884359 -144.245255 
L 329.952386 -142.624032 
L 330.014245 -141.002816 
L 330.071514 -139.381592 
L 330.126849 -137.760369 
L 330.183866 -136.139146 
L 330.246903 -134.517922 
L 330.320664 -132.896699 
L 330.409749 -131.275483 
L 330.518144 -129.654259 
L 330.648678 -128.033036 
L 330.802495 -126.411812 
L 330.978609 -124.790589 
L 331.173724 -123.169366 
L 331.38251 -121.54815 
L 331.598433 -119.926926 
L 331.814952 -118.305703 
L 332.026728 -116.684479 
L 332.230406 -115.063256 
L 332.424812 -113.44204 
L 332.610716 -111.820816 
L 332.790565 -110.199593 
L 332.968496 -108.57837 
L 333.150628 -106.957146 
L 333.345229 -105.33593 
L 333.562162 -103.714707 
L 333.811147 -102.093483 
L 334.098875 -100.47226 
L 334.425634 -98.851036 
L 334.78269 -97.229813 
L 335.151813 -95.608597 
L 335.507853 -93.987374 
L 335.824192 -92.36615 
L 336.079667 -90.744927 
L 336.264563 -89.123703 
L 336.383293 -87.50248 
L 336.452396 -85.881264 
L 336.494321 -84.260041 
L 336.529231 -82.638817 
L 336.568052 -81.017596 
L 336.609451 -79.396372 
L 336.641721 -77.77515 
L 336.648312 -76.153929 
L 336.614184 -74.532705 
L 336.530059 -72.911484 
L 336.392983 -71.290262 
L 336.203668 -69.669039 
L 335.962662 -68.047817 
L 335.667743 -66.426596 
L 335.313938 -64.805373 
L 334.896044 -63.184151 
L 334.412275 -61.562929 
L 333.867347 -59.941707 
L 333.273851 -58.320484 
L 332.651597 -56.699263 
L 332.025323 -55.07804 
L 331.421463 -53.456818 
L 330.864653 -51.835596 
z
" style="stroke: #008000; stroke-opacity: 0.3"/>
    </defs>
    <g clip-path="url(#p12d73452bb)">
     <use xlink:href="#m54e4f5b3e2" x="0" y="345.6" style="fill: #90ee90; fill-opacity: 0.3; stroke: #008000; stroke-opacity: 0.3"/>
    </g>
   </g>
   <g id="PolyCollection_10">
    <defs>
     <path id="m0a90bddd59" d="M 361.703597 -50.113967 
L 357.972247 -50.113967 
L 357.415378 -51.675895 
L 356.801606 -53.237823 
L 356.15675 -54.799752 
L 355.510747 -56.36168 
L 354.893407 -57.923609 
L 354.330082 -59.485537 
L 353.838273 -61.047465 
L 353.425953 -62.609394 
L 353.091922 -64.171322 
L 352.827957 -65.733251 
L 352.622044 -67.295179 
L 352.46175 -68.857107 
L 352.336889 -70.419036 
L 352.240919 -71.980964 
L 352.170932 -73.542893 
L 352.126514 -75.104821 
L 352.108052 -76.666748 
L 352.115115 -78.228677 
L 352.145475 -79.790605 
L 352.195015 -81.352534 
L 352.258435 -82.91446 
L 352.330449 -84.47639 
L 352.407033 -86.038319 
L 352.486368 -87.600245 
L 352.569274 -89.162174 
L 352.659062 -90.724103 
L 352.760854 -92.286029 
L 352.880467 -93.847958 
L 353.02304 -95.409888 
L 353.191646 -96.971817 
L 353.386204 -98.533743 
L 353.603005 -100.095672 
L 353.835047 -101.657602 
L 354.073151 -103.219527 
L 354.30761 -104.781457 
L 354.529959 -106.343386 
L 354.734481 -107.905316 
L 354.919198 -109.467241 
L 355.086208 -111.029171 
L 355.241364 -112.5911 
L 355.393272 -114.153026 
L 355.551675 -115.714955 
L 355.72541 -117.276885 
L 355.920308 -118.838814 
L 356.137593 -120.400743 
L 356.373271 -121.962673 
L 356.618812 -123.524595 
L 356.862996 -125.086524 
L 357.094445 -126.648454 
L 357.304151 -128.210383 
L 357.48728 -129.772312 
L 357.643809 -131.334242 
L 357.777873 -132.896171 
L 357.896121 -134.458093 
L 358.005655 -136.020023 
L 358.112201 -137.581952 
L 358.21904 -139.143881 
L 358.326886 -140.705811 
L 358.434559 -142.26774 
L 358.540045 -143.82967 
L 358.641497 -145.391591 
L 358.737866 -146.953521 
L 358.829021 -148.51545 
L 358.915487 -150.07738 
L 358.997974 -151.639309 
L 359.076935 -153.201239 
L 359.152306 -154.763168 
L 359.223498 -156.32509 
L 359.289605 -157.887019 
L 359.349737 -159.448949 
L 359.40336 -161.010878 
L 359.450501 -162.572807 
L 359.491785 -164.134737 
L 359.528287 -165.696666 
L 359.561269 -167.258588 
L 359.591889 -168.820518 
L 359.620956 -170.382447 
L 359.648798 -171.944376 
L 359.675266 -173.506306 
L 359.699856 -175.068235 
L 359.721924 -176.630157 
L 359.740927 -178.192087 
L 359.756626 -179.754016 
L 359.769185 -181.315945 
L 359.779133 -182.877875 
L 359.787203 -184.439804 
L 359.794111 -186.001734 
L 359.800349 -187.563663 
L 359.806076 -189.125592 
L 359.811121 -190.687522 
L 359.815105 -192.249451 
L 359.817618 -193.811381 
L 359.818399 -195.373295 
L 359.817465 -196.935224 
L 359.815164 -198.497154 
L 359.812133 -200.059083 
L 359.809172 -201.621013 
L 359.807074 -203.182942 
L 359.806436 -204.744872 
L 359.869409 -204.744872 
L 359.869409 -204.744872 
L 359.868771 -203.182942 
L 359.866672 -201.621013 
L 359.863711 -200.059083 
L 359.86068 -198.497154 
L 359.858379 -196.935224 
L 359.857446 -195.373295 
L 359.858226 -193.811381 
L 359.860739 -192.249451 
L 359.864723 -190.687522 
L 359.869768 -189.125592 
L 359.875495 -187.563663 
L 359.881733 -186.001734 
L 359.888641 -184.439804 
L 359.896711 -182.877875 
L 359.906659 -181.315945 
L 359.919218 -179.754016 
L 359.934917 -178.192087 
L 359.95392 -176.630157 
L 359.975988 -175.068235 
L 360.000578 -173.506306 
L 360.027046 -171.944376 
L 360.054888 -170.382447 
L 360.083955 -168.820518 
L 360.114575 -167.258588 
L 360.147558 -165.696666 
L 360.184059 -164.134737 
L 360.225343 -162.572807 
L 360.272484 -161.010878 
L 360.326107 -159.448949 
L 360.386239 -157.887019 
L 360.452346 -156.32509 
L 360.523538 -154.763168 
L 360.59891 -153.201239 
L 360.67787 -151.639309 
L 360.760357 -150.07738 
L 360.846823 -148.51545 
L 360.937978 -146.953521 
L 361.034347 -145.391591 
L 361.1358 -143.82967 
L 361.241285 -142.26774 
L 361.348958 -140.705811 
L 361.456805 -139.143881 
L 361.563643 -137.581952 
L 361.670189 -136.020023 
L 361.779723 -134.458093 
L 361.897971 -132.896171 
L 362.032035 -131.334242 
L 362.188564 -129.772312 
L 362.371693 -128.210383 
L 362.581399 -126.648454 
L 362.812848 -125.086524 
L 363.057032 -123.524595 
L 363.302573 -121.962673 
L 363.538251 -120.400743 
L 363.755536 -118.838814 
L 363.950434 -117.276885 
L 364.124169 -115.714955 
L 364.282572 -114.153026 
L 364.43448 -112.5911 
L 364.589636 -111.029171 
L 364.756647 -109.467241 
L 364.941363 -107.905316 
L 365.145885 -106.343386 
L 365.368234 -104.781457 
L 365.602693 -103.219527 
L 365.840797 -101.657602 
L 366.072839 -100.095672 
L 366.28964 -98.533743 
L 366.484198 -96.971817 
L 366.652804 -95.409888 
L 366.795377 -93.847958 
L 366.91499 -92.286029 
L 367.016782 -90.724103 
L 367.106571 -89.162174 
L 367.189477 -87.600245 
L 367.268811 -86.038319 
L 367.345395 -84.47639 
L 367.417409 -82.91446 
L 367.480829 -81.352534 
L 367.530369 -79.790605 
L 367.56073 -78.228677 
L 367.567792 -76.666748 
L 367.54933 -75.104821 
L 367.504913 -73.542893 
L 367.434925 -71.980964 
L 367.338955 -70.419036 
L 367.214095 -68.857107 
L 367.0538 -67.295179 
L 366.847887 -65.733251 
L 366.583922 -64.171322 
L 366.249891 -62.609394 
L 365.837571 -61.047465 
L 365.345762 -59.485537 
L 364.782437 -57.923609 
L 364.165097 -56.36168 
L 363.519094 -54.799752 
L 362.874238 -53.237823 
L 362.260466 -51.675895 
L 361.703597 -50.113967 
z
" style="stroke: #008000; stroke-opacity: 0.3"/>
    </defs>
    <g clip-path="url(#p12d73452bb)">
     <use xlink:href="#m0a90bddd59" x="0" y="345.6" style="fill: #90ee90; fill-opacity: 0.3; stroke: #008000; stroke-opacity: 0.3"/>
    </g>
   </g>
   <g id="PolyCollection_11">
    <defs>
     <path id="mc1cc347b86" d="M 392.325294 -50.733363 
L 389.189511 -50.733363 
L 388.722864 -52.358492 
L 388.20747 -53.983621 
L 387.660459 -55.60875 
L 387.100934 -57.233879 
L 386.548002 -58.859008 
L 386.019163 -60.484136 
L 385.529168 -62.109266 
L 385.089253 -63.734394 
L 384.706546 -65.359523 
L 384.383493 -66.984652 
L 384.117422 -68.609781 
L 383.900661 -70.234909 
L 383.721775 -71.860038 
L 383.568149 -73.485168 
L 383.429512 -75.110297 
L 383.301255 -76.735425 
L 383.186171 -78.360554 
L 383.093702 -79.985682 
L 383.0368 -81.610813 
L 383.027532 -83.235943 
L 383.07313 -84.86107 
L 383.173916 -86.4862 
L 383.323746 -88.111331 
L 383.512552 -89.736457 
L 383.729824 -91.361588 
L 383.967604 -92.986714 
L 384.221934 -94.611845 
L 384.492324 -96.236975 
L 384.779668 -97.862102 
L 385.083552 -99.487232 
L 385.400129 -101.112359 
L 385.721413 -102.737489 
L 386.03625 -104.36262 
L 386.332551 -105.987746 
L 386.599969 -107.612877 
L 386.832074 -109.238003 
L 387.027416 -110.863134 
L 387.189225 -112.488264 
L 387.324024 -114.113391 
L 387.439714 -115.738518 
L 387.54379 -117.363644 
L 387.642207 -118.988771 
L 387.739097 -120.613905 
L 387.837159 -122.239032 
L 387.938364 -123.864158 
L 388.044551 -125.489293 
L 388.157652 -127.114419 
L 388.279503 -128.739546 
L 388.411373 -130.36468 
L 388.553465 -131.989807 
L 388.704645 -133.614933 
L 388.862572 -135.24006 
L 389.024215 -136.865194 
L 389.186541 -138.490321 
L 389.347072 -140.115447 
L 389.504002 -141.740582 
L 389.655831 -143.365708 
L 389.800736 -144.990835 
L 389.936082 -146.615969 
L 390.058438 -148.241096 
L 390.164238 -149.866222 
L 390.250853 -151.491349 
L 390.317631 -153.116483 
L 390.366434 -154.74161 
L 390.401388 -156.366737 
L 390.427875 -157.991871 
L 390.451122 -159.616997 
L 390.474872 -161.242124 
L 390.500619 -162.867251 
L 390.527627 -164.492385 
L 390.553691 -166.117512 
L 390.576289 -167.742638 
L 390.593679 -169.367772 
L 390.605549 -170.992899 
L 390.613046 -172.618026 
L 390.618269 -174.24316 
L 390.623489 -175.868286 
L 390.630446 -177.493428 
L 390.639958 -179.118547 
L 390.651914 -180.743682 
L 390.665564 -182.368816 
L 390.679896 -183.993935 
L 390.693944 -185.619069 
L 390.706934 -187.244188 
L 390.718284 -188.869322 
L 390.727543 -190.494456 
L 390.734322 -192.119576 
L 390.738278 -193.74471 
L 390.739135 -195.369844 
L 390.736748 -196.994963 
L 390.731191 -198.620097 
L 390.722861 -200.245231 
L 390.712553 -201.870351 
L 390.70147 -203.495485 
L 390.691117 -205.120619 
L 390.683075 -206.745738 
L 390.678685 -208.370872 
L 390.678737 -209.996006 
L 390.683272 -211.621126 
L 390.831534 -211.621126 
L 390.831534 -211.621126 
L 390.836068 -209.996006 
L 390.83612 -208.370872 
L 390.83173 -206.745738 
L 390.823688 -205.120619 
L 390.813335 -203.495485 
L 390.802252 -201.870351 
L 390.791944 -200.245231 
L 390.783614 -198.620097 
L 390.778057 -196.994963 
L 390.77567 -195.369844 
L 390.776527 -193.74471 
L 390.780483 -192.119576 
L 390.787262 -190.494456 
L 390.796521 -188.869322 
L 390.807871 -187.244188 
L 390.820861 -185.619069 
L 390.83491 -183.993935 
L 390.849241 -182.368816 
L 390.862891 -180.743682 
L 390.874848 -179.118547 
L 390.884359 -177.493428 
L 390.891316 -175.868286 
L 390.896536 -174.24316 
L 390.901759 -172.618026 
L 390.909256 -170.992899 
L 390.921126 -169.367772 
L 390.938516 -167.742638 
L 390.961114 -166.117512 
L 390.987178 -164.492385 
L 391.014186 -162.867251 
L 391.039933 -161.242124 
L 391.063684 -159.616997 
L 391.08693 -157.991871 
L 391.113417 -156.366737 
L 391.148371 -154.74161 
L 391.197175 -153.116483 
L 391.263952 -151.491349 
L 391.350567 -149.866222 
L 391.456367 -148.241096 
L 391.578723 -146.615969 
L 391.714069 -144.990835 
L 391.858975 -143.365708 
L 392.010803 -141.740582 
L 392.167733 -140.115447 
L 392.328264 -138.490321 
L 392.49059 -136.865194 
L 392.652233 -135.24006 
L 392.810161 -133.614933 
L 392.96134 -131.989807 
L 393.103432 -130.36468 
L 393.235303 -128.739546 
L 393.357154 -127.114419 
L 393.470254 -125.489293 
L 393.576441 -123.864158 
L 393.677647 -122.239032 
L 393.775708 -120.613905 
L 393.872598 -118.988771 
L 393.971015 -117.363644 
L 394.075091 -115.738518 
L 394.190781 -114.113391 
L 394.32558 -112.488264 
L 394.487389 -110.863134 
L 394.682731 -109.238003 
L 394.914837 -107.612877 
L 395.182254 -105.987746 
L 395.478556 -104.36262 
L 395.793392 -102.737489 
L 396.114676 -101.112359 
L 396.431253 -99.487232 
L 396.735137 -97.862102 
L 397.022481 -96.236975 
L 397.292872 -94.611845 
L 397.547201 -92.986714 
L 397.784981 -91.361588 
L 398.002253 -89.736457 
L 398.191059 -88.111331 
L 398.340889 -86.4862 
L 398.441675 -84.86107 
L 398.487273 -83.235943 
L 398.478005 -81.610813 
L 398.421103 -79.985682 
L 398.328634 -78.360554 
L 398.21355 -76.735425 
L 398.085293 -75.110297 
L 397.946657 -73.485168 
L 397.79303 -71.860038 
L 397.614144 -70.234909 
L 397.397383 -68.609781 
L 397.131312 -66.984652 
L 396.808259 -65.359523 
L 396.425552 -63.734394 
L 395.985637 -62.109266 
L 395.495642 -60.484136 
L 394.966803 -58.859008 
L 394.413871 -57.233879 
L 393.854346 -55.60875 
L 393.307336 -53.983621 
L 392.791941 -52.358492 
L 392.325294 -50.733363 
z
" style="stroke: #008000; stroke-opacity: 0.3"/>
    </defs>
    <g clip-path="url(#p12d73452bb)">
     <use xlink:href="#mc1cc347b86" x="0" y="345.6" style="fill: #90ee90; fill-opacity: 0.3; stroke: #008000; stroke-opacity: 0.3"/>
    </g>
   </g>
   <g id="matplotlib.axis_1">
    <g id="xtick_1">
     <g id="line2d_1">
      <defs>
       <path id="m7db131e036" d="M 0 0 
L 0 3.5 
" style="stroke: #000000; stroke-width: 0.8"/>
      </defs>
      <g>
       <use xlink:href="#m7db131e036" x="81.562597" y="307.584" style="stroke: #000000; stroke-width: 0.8"/>
      </g>
     </g>
     <g id="text_1">
      <!-- 0 -->
      <g transform="translate(78.381347 322.182437) scale(0.1 -0.1)">
       <defs>
        <path id="DejaVuSans-30" d="M 2034 4250 
Q 1547 4250 1301 3770 
Q 1056 3291 1056 2328 
Q 1056 1369 1301 889 
Q 1547 409 2034 409 
Q 2525 409 2770 889 
Q 3016 1369 3016 2328 
Q 3016 3291 2770 3770 
Q 2525 4250 2034 4250 
z
M 2034 4750 
Q 2819 4750 3233 4129 
Q 3647 3509 3647 2328 
Q 3647 1150 3233 529 
Q 2819 -91 2034 -91 
Q 1250 -91 836 529 
Q 422 1150 422 2328 
Q 422 3509 836 4129 
Q 1250 4750 2034 4750 
z
" transform="scale(0.015625)"/>
       </defs>
       <use xlink:href="#DejaVuSans-30"/>
      </g>
     </g>
    </g>
    <g id="xtick_2">
     <g id="line2d_2">
      <g>
       <use xlink:href="#m7db131e036" x="112.482078" y="307.584" style="stroke: #000000; stroke-width: 0.8"/>
      </g>
     </g>
     <g id="text_2">
      <!-- 1 -->
      <g transform="translate(109.300828 322.182437) scale(0.1 -0.1)">
       <defs>
        <path id="DejaVuSans-31" d="M 794 531 
L 1825 531 
L 1825 4091 
L 703 3866 
L 703 4441 
L 1819 4666 
L 2450 4666 
L 2450 531 
L 3481 531 
L 3481 0 
L 794 0 
L 794 531 
z
" transform="scale(0.015625)"/>
       </defs>
       <use xlink:href="#DejaVuSans-31"/>
      </g>
     </g>
    </g>
    <g id="xtick_3">
     <g id="line2d_3">
      <g>
       <use xlink:href="#m7db131e036" x="143.401558" y="307.584" style="stroke: #000000; stroke-width: 0.8"/>
      </g>
     </g>
     <g id="text_3">
      <!-- 2 -->
      <g transform="translate(140.220308 322.182437) scale(0.1 -0.1)">
       <defs>
        <path id="DejaVuSans-32" d="M 1228 531 
L 3431 531 
L 3431 0 
L 469 0 
L 469 531 
Q 828 903 1448 1529 
Q 2069 2156 2228 2338 
Q 2531 2678 2651 2914 
Q 2772 3150 2772 3378 
Q 2772 3750 2511 3984 
Q 2250 4219 1831 4219 
Q 1534 4219 1204 4116 
Q 875 4013 500 3803 
L 500 4441 
Q 881 4594 1212 4672 
Q 1544 4750 1819 4750 
Q 2544 4750 2975 4387 
Q 3406 4025 3406 3419 
Q 3406 3131 3298 2873 
Q 3191 2616 2906 2266 
Q 2828 2175 2409 1742 
Q 1991 1309 1228 531 
z
" transform="scale(0.015625)"/>
       </defs>
       <use xlink:href="#DejaVuSans-32"/>
      </g>
     </g>
    </g>
    <g id="xtick_4">
     <g id="line2d_4">
      <g>
       <use xlink:href="#m7db131e036" x="174.321039" y="307.584" style="stroke: #000000; stroke-width: 0.8"/>
      </g>
     </g>
     <g id="text_4">
      <!-- 3 -->
      <g transform="translate(171.139789 322.182437) scale(0.1 -0.1)">
       <defs>
        <path id="DejaVuSans-33" d="M 2597 2516 
Q 3050 2419 3304 2112 
Q 3559 1806 3559 1356 
Q 3559 666 3084 287 
Q 2609 -91 1734 -91 
Q 1441 -91 1130 -33 
Q 819 25 488 141 
L 488 750 
Q 750 597 1062 519 
Q 1375 441 1716 441 
Q 2309 441 2620 675 
Q 2931 909 2931 1356 
Q 2931 1769 2642 2001 
Q 2353 2234 1838 2234 
L 1294 2234 
L 1294 2753 
L 1863 2753 
Q 2328 2753 2575 2939 
Q 2822 3125 2822 3475 
Q 2822 3834 2567 4026 
Q 2313 4219 1838 4219 
Q 1578 4219 1281 4162 
Q 984 4106 628 3988 
L 628 4550 
Q 988 4650 1302 4700 
Q 1616 4750 1894 4750 
Q 2613 4750 3031 4423 
Q 3450 4097 3450 3541 
Q 3450 3153 3228 2886 
Q 3006 2619 2597 2516 
z
" transform="scale(0.015625)"/>
       </defs>
       <use xlink:href="#DejaVuSans-33"/>
      </g>
     </g>
    </g>
    <g id="xtick_5">
     <g id="line2d_5">
      <g>
       <use xlink:href="#m7db131e036" x="205.240519" y="307.584" style="stroke: #000000; stroke-width: 0.8"/>
      </g>
     </g>
     <g id="text_5">
      <!-- 4 -->
      <g transform="translate(202.059269 322.182437) scale(0.1 -0.1)">
       <defs>
        <path id="DejaVuSans-34" d="M 2419 4116 
L 825 1625 
L 2419 1625 
L 2419 4116 
z
M 2253 4666 
L 3047 4666 
L 3047 1625 
L 3713 1625 
L 3713 1100 
L 3047 1100 
L 3047 0 
L 2419 0 
L 2419 1100 
L 313 1100 
L 313 1709 
L 2253 4666 
z
" transform="scale(0.015625)"/>
       </defs>
       <use xlink:href="#DejaVuSans-34"/>
      </g>
     </g>
    </g>
    <g id="xtick_6">
     <g id="line2d_6">
      <g>
       <use xlink:href="#m7db131e036" x="236.16" y="307.584" style="stroke: #000000; stroke-width: 0.8"/>
      </g>
     </g>
     <g id="text_6">
      <!-- 5 -->
      <g transform="translate(232.97875 322.182437) scale(0.1 -0.1)">
       <defs>
        <path id="DejaVuSans-35" d="M 691 4666 
L 3169 4666 
L 3169 4134 
L 1269 4134 
L 1269 2991 
Q 1406 3038 1543 3061 
Q 1681 3084 1819 3084 
Q 2600 3084 3056 2656 
Q 3513 2228 3513 1497 
Q 3513 744 3044 326 
Q 2575 -91 1722 -91 
Q 1428 -91 1123 -41 
Q 819 9 494 109 
L 494 744 
Q 775 591 1075 516 
Q 1375 441 1709 441 
Q 2250 441 2565 725 
Q 2881 1009 2881 1497 
Q 2881 1984 2565 2268 
Q 2250 2553 1709 2553 
Q 1456 2553 1204 2497 
Q 953 2441 691 2322 
L 691 4666 
z
" transform="scale(0.015625)"/>
       </defs>
       <use xlink:href="#DejaVuSans-35"/>
      </g>
     </g>
    </g>
    <g id="xtick_7">
     <g id="line2d_7">
      <g>
       <use xlink:href="#m7db131e036" x="267.079481" y="307.584" style="stroke: #000000; stroke-width: 0.8"/>
      </g>
     </g>
     <g id="text_7">
      <!-- 6 -->
      <g transform="translate(263.898231 322.182437) scale(0.1 -0.1)">
       <defs>
        <path id="DejaVuSans-36" d="M 2113 2584 
Q 1688 2584 1439 2293 
Q 1191 2003 1191 1497 
Q 1191 994 1439 701 
Q 1688 409 2113 409 
Q 2538 409 2786 701 
Q 3034 994 3034 1497 
Q 3034 2003 2786 2293 
Q 2538 2584 2113 2584 
z
M 3366 4563 
L 3366 3988 
Q 3128 4100 2886 4159 
Q 2644 4219 2406 4219 
Q 1781 4219 1451 3797 
Q 1122 3375 1075 2522 
Q 1259 2794 1537 2939 
Q 1816 3084 2150 3084 
Q 2853 3084 3261 2657 
Q 3669 2231 3669 1497 
Q 3669 778 3244 343 
Q 2819 -91 2113 -91 
Q 1303 -91 875 529 
Q 447 1150 447 2328 
Q 447 3434 972 4092 
Q 1497 4750 2381 4750 
Q 2619 4750 2861 4703 
Q 3103 4656 3366 4563 
z
" transform="scale(0.015625)"/>
       </defs>
       <use xlink:href="#DejaVuSans-36"/>
      </g>
     </g>
    </g>
    <g id="xtick_8">
     <g id="line2d_8">
      <g>
       <use xlink:href="#m7db131e036" x="297.998961" y="307.584" style="stroke: #000000; stroke-width: 0.8"/>
      </g>
     </g>
     <g id="text_8">
      <!-- 7 -->
      <g transform="translate(294.817711 322.182437) scale(0.1 -0.1)">
       <defs>
        <path id="DejaVuSans-37" d="M 525 4666 
L 3525 4666 
L 3525 4397 
L 1831 0 
L 1172 0 
L 2766 4134 
L 525 4134 
L 525 4666 
z
" transform="scale(0.015625)"/>
       </defs>
       <use xlink:href="#DejaVuSans-37"/>
      </g>
     </g>
    </g>
    <g id="xtick_9">
     <g id="line2d_9">
      <g>
       <use xlink:href="#m7db131e036" x="328.918442" y="307.584" style="stroke: #000000; stroke-width: 0.8"/>
      </g>
     </g>
     <g id="text_9">
      <!-- 8 -->
      <g transform="translate(325.737192 322.182437) scale(0.1 -0.1)">
       <defs>
        <path id="DejaVuSans-38" d="M 2034 2216 
Q 1584 2216 1326 1975 
Q 1069 1734 1069 1313 
Q 1069 891 1326 650 
Q 1584 409 2034 409 
Q 2484 409 2743 651 
Q 3003 894 3003 1313 
Q 3003 1734 2745 1975 
Q 2488 2216 2034 2216 
z
M 1403 2484 
Q 997 2584 770 2862 
Q 544 3141 544 3541 
Q 544 4100 942 4425 
Q 1341 4750 2034 4750 
Q 2731 4750 3128 4425 
Q 3525 4100 3525 3541 
Q 3525 3141 3298 2862 
Q 3072 2584 2669 2484 
Q 3125 2378 3379 2068 
Q 3634 1759 3634 1313 
Q 3634 634 3220 271 
Q 2806 -91 2034 -91 
Q 1263 -91 848 271 
Q 434 634 434 1313 
Q 434 1759 690 2068 
Q 947 2378 1403 2484 
z
M 1172 3481 
Q 1172 3119 1398 2916 
Q 1625 2713 2034 2713 
Q 2441 2713 2670 2916 
Q 2900 3119 2900 3481 
Q 2900 3844 2670 4047 
Q 2441 4250 2034 4250 
Q 1625 4250 1398 4047 
Q 1172 3844 1172 3481 
z
" transform="scale(0.015625)"/>
       </defs>
       <use xlink:href="#DejaVuSans-38"/>
      </g>
     </g>
    </g>
    <g id="xtick_10">
     <g id="line2d_10">
      <g>
       <use xlink:href="#m7db131e036" x="359.837922" y="307.584" style="stroke: #000000; stroke-width: 0.8"/>
      </g>
     </g>
     <g id="text_10">
      <!-- 9 -->
      <g transform="translate(356.656672 322.182437) scale(0.1 -0.1)">
       <defs>
        <path id="DejaVuSans-39" d="M 703 97 
L 703 672 
Q 941 559 1184 500 
Q 1428 441 1663 441 
Q 2288 441 2617 861 
Q 2947 1281 2994 2138 
Q 2813 1869 2534 1725 
Q 2256 1581 1919 1581 
Q 1219 1581 811 2004 
Q 403 2428 403 3163 
Q 403 3881 828 4315 
Q 1253 4750 1959 4750 
Q 2769 4750 3195 4129 
Q 3622 3509 3622 2328 
Q 3622 1225 3098 567 
Q 2575 -91 1691 -91 
Q 1453 -91 1209 -44 
Q 966 3 703 97 
z
M 1959 2075 
Q 2384 2075 2632 2365 
Q 2881 2656 2881 3163 
Q 2881 3666 2632 3958 
Q 2384 4250 1959 4250 
Q 1534 4250 1286 3958 
Q 1038 3666 1038 3163 
Q 1038 2656 1286 2365 
Q 1534 2075 1959 2075 
z
" transform="scale(0.015625)"/>
       </defs>
       <use xlink:href="#DejaVuSans-39"/>
      </g>
     </g>
    </g>
    <g id="xtick_11">
     <g id="line2d_11">
      <g>
       <use xlink:href="#m7db131e036" x="390.757403" y="307.584" style="stroke: #000000; stroke-width: 0.8"/>
      </g>
     </g>
     <g id="text_11">
      <!-- 10 -->
      <g transform="translate(384.394903 322.182437) scale(0.1 -0.1)">
       <use xlink:href="#DejaVuSans-31"/>
       <use xlink:href="#DejaVuSans-30" x="63.623047"/>
      </g>
     </g>
    </g>
    <g id="text_12">
     <!-- Frequency -->
     <g transform="translate(210.330312 335.860562) scale(0.1 -0.1)">
      <defs>
       <path id="DejaVuSans-46" d="M 628 4666 
L 3309 4666 
L 3309 4134 
L 1259 4134 
L 1259 2759 
L 3109 2759 
L 3109 2228 
L 1259 2228 
L 1259 0 
L 628 0 
L 628 4666 
z
" transform="scale(0.015625)"/>
       <path id="DejaVuSans-72" d="M 2631 2963 
Q 2534 3019 2420 3045 
Q 2306 3072 2169 3072 
Q 1681 3072 1420 2755 
Q 1159 2438 1159 1844 
L 1159 0 
L 581 0 
L 581 3500 
L 1159 3500 
L 1159 2956 
Q 1341 3275 1631 3429 
Q 1922 3584 2338 3584 
Q 2397 3584 2469 3576 
Q 2541 3569 2628 3553 
L 2631 2963 
z
" transform="scale(0.015625)"/>
       <path id="DejaVuSans-65" d="M 3597 1894 
L 3597 1613 
L 953 1613 
Q 991 1019 1311 708 
Q 1631 397 2203 397 
Q 2534 397 2845 478 
Q 3156 559 3463 722 
L 3463 178 
Q 3153 47 2828 -22 
Q 2503 -91 2169 -91 
Q 1331 -91 842 396 
Q 353 884 353 1716 
Q 353 2575 817 3079 
Q 1281 3584 2069 3584 
Q 2775 3584 3186 3129 
Q 3597 2675 3597 1894 
z
M 3022 2063 
Q 3016 2534 2758 2815 
Q 2500 3097 2075 3097 
Q 1594 3097 1305 2825 
Q 1016 2553 972 2059 
L 3022 2063 
z
" transform="scale(0.015625)"/>
       <path id="DejaVuSans-71" d="M 947 1747 
Q 947 1113 1208 752 
Q 1469 391 1925 391 
Q 2381 391 2643 752 
Q 2906 1113 2906 1747 
Q 2906 2381 2643 2742 
Q 2381 3103 1925 3103 
Q 1469 3103 1208 2742 
Q 947 2381 947 1747 
z
M 2906 525 
Q 2725 213 2448 61 
Q 2172 -91 1784 -91 
Q 1150 -91 751 415 
Q 353 922 353 1747 
Q 353 2572 751 3078 
Q 1150 3584 1784 3584 
Q 2172 3584 2448 3432 
Q 2725 3281 2906 2969 
L 2906 3500 
L 3481 3500 
L 3481 -1331 
L 2906 -1331 
L 2906 525 
z
" transform="scale(0.015625)"/>
       <path id="DejaVuSans-75" d="M 544 1381 
L 544 3500 
L 1119 3500 
L 1119 1403 
Q 1119 906 1312 657 
Q 1506 409 1894 409 
Q 2359 409 2629 706 
Q 2900 1003 2900 1516 
L 2900 3500 
L 3475 3500 
L 3475 0 
L 2900 0 
L 2900 538 
Q 2691 219 2414 64 
Q 2138 -91 1772 -91 
Q 1169 -91 856 284 
Q 544 659 544 1381 
z
M 1991 3584 
L 1991 3584 
z
" transform="scale(0.015625)"/>
       <path id="DejaVuSans-6e" d="M 3513 2113 
L 3513 0 
L 2938 0 
L 2938 2094 
Q 2938 2591 2744 2837 
Q 2550 3084 2163 3084 
Q 1697 3084 1428 2787 
Q 1159 2491 1159 1978 
L 1159 0 
L 581 0 
L 581 3500 
L 1159 3500 
L 1159 2956 
Q 1366 3272 1645 3428 
Q 1925 3584 2291 3584 
Q 2894 3584 3203 3211 
Q 3513 2838 3513 2113 
z
" transform="scale(0.015625)"/>
       <path id="DejaVuSans-63" d="M 3122 3366 
L 3122 2828 
Q 2878 2963 2633 3030 
Q 2388 3097 2138 3097 
Q 1578 3097 1268 2742 
Q 959 2388 959 1747 
Q 959 1106 1268 751 
Q 1578 397 2138 397 
Q 2388 397 2633 464 
Q 2878 531 3122 666 
L 3122 134 
Q 2881 22 2623 -34 
Q 2366 -91 2075 -91 
Q 1284 -91 818 406 
Q 353 903 353 1747 
Q 353 2603 823 3093 
Q 1294 3584 2113 3584 
Q 2378 3584 2631 3529 
Q 2884 3475 3122 3366 
z
" transform="scale(0.015625)"/>
       <path id="DejaVuSans-79" d="M 2059 -325 
Q 1816 -950 1584 -1140 
Q 1353 -1331 966 -1331 
L 506 -1331 
L 506 -850 
L 844 -850 
Q 1081 -850 1212 -737 
Q 1344 -625 1503 -206 
L 1606 56 
L 191 3500 
L 800 3500 
L 1894 763 
L 2988 3500 
L 3597 3500 
L 2059 -325 
z
" transform="scale(0.015625)"/>
      </defs>
      <use xlink:href="#DejaVuSans-46"/>
      <use xlink:href="#DejaVuSans-72" x="50.269531"/>
      <use xlink:href="#DejaVuSans-65" x="89.132812"/>
      <use xlink:href="#DejaVuSans-71" x="150.65625"/>
      <use xlink:href="#DejaVuSans-75" x="214.132812"/>
      <use xlink:href="#DejaVuSans-65" x="277.511719"/>
      <use xlink:href="#DejaVuSans-6e" x="339.035156"/>
      <use xlink:href="#DejaVuSans-63" x="402.414062"/>
      <use xlink:href="#DejaVuSans-79" x="457.394531"/>
     </g>
    </g>
   </g>
   <g id="matplotlib.axis_2">
    <g id="ytick_1">
     <g id="line2d_12">
      <defs>
       <path id="m8d2a9890e6" d="M 0 0 
L -3.5 0 
" style="stroke: #000000; stroke-width: 0.8"/>
      </defs>
      <g>
       <use xlink:href="#m8d2a9890e6" x="57.6" y="295.488687" style="stroke: #000000; stroke-width: 0.8"/>
      </g>
     </g>
     <g id="text_13">
      <!-- 0 -->
      <g transform="translate(44.2375 299.287906) scale(0.1 -0.1)">
       <use xlink:href="#DejaVuSans-30"/>
      </g>
     </g>
    </g>
    <g id="ytick_2">
     <g id="line2d_13">
      <g>
       <use xlink:href="#m8d2a9890e6" x="57.6" y="263.884012" style="stroke: #000000; stroke-width: 0.8"/>
      </g>
     </g>
     <g id="text_14">
      <!-- 1 -->
      <g transform="translate(44.2375 267.683231) scale(0.1 -0.1)">
       <use xlink:href="#DejaVuSans-31"/>
      </g>
     </g>
    </g>
    <g id="ytick_3">
     <g id="line2d_14">
      <g>
       <use xlink:href="#m8d2a9890e6" x="57.6" y="232.279336" style="stroke: #000000; stroke-width: 0.8"/>
      </g>
     </g>
     <g id="text_15">
      <!-- 2 -->
      <g transform="translate(44.2375 236.078555) scale(0.1 -0.1)">
       <use xlink:href="#DejaVuSans-32"/>
      </g>
     </g>
    </g>
    <g id="ytick_4">
     <g id="line2d_15">
      <g>
       <use xlink:href="#m8d2a9890e6" x="57.6" y="200.674661" style="stroke: #000000; stroke-width: 0.8"/>
      </g>
     </g>
     <g id="text_16">
      <!-- 3 -->
      <g transform="translate(44.2375 204.473879) scale(0.1 -0.1)">
       <use xlink:href="#DejaVuSans-33"/>
      </g>
     </g>
    </g>
    <g id="ytick_5">
     <g id="line2d_16">
      <g>
       <use xlink:href="#m8d2a9890e6" x="57.6" y="169.069985" style="stroke: #000000; stroke-width: 0.8"/>
      </g>
     </g>
     <g id="text_17">
      <!-- 4 -->
      <g transform="translate(44.2375 172.869204) scale(0.1 -0.1)">
       <use xlink:href="#DejaVuSans-34"/>
      </g>
     </g>
    </g>
    <g id="ytick_6">
     <g id="line2d_17">
      <g>
       <use xlink:href="#m8d2a9890e6" x="57.6" y="137.465309" style="stroke: #000000; stroke-width: 0.8"/>
      </g>
     </g>
     <g id="text_18">
      <!-- 5 -->
      <g transform="translate(44.2375 141.264528) scale(0.1 -0.1)">
       <use xlink:href="#DejaVuSans-35"/>
      </g>
     </g>
    </g>
    <g id="ytick_7">
     <g id="line2d_18">
      <g>
       <use xlink:href="#m8d2a9890e6" x="57.6" y="105.860634" style="stroke: #000000; stroke-width: 0.8"/>
      </g>
     </g>
     <g id="text_19">
      <!-- 6 -->
      <g transform="translate(44.2375 109.659852) scale(0.1 -0.1)">
       <use xlink:href="#DejaVuSans-36"/>
      </g>
     </g>
    </g>
    <g id="ytick_8">
     <g id="line2d_19">
      <g>
       <use xlink:href="#m8d2a9890e6" x="57.6" y="74.255958" style="stroke: #000000; stroke-width: 0.8"/>
      </g>
     </g>
     <g id="text_20">
      <!-- 7 -->
      <g transform="translate(44.2375 78.055177) scale(0.1 -0.1)">
       <use xlink:href="#DejaVuSans-37"/>
      </g>
     </g>
    </g>
    <g id="ytick_9">
     <g id="line2d_20">
      <g>
       <use xlink:href="#m8d2a9890e6" x="57.6" y="42.651282" style="stroke: #000000; stroke-width: 0.8"/>
      </g>
     </g>
     <g id="text_21">
      <!-- 8 -->
      <g transform="translate(44.2375 46.450501) scale(0.1 -0.1)">
       <use xlink:href="#DejaVuSans-38"/>
      </g>
     </g>
    </g>
    <g id="text_22">
     <!-- Power -->
     <g transform="translate(38.157812 189.642062) rotate(-90) scale(0.1 -0.1)">
      <defs>
       <path id="DejaVuSans-50" d="M 1259 4147 
L 1259 2394 
L 2053 2394 
Q 2494 2394 2734 2622 
Q 2975 2850 2975 3272 
Q 2975 3691 2734 3919 
Q 2494 4147 2053 4147 
L 1259 4147 
z
M 628 4666 
L 2053 4666 
Q 2838 4666 3239 4311 
Q 3641 3956 3641 3272 
Q 3641 2581 3239 2228 
Q 2838 1875 2053 1875 
L 1259 1875 
L 1259 0 
L 628 0 
L 628 4666 
z
" transform="scale(0.015625)"/>
       <path id="DejaVuSans-6f" d="M 1959 3097 
Q 1497 3097 1228 2736 
Q 959 2375 959 1747 
Q 959 1119 1226 758 
Q 1494 397 1959 397 
Q 2419 397 2687 759 
Q 2956 1122 2956 1747 
Q 2956 2369 2687 2733 
Q 2419 3097 1959 3097 
z
M 1959 3584 
Q 2709 3584 3137 3096 
Q 3566 2609 3566 1747 
Q 3566 888 3137 398 
Q 2709 -91 1959 -91 
Q 1206 -91 779 398 
Q 353 888 353 1747 
Q 353 2609 779 3096 
Q 1206 3584 1959 3584 
z
" transform="scale(0.015625)"/>
       <path id="DejaVuSans-77" d="M 269 3500 
L 844 3500 
L 1563 769 
L 2278 3500 
L 2956 3500 
L 3675 769 
L 4391 3500 
L 4966 3500 
L 4050 0 
L 3372 0 
L 2619 2869 
L 1863 0 
L 1184 0 
L 269 3500 
z
" transform="scale(0.015625)"/>
      </defs>
      <use xlink:href="#DejaVuSans-50"/>
      <use xlink:href="#DejaVuSans-6f" x="56.677734"/>
      <use xlink:href="#DejaVuSans-77" x="117.859375"/>
      <use xlink:href="#DejaVuSans-65" x="199.646484"/>
      <use xlink:href="#DejaVuSans-72" x="261.169922"/>
     </g>
    </g>
   </g>
   <g id="LineCollection_1">
    <path d="M 77.697662 53.568 
L 85.427532 53.568 
" clip-path="url(#p12d73452bb)" style="fill: none; stroke: #008000; stroke-width: 1.5"/>
    <path d="M 108.617143 102.993753 
L 116.347013 102.993753 
" clip-path="url(#p12d73452bb)" style="fill: none; stroke: #008000; stroke-width: 1.5"/>
    <path d="M 139.536623 163.706546 
L 147.266494 163.706546 
" clip-path="url(#p12d73452bb)" style="fill: none; stroke: #008000; stroke-width: 1.5"/>
    <path d="M 170.456104 80.008331 
L 178.185974 80.008331 
" clip-path="url(#p12d73452bb)" style="fill: none; stroke: #008000; stroke-width: 1.5"/>
    <path d="M 201.375584 142.110091 
L 209.105455 142.110091 
" clip-path="url(#p12d73452bb)" style="fill: none; stroke: #008000; stroke-width: 1.5"/>
    <path d="M 232.295065 137.113328 
L 240.024935 137.113328 
" clip-path="url(#p12d73452bb)" style="fill: none; stroke: #008000; stroke-width: 1.5"/>
    <path d="M 263.214545 147.409119 
L 270.944416 147.409119 
" clip-path="url(#p12d73452bb)" style="fill: none; stroke: #008000; stroke-width: 1.5"/>
    <path d="M 294.134026 148.774924 
L 301.863896 148.774924 
" clip-path="url(#p12d73452bb)" style="fill: none; stroke: #008000; stroke-width: 1.5"/>
    <path d="M 325.053506 133.263413 
L 332.783377 133.263413 
" clip-path="url(#p12d73452bb)" style="fill: none; stroke: #008000; stroke-width: 1.5"/>
    <path d="M 355.972987 140.855128 
L 363.702857 140.855128 
" clip-path="url(#p12d73452bb)" style="fill: none; stroke: #008000; stroke-width: 1.5"/>
    <path d="M 386.892468 133.978874 
L 394.622338 133.978874 
" clip-path="url(#p12d73452bb)" style="fill: none; stroke: #008000; stroke-width: 1.5"/>
   </g>
   <g id="LineCollection_2">
    <path d="M 77.697662 295.488 
L 85.427532 295.488 
" clip-path="url(#p12d73452bb)" style="fill: none; stroke: #008000; stroke-width: 1.5"/>
    <path d="M 108.617143 295.2929 
L 116.347013 295.2929 
" clip-path="url(#p12d73452bb)" style="fill: none; stroke: #008000; stroke-width: 1.5"/>
    <path d="M 139.536623 295.303247 
L 147.266494 295.303247 
" clip-path="url(#p12d73452bb)" style="fill: none; stroke: #008000; stroke-width: 1.5"/>
    <path d="M 170.456104 295.453038 
L 178.185974 295.453038 
" clip-path="url(#p12d73452bb)" style="fill: none; stroke: #008000; stroke-width: 1.5"/>
    <path d="M 201.375584 294.918362 
L 209.105455 294.918362 
" clip-path="url(#p12d73452bb)" style="fill: none; stroke: #008000; stroke-width: 1.5"/>
    <path d="M 232.295065 295.484587 
L 240.024935 295.484587 
" clip-path="url(#p12d73452bb)" style="fill: none; stroke: #008000; stroke-width: 1.5"/>
    <path d="M 263.214545 294.88837 
L 270.944416 294.88837 
" clip-path="url(#p12d73452bb)" style="fill: none; stroke: #008000; stroke-width: 1.5"/>
    <path d="M 294.134026 294.820976 
L 301.863896 294.820976 
" clip-path="url(#p12d73452bb)" style="fill: none; stroke: #008000; stroke-width: 1.5"/>
    <path d="M 325.053506 293.764404 
L 332.783377 293.764404 
" clip-path="url(#p12d73452bb)" style="fill: none; stroke: #008000; stroke-width: 1.5"/>
    <path d="M 355.972987 295.486033 
L 363.702857 295.486033 
" clip-path="url(#p12d73452bb)" style="fill: none; stroke: #008000; stroke-width: 1.5"/>
    <path d="M 386.892468 294.866637 
L 394.622338 294.866637 
" clip-path="url(#p12d73452bb)" style="fill: none; stroke: #008000; stroke-width: 1.5"/>
   </g>
   <g id="LineCollection_3">
    <path d="M 81.562597 295.488 
L 81.562597 53.568 
" clip-path="url(#p12d73452bb)" style="fill: none; stroke: #008000; stroke-width: 1.5"/>
    <path d="M 112.482078 295.2929 
L 112.482078 102.993753 
" clip-path="url(#p12d73452bb)" style="fill: none; stroke: #008000; stroke-width: 1.5"/>
    <path d="M 143.401558 295.303247 
L 143.401558 163.706546 
" clip-path="url(#p12d73452bb)" style="fill: none; stroke: #008000; stroke-width: 1.5"/>
    <path d="M 174.321039 295.453038 
L 174.321039 80.008331 
" clip-path="url(#p12d73452bb)" style="fill: none; stroke: #008000; stroke-width: 1.5"/>
    <path d="M 205.240519 294.918362 
L 205.240519 142.110091 
" clip-path="url(#p12d73452bb)" style="fill: none; stroke: #008000; stroke-width: 1.5"/>
    <path d="M 236.16 295.484587 
L 236.16 137.113328 
" clip-path="url(#p12d73452bb)" style="fill: none; stroke: #008000; stroke-width: 1.5"/>
    <path d="M 267.079481 294.88837 
L 267.079481 147.409119 
" clip-path="url(#p12d73452bb)" style="fill: none; stroke: #008000; stroke-width: 1.5"/>
    <path d="M 297.998961 294.820976 
L 297.998961 148.774924 
" clip-path="url(#p12d73452bb)" style="fill: none; stroke: #008000; stroke-width: 1.5"/>
    <path d="M 328.918442 293.764404 
L 328.918442 133.263413 
" clip-path="url(#p12d73452bb)" style="fill: none; stroke: #008000; stroke-width: 1.5"/>
    <path d="M 359.837922 295.486033 
L 359.837922 140.855128 
" clip-path="url(#p12d73452bb)" style="fill: none; stroke: #008000; stroke-width: 1.5"/>
    <path d="M 390.757403 294.866637 
L 390.757403 133.978874 
" clip-path="url(#p12d73452bb)" style="fill: none; stroke: #008000; stroke-width: 1.5"/>
   </g>
   <g id="LineCollection_4">
    <path d="M 77.697662 265.299313 
L 85.427532 265.299313 
" clip-path="url(#p12d73452bb)" style="fill: none; stroke: #000000; stroke-width: 1.5"/>
    <path d="M 108.617143 258.86508 
L 116.347013 258.86508 
" clip-path="url(#p12d73452bb)" style="fill: none; stroke: #000000; stroke-width: 1.5"/>
    <path d="M 139.536623 258.948953 
L 147.266494 258.948953 
" clip-path="url(#p12d73452bb)" style="fill: none; stroke: #000000; stroke-width: 1.5"/>
    <path d="M 170.456104 258.480396 
L 178.185974 258.480396 
" clip-path="url(#p12d73452bb)" style="fill: none; stroke: #000000; stroke-width: 1.5"/>
    <path d="M 201.375584 256.915919 
L 209.105455 256.915919 
" clip-path="url(#p12d73452bb)" style="fill: none; stroke: #000000; stroke-width: 1.5"/>
    <path d="M 232.295065 258.173135 
L 240.024935 258.173135 
" clip-path="url(#p12d73452bb)" style="fill: none; stroke: #000000; stroke-width: 1.5"/>
    <path d="M 263.214545 258.860913 
L 270.944416 258.860913 
" clip-path="url(#p12d73452bb)" style="fill: none; stroke: #000000; stroke-width: 1.5"/>
    <path d="M 294.134026 256.411223 
L 301.863896 256.411223 
" clip-path="url(#p12d73452bb)" style="fill: none; stroke: #000000; stroke-width: 1.5"/>
    <path d="M 325.053506 259.101069 
L 332.783377 259.101069 
" clip-path="url(#p12d73452bb)" style="fill: none; stroke: #000000; stroke-width: 1.5"/>
    <path d="M 355.972987 257.626024 
L 363.702857 257.626024 
" clip-path="url(#p12d73452bb)" style="fill: none; stroke: #000000; stroke-width: 1.5"/>
    <path d="M 386.892468 258.158314 
L 394.622338 258.158314 
" clip-path="url(#p12d73452bb)" style="fill: none; stroke: #000000; stroke-width: 1.5"/>
   </g>
   <g id="patch_3">
    <path d="M 57.6 307.584 
L 57.6 41.472 
" style="fill: none; stroke: #000000; stroke-width: 0.8; stroke-linejoin: miter; stroke-linecap: square"/>
   </g>
   <g id="patch_4">
    <path d="M 414.72 307.584 
L 414.72 41.472 
" style="fill: none; stroke: #000000; stroke-width: 0.8; stroke-linejoin: miter; stroke-linecap: square"/>
   </g>
   <g id="patch_5">
    <path d="M 57.6 307.584 
L 414.72 307.584 
" style="fill: none; stroke: #000000; stroke-width: 0.8; stroke-linejoin: miter; stroke-linecap: square"/>
   </g>
   <g id="patch_6">
    <path d="M 57.6 41.472 
L 414.72 41.472 
" style="fill: none; stroke: #000000; stroke-width: 0.8; stroke-linejoin: miter; stroke-linecap: square"/>
   </g>
   <g id="text_23">
    <!-- Violin plot of prior sample power spectra. -->
    <g transform="translate(112.223438 35.472) scale(0.12 -0.12)">
     <defs>
      <path id="DejaVuSans-56" d="M 1831 0 
L 50 4666 
L 709 4666 
L 2188 738 
L 3669 4666 
L 4325 4666 
L 2547 0 
L 1831 0 
z
" transform="scale(0.015625)"/>
      <path id="DejaVuSans-69" d="M 603 3500 
L 1178 3500 
L 1178 0 
L 603 0 
L 603 3500 
z
M 603 4863 
L 1178 4863 
L 1178 4134 
L 603 4134 
L 603 4863 
z
" transform="scale(0.015625)"/>
      <path id="DejaVuSans-6c" d="M 603 4863 
L 1178 4863 
L 1178 0 
L 603 0 
L 603 4863 
z
" transform="scale(0.015625)"/>
      <path id="DejaVuSans-20" transform="scale(0.015625)"/>
      <path id="DejaVuSans-70" d="M 1159 525 
L 1159 -1331 
L 581 -1331 
L 581 3500 
L 1159 3500 
L 1159 2969 
Q 1341 3281 1617 3432 
Q 1894 3584 2278 3584 
Q 2916 3584 3314 3078 
Q 3713 2572 3713 1747 
Q 3713 922 3314 415 
Q 2916 -91 2278 -91 
Q 1894 -91 1617 61 
Q 1341 213 1159 525 
z
M 3116 1747 
Q 3116 2381 2855 2742 
Q 2594 3103 2138 3103 
Q 1681 3103 1420 2742 
Q 1159 2381 1159 1747 
Q 1159 1113 1420 752 
Q 1681 391 2138 391 
Q 2594 391 2855 752 
Q 3116 1113 3116 1747 
z
" transform="scale(0.015625)"/>
      <path id="DejaVuSans-74" d="M 1172 4494 
L 1172 3500 
L 2356 3500 
L 2356 3053 
L 1172 3053 
L 1172 1153 
Q 1172 725 1289 603 
Q 1406 481 1766 481 
L 2356 481 
L 2356 0 
L 1766 0 
Q 1100 0 847 248 
Q 594 497 594 1153 
L 594 3053 
L 172 3053 
L 172 3500 
L 594 3500 
L 594 4494 
L 1172 4494 
z
" transform="scale(0.015625)"/>
      <path id="DejaVuSans-66" d="M 2375 4863 
L 2375 4384 
L 1825 4384 
Q 1516 4384 1395 4259 
Q 1275 4134 1275 3809 
L 1275 3500 
L 2222 3500 
L 2222 3053 
L 1275 3053 
L 1275 0 
L 697 0 
L 697 3053 
L 147 3053 
L 147 3500 
L 697 3500 
L 697 3744 
Q 697 4328 969 4595 
Q 1241 4863 1831 4863 
L 2375 4863 
z
" transform="scale(0.015625)"/>
      <path id="DejaVuSans-73" d="M 2834 3397 
L 2834 2853 
Q 2591 2978 2328 3040 
Q 2066 3103 1784 3103 
Q 1356 3103 1142 2972 
Q 928 2841 928 2578 
Q 928 2378 1081 2264 
Q 1234 2150 1697 2047 
L 1894 2003 
Q 2506 1872 2764 1633 
Q 3022 1394 3022 966 
Q 3022 478 2636 193 
Q 2250 -91 1575 -91 
Q 1294 -91 989 -36 
Q 684 19 347 128 
L 347 722 
Q 666 556 975 473 
Q 1284 391 1588 391 
Q 1994 391 2212 530 
Q 2431 669 2431 922 
Q 2431 1156 2273 1281 
Q 2116 1406 1581 1522 
L 1381 1569 
Q 847 1681 609 1914 
Q 372 2147 372 2553 
Q 372 3047 722 3315 
Q 1072 3584 1716 3584 
Q 2034 3584 2315 3537 
Q 2597 3491 2834 3397 
z
" transform="scale(0.015625)"/>
      <path id="DejaVuSans-61" d="M 2194 1759 
Q 1497 1759 1228 1600 
Q 959 1441 959 1056 
Q 959 750 1161 570 
Q 1363 391 1709 391 
Q 2188 391 2477 730 
Q 2766 1069 2766 1631 
L 2766 1759 
L 2194 1759 
z
M 3341 1997 
L 3341 0 
L 2766 0 
L 2766 531 
Q 2569 213 2275 61 
Q 1981 -91 1556 -91 
Q 1019 -91 701 211 
Q 384 513 384 1019 
Q 384 1609 779 1909 
Q 1175 2209 1959 2209 
L 2766 2209 
L 2766 2266 
Q 2766 2663 2505 2880 
Q 2244 3097 1772 3097 
Q 1472 3097 1187 3025 
Q 903 2953 641 2809 
L 641 3341 
Q 956 3463 1253 3523 
Q 1550 3584 1831 3584 
Q 2591 3584 2966 3190 
Q 3341 2797 3341 1997 
z
" transform="scale(0.015625)"/>
      <path id="DejaVuSans-6d" d="M 3328 2828 
Q 3544 3216 3844 3400 
Q 4144 3584 4550 3584 
Q 5097 3584 5394 3201 
Q 5691 2819 5691 2113 
L 5691 0 
L 5113 0 
L 5113 2094 
Q 5113 2597 4934 2840 
Q 4756 3084 4391 3084 
Q 3944 3084 3684 2787 
Q 3425 2491 3425 1978 
L 3425 0 
L 2847 0 
L 2847 2094 
Q 2847 2600 2669 2842 
Q 2491 3084 2119 3084 
Q 1678 3084 1418 2786 
Q 1159 2488 1159 1978 
L 1159 0 
L 581 0 
L 581 3500 
L 1159 3500 
L 1159 2956 
Q 1356 3278 1631 3431 
Q 1906 3584 2284 3584 
Q 2666 3584 2933 3390 
Q 3200 3197 3328 2828 
z
" transform="scale(0.015625)"/>
      <path id="DejaVuSans-2e" d="M 684 794 
L 1344 794 
L 1344 0 
L 684 0 
L 684 794 
z
" transform="scale(0.015625)"/>
     </defs>
     <use xlink:href="#DejaVuSans-56"/>
     <use xlink:href="#DejaVuSans-69" x="66.158203"/>
     <use xlink:href="#DejaVuSans-6f" x="93.941406"/>
     <use xlink:href="#DejaVuSans-6c" x="155.123047"/>
     <use xlink:href="#DejaVuSans-69" x="182.90625"/>
     <use xlink:href="#DejaVuSans-6e" x="210.689453"/>
     <use xlink:href="#DejaVuSans-20" x="274.068359"/>
     <use xlink:href="#DejaVuSans-70" x="305.855469"/>
     <use xlink:href="#DejaVuSans-6c" x="369.332031"/>
     <use xlink:href="#DejaVuSans-6f" x="397.115234"/>
     <use xlink:href="#DejaVuSans-74" x="458.296875"/>
     <use xlink:href="#DejaVuSans-20" x="497.505859"/>
     <use xlink:href="#DejaVuSans-6f" x="529.292969"/>
     <use xlink:href="#DejaVuSans-66" x="590.474609"/>
     <use xlink:href="#DejaVuSans-20" x="625.679688"/>
     <use xlink:href="#DejaVuSans-70" x="657.466797"/>
     <use xlink:href="#DejaVuSans-72" x="720.943359"/>
     <use xlink:href="#DejaVuSans-69" x="762.056641"/>
     <use xlink:href="#DejaVuSans-6f" x="789.839844"/>
     <use xlink:href="#DejaVuSans-72" x="851.021484"/>
     <use xlink:href="#DejaVuSans-20" x="892.134766"/>
     <use xlink:href="#DejaVuSans-73" x="923.921875"/>
     <use xlink:href="#DejaVuSans-61" x="976.021484"/>
     <use xlink:href="#DejaVuSans-6d" x="1037.300781"/>
     <use xlink:href="#DejaVuSans-70" x="1134.712891"/>
     <use xlink:href="#DejaVuSans-6c" x="1198.189453"/>
     <use xlink:href="#DejaVuSans-65" x="1225.972656"/>
     <use xlink:href="#DejaVuSans-20" x="1287.496094"/>
     <use xlink:href="#DejaVuSans-70" x="1319.283203"/>
     <use xlink:href="#DejaVuSans-6f" x="1382.759766"/>
     <use xlink:href="#DejaVuSans-77" x="1443.941406"/>
     <use xlink:href="#DejaVuSans-65" x="1525.728516"/>
     <use xlink:href="#DejaVuSans-72" x="1587.251953"/>
     <use xlink:href="#DejaVuSans-20" x="1628.365234"/>
     <use xlink:href="#DejaVuSans-73" x="1660.152344"/>
     <use xlink:href="#DejaVuSans-70" x="1712.251953"/>
     <use xlink:href="#DejaVuSans-65" x="1775.728516"/>
     <use xlink:href="#DejaVuSans-63" x="1837.251953"/>
     <use xlink:href="#DejaVuSans-74" x="1892.232422"/>
     <use xlink:href="#DejaVuSans-72" x="1931.441406"/>
     <use xlink:href="#DejaVuSans-61" x="1972.554688"/>
     <use xlink:href="#DejaVuSans-2e" x="2033.833984"/>
    </g>
   </g>
   <g id="legend_1">
    <g id="patch_7">
     <path d="M 269.443438 78.82825 
L 407.72 78.82825 
Q 409.72 78.82825 409.72 76.82825 
L 409.72 48.472 
Q 409.72 46.472 407.72 46.472 
L 269.443438 46.472 
Q 267.443438 46.472 267.443438 48.472 
L 267.443438 76.82825 
Q 267.443438 78.82825 269.443438 78.82825 
z
" style="fill: #ffffff; opacity: 0.8; stroke: #cccccc; stroke-linejoin: miter"/>
    </g>
    <g id="PathCollection_2">
     <g>
      <use xlink:href="#m906d41f29a" x="281.443438" y="55.445437" style="fill: #ff0000; stroke: #ff0000; stroke-width: 2"/>
     </g>
    </g>
    <g id="text_24">
     <!-- True Power Spectrum -->
     <g transform="translate(299.443438 58.070437) scale(0.1 -0.1)">
      <defs>
       <path id="DejaVuSans-54" d="M -19 4666 
L 3928 4666 
L 3928 4134 
L 2272 4134 
L 2272 0 
L 1638 0 
L 1638 4134 
L -19 4134 
L -19 4666 
z
" transform="scale(0.015625)"/>
       <path id="DejaVuSans-53" d="M 3425 4513 
L 3425 3897 
Q 3066 4069 2747 4153 
Q 2428 4238 2131 4238 
Q 1616 4238 1336 4038 
Q 1056 3838 1056 3469 
Q 1056 3159 1242 3001 
Q 1428 2844 1947 2747 
L 2328 2669 
Q 3034 2534 3370 2195 
Q 3706 1856 3706 1288 
Q 3706 609 3251 259 
Q 2797 -91 1919 -91 
Q 1588 -91 1214 -16 
Q 841 59 441 206 
L 441 856 
Q 825 641 1194 531 
Q 1563 422 1919 422 
Q 2459 422 2753 634 
Q 3047 847 3047 1241 
Q 3047 1584 2836 1778 
Q 2625 1972 2144 2069 
L 1759 2144 
Q 1053 2284 737 2584 
Q 422 2884 422 3419 
Q 422 4038 858 4394 
Q 1294 4750 2059 4750 
Q 2388 4750 2728 4690 
Q 3069 4631 3425 4513 
z
" transform="scale(0.015625)"/>
      </defs>
      <use xlink:href="#DejaVuSans-54"/>
      <use xlink:href="#DejaVuSans-72" x="46.333984"/>
      <use xlink:href="#DejaVuSans-75" x="87.447266"/>
      <use xlink:href="#DejaVuSans-65" x="150.826172"/>
      <use xlink:href="#DejaVuSans-20" x="212.349609"/>
      <use xlink:href="#DejaVuSans-50" x="244.136719"/>
      <use xlink:href="#DejaVuSans-6f" x="300.814453"/>
      <use xlink:href="#DejaVuSans-77" x="361.996094"/>
      <use xlink:href="#DejaVuSans-65" x="443.783203"/>
      <use xlink:href="#DejaVuSans-72" x="505.306641"/>
      <use xlink:href="#DejaVuSans-20" x="546.419922"/>
      <use xlink:href="#DejaVuSans-53" x="578.207031"/>
      <use xlink:href="#DejaVuSans-70" x="641.683594"/>
      <use xlink:href="#DejaVuSans-65" x="705.160156"/>
      <use xlink:href="#DejaVuSans-63" x="766.683594"/>
      <use xlink:href="#DejaVuSans-74" x="821.664062"/>
      <use xlink:href="#DejaVuSans-72" x="860.873047"/>
      <use xlink:href="#DejaVuSans-75" x="901.986328"/>
      <use xlink:href="#DejaVuSans-6d" x="965.365234"/>
     </g>
    </g>
    <g id="line2d_21">
     <path d="M 271.443438 69.248562 
L 291.443438 69.248562 
" style="fill: none; stroke: #000000; stroke-width: 1.5"/>
    </g>
    <g id="text_25">
     <!-- Prior Median -->
     <g transform="translate(299.443438 72.748562) scale(0.1 -0.1)">
      <defs>
       <path id="DejaVuSans-4d" d="M 628 4666 
L 1569 4666 
L 2759 1491 
L 3956 4666 
L 4897 4666 
L 4897 0 
L 4281 0 
L 4281 4097 
L 3078 897 
L 2444 897 
L 1241 4097 
L 1241 0 
L 628 0 
L 628 4666 
z
" transform="scale(0.015625)"/>
       <path id="DejaVuSans-64" d="M 2906 2969 
L 2906 4863 
L 3481 4863 
L 3481 0 
L 2906 0 
L 2906 525 
Q 2725 213 2448 61 
Q 2172 -91 1784 -91 
Q 1150 -91 751 415 
Q 353 922 353 1747 
Q 353 2572 751 3078 
Q 1150 3584 1784 3584 
Q 2172 3584 2448 3432 
Q 2725 3281 2906 2969 
z
M 947 1747 
Q 947 1113 1208 752 
Q 1469 391 1925 391 
Q 2381 391 2643 752 
Q 2906 1113 2906 1747 
Q 2906 2381 2643 2742 
Q 2381 3103 1925 3103 
Q 1469 3103 1208 2742 
Q 947 2381 947 1747 
z
" transform="scale(0.015625)"/>
      </defs>
      <use xlink:href="#DejaVuSans-50"/>
      <use xlink:href="#DejaVuSans-72" x="58.552734"/>
      <use xlink:href="#DejaVuSans-69" x="99.666016"/>
      <use xlink:href="#DejaVuSans-6f" x="127.449219"/>
      <use xlink:href="#DejaVuSans-72" x="188.630859"/>
      <use xlink:href="#DejaVuSans-20" x="229.744141"/>
      <use xlink:href="#DejaVuSans-4d" x="261.53125"/>
      <use xlink:href="#DejaVuSans-65" x="347.810547"/>
      <use xlink:href="#DejaVuSans-64" x="409.333984"/>
      <use xlink:href="#DejaVuSans-69" x="472.810547"/>
      <use xlink:href="#DejaVuSans-61" x="500.59375"/>
      <use xlink:href="#DejaVuSans-6e" x="561.873047"/>
     </g>
    </g>
   </g>
  </g>
 </g>
 <defs>
  <clipPath id="p12d73452bb">
   <rect x="57.6" y="41.472" width="357.12" height="266.112"/>
  </clipPath>
 </defs>
</svg>
