<?xml version="1.0" encoding="utf-8" standalone="no"?>
<!DOCTYPE svg PUBLIC "-//W3C//DTD SVG 1.1//EN"
  "http://www.w3.org/Graphics/SVG/1.1/DTD/svg11.dtd">
<svg xmlns:xlink="http://www.w3.org/1999/xlink" width="460.8pt" height="345.6pt" viewBox="0 0 460.8 345.6" xmlns="http://www.w3.org/2000/svg" version="1.1">
 <metadata>
  <rdf:RDF xmlns:dc="http://purl.org/dc/elements/1.1/" xmlns:cc="http://creativecommons.org/ns#" xmlns:rdf="http://www.w3.org/1999/02/22-rdf-syntax-ns#">
   <cc:Work>
    <dc:type rdf:resource="http://purl.org/dc/dcmitype/StillImage"/>
    <dc:date>2025-06-05T08:33:55.767352</dc:date>
    <dc:format>image/svg+xml</dc:format>
    <dc:creator>
     <cc:Agent>
      <dc:title>Matplotlib v3.9.2, https://matplotlib.org/</dc:title>
     </cc:Agent>
    </dc:creator>
   </cc:Work>
  </rdf:RDF>
 </metadata>
 <defs>
  <style type="text/css">*{stroke-linejoin: round; stroke-linecap: butt}</style>
 </defs>
 <g id="figure_1">
  <g id="patch_1">
   <path d="M 0 345.6 
L 460.8 345.6 
L 460.8 0 
L 0 0 
z
" style="fill: #ffffff"/>
  </g>
  <g id="patch_2">
   <path d="M 103.104 307.584 
L 369.216 307.584 
L 369.216 41.472 
L 103.104 41.472 
z
" style="fill: #ffffff"/>
  </g>
  <g id="pane3d_1">
   <g id="patch_3">
    <path d="M 131.806411 234.335996 
L 239.756744 172.332128 
L 239.756783 45.579073 
L 124.704566 103.357353 
" style="fill: #f2f2f2; opacity: 0.5; stroke: #f2f2f2; stroke-linejoin: miter"/>
   </g>
  </g>
  <g id="pane3d_2">
   <g id="patch_4">
    <path d="M 239.756744 172.332128 
L 347.705722 234.335174 
L 354.807556 103.356584 
L 239.756783 45.579073 
" style="fill: #e6e6e6; opacity: 0.5; stroke: #e6e6e6; stroke-linejoin: miter"/>
   </g>
  </g>
  <g id="pane3d_3">
   <g id="patch_5">
    <path d="M 131.806411 234.335996 
L 239.755389 304.461598 
L 347.705722 234.335174 
L 239.756744 172.332128 
" style="fill: #ececec; opacity: 0.5; stroke: #ececec; stroke-linejoin: miter"/>
   </g>
  </g>
  <g id="grid3d_1">
   <g id="Line3DCollection_1">
    <path d="M 147.256738 244.372807 
L 255.257264 181.235218 
L 256.223329 53.848431 
" style="fill: none; stroke: #b0b0b0; stroke-width: 0.8"/>
    <path d="M 164.170561 255.360331 
L 272.206759 190.970561 
L 274.24972 62.90113 
" style="fill: none; stroke: #b0b0b0; stroke-width: 0.8"/>
    <path d="M 181.431861 266.573583 
L 289.483725 200.893995 
L 292.64654 72.139855 
" style="fill: none; stroke: #b0b0b0; stroke-width: 0.8"/>
    <path d="M 199.051455 278.019589 
L 307.097746 211.011024 
L 311.425326 81.5704 
" style="fill: none; stroke: #b0b0b0; stroke-width: 0.8"/>
    <path d="M 217.040618 289.705673 
L 325.058782 221.327369 
L 330.598098 91.198802 
" style="fill: none; stroke: #b0b0b0; stroke-width: 0.8"/>
    <path d="M 235.411099 301.639469 
L 343.37719 231.848979 
L 350.177387 101.031353 
" style="fill: none; stroke: #b0b0b0; stroke-width: 0.8"/>
   </g>
  </g>
  <g id="grid3d_2">
   <g id="Line3DCollection_2">
    <path d="M 143.044402 94.147238 
L 148.959239 224.483857 
L 256.962913 293.28329 
" style="fill: none; stroke: #b0b0b0; stroke-width: 0.8"/>
    <path d="M 162.338617 84.457841 
L 167.027108 214.106142 
L 275.06599 281.523215 
" style="fill: none; stroke: #b0b0b0; stroke-width: 0.8"/>
    <path d="M 181.235115 74.968175 
L 184.744876 203.929517 
L 292.796001 270.005489 
" style="fill: none; stroke: #b0b0b0; stroke-width: 0.8"/>
    <path d="M 199.746069 65.672126 
L 202.122621 193.948191 
L 310.164362 258.722698 
" style="fill: none; stroke: #b0b0b0; stroke-width: 0.8"/>
    <path d="M 217.883158 56.563828 
L 219.170039 184.156597 
L 327.182025 247.667726 
" style="fill: none; stroke: #b0b0b0; stroke-width: 0.8"/>
    <path d="M 235.657596 47.637651 
L 235.896459 174.549375 
L 343.859506 236.833743 
" style="fill: none; stroke: #b0b0b0; stroke-width: 0.8"/>
   </g>
  </g>
  <g id="grid3d_3">
   <g id="Line3DCollection_3">
    <path d="M 348.713883 215.741728 
L 239.756749 154.279738 
L 130.798248 215.742544 
" style="fill: none; stroke: #b0b0b0; stroke-width: 0.8"/>
    <path d="M 349.810756 195.512198 
L 239.756755 134.661028 
L 129.701375 195.513006 
" style="fill: none; stroke: #b0b0b0; stroke-width: 0.8"/>
    <path d="M 350.929937 174.871226 
L 239.756761 114.667058 
L 128.582192 174.872026 
" style="fill: none; stroke: #b0b0b0; stroke-width: 0.8"/>
    <path d="M 352.072114 153.806133 
L 239.756768 94.286956 
L 127.440012 153.806924 
" style="fill: none; stroke: #b0b0b0; stroke-width: 0.8"/>
    <path d="M 353.238004 132.303709 
L 239.756774 73.509429 
L 126.27412 132.304491 
" style="fill: none; stroke: #b0b0b0; stroke-width: 0.8"/>
    <path d="M 354.428353 110.350193 
L 239.756781 52.322737 
L 125.083769 110.350965 
" style="fill: none; stroke: #b0b0b0; stroke-width: 0.8"/>
   </g>
  </g>
  <g id="axis3d_1">
   <g id="line2d_1">
    <path d="M 131.806411 234.335996 
L 239.755389 304.461598 
" style="fill: none; stroke: #000000; stroke-width: 0.8; stroke-linecap: square"/>
   </g>
   <g id="xtick_1">
    <g id="line2d_2">
     <path d="M 148.173899 243.83663 
L 145.419681 245.446759 
" style="fill: none; stroke: #000000; stroke-width: 0.8; stroke-linecap: square"/>
    </g>
    <g id="text_1">
     <!-- −1.0 -->
     <g transform="translate(126.076592 267.775174) scale(0.1 -0.1)">
      <defs>
       <path id="DejaVuSans-2212" d="M 678 2272 
L 4684 2272 
L 4684 1741 
L 678 1741 
L 678 2272 
z
" transform="scale(0.015625)"/>
       <path id="DejaVuSans-31" d="M 794 531 
L 1825 531 
L 1825 4091 
L 703 3866 
L 703 4441 
L 1819 4666 
L 2450 4666 
L 2450 531 
L 3481 531 
L 3481 0 
L 794 0 
L 794 531 
z
" transform="scale(0.015625)"/>
       <path id="DejaVuSans-2e" d="M 684 794 
L 1344 794 
L 1344 0 
L 684 0 
L 684 794 
z
" transform="scale(0.015625)"/>
       <path id="DejaVuSans-30" d="M 2034 4250 
Q 1547 4250 1301 3770 
Q 1056 3291 1056 2328 
Q 1056 1369 1301 889 
Q 1547 409 2034 409 
Q 2525 409 2770 889 
Q 3016 1369 3016 2328 
Q 3016 3291 2770 3770 
Q 2525 4250 2034 4250 
z
M 2034 4750 
Q 2819 4750 3233 4129 
Q 3647 3509 3647 2328 
Q 3647 1150 3233 529 
Q 2819 -91 2034 -91 
Q 1250 -91 836 529 
Q 422 1150 422 2328 
Q 422 3509 836 4129 
Q 1250 4750 2034 4750 
z
" transform="scale(0.015625)"/>
      </defs>
      <use xlink:href="#DejaVuSans-2212"/>
      <use xlink:href="#DejaVuSans-31" x="83.789062"/>
      <use xlink:href="#DejaVuSans-2e" x="147.412109"/>
      <use xlink:href="#DejaVuSans-30" x="179.199219"/>
     </g>
    </g>
   </g>
   <g id="xtick_2">
    <g id="line2d_3">
     <path d="M 165.088566 254.813199 
L 162.331788 256.456244 
" style="fill: none; stroke: #000000; stroke-width: 0.8; stroke-linecap: square"/>
    </g>
    <g id="text_2">
     <!-- −0.5 -->
     <g transform="translate(142.898154 278.923147) scale(0.1 -0.1)">
      <defs>
       <path id="DejaVuSans-35" d="M 691 4666 
L 3169 4666 
L 3169 4134 
L 1269 4134 
L 1269 2991 
Q 1406 3038 1543 3061 
Q 1681 3084 1819 3084 
Q 2600 3084 3056 2656 
Q 3513 2228 3513 1497 
Q 3513 744 3044 326 
Q 2575 -91 1722 -91 
Q 1428 -91 1123 -41 
Q 819 9 494 109 
L 494 744 
Q 775 591 1075 516 
Q 1375 441 1709 441 
Q 2250 441 2565 725 
Q 2881 1009 2881 1497 
Q 2881 1984 2565 2268 
Q 2250 2553 1709 2553 
Q 1456 2553 1204 2497 
Q 953 2441 691 2322 
L 691 4666 
z
" transform="scale(0.015625)"/>
      </defs>
      <use xlink:href="#DejaVuSans-2212"/>
      <use xlink:href="#DejaVuSans-30" x="83.789062"/>
      <use xlink:href="#DejaVuSans-2e" x="147.412109"/>
      <use xlink:href="#DejaVuSans-35" x="179.199219"/>
     </g>
    </g>
   </g>
   <g id="xtick_3">
    <g id="line2d_4">
     <path d="M 182.35055 266.015155 
L 179.591687 267.692137 
" style="fill: none; stroke: #000000; stroke-width: 0.8; stroke-linecap: square"/>
    </g>
    <g id="text_3">
     <!-- 0.0 -->
     <g transform="translate(164.255132 290.300138) scale(0.1 -0.1)">
      <use xlink:href="#DejaVuSans-30"/>
      <use xlink:href="#DejaVuSans-2e" x="63.623047"/>
      <use xlink:href="#DejaVuSans-30" x="95.410156"/>
     </g>
    </g>
   </g>
   <g id="xtick_4">
    <g id="line2d_5">
     <path d="M 199.97066 277.449513 
L 197.21022 279.161494 
" style="fill: none; stroke: #000000; stroke-width: 0.8; stroke-linecap: square"/>
    </g>
    <g id="text_4">
     <!-- 0.5 -->
     <g transform="translate(181.7786 301.913277) scale(0.1 -0.1)">
      <use xlink:href="#DejaVuSans-30"/>
      <use xlink:href="#DejaVuSans-2e" x="63.623047"/>
      <use xlink:href="#DejaVuSans-35" x="95.410156"/>
     </g>
    </g>
   </g>
   <g id="xtick_5">
    <g id="line2d_6">
     <path d="M 217.960158 289.12358 
L 215.198681 290.871667 
" style="fill: none; stroke: #000000; stroke-width: 0.8; stroke-linecap: square"/>
    </g>
    <g id="text_5">
     <!-- 1.0 -->
     <g transform="translate(199.669612 313.769995) scale(0.1 -0.1)">
      <use xlink:href="#DejaVuSans-31"/>
      <use xlink:href="#DejaVuSans-2e" x="63.623047"/>
      <use xlink:href="#DejaVuSans-30" x="95.410156"/>
     </g>
    </g>
   </g>
   <g id="xtick_6">
    <g id="line2d_7">
     <path d="M 236.330782 301.044975 
L 233.568845 302.830322 
" style="fill: none; stroke: #000000; stroke-width: 0.8; stroke-linecap: square"/>
    </g>
    <g id="text_6">
     <!-- 1.5 -->
     <g transform="translate(217.939852 325.878035) scale(0.1 -0.1)">
      <use xlink:href="#DejaVuSans-31"/>
      <use xlink:href="#DejaVuSans-2e" x="63.623047"/>
      <use xlink:href="#DejaVuSans-35" x="95.410156"/>
     </g>
    </g>
   </g>
   <g id="text_7">
    <!-- x -->
    <g transform="translate(161.024428 306.160893) scale(0.1 -0.1)">
     <defs>
      <path id="DejaVuSans-78" d="M 3513 3500 
L 2247 1797 
L 3578 0 
L 2900 0 
L 1881 1375 
L 863 0 
L 184 0 
L 1544 1831 
L 300 3500 
L 978 3500 
L 1906 2253 
L 2834 3500 
L 3513 3500 
z
" transform="scale(0.015625)"/>
     </defs>
     <use xlink:href="#DejaVuSans-78"/>
    </g>
   </g>
  </g>
  <g id="axis3d_2">
   <g id="line2d_8">
    <path d="M 347.705722 234.335174 
L 239.755389 304.461598 
" style="fill: none; stroke: #000000; stroke-width: 0.8; stroke-linecap: square"/>
   </g>
   <g id="xtick_7">
    <g id="line2d_9">
     <path d="M 256.043321 292.697501 
L 258.804963 294.456694 
" style="fill: none; stroke: #000000; stroke-width: 0.8; stroke-linecap: square"/>
    </g>
    <g id="text_8">
     <!-- −1.0 -->
     <g transform="translate(254.270881 317.399772) scale(0.1 -0.1)">
      <use xlink:href="#DejaVuSans-2212"/>
      <use xlink:href="#DejaVuSans-31" x="83.789062"/>
      <use xlink:href="#DejaVuSans-2e" x="147.412109"/>
      <use xlink:href="#DejaVuSans-30" x="179.199219"/>
     </g>
    </g>
   </g>
   <g id="xtick_8">
    <g id="line2d_10">
     <path d="M 274.146677 280.949556 
L 276.907452 282.672301 
" style="fill: none; stroke: #000000; stroke-width: 0.8; stroke-linecap: square"/>
    </g>
    <g id="text_9">
     <!-- −0.5 -->
     <g transform="translate(272.275182 305.467986) scale(0.1 -0.1)">
      <use xlink:href="#DejaVuSans-2212"/>
      <use xlink:href="#DejaVuSans-30" x="83.789062"/>
      <use xlink:href="#DejaVuSans-2e" x="147.412109"/>
      <use xlink:href="#DejaVuSans-35" x="179.199219"/>
     </g>
    </g>
   </g>
   <g id="xtick_9">
    <g id="line2d_11">
     <path d="M 291.87715 269.443588 
L 294.636508 271.131005 
" style="fill: none; stroke: #000000; stroke-width: 0.8; stroke-linecap: square"/>
    </g>
    <g id="text_10">
     <!-- 0.0 -->
     <g transform="translate(294.098306 293.782083) scale(0.1 -0.1)">
      <use xlink:href="#DejaVuSans-30"/>
      <use xlink:href="#DejaVuSans-2e" x="63.623047"/>
      <use xlink:href="#DejaVuSans-30" x="95.410156"/>
     </g>
    </g>
   </g>
   <g id="xtick_10">
    <g id="line2d_12">
     <path d="M 309.246145 258.172198 
L 312.003568 259.825362 
" style="fill: none; stroke: #000000; stroke-width: 0.8; stroke-linecap: square"/>
    </g>
    <g id="text_11">
     <!-- 0.5 -->
     <g transform="translate(311.371916 282.33454) scale(0.1 -0.1)">
      <use xlink:href="#DejaVuSans-30"/>
      <use xlink:href="#DejaVuSans-2e" x="63.623047"/>
      <use xlink:href="#DejaVuSans-35" x="95.410156"/>
     </g>
    </g>
   </g>
   <g id="xtick_11">
    <g id="line2d_13">
     <path d="M 326.264605 247.128283 
L 329.019608 248.748227 
" style="fill: none; stroke: #000000; stroke-width: 0.8; stroke-linecap: square"/>
    </g>
    <g id="text_12">
     <!-- 1.0 -->
     <g transform="translate(328.29675 271.118138) scale(0.1 -0.1)">
      <use xlink:href="#DejaVuSans-31"/>
      <use xlink:href="#DejaVuSans-2e" x="63.623047"/>
      <use xlink:href="#DejaVuSans-30" x="95.410156"/>
     </g>
    </g>
   </g>
   <g id="xtick_12">
    <g id="line2d_14">
     <path d="M 342.943034 236.305026 
L 345.695163 237.892741 
" style="fill: none; stroke: #000000; stroke-width: 0.8; stroke-linecap: square"/>
    </g>
    <g id="text_13">
     <!-- 1.5 -->
     <g transform="translate(344.883264 260.125946) scale(0.1 -0.1)">
      <use xlink:href="#DejaVuSans-31"/>
      <use xlink:href="#DejaVuSans-2e" x="63.623047"/>
      <use xlink:href="#DejaVuSans-35" x="95.410156"/>
     </g>
    </g>
   </g>
   <g id="text_14">
    <!-- y -->
    <g transform="translate(312.568051 306.160278) scale(0.1 -0.1)">
     <defs>
      <path id="DejaVuSans-79" d="M 2059 -325 
Q 1816 -950 1584 -1140 
Q 1353 -1331 966 -1331 
L 506 -1331 
L 506 -850 
L 844 -850 
Q 1081 -850 1212 -737 
Q 1344 -625 1503 -206 
L 1606 56 
L 191 3500 
L 800 3500 
L 1894 763 
L 2988 3500 
L 3597 3500 
L 2059 -325 
z
" transform="scale(0.015625)"/>
     </defs>
     <use xlink:href="#DejaVuSans-79"/>
    </g>
   </g>
  </g>
  <g id="axis3d_3">
   <g id="line2d_15">
    <path d="M 347.705722 234.335174 
L 354.807556 103.356584 
" style="fill: none; stroke: #000000; stroke-width: 0.8; stroke-linecap: square"/>
   </g>
   <g id="xtick_13">
    <g id="line2d_16">
     <path d="M 347.788601 215.219783 
L 350.567206 216.787175 
" style="fill: none; stroke: #000000; stroke-width: 0.8; stroke-linecap: square"/>
    </g>
    <g id="text_15">
     <!-- −1.0 -->
     <g transform="translate(354.653485 223.340098) scale(0.1 -0.1)">
      <use xlink:href="#DejaVuSans-2212"/>
      <use xlink:href="#DejaVuSans-31" x="83.789062"/>
      <use xlink:href="#DejaVuSans-2e" x="147.412109"/>
      <use xlink:href="#DejaVuSans-30" x="179.199219"/>
     </g>
    </g>
   </g>
   <g id="xtick_14">
    <g id="line2d_17">
     <path d="M 348.875613 194.995138 
L 351.683856 196.547874 
" style="fill: none; stroke: #000000; stroke-width: 0.8; stroke-linecap: square"/>
    </g>
    <g id="text_16">
     <!-- −0.5 -->
     <g transform="translate(355.932378 203.110568) scale(0.1 -0.1)">
      <use xlink:href="#DejaVuSans-2212"/>
      <use xlink:href="#DejaVuSans-30" x="83.789062"/>
      <use xlink:href="#DejaVuSans-2e" x="147.412109"/>
      <use xlink:href="#DejaVuSans-35" x="179.199219"/>
     </g>
    </g>
   </g>
   <g id="xtick_15">
    <g id="line2d_18">
     <path d="M 349.984723 174.35936 
L 352.823239 175.896516 
" style="fill: none; stroke: #000000; stroke-width: 0.8; stroke-linecap: square"/>
    </g>
    <g id="text_17">
     <!-- 0.0 -->
     <g transform="translate(361.427125 182.469597) scale(0.1 -0.1)">
      <use xlink:href="#DejaVuSans-30"/>
      <use xlink:href="#DejaVuSans-2e" x="63.623047"/>
      <use xlink:href="#DejaVuSans-30" x="95.410156"/>
     </g>
    </g>
   </g>
   <g id="xtick_16">
    <g id="line2d_19">
     <path d="M 351.11661 153.299783 
L 353.986058 154.820387 
" style="fill: none; stroke: #000000; stroke-width: 0.8; stroke-linecap: square"/>
    </g>
    <g id="text_18">
     <!-- 0.5 -->
     <g transform="translate(362.758841 161.404504) scale(0.1 -0.1)">
      <use xlink:href="#DejaVuSans-30"/>
      <use xlink:href="#DejaVuSans-2e" x="63.623047"/>
      <use xlink:href="#DejaVuSans-35" x="95.410156"/>
     </g>
    </g>
   </g>
   <g id="xtick_17">
    <g id="line2d_20">
     <path d="M 352.271985 131.803217 
L 355.173043 133.306246 
" style="fill: none; stroke: #000000; stroke-width: 0.8; stroke-linecap: square"/>
    </g>
    <g id="text_19">
     <!-- 1.0 -->
     <g transform="translate(364.118205 139.902081) scale(0.1 -0.1)">
      <use xlink:href="#DejaVuSans-31"/>
      <use xlink:href="#DejaVuSans-2e" x="63.623047"/>
      <use xlink:href="#DejaVuSans-30" x="95.410156"/>
     </g>
    </g>
   </g>
   <g id="xtick_18">
    <g id="line2d_21">
     <path d="M 353.451585 109.855917 
L 356.384955 111.340295 
" style="fill: none; stroke: #000000; stroke-width: 0.8; stroke-linecap: square"/>
    </g>
    <g id="text_20">
     <!-- 1.5 -->
     <g transform="translate(365.506086 117.948566) scale(0.1 -0.1)">
      <use xlink:href="#DejaVuSans-31"/>
      <use xlink:href="#DejaVuSans-2e" x="63.623047"/>
      <use xlink:href="#DejaVuSans-35" x="95.410156"/>
     </g>
    </g>
   </g>
   <g id="text_21">
    <!-- z -->
    <g transform="translate(388.702375 173.690724) scale(0.1 -0.1)">
     <defs>
      <path id="DejaVuSans-7a" d="M 353 3500 
L 3084 3500 
L 3084 2975 
L 922 459 
L 3084 459 
L 3084 0 
L 275 0 
L 275 525 
L 2438 3041 
L 353 3041 
L 353 3500 
z
" transform="scale(0.015625)"/>
     </defs>
     <use xlink:href="#DejaVuSans-7a"/>
    </g>
   </g>
  </g>
  <g id="axes_1">
   <g id="line2d_22">
    <path d="M 234.168165 120.504448 
L 234.22061 122.459347 
L 234.400123 124.563992 
L 234.70664 126.810194 
L 235.139514 129.189026 
L 235.697509 131.690858 
L 236.378792 134.305392 
L 237.180931 137.021709 
L 238.100906 139.828318 
L 239.135109 142.713206 
L 240.279359 145.663907 
L 241.528922 148.667555 
L 242.878525 151.710964 
L 244.322387 154.78069 
L 245.854244 157.86311 
L 247.467385 160.944499 
L 249.154684 164.011106 
L 250.908644 167.049237 
L 252.721438 170.045328 
L 254.584953 172.986028 
L 256.490837 175.858272 
L 258.43055 178.649356 
L 260.395409 181.347009 
L 262.376642 183.939459 
L 264.36544 186.415496 
L 266.352999 188.76453 
L 268.330578 190.976644 
L 270.289541 193.04264 
L 272.221405 194.954081 
L 274.117884 196.703325 
L 275.97093 198.283557 
L 277.772771 199.688803 
L 279.515948 200.913957 
L 281.193346 201.954782 
L 282.798227 202.807918 
L 284.324251 203.47088 
L 285.765499 203.942049 
L 287.116498 204.220664 
L 288.372227 204.306802 
L 289.528137 204.201356 
L 290.580159 203.906018 
L 291.524706 203.423241 
L 292.358679 202.756219 
L 293.079469 201.908845 
L 293.684951 200.885683 
L 294.173486 199.69193 
L 294.543907 198.333377 
L 294.795516 196.816375 
L 294.928076 195.147792 
L 294.941795 193.334978 
L 294.837318 191.385727 
L 294.615713 189.308239 
L 294.278454 187.11108 
L 293.827413 184.80315 
L 293.264841 182.393645 
L 292.593354 179.892026 
L 291.815918 177.307979 
L 290.935831 174.651392 
L 289.956714 171.932313 
L 288.88249 169.160932 
L 287.717373 166.347541 
L 286.465848 163.502513 
L 285.132664 160.636273 
L 283.722813 157.759269 
L 282.241517 154.881949 
L 280.694216 152.014738 
L 279.086554 149.168005 
L 277.424363 146.352049 
L 275.713648 143.577066 
L 273.960576 140.85313 
L 272.171462 138.190167 
L 270.35275 135.597931 
L 268.511004 133.085977 
L 266.652889 130.66364 
L 264.785156 128.340004 
L 262.914626 126.123883 
L 261.048175 124.023786 
L 259.192713 122.047897 
L 257.355167 120.204042 
L 255.542465 118.499661 
L 253.761509 116.941784 
L 252.01916 115.536992 
L 250.322211 114.291397 
L 248.677369 113.210605 
L 247.091226 112.299686 
L 245.570236 111.563148 
L 244.120691 111.004902 
L 242.748688 110.628236 
L 241.460108 110.435784 
L 240.260584 110.429502 
L 239.155472 110.610636 
L 238.149825 110.979705 
L 237.248361 111.536474 
L 236.455433 112.279937 
L 235.775005 113.208301 
L 235.210619 114.318972 
L 234.76537 115.608546 
L 234.441881 117.072806 
L 234.242277 118.706721 
L 234.168165 120.504448 
" clip-path="url(#p305ba94d1b)" style="fill: none; stroke-dasharray: 1.5,2.475; stroke-dashoffset: 0; stroke: #ff0000; stroke-width: 1.5"/>
   </g>
   <g id="line2d_23">
    <path d="M 172.661491 157.06296 
L 172.596436 159.053136 
L 172.660594 161.18773 
L 172.854394 163.45839 
L 173.177681 165.856054 
L 173.629697 168.370983 
L 174.209077 170.992799 
L 174.913851 173.710533 
L 175.741435 176.512673 
L 176.688644 179.38722 
L 177.751702 182.321744 
L 178.926249 185.303456 
L 180.207367 188.319268 
L 181.589597 191.355868 
L 183.06697 194.399794 
L 184.633035 197.437509 
L 186.280895 200.455475 
L 188.003245 203.440236 
L 189.792412 206.378489 
L 191.640398 209.257165 
L 193.53893 212.063501 
L 195.479505 214.785111 
L 197.453438 217.410056 
L 199.451916 219.92691 
L 201.466046 222.324816 
L 203.486906 224.593548 
L 205.505592 226.723555 
L 207.513275 228.706013 
L 209.501238 230.532855 
L 211.460929 232.196812 
L 213.384001 233.691434 
L 215.262353 235.011114 
L 217.088167 236.151101 
L 218.853947 237.107507 
L 220.552545 237.87731 
L 222.177193 238.458355 
L 223.721527 238.84934 
L 225.179609 239.049806 
L 226.545946 239.060121 
L 227.8155 238.881455 
L 228.983709 238.515758 
L 230.046485 237.965732 
L 231.000229 237.234798 
L 231.841827 236.327064 
L 232.568654 235.247292 
L 233.178573 234.00086 
L 233.669927 232.593725 
L 234.041536 231.032387 
L 234.292687 229.323848 
L 234.423128 227.475575 
L 234.433055 225.495465 
L 234.323101 223.391801 
L 234.094324 221.173224 
L 233.748192 218.848687 
L 233.286573 216.427428 
L 232.711719 213.918932 
L 232.026248 211.332899 
L 231.233136 208.679211 
L 230.3357 205.9679 
L 229.337579 203.209122 
L 228.242726 200.413126 
L 227.05539 197.590223 
L 225.780101 194.750763 
L 224.42166 191.905109 
L 222.985118 189.063607 
L 221.47577 186.236563 
L 219.899134 183.434222 
L 218.260942 180.666736 
L 216.567123 177.944148 
L 214.82379 175.276361 
L 213.037228 172.673117 
L 211.213875 170.143975 
L 209.360311 167.698281 
L 207.483242 165.345146 
L 205.589481 163.093422 
L 203.685938 160.951672 
L 201.779598 158.928148 
L 199.877503 157.030763 
L 197.986738 155.26706 
L 196.114406 153.644188 
L 194.267614 152.168873 
L 192.453443 150.847387 
L 190.678935 149.68552 
L 188.951061 148.688553 
L 187.276703 147.861224 
L 185.662623 147.207701 
L 184.115441 146.731555 
L 182.641606 146.43573 
L 181.247364 146.322516 
L 179.938734 146.393525 
L 178.721476 146.649663 
L 177.601062 147.091111 
L 176.582643 147.717305 
L 175.671022 148.526915 
L 174.87062 149.517837 
L 174.185451 150.687177 
L 173.619092 152.031244 
L 173.174653 153.545551 
L 172.854752 155.224814 
L 172.661491 157.06296 
" clip-path="url(#p305ba94d1b)" style="fill: none; stroke-dasharray: 1.5,2.475; stroke-dashoffset: 0; stroke: #ff0000; stroke-width: 1.5"/>
   </g>
   <g id="Path3DCollection_1">
    <defs>
     <path id="m1bb335578f" d="M -2.236068 2.236068 
L 2.236068 -2.236068 
M -2.236068 -2.236068 
L 2.236068 2.236068 
" style="stroke: #000000; stroke-width: 1.5"/>
    </defs>
    <g clip-path="url(#p305ba94d1b)">
     <use xlink:href="#m1bb335578f" x="234.309197" y="174.871975" style="stroke: #000000; stroke-width: 1.5"/>
    </g>
   </g>
   <g id="Path3DCollection_2">
    <defs>
     <path id="C0_0_599320b94b" d="M 0 -2.236068 
L -0.502029 -0.690983 
L -2.126627 -0.690983 
L -0.812299 0.263932 
L -1.314328 1.809017 
L -0 0.854102 
L 1.314328 1.809017 
L 0.812299 0.263932 
L 2.126627 -0.690983 
L 0.502029 -0.690983 
z
"/>
    </defs>
    <g clip-path="url(#p305ba94d1b)">
     <use xlink:href="#C0_0_599320b94b" x="279.088187" y="149.167062" style="fill: #ff0000; fill-opacity: 0.3; stroke: #ff0000; stroke-opacity: 0.3; stroke-width: 4"/>
    </g>
    <g clip-path="url(#p305ba94d1b)">
     <use xlink:href="#C0_0_599320b94b" x="234.164772" y="120.506465" style="fill: #ff0000; fill-opacity: 0.996403; stroke: #ff0000; stroke-opacity: 0.996403; stroke-width: 4"/>
    </g>
    <g clip-path="url(#p305ba94d1b)">
     <use xlink:href="#C0_0_599320b94b" x="281.195067" y="201.95381" style="fill: #ff0000; stroke: #ff0000; stroke-width: 4"/>
    </g>
   </g>
   <g id="Path3DCollection_3">
    <defs>
     <path id="C1_0_cb39e42864" d="M 0 1.118034 
C 0.296506 1.118034 0.580908 1.000231 0.790569 0.790569 
C 1.000231 0.580908 1.118034 0.296506 1.118034 -0 
C 1.118034 -0.296506 1.000231 -0.580908 0.790569 -0.790569 
C 0.580908 -1.000231 0.296506 -1.118034 0 -1.118034 
C -0.296506 -1.118034 -0.580908 -1.000231 -0.790569 -0.790569 
C -1.000231 -0.580908 -1.118034 -0.296506 -1.118034 0 
C -1.118034 0.296506 -1.000231 0.580908 -0.790569 0.790569 
C -0.580908 1.000231 -0.296506 1.118034 0 1.118034 
z
"/>
    </defs>
    <g clip-path="url(#p305ba94d1b)">
     <use xlink:href="#C1_0_cb39e42864" x="274.987718" y="149.31459" style="fill: #228b22; fill-opacity: 0.3; stroke: #228b22; stroke-opacity: 0.3"/>
    </g>
    <g clip-path="url(#p305ba94d1b)">
     <use xlink:href="#C1_0_cb39e42864" x="274.514863" y="150.837174" style="fill: #228b22; fill-opacity: 0.310902; stroke: #228b22; stroke-opacity: 0.310902"/>
    </g>
    <g clip-path="url(#p305ba94d1b)">
     <use xlink:href="#C1_0_cb39e42864" x="279.413354" y="153.673099" style="fill: #228b22; fill-opacity: 0.320979; stroke: #228b22; stroke-opacity: 0.320979"/>
    </g>
    <g clip-path="url(#p305ba94d1b)">
     <use xlink:href="#C1_0_cb39e42864" x="283.273585" y="146.199054" style="fill: #228b22; fill-opacity: 0.324872; stroke: #228b22; stroke-opacity: 0.324872"/>
    </g>
    <g clip-path="url(#p305ba94d1b)">
     <use xlink:href="#C1_0_cb39e42864" x="272.476511" y="146.144077" style="fill: #228b22; fill-opacity: 0.331717; stroke: #228b22; stroke-opacity: 0.331717"/>
    </g>
    <g clip-path="url(#p305ba94d1b)">
     <use xlink:href="#C1_0_cb39e42864" x="279.11391" y="150.733533" style="fill: #228b22; fill-opacity: 0.340973; stroke: #228b22; stroke-opacity: 0.340973"/>
    </g>
    <g clip-path="url(#p305ba94d1b)">
     <use xlink:href="#C1_0_cb39e42864" x="275.885296" y="143.422907" style="fill: #228b22; fill-opacity: 0.347627; stroke: #228b22; stroke-opacity: 0.347627"/>
    </g>
    <g clip-path="url(#p305ba94d1b)">
     <use xlink:href="#C1_0_cb39e42864" x="280.111332" y="153.329533" style="fill: #228b22; fill-opacity: 0.357482; stroke: #228b22; stroke-opacity: 0.357482"/>
    </g>
    <g clip-path="url(#p305ba94d1b)">
     <use xlink:href="#C1_0_cb39e42864" x="279.733153" y="149.153317" style="fill: #228b22; fill-opacity: 0.361093; stroke: #228b22; stroke-opacity: 0.361093"/>
    </g>
    <g clip-path="url(#p305ba94d1b)">
     <use xlink:href="#C1_0_cb39e42864" x="282.589263" y="147.315217" style="fill: #228b22; fill-opacity: 0.369782; stroke: #228b22; stroke-opacity: 0.369782"/>
    </g>
    <g clip-path="url(#p305ba94d1b)">
     <use xlink:href="#C1_0_cb39e42864" x="275.046243" y="153.494822" style="fill: #228b22; fill-opacity: 0.374744; stroke: #228b22; stroke-opacity: 0.374744"/>
    </g>
    <g clip-path="url(#p305ba94d1b)">
     <use xlink:href="#C1_0_cb39e42864" x="277.543111" y="138.397443" style="fill: #228b22; fill-opacity: 0.375925; stroke: #228b22; stroke-opacity: 0.375925"/>
    </g>
    <g clip-path="url(#p305ba94d1b)">
     <use xlink:href="#C1_0_cb39e42864" x="277.458365" y="159.773956" style="fill: #228b22; fill-opacity: 0.378609; stroke: #228b22; stroke-opacity: 0.378609"/>
    </g>
    <g clip-path="url(#p305ba94d1b)">
     <use xlink:href="#C1_0_cb39e42864" x="280.439857" y="152.013297" style="fill: #228b22; fill-opacity: 0.382976; stroke: #228b22; stroke-opacity: 0.382976"/>
    </g>
    <g clip-path="url(#p305ba94d1b)">
     <use xlink:href="#C1_0_cb39e42864" x="284.314373" y="145.015547" style="fill: #228b22; fill-opacity: 0.400869; stroke: #228b22; stroke-opacity: 0.400869"/>
    </g>
    <g clip-path="url(#p305ba94d1b)">
     <use xlink:href="#C1_0_cb39e42864" x="278.329787" y="154.832651" style="fill: #228b22; fill-opacity: 0.401863; stroke: #228b22; stroke-opacity: 0.401863"/>
    </g>
    <g clip-path="url(#p305ba94d1b)">
     <use xlink:href="#C1_0_cb39e42864" x="278.778452" y="137.21616" style="fill: #228b22; fill-opacity: 0.402611; stroke: #228b22; stroke-opacity: 0.402611"/>
    </g>
    <g clip-path="url(#p305ba94d1b)">
     <use xlink:href="#C1_0_cb39e42864" x="285.468993" y="149.946674" style="fill: #228b22; fill-opacity: 0.405195; stroke: #228b22; stroke-opacity: 0.405195"/>
    </g>
    <g clip-path="url(#p305ba94d1b)">
     <use xlink:href="#C1_0_cb39e42864" x="279.896041" y="153.028351" style="fill: #228b22; fill-opacity: 0.456853; stroke: #228b22; stroke-opacity: 0.456853"/>
    </g>
    <g clip-path="url(#p305ba94d1b)">
     <use xlink:href="#C1_0_cb39e42864" x="225.456072" y="120.137617" style="fill: #228b22; fill-opacity: 0.826527; stroke: #228b22; stroke-opacity: 0.826527"/>
    </g>
    <g clip-path="url(#p305ba94d1b)">
     <use xlink:href="#C1_0_cb39e42864" x="232.185203" y="120.868178" style="fill: #228b22; fill-opacity: 0.86722; stroke: #228b22; stroke-opacity: 0.86722"/>
    </g>
    <g clip-path="url(#p305ba94d1b)">
     <use xlink:href="#C1_0_cb39e42864" x="282.740819" y="201.892906" style="fill: #228b22; fill-opacity: 0.877826; stroke: #228b22; stroke-opacity: 0.877826"/>
    </g>
    <g clip-path="url(#p305ba94d1b)">
     <use xlink:href="#C1_0_cb39e42864" x="279.045115" y="201.641555" style="fill: #228b22; fill-opacity: 0.880083; stroke: #228b22; stroke-opacity: 0.880083"/>
    </g>
    <g clip-path="url(#p305ba94d1b)">
     <use xlink:href="#C1_0_cb39e42864" x="236.565592" y="125.219554" style="fill: #228b22; fill-opacity: 0.881647; stroke: #228b22; stroke-opacity: 0.881647"/>
    </g>
    <g clip-path="url(#p305ba94d1b)">
     <use xlink:href="#C1_0_cb39e42864" x="278.783606" y="203.219255" style="fill: #228b22; fill-opacity: 0.882694; stroke: #228b22; stroke-opacity: 0.882694"/>
    </g>
    <g clip-path="url(#p305ba94d1b)">
     <use xlink:href="#C1_0_cb39e42864" x="233.124757" y="116.295964" style="fill: #228b22; fill-opacity: 0.889275; stroke: #228b22; stroke-opacity: 0.889275"/>
    </g>
    <g clip-path="url(#p305ba94d1b)">
     <use xlink:href="#C1_0_cb39e42864" x="239.831471" y="118.033381" style="fill: #228b22; fill-opacity: 0.89301; stroke: #228b22; stroke-opacity: 0.89301"/>
    </g>
    <g clip-path="url(#p305ba94d1b)">
     <use xlink:href="#C1_0_cb39e42864" x="225.938775" y="113.084113" style="fill: #228b22; fill-opacity: 0.893049; stroke: #228b22; stroke-opacity: 0.893049"/>
    </g>
    <g clip-path="url(#p305ba94d1b)">
     <use xlink:href="#C1_0_cb39e42864" x="281.611218" y="195.43351" style="fill: #228b22; fill-opacity: 0.893646; stroke: #228b22; stroke-opacity: 0.893646"/>
    </g>
    <g clip-path="url(#p305ba94d1b)">
     <use xlink:href="#C1_0_cb39e42864" x="245.894175" y="114.997593" style="fill: #228b22; fill-opacity: 0.894055; stroke: #228b22; stroke-opacity: 0.894055"/>
    </g>
    <g clip-path="url(#p305ba94d1b)">
     <use xlink:href="#C1_0_cb39e42864" x="235.094968" y="109.193615" style="fill: #228b22; fill-opacity: 0.898591; stroke: #228b22; stroke-opacity: 0.898591"/>
    </g>
    <g clip-path="url(#p305ba94d1b)">
     <use xlink:href="#C1_0_cb39e42864" x="232.362888" y="129.393587" style="fill: #228b22; fill-opacity: 0.902691; stroke: #228b22; stroke-opacity: 0.902691"/>
    </g>
    <g clip-path="url(#p305ba94d1b)">
     <use xlink:href="#C1_0_cb39e42864" x="236.814772" y="122.374535" style="fill: #228b22; fill-opacity: 0.905259; stroke: #228b22; stroke-opacity: 0.905259"/>
    </g>
    <g clip-path="url(#p305ba94d1b)">
     <use xlink:href="#C1_0_cb39e42864" x="278.499714" y="209.167314" style="fill: #228b22; fill-opacity: 0.905931; stroke: #228b22; stroke-opacity: 0.905931"/>
    </g>
    <g clip-path="url(#p305ba94d1b)">
     <use xlink:href="#C1_0_cb39e42864" x="224.708482" y="117.990616" style="fill: #228b22; fill-opacity: 0.906702; stroke: #228b22; stroke-opacity: 0.906702"/>
    </g>
    <g clip-path="url(#p305ba94d1b)">
     <use xlink:href="#C1_0_cb39e42864" x="235.292821" y="116.61285" style="fill: #228b22; fill-opacity: 0.908162; stroke: #228b22; stroke-opacity: 0.908162"/>
    </g>
    <g clip-path="url(#p305ba94d1b)">
     <use xlink:href="#C1_0_cb39e42864" x="235.056072" y="119.262184" style="fill: #228b22; fill-opacity: 0.909974; stroke: #228b22; stroke-opacity: 0.909974"/>
    </g>
    <g clip-path="url(#p305ba94d1b)">
     <use xlink:href="#C1_0_cb39e42864" x="225.756025" y="110.359305" style="fill: #228b22; fill-opacity: 0.914261; stroke: #228b22; stroke-opacity: 0.914261"/>
    </g>
    <g clip-path="url(#p305ba94d1b)">
     <use xlink:href="#C1_0_cb39e42864" x="232.990793" y="120.857176" style="fill: #228b22; fill-opacity: 0.915945; stroke: #228b22; stroke-opacity: 0.915945"/>
    </g>
    <g clip-path="url(#p305ba94d1b)">
     <use xlink:href="#C1_0_cb39e42864" x="233.951777" y="126.086954" style="fill: #228b22; fill-opacity: 0.917278; stroke: #228b22; stroke-opacity: 0.917278"/>
    </g>
    <g clip-path="url(#p305ba94d1b)">
     <use xlink:href="#C1_0_cb39e42864" x="274.907947" y="198.961217" style="fill: #228b22; fill-opacity: 0.918742; stroke: #228b22; stroke-opacity: 0.918742"/>
    </g>
    <g clip-path="url(#p305ba94d1b)">
     <use xlink:href="#C1_0_cb39e42864" x="243.292597" y="127.137286" style="fill: #228b22; fill-opacity: 0.920472; stroke: #228b22; stroke-opacity: 0.920472"/>
    </g>
    <g clip-path="url(#p305ba94d1b)">
     <use xlink:href="#C1_0_cb39e42864" x="283.612172" y="200.748994" style="fill: #228b22; fill-opacity: 0.922048; stroke: #228b22; stroke-opacity: 0.922048"/>
    </g>
    <g clip-path="url(#p305ba94d1b)">
     <use xlink:href="#C1_0_cb39e42864" x="286.031193" y="202.851963" style="fill: #228b22; fill-opacity: 0.92897; stroke: #228b22; stroke-opacity: 0.92897"/>
    </g>
    <g clip-path="url(#p305ba94d1b)">
     <use xlink:href="#C1_0_cb39e42864" x="283.880496" y="201.162287" style="fill: #228b22; fill-opacity: 0.932438; stroke: #228b22; stroke-opacity: 0.932438"/>
    </g>
    <g clip-path="url(#p305ba94d1b)">
     <use xlink:href="#C1_0_cb39e42864" x="234.862169" y="131.598112" style="fill: #228b22; fill-opacity: 0.934387; stroke: #228b22; stroke-opacity: 0.934387"/>
    </g>
    <g clip-path="url(#p305ba94d1b)">
     <use xlink:href="#C1_0_cb39e42864" x="280.859409" y="200.680327" style="fill: #228b22; fill-opacity: 0.936826; stroke: #228b22; stroke-opacity: 0.936826"/>
    </g>
    <g clip-path="url(#p305ba94d1b)">
     <use xlink:href="#C1_0_cb39e42864" x="275.731776" y="193.181183" style="fill: #228b22; fill-opacity: 0.940801; stroke: #228b22; stroke-opacity: 0.940801"/>
    </g>
    <g clip-path="url(#p305ba94d1b)">
     <use xlink:href="#C1_0_cb39e42864" x="238.738803" y="126.849785" style="fill: #228b22; fill-opacity: 0.940931; stroke: #228b22; stroke-opacity: 0.940931"/>
    </g>
    <g clip-path="url(#p305ba94d1b)">
     <use xlink:href="#C1_0_cb39e42864" x="240.391367" y="119.024186" style="fill: #228b22; fill-opacity: 0.942711; stroke: #228b22; stroke-opacity: 0.942711"/>
    </g>
    <g clip-path="url(#p305ba94d1b)">
     <use xlink:href="#C1_0_cb39e42864" x="231.779132" y="124.669298" style="fill: #228b22; fill-opacity: 0.945516; stroke: #228b22; stroke-opacity: 0.945516"/>
    </g>
    <g clip-path="url(#p305ba94d1b)">
     <use xlink:href="#C1_0_cb39e42864" x="229.534536" y="127.619955" style="fill: #228b22; fill-opacity: 0.945543; stroke: #228b22; stroke-opacity: 0.945543"/>
    </g>
    <g clip-path="url(#p305ba94d1b)">
     <use xlink:href="#C1_0_cb39e42864" x="240.480754" y="111.506028" style="fill: #228b22; fill-opacity: 0.949986; stroke: #228b22; stroke-opacity: 0.949986"/>
    </g>
    <g clip-path="url(#p305ba94d1b)">
     <use xlink:href="#C1_0_cb39e42864" x="244.625384" y="124.389904" style="fill: #228b22; fill-opacity: 0.957421; stroke: #228b22; stroke-opacity: 0.957421"/>
    </g>
    <g clip-path="url(#p305ba94d1b)">
     <use xlink:href="#C1_0_cb39e42864" x="239.199105" y="123.447229" style="fill: #228b22; fill-opacity: 0.966148; stroke: #228b22; stroke-opacity: 0.966148"/>
    </g>
    <g clip-path="url(#p305ba94d1b)">
     <use xlink:href="#C1_0_cb39e42864" x="235.944852" y="129.626008" style="fill: #228b22; fill-opacity: 0.967727; stroke: #228b22; stroke-opacity: 0.967727"/>
    </g>
    <g clip-path="url(#p305ba94d1b)">
     <use xlink:href="#C1_0_cb39e42864" x="236.947097" y="123.958998" style="fill: #228b22; fill-opacity: 0.968052; stroke: #228b22; stroke-opacity: 0.968052"/>
    </g>
    <g clip-path="url(#p305ba94d1b)">
     <use xlink:href="#C1_0_cb39e42864" x="274.59089" y="203.243881" style="fill: #228b22; fill-opacity: 0.96957; stroke: #228b22; stroke-opacity: 0.96957"/>
    </g>
    <g clip-path="url(#p305ba94d1b)">
     <use xlink:href="#C1_0_cb39e42864" x="237.139078" y="121.600772" style="fill: #228b22; fill-opacity: 0.970844; stroke: #228b22; stroke-opacity: 0.970844"/>
    </g>
    <g clip-path="url(#p305ba94d1b)">
     <use xlink:href="#C1_0_cb39e42864" x="235.952493" y="115.631078" style="fill: #228b22; fill-opacity: 0.97148; stroke: #228b22; stroke-opacity: 0.97148"/>
    </g>
    <g clip-path="url(#p305ba94d1b)">
     <use xlink:href="#C1_0_cb39e42864" x="271.987309" y="192.226092" style="fill: #228b22; fill-opacity: 0.972071; stroke: #228b22; stroke-opacity: 0.972071"/>
    </g>
    <g clip-path="url(#p305ba94d1b)">
     <use xlink:href="#C1_0_cb39e42864" x="276.307275" y="203.629119" style="fill: #228b22; fill-opacity: 0.979495; stroke: #228b22; stroke-opacity: 0.979495"/>
    </g>
    <g clip-path="url(#p305ba94d1b)">
     <use xlink:href="#C1_0_cb39e42864" x="287.382499" y="198.761709" style="fill: #228b22; fill-opacity: 0.984721; stroke: #228b22; stroke-opacity: 0.984721"/>
    </g>
    <g clip-path="url(#p305ba94d1b)">
     <use xlink:href="#C1_0_cb39e42864" x="233.808867" y="123.72931" style="fill: #228b22; stroke: #228b22"/>
    </g>
   </g>
   <g id="legend_1">
    <g id="patch_6">
     <path d="M 254.542562 108.1845 
L 362.216 108.1845 
Q 364.216 108.1845 364.216 106.1845 
L 364.216 48.472 
Q 364.216 46.472 362.216 46.472 
L 254.542562 46.472 
Q 252.542562 46.472 252.542562 48.472 
L 252.542562 106.1845 
Q 252.542562 108.1845 254.542562 108.1845 
z
" style="fill: #ffffff; opacity: 0.8; stroke: #cccccc; stroke-linejoin: miter"/>
    </g>
    <g id="Path3DCollection_4">
     <g>
      <use xlink:href="#m1bb335578f" x="266.542562" y="55.445438" style="stroke: #000000; stroke-width: 1.5"/>
     </g>
    </g>
    <g id="text_22">
     <!-- Origin -->
     <g transform="translate(284.542562 58.070438) scale(0.1 -0.1)">
      <defs>
       <path id="DejaVuSans-4f" d="M 2522 4238 
Q 1834 4238 1429 3725 
Q 1025 3213 1025 2328 
Q 1025 1447 1429 934 
Q 1834 422 2522 422 
Q 3209 422 3611 934 
Q 4013 1447 4013 2328 
Q 4013 3213 3611 3725 
Q 3209 4238 2522 4238 
z
M 2522 4750 
Q 3503 4750 4090 4092 
Q 4678 3434 4678 2328 
Q 4678 1225 4090 567 
Q 3503 -91 2522 -91 
Q 1538 -91 948 565 
Q 359 1222 359 2328 
Q 359 3434 948 4092 
Q 1538 4750 2522 4750 
z
" transform="scale(0.015625)"/>
       <path id="DejaVuSans-72" d="M 2631 2963 
Q 2534 3019 2420 3045 
Q 2306 3072 2169 3072 
Q 1681 3072 1420 2755 
Q 1159 2438 1159 1844 
L 1159 0 
L 581 0 
L 581 3500 
L 1159 3500 
L 1159 2956 
Q 1341 3275 1631 3429 
Q 1922 3584 2338 3584 
Q 2397 3584 2469 3576 
Q 2541 3569 2628 3553 
L 2631 2963 
z
" transform="scale(0.015625)"/>
       <path id="DejaVuSans-69" d="M 603 3500 
L 1178 3500 
L 1178 0 
L 603 0 
L 603 3500 
z
M 603 4863 
L 1178 4863 
L 1178 4134 
L 603 4134 
L 603 4863 
z
" transform="scale(0.015625)"/>
       <path id="DejaVuSans-67" d="M 2906 1791 
Q 2906 2416 2648 2759 
Q 2391 3103 1925 3103 
Q 1463 3103 1205 2759 
Q 947 2416 947 1791 
Q 947 1169 1205 825 
Q 1463 481 1925 481 
Q 2391 481 2648 825 
Q 2906 1169 2906 1791 
z
M 3481 434 
Q 3481 -459 3084 -895 
Q 2688 -1331 1869 -1331 
Q 1566 -1331 1297 -1286 
Q 1028 -1241 775 -1147 
L 775 -588 
Q 1028 -725 1275 -790 
Q 1522 -856 1778 -856 
Q 2344 -856 2625 -561 
Q 2906 -266 2906 331 
L 2906 616 
Q 2728 306 2450 153 
Q 2172 0 1784 0 
Q 1141 0 747 490 
Q 353 981 353 1791 
Q 353 2603 747 3093 
Q 1141 3584 1784 3584 
Q 2172 3584 2450 3431 
Q 2728 3278 2906 2969 
L 2906 3500 
L 3481 3500 
L 3481 434 
z
" transform="scale(0.015625)"/>
       <path id="DejaVuSans-6e" d="M 3513 2113 
L 3513 0 
L 2938 0 
L 2938 2094 
Q 2938 2591 2744 2837 
Q 2550 3084 2163 3084 
Q 1697 3084 1428 2787 
Q 1159 2491 1159 1978 
L 1159 0 
L 581 0 
L 581 3500 
L 1159 3500 
L 1159 2956 
Q 1366 3272 1645 3428 
Q 1925 3584 2291 3584 
Q 2894 3584 3203 3211 
Q 3513 2838 3513 2113 
z
" transform="scale(0.015625)"/>
      </defs>
      <use xlink:href="#DejaVuSans-4f"/>
      <use xlink:href="#DejaVuSans-72" x="78.710938"/>
      <use xlink:href="#DejaVuSans-69" x="119.824219"/>
      <use xlink:href="#DejaVuSans-67" x="147.607422"/>
      <use xlink:href="#DejaVuSans-69" x="211.083984"/>
      <use xlink:href="#DejaVuSans-6e" x="238.867188"/>
     </g>
    </g>
    <g id="Path3DCollection_5">
     <defs>
      <path id="ma582ef16cf" d="M 0 1.118034 
C 0.296506 1.118034 0.580908 1.000231 0.790569 0.790569 
C 1.000231 0.580908 1.118034 0.296506 1.118034 0 
C 1.118034 -0.296506 1.000231 -0.580908 0.790569 -0.790569 
C 0.580908 -1.000231 0.296506 -1.118034 0 -1.118034 
C -0.296506 -1.118034 -0.580908 -1.000231 -0.790569 -0.790569 
C -1.000231 -0.580908 -1.118034 -0.296506 -1.118034 0 
C -1.118034 0.296506 -1.000231 0.580908 -0.790569 0.790569 
C -0.580908 1.000231 -0.296506 1.118034 0 1.118034 
z
" style="stroke: #228b22"/>
     </defs>
     <g>
      <use xlink:href="#ma582ef16cf" x="266.542562" y="70.123563" style="fill: #228b22; stroke: #228b22"/>
     </g>
    </g>
    <g id="text_23">
     <!-- Prior Samples -->
     <g transform="translate(284.542562 72.748563) scale(0.1 -0.1)">
      <defs>
       <path id="DejaVuSans-50" d="M 1259 4147 
L 1259 2394 
L 2053 2394 
Q 2494 2394 2734 2622 
Q 2975 2850 2975 3272 
Q 2975 3691 2734 3919 
Q 2494 4147 2053 4147 
L 1259 4147 
z
M 628 4666 
L 2053 4666 
Q 2838 4666 3239 4311 
Q 3641 3956 3641 3272 
Q 3641 2581 3239 2228 
Q 2838 1875 2053 1875 
L 1259 1875 
L 1259 0 
L 628 0 
L 628 4666 
z
" transform="scale(0.015625)"/>
       <path id="DejaVuSans-6f" d="M 1959 3097 
Q 1497 3097 1228 2736 
Q 959 2375 959 1747 
Q 959 1119 1226 758 
Q 1494 397 1959 397 
Q 2419 397 2687 759 
Q 2956 1122 2956 1747 
Q 2956 2369 2687 2733 
Q 2419 3097 1959 3097 
z
M 1959 3584 
Q 2709 3584 3137 3096 
Q 3566 2609 3566 1747 
Q 3566 888 3137 398 
Q 2709 -91 1959 -91 
Q 1206 -91 779 398 
Q 353 888 353 1747 
Q 353 2609 779 3096 
Q 1206 3584 1959 3584 
z
" transform="scale(0.015625)"/>
       <path id="DejaVuSans-20" transform="scale(0.015625)"/>
       <path id="DejaVuSans-53" d="M 3425 4513 
L 3425 3897 
Q 3066 4069 2747 4153 
Q 2428 4238 2131 4238 
Q 1616 4238 1336 4038 
Q 1056 3838 1056 3469 
Q 1056 3159 1242 3001 
Q 1428 2844 1947 2747 
L 2328 2669 
Q 3034 2534 3370 2195 
Q 3706 1856 3706 1288 
Q 3706 609 3251 259 
Q 2797 -91 1919 -91 
Q 1588 -91 1214 -16 
Q 841 59 441 206 
L 441 856 
Q 825 641 1194 531 
Q 1563 422 1919 422 
Q 2459 422 2753 634 
Q 3047 847 3047 1241 
Q 3047 1584 2836 1778 
Q 2625 1972 2144 2069 
L 1759 2144 
Q 1053 2284 737 2584 
Q 422 2884 422 3419 
Q 422 4038 858 4394 
Q 1294 4750 2059 4750 
Q 2388 4750 2728 4690 
Q 3069 4631 3425 4513 
z
" transform="scale(0.015625)"/>
       <path id="DejaVuSans-61" d="M 2194 1759 
Q 1497 1759 1228 1600 
Q 959 1441 959 1056 
Q 959 750 1161 570 
Q 1363 391 1709 391 
Q 2188 391 2477 730 
Q 2766 1069 2766 1631 
L 2766 1759 
L 2194 1759 
z
M 3341 1997 
L 3341 0 
L 2766 0 
L 2766 531 
Q 2569 213 2275 61 
Q 1981 -91 1556 -91 
Q 1019 -91 701 211 
Q 384 513 384 1019 
Q 384 1609 779 1909 
Q 1175 2209 1959 2209 
L 2766 2209 
L 2766 2266 
Q 2766 2663 2505 2880 
Q 2244 3097 1772 3097 
Q 1472 3097 1187 3025 
Q 903 2953 641 2809 
L 641 3341 
Q 956 3463 1253 3523 
Q 1550 3584 1831 3584 
Q 2591 3584 2966 3190 
Q 3341 2797 3341 1997 
z
" transform="scale(0.015625)"/>
       <path id="DejaVuSans-6d" d="M 3328 2828 
Q 3544 3216 3844 3400 
Q 4144 3584 4550 3584 
Q 5097 3584 5394 3201 
Q 5691 2819 5691 2113 
L 5691 0 
L 5113 0 
L 5113 2094 
Q 5113 2597 4934 2840 
Q 4756 3084 4391 3084 
Q 3944 3084 3684 2787 
Q 3425 2491 3425 1978 
L 3425 0 
L 2847 0 
L 2847 2094 
Q 2847 2600 2669 2842 
Q 2491 3084 2119 3084 
Q 1678 3084 1418 2786 
Q 1159 2488 1159 1978 
L 1159 0 
L 581 0 
L 581 3500 
L 1159 3500 
L 1159 2956 
Q 1356 3278 1631 3431 
Q 1906 3584 2284 3584 
Q 2666 3584 2933 3390 
Q 3200 3197 3328 2828 
z
" transform="scale(0.015625)"/>
       <path id="DejaVuSans-70" d="M 1159 525 
L 1159 -1331 
L 581 -1331 
L 581 3500 
L 1159 3500 
L 1159 2969 
Q 1341 3281 1617 3432 
Q 1894 3584 2278 3584 
Q 2916 3584 3314 3078 
Q 3713 2572 3713 1747 
Q 3713 922 3314 415 
Q 2916 -91 2278 -91 
Q 1894 -91 1617 61 
Q 1341 213 1159 525 
z
M 3116 1747 
Q 3116 2381 2855 2742 
Q 2594 3103 2138 3103 
Q 1681 3103 1420 2742 
Q 1159 2381 1159 1747 
Q 1159 1113 1420 752 
Q 1681 391 2138 391 
Q 2594 391 2855 752 
Q 3116 1113 3116 1747 
z
" transform="scale(0.015625)"/>
       <path id="DejaVuSans-6c" d="M 603 4863 
L 1178 4863 
L 1178 0 
L 603 0 
L 603 4863 
z
" transform="scale(0.015625)"/>
       <path id="DejaVuSans-65" d="M 3597 1894 
L 3597 1613 
L 953 1613 
Q 991 1019 1311 708 
Q 1631 397 2203 397 
Q 2534 397 2845 478 
Q 3156 559 3463 722 
L 3463 178 
Q 3153 47 2828 -22 
Q 2503 -91 2169 -91 
Q 1331 -91 842 396 
Q 353 884 353 1716 
Q 353 2575 817 3079 
Q 1281 3584 2069 3584 
Q 2775 3584 3186 3129 
Q 3597 2675 3597 1894 
z
M 3022 2063 
Q 3016 2534 2758 2815 
Q 2500 3097 2075 3097 
Q 1594 3097 1305 2825 
Q 1016 2553 972 2059 
L 3022 2063 
z
" transform="scale(0.015625)"/>
       <path id="DejaVuSans-73" d="M 2834 3397 
L 2834 2853 
Q 2591 2978 2328 3040 
Q 2066 3103 1784 3103 
Q 1356 3103 1142 2972 
Q 928 2841 928 2578 
Q 928 2378 1081 2264 
Q 1234 2150 1697 2047 
L 1894 2003 
Q 2506 1872 2764 1633 
Q 3022 1394 3022 966 
Q 3022 478 2636 193 
Q 2250 -91 1575 -91 
Q 1294 -91 989 -36 
Q 684 19 347 128 
L 347 722 
Q 666 556 975 473 
Q 1284 391 1588 391 
Q 1994 391 2212 530 
Q 2431 669 2431 922 
Q 2431 1156 2273 1281 
Q 2116 1406 1581 1522 
L 1381 1569 
Q 847 1681 609 1914 
Q 372 2147 372 2553 
Q 372 3047 722 3315 
Q 1072 3584 1716 3584 
Q 2034 3584 2315 3537 
Q 2597 3491 2834 3397 
z
" transform="scale(0.015625)"/>
      </defs>
      <use xlink:href="#DejaVuSans-50"/>
      <use xlink:href="#DejaVuSans-72" x="58.552734"/>
      <use xlink:href="#DejaVuSans-69" x="99.666016"/>
      <use xlink:href="#DejaVuSans-6f" x="127.449219"/>
      <use xlink:href="#DejaVuSans-72" x="188.630859"/>
      <use xlink:href="#DejaVuSans-20" x="229.744141"/>
      <use xlink:href="#DejaVuSans-53" x="261.53125"/>
      <use xlink:href="#DejaVuSans-61" x="325.007812"/>
      <use xlink:href="#DejaVuSans-6d" x="386.287109"/>
      <use xlink:href="#DejaVuSans-70" x="483.699219"/>
      <use xlink:href="#DejaVuSans-6c" x="547.175781"/>
      <use xlink:href="#DejaVuSans-65" x="574.958984"/>
      <use xlink:href="#DejaVuSans-73" x="636.482422"/>
     </g>
    </g>
    <g id="Path3DCollection_6">
     <defs>
      <path id="m2f8021f187" d="M 0 -2.236068 
L -0.502029 -0.690983 
L -2.126627 -0.690983 
L -0.812299 0.263932 
L -1.314328 1.809017 
L -0 0.854102 
L 1.314328 1.809017 
L 0.812299 0.263932 
L 2.126627 -0.690983 
L 0.502029 -0.690983 
z
" style="stroke: #ff0000; stroke-width: 4"/>
     </defs>
     <g>
      <use xlink:href="#m2f8021f187" x="266.542562" y="84.801688" style="fill: #ff0000; stroke: #ff0000; stroke-width: 4"/>
     </g>
    </g>
    <g id="text_24">
     <!-- True Signal -->
     <g transform="translate(284.542562 87.426688) scale(0.1 -0.1)">
      <defs>
       <path id="DejaVuSans-54" d="M -19 4666 
L 3928 4666 
L 3928 4134 
L 2272 4134 
L 2272 0 
L 1638 0 
L 1638 4134 
L -19 4134 
L -19 4666 
z
" transform="scale(0.015625)"/>
       <path id="DejaVuSans-75" d="M 544 1381 
L 544 3500 
L 1119 3500 
L 1119 1403 
Q 1119 906 1312 657 
Q 1506 409 1894 409 
Q 2359 409 2629 706 
Q 2900 1003 2900 1516 
L 2900 3500 
L 3475 3500 
L 3475 0 
L 2900 0 
L 2900 538 
Q 2691 219 2414 64 
Q 2138 -91 1772 -91 
Q 1169 -91 856 284 
Q 544 659 544 1381 
z
M 1991 3584 
L 1991 3584 
z
" transform="scale(0.015625)"/>
      </defs>
      <use xlink:href="#DejaVuSans-54"/>
      <use xlink:href="#DejaVuSans-72" x="46.333984"/>
      <use xlink:href="#DejaVuSans-75" x="87.447266"/>
      <use xlink:href="#DejaVuSans-65" x="150.826172"/>
      <use xlink:href="#DejaVuSans-20" x="212.349609"/>
      <use xlink:href="#DejaVuSans-53" x="244.136719"/>
      <use xlink:href="#DejaVuSans-69" x="307.613281"/>
      <use xlink:href="#DejaVuSans-67" x="335.396484"/>
      <use xlink:href="#DejaVuSans-6e" x="398.873047"/>
      <use xlink:href="#DejaVuSans-61" x="462.251953"/>
      <use xlink:href="#DejaVuSans-6c" x="523.53125"/>
     </g>
    </g>
    <g id="line2d_24">
     <path d="M 256.542562 98.604813 
L 266.542562 98.604813 
L 276.542562 98.604813 
" style="fill: none; stroke-dasharray: 1.5,2.475; stroke-dashoffset: 0; stroke: #ff0000; stroke-width: 1.5"/>
    </g>
    <g id="text_25">
     <!-- Phase Manifold -->
     <g transform="translate(284.542562 102.104813) scale(0.1 -0.1)">
      <defs>
       <path id="DejaVuSans-68" d="M 3513 2113 
L 3513 0 
L 2938 0 
L 2938 2094 
Q 2938 2591 2744 2837 
Q 2550 3084 2163 3084 
Q 1697 3084 1428 2787 
Q 1159 2491 1159 1978 
L 1159 0 
L 581 0 
L 581 4863 
L 1159 4863 
L 1159 2956 
Q 1366 3272 1645 3428 
Q 1925 3584 2291 3584 
Q 2894 3584 3203 3211 
Q 3513 2838 3513 2113 
z
" transform="scale(0.015625)"/>
       <path id="DejaVuSans-4d" d="M 628 4666 
L 1569 4666 
L 2759 1491 
L 3956 4666 
L 4897 4666 
L 4897 0 
L 4281 0 
L 4281 4097 
L 3078 897 
L 2444 897 
L 1241 4097 
L 1241 0 
L 628 0 
L 628 4666 
z
" transform="scale(0.015625)"/>
       <path id="DejaVuSans-66" d="M 2375 4863 
L 2375 4384 
L 1825 4384 
Q 1516 4384 1395 4259 
Q 1275 4134 1275 3809 
L 1275 3500 
L 2222 3500 
L 2222 3053 
L 1275 3053 
L 1275 0 
L 697 0 
L 697 3053 
L 147 3053 
L 147 3500 
L 697 3500 
L 697 3744 
Q 697 4328 969 4595 
Q 1241 4863 1831 4863 
L 2375 4863 
z
" transform="scale(0.015625)"/>
       <path id="DejaVuSans-64" d="M 2906 2969 
L 2906 4863 
L 3481 4863 
L 3481 0 
L 2906 0 
L 2906 525 
Q 2725 213 2448 61 
Q 2172 -91 1784 -91 
Q 1150 -91 751 415 
Q 353 922 353 1747 
Q 353 2572 751 3078 
Q 1150 3584 1784 3584 
Q 2172 3584 2448 3432 
Q 2725 3281 2906 2969 
z
M 947 1747 
Q 947 1113 1208 752 
Q 1469 391 1925 391 
Q 2381 391 2643 752 
Q 2906 1113 2906 1747 
Q 2906 2381 2643 2742 
Q 2381 3103 1925 3103 
Q 1469 3103 1208 2742 
Q 947 2381 947 1747 
z
" transform="scale(0.015625)"/>
      </defs>
      <use xlink:href="#DejaVuSans-50"/>
      <use xlink:href="#DejaVuSans-68" x="60.302734"/>
      <use xlink:href="#DejaVuSans-61" x="123.681641"/>
      <use xlink:href="#DejaVuSans-73" x="184.960938"/>
      <use xlink:href="#DejaVuSans-65" x="237.060547"/>
      <use xlink:href="#DejaVuSans-20" x="298.583984"/>
      <use xlink:href="#DejaVuSans-4d" x="330.371094"/>
      <use xlink:href="#DejaVuSans-61" x="416.650391"/>
      <use xlink:href="#DejaVuSans-6e" x="477.929688"/>
      <use xlink:href="#DejaVuSans-69" x="541.308594"/>
      <use xlink:href="#DejaVuSans-66" x="569.091797"/>
      <use xlink:href="#DejaVuSans-6f" x="604.296875"/>
      <use xlink:href="#DejaVuSans-6c" x="665.478516"/>
      <use xlink:href="#DejaVuSans-64" x="693.261719"/>
     </g>
    </g>
   </g>
  </g>
 </g>
 <defs>
  <clipPath id="p305ba94d1b">
   <rect x="103.104" y="41.472" width="266.112" height="266.112"/>
  </clipPath>
 </defs>
</svg>
