<?xml version="1.0" encoding="utf-8" standalone="no"?>
<!DOCTYPE svg PUBLIC "-//W3C//DTD SVG 1.1//EN"
  "http://www.w3.org/Graphics/SVG/1.1/DTD/svg11.dtd">
<svg xmlns:xlink="http://www.w3.org/1999/xlink" width="460.8pt" height="345.6pt" viewBox="0 0 460.8 345.6" xmlns="http://www.w3.org/2000/svg" version="1.1">
 <metadata>
  <rdf:RDF xmlns:dc="http://purl.org/dc/elements/1.1/" xmlns:cc="http://creativecommons.org/ns#" xmlns:rdf="http://www.w3.org/1999/02/22-rdf-syntax-ns#">
   <cc:Work>
    <dc:type rdf:resource="http://purl.org/dc/dcmitype/StillImage"/>
    <dc:date>2025-06-05T08:33:55.941919</dc:date>
    <dc:format>image/svg+xml</dc:format>
    <dc:creator>
     <cc:Agent>
      <dc:title>Matplotlib v3.9.2, https://matplotlib.org/</dc:title>
     </cc:Agent>
    </dc:creator>
   </cc:Work>
  </rdf:RDF>
 </metadata>
 <defs>
  <style type="text/css">*{stroke-linejoin: round; stroke-linecap: butt}</style>
 </defs>
 <g id="figure_1">
  <g id="patch_1">
   <path d="M 0 345.6 
L 460.8 345.6 
L 460.8 0 
L 0 0 
z
" style="fill: #ffffff"/>
  </g>
  <g id="patch_2">
   <path d="M 103.104 307.584 
L 369.216 307.584 
L 369.216 41.472 
L 103.104 41.472 
z
" style="fill: #ffffff"/>
  </g>
  <g id="pane3d_1">
   <g id="patch_3">
    <path d="M 239.755473 172.332128 
L 347.705805 234.335996 
L 354.80765 103.357353 
L 239.755433 45.579073 
" style="fill: #f2f2f2; opacity: 0.5; stroke: #f2f2f2; stroke-linejoin: miter"/>
   </g>
  </g>
  <g id="pane3d_2">
   <g id="patch_4">
    <path d="M 239.755473 172.332128 
L 131.806494 234.335174 
L 124.70466 103.356584 
L 239.755433 45.579073 
" style="fill: #e6e6e6; opacity: 0.5; stroke: #e6e6e6; stroke-linejoin: miter"/>
   </g>
  </g>
  <g id="pane3d_3">
   <g id="patch_5">
    <path d="M 239.755473 172.332128 
L 131.806494 234.335174 
L 239.756827 304.461598 
L 347.705805 234.335996 
" style="fill: #ececec; opacity: 0.5; stroke: #ececec; stroke-linejoin: miter"/>
   </g>
  </g>
  <g id="grid3d_1">
   <g id="Line3DCollection_1">
    <path d="M 332.255478 244.372807 
L 224.254952 181.235218 
L 223.288888 53.848431 
" style="fill: none; stroke: #b0b0b0; stroke-width: 0.8"/>
    <path d="M 315.341655 255.360331 
L 207.305457 190.970561 
L 205.262496 62.90113 
" style="fill: none; stroke: #b0b0b0; stroke-width: 0.8"/>
    <path d="M 298.080355 266.573583 
L 190.028491 200.893995 
L 186.865676 72.139855 
" style="fill: none; stroke: #b0b0b0; stroke-width: 0.8"/>
    <path d="M 280.460761 278.019589 
L 172.41447 211.011024 
L 168.08689 81.5704 
" style="fill: none; stroke: #b0b0b0; stroke-width: 0.8"/>
    <path d="M 262.471598 289.705673 
L 154.453434 221.327369 
L 148.914118 91.198802 
" style="fill: none; stroke: #b0b0b0; stroke-width: 0.8"/>
    <path d="M 244.101118 301.639469 
L 136.135026 231.848979 
L 129.334829 101.031353 
" style="fill: none; stroke: #b0b0b0; stroke-width: 0.8"/>
   </g>
  </g>
  <g id="grid3d_2">
   <g id="Line3DCollection_2">
    <path d="M 256.222054 53.848475 
L 255.256064 181.235265 
L 147.256892 244.372022 
" style="fill: none; stroke: #b0b0b0; stroke-width: 0.8"/>
    <path d="M 274.248433 62.901175 
L 272.205548 190.970609 
L 164.170704 255.359531 
" style="fill: none; stroke: #b0b0b0; stroke-width: 0.8"/>
    <path d="M 292.645241 72.139901 
L 289.482504 200.894044 
L 181.431993 266.572766 
" style="fill: none; stroke: #b0b0b0; stroke-width: 0.8"/>
    <path d="M 311.424014 81.570447 
L 307.096514 211.011074 
L 199.051575 278.018755 
" style="fill: none; stroke: #b0b0b0; stroke-width: 0.8"/>
    <path d="M 330.596774 91.19885 
L 325.057539 221.32742 
L 217.040725 289.704821 
" style="fill: none; stroke: #b0b0b0; stroke-width: 0.8"/>
    <path d="M 350.17605 101.031402 
L 343.375935 231.849031 
L 235.411193 301.638599 
" style="fill: none; stroke: #b0b0b0; stroke-width: 0.8"/>
   </g>
  </g>
  <g id="grid3d_3">
   <g id="Line3DCollection_3">
    <path d="M 130.798333 215.741728 
L 239.755467 154.279738 
L 348.713968 215.742544 
" style="fill: none; stroke: #b0b0b0; stroke-width: 0.8"/>
    <path d="M 129.701461 195.512198 
L 239.755461 134.661028 
L 349.810842 195.513006 
" style="fill: none; stroke: #b0b0b0; stroke-width: 0.8"/>
    <path d="M 128.58228 174.871226 
L 239.755455 114.667058 
L 350.930025 174.872026 
" style="fill: none; stroke: #b0b0b0; stroke-width: 0.8"/>
    <path d="M 127.440102 153.806133 
L 239.755449 94.286956 
L 352.072204 153.806924 
" style="fill: none; stroke: #b0b0b0; stroke-width: 0.8"/>
    <path d="M 126.274212 132.303709 
L 239.755442 73.509429 
L 353.238096 132.304491 
" style="fill: none; stroke: #b0b0b0; stroke-width: 0.8"/>
    <path d="M 125.083863 110.350193 
L 239.755436 52.322737 
L 354.428447 110.350965 
" style="fill: none; stroke: #b0b0b0; stroke-width: 0.8"/>
   </g>
  </g>
  <g id="axis3d_1">
   <g id="line2d_1">
    <path d="M 347.705805 234.335996 
L 239.756827 304.461598 
" style="fill: none; stroke: #000000; stroke-width: 0.8; stroke-linecap: square"/>
   </g>
   <g id="xtick_1">
    <g id="line2d_2">
     <path d="M 331.338317 243.83663 
L 334.092535 245.446759 
" style="fill: none; stroke: #000000; stroke-width: 0.8; stroke-linecap: square"/>
    </g>
    <g id="text_1">
     <!-- −1.0 -->
     <g transform="translate(329.152812 267.775174) scale(0.1 -0.1)">
      <defs>
       <path id="DejaVuSans-2212" d="M 678 2272 
L 4684 2272 
L 4684 1741 
L 678 1741 
L 678 2272 
z
" transform="scale(0.015625)"/>
       <path id="DejaVuSans-31" d="M 794 531 
L 1825 531 
L 1825 4091 
L 703 3866 
L 703 4441 
L 1819 4666 
L 2450 4666 
L 2450 531 
L 3481 531 
L 3481 0 
L 794 0 
L 794 531 
z
" transform="scale(0.015625)"/>
       <path id="DejaVuSans-2e" d="M 684 794 
L 1344 794 
L 1344 0 
L 684 0 
L 684 794 
z
" transform="scale(0.015625)"/>
       <path id="DejaVuSans-30" d="M 2034 4250 
Q 1547 4250 1301 3770 
Q 1056 3291 1056 2328 
Q 1056 1369 1301 889 
Q 1547 409 2034 409 
Q 2525 409 2770 889 
Q 3016 1369 3016 2328 
Q 3016 3291 2770 3770 
Q 2525 4250 2034 4250 
z
M 2034 4750 
Q 2819 4750 3233 4129 
Q 3647 3509 3647 2328 
Q 3647 1150 3233 529 
Q 2819 -91 2034 -91 
Q 1250 -91 836 529 
Q 422 1150 422 2328 
Q 422 3509 836 4129 
Q 1250 4750 2034 4750 
z
" transform="scale(0.015625)"/>
      </defs>
      <use xlink:href="#DejaVuSans-2212"/>
      <use xlink:href="#DejaVuSans-31" x="83.789062"/>
      <use xlink:href="#DejaVuSans-2e" x="147.412109"/>
      <use xlink:href="#DejaVuSans-30" x="179.199219"/>
     </g>
    </g>
   </g>
   <g id="xtick_2">
    <g id="line2d_3">
     <path d="M 314.42365 254.813199 
L 317.180429 256.456244 
" style="fill: none; stroke: #000000; stroke-width: 0.8; stroke-linecap: square"/>
    </g>
    <g id="text_2">
     <!-- −0.5 -->
     <g transform="translate(312.33125 278.923147) scale(0.1 -0.1)">
      <defs>
       <path id="DejaVuSans-35" d="M 691 4666 
L 3169 4666 
L 3169 4134 
L 1269 4134 
L 1269 2991 
Q 1406 3038 1543 3061 
Q 1681 3084 1819 3084 
Q 2600 3084 3056 2656 
Q 3513 2228 3513 1497 
Q 3513 744 3044 326 
Q 2575 -91 1722 -91 
Q 1428 -91 1123 -41 
Q 819 9 494 109 
L 494 744 
Q 775 591 1075 516 
Q 1375 441 1709 441 
Q 2250 441 2565 725 
Q 2881 1009 2881 1497 
Q 2881 1984 2565 2268 
Q 2250 2553 1709 2553 
Q 1456 2553 1204 2497 
Q 953 2441 691 2322 
L 691 4666 
z
" transform="scale(0.015625)"/>
      </defs>
      <use xlink:href="#DejaVuSans-2212"/>
      <use xlink:href="#DejaVuSans-30" x="83.789062"/>
      <use xlink:href="#DejaVuSans-2e" x="147.412109"/>
      <use xlink:href="#DejaVuSans-35" x="179.199219"/>
     </g>
    </g>
   </g>
   <g id="xtick_3">
    <g id="line2d_4">
     <path d="M 297.161666 266.015155 
L 299.920529 267.692137 
" style="fill: none; stroke: #000000; stroke-width: 0.8; stroke-linecap: square"/>
    </g>
    <g id="text_3">
     <!-- 0.0 -->
     <g transform="translate(299.353959 290.300138) scale(0.1 -0.1)">
      <use xlink:href="#DejaVuSans-30"/>
      <use xlink:href="#DejaVuSans-2e" x="63.623047"/>
      <use xlink:href="#DejaVuSans-30" x="95.410156"/>
     </g>
    </g>
   </g>
   <g id="xtick_4">
    <g id="line2d_5">
     <path d="M 279.541556 277.449513 
L 282.301996 279.161494 
" style="fill: none; stroke: #000000; stroke-width: 0.8; stroke-linecap: square"/>
    </g>
    <g id="text_4">
     <!-- 0.5 -->
     <g transform="translate(281.830491 301.913277) scale(0.1 -0.1)">
      <use xlink:href="#DejaVuSans-30"/>
      <use xlink:href="#DejaVuSans-2e" x="63.623047"/>
      <use xlink:href="#DejaVuSans-35" x="95.410156"/>
     </g>
    </g>
   </g>
   <g id="xtick_5">
    <g id="line2d_6">
     <path d="M 261.552058 289.12358 
L 264.313535 290.871667 
" style="fill: none; stroke: #000000; stroke-width: 0.8; stroke-linecap: square"/>
    </g>
    <g id="text_5">
     <!-- 1.0 -->
     <g transform="translate(263.93948 313.769995) scale(0.1 -0.1)">
      <use xlink:href="#DejaVuSans-31"/>
      <use xlink:href="#DejaVuSans-2e" x="63.623047"/>
      <use xlink:href="#DejaVuSans-30" x="95.410156"/>
     </g>
    </g>
   </g>
   <g id="xtick_6">
    <g id="line2d_7">
     <path d="M 243.181434 301.044975 
L 245.943372 302.830322 
" style="fill: none; stroke: #000000; stroke-width: 0.8; stroke-linecap: square"/>
    </g>
    <g id="text_6">
     <!-- 1.5 -->
     <g transform="translate(245.669239 325.878035) scale(0.1 -0.1)">
      <use xlink:href="#DejaVuSans-31"/>
      <use xlink:href="#DejaVuSans-2e" x="63.623047"/>
      <use xlink:href="#DejaVuSans-35" x="95.410156"/>
     </g>
    </g>
   </g>
   <g id="text_7">
    <!-- x -->
    <g transform="translate(312.569038 306.160893) scale(0.1 -0.1)">
     <defs>
      <path id="DejaVuSans-78" d="M 3513 3500 
L 2247 1797 
L 3578 0 
L 2900 0 
L 1881 1375 
L 863 0 
L 184 0 
L 1544 1831 
L 300 3500 
L 978 3500 
L 1906 2253 
L 2834 3500 
L 3513 3500 
z
" transform="scale(0.015625)"/>
     </defs>
     <use xlink:href="#DejaVuSans-78"/>
    </g>
   </g>
  </g>
  <g id="axis3d_2">
   <g id="line2d_8">
    <path d="M 131.806494 234.335174 
L 239.756827 304.461598 
" style="fill: none; stroke: #000000; stroke-width: 0.8; stroke-linecap: square"/>
   </g>
   <g id="xtick_7">
    <g id="line2d_9">
     <path d="M 148.174041 243.835853 
L 145.41986 245.445959 
" style="fill: none; stroke: #000000; stroke-width: 0.8; stroke-linecap: square"/>
    </g>
    <g id="text_8">
     <!-- −1.0 -->
     <g transform="translate(126.076872 267.774308) scale(0.1 -0.1)">
      <use xlink:href="#DejaVuSans-2212"/>
      <use xlink:href="#DejaVuSans-31" x="83.789062"/>
      <use xlink:href="#DejaVuSans-2e" x="147.412109"/>
      <use xlink:href="#DejaVuSans-30" x="179.199219"/>
     </g>
    </g>
   </g>
   <g id="xtick_8">
    <g id="line2d_10">
     <path d="M 165.088697 254.812406 
L 162.331955 256.455428 
" style="fill: none; stroke: #000000; stroke-width: 0.8; stroke-linecap: square"/>
    </g>
    <g id="text_9">
     <!-- −0.5 -->
     <g transform="translate(142.898423 278.922263) scale(0.1 -0.1)">
      <use xlink:href="#DejaVuSans-2212"/>
      <use xlink:href="#DejaVuSans-30" x="83.789062"/>
      <use xlink:href="#DejaVuSans-2e" x="147.412109"/>
      <use xlink:href="#DejaVuSans-35" x="179.199219"/>
     </g>
    </g>
   </g>
   <g id="xtick_9">
    <g id="line2d_11">
     <path d="M 182.35067 266.014346 
L 179.591843 267.691304 
" style="fill: none; stroke: #000000; stroke-width: 0.8; stroke-linecap: square"/>
    </g>
    <g id="text_10">
     <!-- 0.0 -->
     <g transform="translate(164.255391 290.299235) scale(0.1 -0.1)">
      <use xlink:href="#DejaVuSans-30"/>
      <use xlink:href="#DejaVuSans-2e" x="63.623047"/>
      <use xlink:href="#DejaVuSans-30" x="95.410156"/>
     </g>
    </g>
   </g>
   <g id="xtick_10">
    <g id="line2d_12">
     <path d="M 199.970768 277.448687 
L 197.210364 279.160643 
" style="fill: none; stroke: #000000; stroke-width: 0.8; stroke-linecap: square"/>
    </g>
    <g id="text_11">
     <!-- 0.5 -->
     <g transform="translate(181.778847 301.912356) scale(0.1 -0.1)">
      <use xlink:href="#DejaVuSans-30"/>
      <use xlink:href="#DejaVuSans-2e" x="63.623047"/>
      <use xlink:href="#DejaVuSans-35" x="95.410156"/>
     </g>
    </g>
   </g>
   <g id="xtick_11">
    <g id="line2d_13">
     <path d="M 217.960253 289.122737 
L 215.198813 290.870799 
" style="fill: none; stroke: #000000; stroke-width: 0.8; stroke-linecap: square"/>
    </g>
    <g id="text_12">
     <!-- 1.0 -->
     <g transform="translate(199.669846 313.769054) scale(0.1 -0.1)">
      <use xlink:href="#DejaVuSans-31"/>
      <use xlink:href="#DejaVuSans-2e" x="63.623047"/>
      <use xlink:href="#DejaVuSans-30" x="95.410156"/>
     </g>
    </g>
   </g>
   <g id="xtick_12">
    <g id="line2d_14">
     <path d="M 236.330864 301.044114 
L 233.568964 302.829436 
" style="fill: none; stroke: #000000; stroke-width: 0.8; stroke-linecap: square"/>
    </g>
    <g id="text_13">
     <!-- 1.5 -->
     <g transform="translate(217.940074 325.877074) scale(0.1 -0.1)">
      <use xlink:href="#DejaVuSans-31"/>
      <use xlink:href="#DejaVuSans-2e" x="63.623047"/>
      <use xlink:href="#DejaVuSans-35" x="95.410156"/>
     </g>
    </g>
   </g>
   <g id="text_14">
    <!-- y -->
    <g transform="translate(161.025416 306.160278) scale(0.1 -0.1)">
     <defs>
      <path id="DejaVuSans-79" d="M 2059 -325 
Q 1816 -950 1584 -1140 
Q 1353 -1331 966 -1331 
L 506 -1331 
L 506 -850 
L 844 -850 
Q 1081 -850 1212 -737 
Q 1344 -625 1503 -206 
L 1606 56 
L 191 3500 
L 800 3500 
L 1894 763 
L 2988 3500 
L 3597 3500 
L 2059 -325 
z
" transform="scale(0.015625)"/>
     </defs>
     <use xlink:href="#DejaVuSans-79"/>
    </g>
   </g>
  </g>
  <g id="axis3d_3">
   <g id="line2d_15">
    <path d="M 131.806494 234.335174 
L 124.70466 103.356584 
" style="fill: none; stroke: #000000; stroke-width: 0.8; stroke-linecap: square"/>
   </g>
   <g id="xtick_13">
    <g id="line2d_16">
     <path d="M 131.723615 215.219783 
L 128.94501 216.787175 
" style="fill: none; stroke: #000000; stroke-width: 0.8; stroke-linecap: square"/>
    </g>
    <g id="text_15">
     <!-- −1.0 -->
     <g transform="translate(100.575919 223.340098) scale(0.1 -0.1)">
      <use xlink:href="#DejaVuSans-2212"/>
      <use xlink:href="#DejaVuSans-31" x="83.789062"/>
      <use xlink:href="#DejaVuSans-2e" x="147.412109"/>
      <use xlink:href="#DejaVuSans-30" x="179.199219"/>
     </g>
    </g>
   </g>
   <g id="xtick_14">
    <g id="line2d_17">
     <path d="M 130.636603 194.995138 
L 127.828361 196.547874 
" style="fill: none; stroke: #000000; stroke-width: 0.8; stroke-linecap: square"/>
    </g>
    <g id="text_16">
     <!-- −0.5 -->
     <g transform="translate(99.297026 203.110568) scale(0.1 -0.1)">
      <use xlink:href="#DejaVuSans-2212"/>
      <use xlink:href="#DejaVuSans-30" x="83.789062"/>
      <use xlink:href="#DejaVuSans-2e" x="147.412109"/>
      <use xlink:href="#DejaVuSans-35" x="179.199219"/>
     </g>
    </g>
   </g>
   <g id="xtick_15">
    <g id="line2d_18">
     <path d="M 129.527493 174.35936 
L 126.688977 175.896516 
" style="fill: none; stroke: #000000; stroke-width: 0.8; stroke-linecap: square"/>
    </g>
    <g id="text_17">
     <!-- 0.0 -->
     <g transform="translate(102.181966 182.469597) scale(0.1 -0.1)">
      <use xlink:href="#DejaVuSans-30"/>
      <use xlink:href="#DejaVuSans-2e" x="63.623047"/>
      <use xlink:href="#DejaVuSans-30" x="95.410156"/>
     </g>
    </g>
   </g>
   <g id="xtick_16">
    <g id="line2d_19">
     <path d="M 128.395606 153.299783 
L 125.526158 154.820387 
" style="fill: none; stroke: #000000; stroke-width: 0.8; stroke-linecap: square"/>
    </g>
    <g id="text_18">
     <!-- 0.5 -->
     <g transform="translate(100.85025 161.404504) scale(0.1 -0.1)">
      <use xlink:href="#DejaVuSans-30"/>
      <use xlink:href="#DejaVuSans-2e" x="63.623047"/>
      <use xlink:href="#DejaVuSans-35" x="95.410156"/>
     </g>
    </g>
   </g>
   <g id="xtick_17">
    <g id="line2d_20">
     <path d="M 127.240232 131.803217 
L 124.339173 133.306246 
" style="fill: none; stroke: #000000; stroke-width: 0.8; stroke-linecap: square"/>
    </g>
    <g id="text_19">
     <!-- 1.0 -->
     <g transform="translate(99.490886 139.902081) scale(0.1 -0.1)">
      <use xlink:href="#DejaVuSans-31"/>
      <use xlink:href="#DejaVuSans-2e" x="63.623047"/>
      <use xlink:href="#DejaVuSans-30" x="95.410156"/>
     </g>
    </g>
   </g>
   <g id="xtick_18">
    <g id="line2d_21">
     <path d="M 126.060632 109.855917 
L 123.127261 111.340295 
" style="fill: none; stroke: #000000; stroke-width: 0.8; stroke-linecap: square"/>
    </g>
    <g id="text_20">
     <!-- 1.5 -->
     <g transform="translate(98.103005 117.948566) scale(0.1 -0.1)">
      <use xlink:href="#DejaVuSans-31"/>
      <use xlink:href="#DejaVuSans-2e" x="63.623047"/>
      <use xlink:href="#DejaVuSans-35" x="95.410156"/>
     </g>
    </g>
   </g>
   <g id="text_21">
    <!-- z -->
    <g transform="translate(85.561404 173.690724) scale(0.1 -0.1)">
     <defs>
      <path id="DejaVuSans-7a" d="M 353 3500 
L 3084 3500 
L 3084 2975 
L 922 459 
L 3084 459 
L 3084 0 
L 275 0 
L 275 525 
L 2438 3041 
L 353 3041 
L 353 3500 
z
" transform="scale(0.015625)"/>
     </defs>
     <use xlink:href="#DejaVuSans-7a"/>
    </g>
   </g>
  </g>
  <g id="axes_1">
   <g id="line2d_22">
    <path d="M 239.755488 117.469125 
L 236.322907 117.578069 
L 232.904141 117.904463 
L 229.512948 118.446994 
L 226.162978 119.203479 
L 222.867713 120.170876 
L 219.640417 121.345293 
L 216.494078 122.722006 
L 213.441361 124.295475 
L 210.494555 126.059372 
L 207.665521 128.0066 
L 204.965649 130.129324 
L 202.405809 132.419004 
L 199.996307 134.866428 
L 197.746845 137.461747 
L 195.666483 140.194518 
L 193.7636 143.053744 
L 192.045859 146.027918 
L 190.520182 149.105071 
L 189.192715 152.272817 
L 188.06881 155.518407 
L 187.152998 158.828775 
L 186.448971 162.190597 
L 185.959572 165.590336 
L 185.686778 169.014307 
L 185.631694 172.448723 
L 185.794549 175.879755 
L 186.174695 179.293587 
L 186.770607 182.676471 
L 187.579894 186.014783 
L 188.599301 189.295078 
L 189.824731 192.504142 
L 191.251254 195.62905 
L 192.873131 198.657213 
L 194.683835 201.576432 
L 196.676078 204.374946 
L 198.84184 207.04148 
L 201.172402 209.565289 
L 203.658381 211.936205 
L 206.289765 214.144672 
L 209.055958 216.181792 
L 211.945819 218.039354 
L 214.94771 219.709874 
L 218.049537 221.186617 
L 221.238808 222.463633 
L 224.502675 223.535774 
L 227.82799 224.398719 
L 231.201357 225.048989 
L 234.609185 225.483965 
L 238.037747 225.701892 
L 241.473228 225.701892 
L 244.90179 225.483965 
L 248.309618 225.048989 
L 251.682985 224.398719 
L 255.0083 223.535774 
L 258.272167 222.463633 
L 261.461438 221.186617 
L 264.563266 219.709874 
L 267.565156 218.039354 
L 270.455017 216.181792 
L 273.22121 214.144672 
L 275.852594 211.936205 
L 278.338573 209.565289 
L 280.669135 207.04148 
L 282.834898 204.374946 
L 284.827141 201.576432 
L 286.637844 198.657213 
L 288.259721 195.62905 
L 289.686244 192.504142 
L 290.911674 189.295078 
L 291.931082 186.014783 
L 292.740368 182.676471 
L 293.33628 179.293587 
L 293.716426 175.879755 
L 293.879281 172.448723 
L 293.824197 169.014307 
L 293.551403 165.590336 
L 293.062004 162.190597 
L 292.357978 158.828775 
L 291.442165 155.518407 
L 290.31826 152.272817 
L 288.990794 149.105071 
L 287.465117 146.027918 
L 285.747376 143.053744 
L 283.844492 140.194518 
L 281.76413 137.461747 
L 279.514669 134.866428 
L 277.105167 132.419004 
L 274.545326 130.129324 
L 271.845454 128.0066 
L 269.016421 126.059372 
L 266.069614 124.295475 
L 263.016898 122.722006 
L 259.870559 121.345293 
L 256.643262 120.170876 
L 253.347997 119.203479 
L 249.998027 118.446994 
L 246.606835 117.904463 
L 243.188069 117.578069 
L 239.755488 117.469125 
" clip-path="url(#p27a1ab358a)" style="fill: none; stroke-dasharray: 1.5,2.475; stroke-dashoffset: 0; stroke: #ff0000; stroke-width: 1.5"/>
   </g>
   <g id="line2d_23">
    <path d="M 239.755519 120.505452 
L 236.496355 120.608893 
L 233.250308 120.9188 
L 230.030443 121.433926 
L 226.849718 122.1522 
L 223.720936 123.070732 
L 220.65669 124.185825 
L 217.669314 125.492996 
L 214.770832 126.986984 
L 211.972911 128.661779 
L 209.286816 130.510643 
L 206.723359 132.526137 
L 204.292862 134.700152 
L 202.00511 137.02394 
L 199.869316 139.48815 
L 197.89408 142.082867 
L 196.087358 144.797647 
L 194.456427 147.621567 
L 193.007858 150.543259 
L 191.747487 153.550965 
L 190.680394 156.632579 
L 189.810881 159.775695 
L 189.142454 162.967661 
L 188.67781 166.195626 
L 188.418828 169.446594 
L 188.366556 172.707476 
L 188.52121 175.965142 
L 188.882175 179.206473 
L 189.448003 182.418417 
L 190.216421 185.588037 
L 191.184342 188.702569 
L 192.347873 191.749467 
L 193.702334 194.716457 
L 195.242275 197.59159 
L 196.961498 200.363281 
L 198.853084 203.020365 
L 200.909418 205.552136 
L 203.122221 207.948394 
L 205.482585 210.199483 
L 207.981003 212.296333 
L 210.607414 214.230494 
L 213.351242 215.994172 
L 216.201435 217.580259 
L 219.146512 218.982363 
L 222.174612 220.194834 
L 225.273537 221.212786 
L 228.430802 222.032114 
L 231.633689 222.649517 
L 234.869296 223.062507 
L 238.124588 223.269419 
L 241.38645 223.269419 
L 244.641741 223.062507 
L 247.877348 222.649517 
L 251.080236 222.032114 
L 254.237501 221.212786 
L 257.336426 220.194834 
L 260.364525 218.982363 
L 263.309603 217.580259 
L 266.159796 215.994172 
L 268.903624 214.230494 
L 271.530035 212.296333 
L 274.028453 210.199483 
L 276.388816 207.948394 
L 278.60162 205.552136 
L 280.657954 203.020365 
L 282.54954 200.363281 
L 284.268763 197.59159 
L 285.808704 194.716457 
L 287.163165 191.749467 
L 288.326696 188.702569 
L 289.294617 185.588037 
L 290.063035 182.418417 
L 290.628863 179.206473 
L 290.989828 175.965142 
L 291.144482 172.707476 
L 291.09221 169.446594 
L 290.833228 166.195626 
L 290.368584 162.967661 
L 289.700158 159.775695 
L 288.830644 156.632579 
L 287.763551 153.550965 
L 286.50318 150.543259 
L 285.054611 147.621567 
L 283.42368 144.797647 
L 281.616958 142.082867 
L 279.641722 139.48815 
L 277.505928 137.02394 
L 275.218176 134.700152 
L 272.787679 132.526137 
L 270.224222 130.510643 
L 267.538127 128.661779 
L 264.740207 126.986984 
L 261.841724 125.492996 
L 258.854348 124.185825 
L 255.790102 123.070732 
L 252.66132 122.1522 
L 249.480595 121.433926 
L 246.26073 120.9188 
L 243.014683 120.608893 
L 239.755519 120.505452 
" clip-path="url(#p27a1ab358a)" style="fill: none; stroke-dasharray: 1.5,2.475; stroke-dashoffset: 0; stroke: #ff0000; stroke-width: 1.5"/>
   </g>
   <g id="Path3DCollection_1">
    <defs>
     <path id="mb7c4f0ab32" d="M -2.236068 2.236068 
L 2.236068 -2.236068 
M -2.236068 -2.236068 
L 2.236068 2.236068 
" style="stroke: #000000; stroke-width: 1.5"/>
    </defs>
    <g clip-path="url(#p27a1ab358a)">
     <use xlink:href="#mb7c4f0ab32" x="239.755504" y="171.744886" style="stroke: #000000; stroke-width: 1.5"/>
    </g>
   </g>
   <g id="Path3DCollection_2">
    <defs>
     <path id="C0_0_0627ad8b51" d="M 0 -2.236068 
L -0.502029 -0.690983 
L -2.126627 -0.690983 
L -0.812299 0.263932 
L -1.314328 1.809017 
L -0 0.854102 
L 1.314328 1.809017 
L 0.812299 0.263932 
L 2.126627 -0.690983 
L 0.502029 -0.690983 
z
"/>
    </defs>
    <g clip-path="url(#p27a1ab358a)">
     <use xlink:href="#C0_0_0627ad8b51" x="239.755488" y="117.469299" style="fill: #ff0000; fill-opacity: 0.3; stroke: #ff0000; stroke-opacity: 0.3; stroke-width: 4"/>
    </g>
    <g clip-path="url(#p27a1ab358a)">
     <use xlink:href="#C0_0_0627ad8b51" x="286.637909" y="198.657244" style="fill: #ff0000; stroke: #ff0000; stroke-width: 4"/>
    </g>
    <g clip-path="url(#p27a1ab358a)">
     <use xlink:href="#C0_0_0627ad8b51" x="192.873066" y="198.657244" style="fill: #ff0000; stroke: #ff0000; stroke-width: 4"/>
    </g>
   </g>
   <g id="Path3DCollection_3">
    <defs>
     <path id="C1_0_4917cd0209" d="M 0 1.118034 
C 0.296506 1.118034 0.580908 1.000231 0.790569 0.790569 
C 1.000231 0.580908 1.118034 0.296506 1.118034 -0 
C 1.118034 -0.296506 1.000231 -0.580908 0.790569 -0.790569 
C 0.580908 -1.000231 0.296506 -1.118034 0 -1.118034 
C -0.296506 -1.118034 -0.580908 -1.000231 -0.790569 -0.790569 
C -1.000231 -0.580908 -1.118034 -0.296506 -1.118034 0 
C -1.118034 0.296506 -1.000231 0.580908 -0.790569 0.790569 
C -0.580908 1.000231 -0.296506 1.118034 0 1.118034 
z
"/>
    </defs>
    <g clip-path="url(#p27a1ab358a)">
     <use xlink:href="#C1_0_4917cd0209" x="249.756669" y="117.814821" style="fill: #228b22; fill-opacity: 0.3; stroke: #228b22; stroke-opacity: 0.3"/>
    </g>
    <g clip-path="url(#p27a1ab358a)">
     <use xlink:href="#C1_0_4917cd0209" x="242.108489" y="111.150282" style="fill: #228b22; fill-opacity: 0.419613; stroke: #228b22; stroke-opacity: 0.419613"/>
    </g>
    <g clip-path="url(#p27a1ab358a)">
     <use xlink:href="#C1_0_4917cd0209" x="291.827961" y="200.633198" style="fill: #228b22; fill-opacity: 0.424426; stroke: #228b22; stroke-opacity: 0.424426"/>
    </g>
    <g clip-path="url(#p27a1ab358a)">
     <use xlink:href="#C1_0_4917cd0209" x="236.053102" y="123.317116" style="fill: #228b22; fill-opacity: 0.442959; stroke: #228b22; stroke-opacity: 0.442959"/>
    </g>
    <g clip-path="url(#p27a1ab358a)">
     <use xlink:href="#C1_0_4917cd0209" x="294.0978" y="200.618366" style="fill: #228b22; fill-opacity: 0.445774; stroke: #228b22; stroke-opacity: 0.445774"/>
    </g>
    <g clip-path="url(#p27a1ab358a)">
     <use xlink:href="#C1_0_4917cd0209" x="232.371314" y="118.011547" style="fill: #228b22; fill-opacity: 0.453224; stroke: #228b22; stroke-opacity: 0.453224"/>
    </g>
    <g clip-path="url(#p27a1ab358a)">
     <use xlink:href="#C1_0_4917cd0209" x="190.227152" y="202.601384" style="fill: #228b22; fill-opacity: 0.45707; stroke: #228b22; stroke-opacity: 0.45707"/>
    </g>
    <g clip-path="url(#p27a1ab358a)">
     <use xlink:href="#C1_0_4917cd0209" x="278.33632" y="203.992461" style="fill: #228b22; fill-opacity: 0.460027; stroke: #228b22; stroke-opacity: 0.460027"/>
    </g>
    <g clip-path="url(#p27a1ab358a)">
     <use xlink:href="#C1_0_4917cd0209" x="292.180061" y="194.683429" style="fill: #228b22; fill-opacity: 0.471444; stroke: #228b22; stroke-opacity: 0.471444"/>
    </g>
    <g clip-path="url(#p27a1ab358a)">
     <use xlink:href="#C1_0_4917cd0209" x="282.586338" y="198.430146" style="fill: #228b22; fill-opacity: 0.486878; stroke: #228b22; stroke-opacity: 0.486878"/>
    </g>
    <g clip-path="url(#p27a1ab358a)">
     <use xlink:href="#C1_0_4917cd0209" x="246.426067" y="109.250169" style="fill: #228b22; fill-opacity: 0.505788; stroke: #228b22; stroke-opacity: 0.505788"/>
    </g>
    <g clip-path="url(#p27a1ab358a)">
     <use xlink:href="#C1_0_4917cd0209" x="231.316143" y="124.269196" style="fill: #228b22; fill-opacity: 0.51681; stroke: #228b22; stroke-opacity: 0.51681"/>
    </g>
    <g clip-path="url(#p27a1ab358a)">
     <use xlink:href="#C1_0_4917cd0209" x="244.844183" y="119.52068" style="fill: #228b22; fill-opacity: 0.517581; stroke: #228b22; stroke-opacity: 0.517581"/>
    </g>
    <g clip-path="url(#p27a1ab358a)">
     <use xlink:href="#C1_0_4917cd0209" x="196.021765" y="200.369643" style="fill: #228b22; fill-opacity: 0.521672; stroke: #228b22; stroke-opacity: 0.521672"/>
    </g>
    <g clip-path="url(#p27a1ab358a)">
     <use xlink:href="#C1_0_4917cd0209" x="289.009443" y="204.954384" style="fill: #228b22; fill-opacity: 0.527803; stroke: #228b22; stroke-opacity: 0.527803"/>
    </g>
    <g clip-path="url(#p27a1ab358a)">
     <use xlink:href="#C1_0_4917cd0209" x="186.820229" y="192.311576" style="fill: #228b22; fill-opacity: 0.528126; stroke: #228b22; stroke-opacity: 0.528126"/>
    </g>
    <g clip-path="url(#p27a1ab358a)">
     <use xlink:href="#C1_0_4917cd0209" x="194.611707" y="192.949884" style="fill: #228b22; fill-opacity: 0.532425; stroke: #228b22; stroke-opacity: 0.532425"/>
    </g>
    <g clip-path="url(#p27a1ab358a)">
     <use xlink:href="#C1_0_4917cd0209" x="197.177595" y="199.652747" style="fill: #228b22; fill-opacity: 0.548436; stroke: #228b22; stroke-opacity: 0.548436"/>
    </g>
    <g clip-path="url(#p27a1ab358a)">
     <use xlink:href="#C1_0_4917cd0209" x="236.327384" y="121.043554" style="fill: #228b22; fill-opacity: 0.552264; stroke: #228b22; stroke-opacity: 0.552264"/>
    </g>
    <g clip-path="url(#p27a1ab358a)">
     <use xlink:href="#C1_0_4917cd0209" x="234.037177" y="117.208363" style="fill: #228b22; fill-opacity: 0.554492; stroke: #228b22; stroke-opacity: 0.554492"/>
    </g>
    <g clip-path="url(#p27a1ab358a)">
     <use xlink:href="#C1_0_4917cd0209" x="245.637663" y="106.017369" style="fill: #228b22; fill-opacity: 0.569616; stroke: #228b22; stroke-opacity: 0.569616"/>
    </g>
    <g clip-path="url(#p27a1ab358a)">
     <use xlink:href="#C1_0_4917cd0209" x="185.500955" y="192.922012" style="fill: #228b22; fill-opacity: 0.579656; stroke: #228b22; stroke-opacity: 0.579656"/>
    </g>
    <g clip-path="url(#p27a1ab358a)">
     <use xlink:href="#C1_0_4917cd0209" x="240.755177" y="124.021814" style="fill: #228b22; fill-opacity: 0.585665; stroke: #228b22; stroke-opacity: 0.585665"/>
    </g>
    <g clip-path="url(#p27a1ab358a)">
     <use xlink:href="#C1_0_4917cd0209" x="278.630386" y="199.526703" style="fill: #228b22; fill-opacity: 0.592955; stroke: #228b22; stroke-opacity: 0.592955"/>
    </g>
    <g clip-path="url(#p27a1ab358a)">
     <use xlink:href="#C1_0_4917cd0209" x="288.427579" y="201.346908" style="fill: #228b22; fill-opacity: 0.593672; stroke: #228b22; stroke-opacity: 0.593672"/>
    </g>
    <g clip-path="url(#p27a1ab358a)">
     <use xlink:href="#C1_0_4917cd0209" x="284.875753" y="202.63213" style="fill: #228b22; fill-opacity: 0.603267; stroke: #228b22; stroke-opacity: 0.603267"/>
    </g>
    <g clip-path="url(#p27a1ab358a)">
     <use xlink:href="#C1_0_4917cd0209" x="239.45793" y="117.021921" style="fill: #228b22; fill-opacity: 0.603269; stroke: #228b22; stroke-opacity: 0.603269"/>
    </g>
    <g clip-path="url(#p27a1ab358a)">
     <use xlink:href="#C1_0_4917cd0209" x="228.780363" y="121.509975" style="fill: #228b22; fill-opacity: 0.617886; stroke: #228b22; stroke-opacity: 0.617886"/>
    </g>
    <g clip-path="url(#p27a1ab358a)">
     <use xlink:href="#C1_0_4917cd0209" x="192.70785" y="183.385431" style="fill: #228b22; fill-opacity: 0.627122; stroke: #228b22; stroke-opacity: 0.627122"/>
    </g>
    <g clip-path="url(#p27a1ab358a)">
     <use xlink:href="#C1_0_4917cd0209" x="292.067568" y="193.80142" style="fill: #228b22; fill-opacity: 0.629345; stroke: #228b22; stroke-opacity: 0.629345"/>
    </g>
    <g clip-path="url(#p27a1ab358a)">
     <use xlink:href="#C1_0_4917cd0209" x="197.191465" y="202.147485" style="fill: #228b22; fill-opacity: 0.637746; stroke: #228b22; stroke-opacity: 0.637746"/>
    </g>
    <g clip-path="url(#p27a1ab358a)">
     <use xlink:href="#C1_0_4917cd0209" x="245.025157" y="115.559746" style="fill: #228b22; fill-opacity: 0.639388; stroke: #228b22; stroke-opacity: 0.639388"/>
    </g>
    <g clip-path="url(#p27a1ab358a)">
     <use xlink:href="#C1_0_4917cd0209" x="287.015933" y="199.248858" style="fill: #228b22; fill-opacity: 0.663456; stroke: #228b22; stroke-opacity: 0.663456"/>
    </g>
    <g clip-path="url(#p27a1ab358a)">
     <use xlink:href="#C1_0_4917cd0209" x="239.770858" y="120.779512" style="fill: #228b22; fill-opacity: 0.665827; stroke: #228b22; stroke-opacity: 0.665827"/>
    </g>
    <g clip-path="url(#p27a1ab358a)">
     <use xlink:href="#C1_0_4917cd0209" x="282.656964" y="200.17067" style="fill: #228b22; fill-opacity: 0.668324; stroke: #228b22; stroke-opacity: 0.668324"/>
    </g>
    <g clip-path="url(#p27a1ab358a)">
     <use xlink:href="#C1_0_4917cd0209" x="195.434283" y="188.185937" style="fill: #228b22; fill-opacity: 0.668669; stroke: #228b22; stroke-opacity: 0.668669"/>
    </g>
    <g clip-path="url(#p27a1ab358a)">
     <use xlink:href="#C1_0_4917cd0209" x="241.030945" y="117.40333" style="fill: #228b22; fill-opacity: 0.672743; stroke: #228b22; stroke-opacity: 0.672743"/>
    </g>
    <g clip-path="url(#p27a1ab358a)">
     <use xlink:href="#C1_0_4917cd0209" x="191.557786" y="196.390174" style="fill: #228b22; fill-opacity: 0.684869; stroke: #228b22; stroke-opacity: 0.684869"/>
    </g>
    <g clip-path="url(#p27a1ab358a)">
     <use xlink:href="#C1_0_4917cd0209" x="228.60156" y="114.41139" style="fill: #228b22; fill-opacity: 0.692405; stroke: #228b22; stroke-opacity: 0.692405"/>
    </g>
    <g clip-path="url(#p27a1ab358a)">
     <use xlink:href="#C1_0_4917cd0209" x="233.277652" y="122.740943" style="fill: #228b22; fill-opacity: 0.696163; stroke: #228b22; stroke-opacity: 0.696163"/>
    </g>
    <g clip-path="url(#p27a1ab358a)">
     <use xlink:href="#C1_0_4917cd0209" x="242.75138" y="115.818261" style="fill: #228b22; fill-opacity: 0.716076; stroke: #228b22; stroke-opacity: 0.716076"/>
    </g>
    <g clip-path="url(#p27a1ab358a)">
     <use xlink:href="#C1_0_4917cd0209" x="199.12425" y="196.169755" style="fill: #228b22; fill-opacity: 0.725834; stroke: #228b22; stroke-opacity: 0.725834"/>
    </g>
    <g clip-path="url(#p27a1ab358a)">
     <use xlink:href="#C1_0_4917cd0209" x="231.949226" y="118.163216" style="fill: #228b22; fill-opacity: 0.728329; stroke: #228b22; stroke-opacity: 0.728329"/>
    </g>
    <g clip-path="url(#p27a1ab358a)">
     <use xlink:href="#C1_0_4917cd0209" x="193.034522" y="199.013395" style="fill: #228b22; fill-opacity: 0.735964; stroke: #228b22; stroke-opacity: 0.735964"/>
    </g>
    <g clip-path="url(#p27a1ab358a)">
     <use xlink:href="#C1_0_4917cd0209" x="273.271933" y="195.49533" style="fill: #228b22; fill-opacity: 0.739695; stroke: #228b22; stroke-opacity: 0.739695"/>
    </g>
    <g clip-path="url(#p27a1ab358a)">
     <use xlink:href="#C1_0_4917cd0209" x="191.678725" y="198.766695" style="fill: #228b22; fill-opacity: 0.750453; stroke: #228b22; stroke-opacity: 0.750453"/>
    </g>
    <g clip-path="url(#p27a1ab358a)">
     <use xlink:href="#C1_0_4917cd0209" x="293.312088" y="201.891012" style="fill: #228b22; fill-opacity: 0.756903; stroke: #228b22; stroke-opacity: 0.756903"/>
    </g>
    <g clip-path="url(#p27a1ab358a)">
     <use xlink:href="#C1_0_4917cd0209" x="232.981281" y="116.48529" style="fill: #228b22; fill-opacity: 0.772077; stroke: #228b22; stroke-opacity: 0.772077"/>
    </g>
    <g clip-path="url(#p27a1ab358a)">
     <use xlink:href="#C1_0_4917cd0209" x="191.051958" y="201.375649" style="fill: #228b22; fill-opacity: 0.776685; stroke: #228b22; stroke-opacity: 0.776685"/>
    </g>
    <g clip-path="url(#p27a1ab358a)">
     <use xlink:href="#C1_0_4917cd0209" x="287.195479" y="199.143543" style="fill: #228b22; fill-opacity: 0.782806; stroke: #228b22; stroke-opacity: 0.782806"/>
    </g>
    <g clip-path="url(#p27a1ab358a)">
     <use xlink:href="#C1_0_4917cd0209" x="235.354959" y="126.661944" style="fill: #228b22; fill-opacity: 0.783502; stroke: #228b22; stroke-opacity: 0.783502"/>
    </g>
    <g clip-path="url(#p27a1ab358a)">
     <use xlink:href="#C1_0_4917cd0209" x="232.439292" y="119.145274" style="fill: #228b22; fill-opacity: 0.791942; stroke: #228b22; stroke-opacity: 0.791942"/>
    </g>
    <g clip-path="url(#p27a1ab358a)">
     <use xlink:href="#C1_0_4917cd0209" x="291.844099" y="189.379532" style="fill: #228b22; fill-opacity: 0.793208; stroke: #228b22; stroke-opacity: 0.793208"/>
    </g>
    <g clip-path="url(#p27a1ab358a)">
     <use xlink:href="#C1_0_4917cd0209" x="243.627346" y="120.178262" style="fill: #228b22; fill-opacity: 0.793368; stroke: #228b22; stroke-opacity: 0.793368"/>
    </g>
    <g clip-path="url(#p27a1ab358a)">
     <use xlink:href="#C1_0_4917cd0209" x="248.087663" y="111.164602" style="fill: #228b22; fill-opacity: 0.809464; stroke: #228b22; stroke-opacity: 0.809464"/>
    </g>
    <g clip-path="url(#p27a1ab358a)">
     <use xlink:href="#C1_0_4917cd0209" x="236.312779" y="111.711115" style="fill: #228b22; fill-opacity: 0.8311; stroke: #228b22; stroke-opacity: 0.8311"/>
    </g>
    <g clip-path="url(#p27a1ab358a)">
     <use xlink:href="#C1_0_4917cd0209" x="237.543223" y="118.165621" style="fill: #228b22; fill-opacity: 0.858474; stroke: #228b22; stroke-opacity: 0.858474"/>
    </g>
    <g clip-path="url(#p27a1ab358a)">
     <use xlink:href="#C1_0_4917cd0209" x="281.410524" y="200.325899" style="fill: #228b22; fill-opacity: 0.869422; stroke: #228b22; stroke-opacity: 0.869422"/>
    </g>
    <g clip-path="url(#p27a1ab358a)">
     <use xlink:href="#C1_0_4917cd0209" x="289.413255" y="187.495275" style="fill: #228b22; fill-opacity: 0.882686; stroke: #228b22; stroke-opacity: 0.882686"/>
    </g>
    <g clip-path="url(#p27a1ab358a)">
     <use xlink:href="#C1_0_4917cd0209" x="232.841101" y="123.26763" style="fill: #228b22; fill-opacity: 0.907962; stroke: #228b22; stroke-opacity: 0.907962"/>
    </g>
    <g clip-path="url(#p27a1ab358a)">
     <use xlink:href="#C1_0_4917cd0209" x="284.945684" y="196.47398" style="fill: #228b22; fill-opacity: 0.909553; stroke: #228b22; stroke-opacity: 0.909553"/>
    </g>
    <g clip-path="url(#p27a1ab358a)">
     <use xlink:href="#C1_0_4917cd0209" x="187.297813" y="195.834268" style="fill: #228b22; fill-opacity: 0.946169; stroke: #228b22; stroke-opacity: 0.946169"/>
    </g>
    <g clip-path="url(#p27a1ab358a)">
     <use xlink:href="#C1_0_4917cd0209" x="241.048489" y="112.595137" style="fill: #228b22; fill-opacity: 0.98332; stroke: #228b22; stroke-opacity: 0.98332"/>
    </g>
    <g clip-path="url(#p27a1ab358a)">
     <use xlink:href="#C1_0_4917cd0209" x="245.280605" y="121.337638" style="fill: #228b22; stroke: #228b22"/>
    </g>
   </g>
   <g id="legend_1">
    <g id="patch_6">
     <path d="M 254.542562 108.1845 
L 362.216 108.1845 
Q 364.216 108.1845 364.216 106.1845 
L 364.216 48.472 
Q 364.216 46.472 362.216 46.472 
L 254.542562 46.472 
Q 252.542562 46.472 252.542562 48.472 
L 252.542562 106.1845 
Q 252.542562 108.1845 254.542562 108.1845 
z
" style="fill: #ffffff; opacity: 0.8; stroke: #cccccc; stroke-linejoin: miter"/>
    </g>
    <g id="Path3DCollection_4">
     <g>
      <use xlink:href="#mb7c4f0ab32" x="266.542562" y="55.445438" style="stroke: #000000; stroke-width: 1.5"/>
     </g>
    </g>
    <g id="text_22">
     <!-- Origin -->
     <g transform="translate(284.542562 58.070438) scale(0.1 -0.1)">
      <defs>
       <path id="DejaVuSans-4f" d="M 2522 4238 
Q 1834 4238 1429 3725 
Q 1025 3213 1025 2328 
Q 1025 1447 1429 934 
Q 1834 422 2522 422 
Q 3209 422 3611 934 
Q 4013 1447 4013 2328 
Q 4013 3213 3611 3725 
Q 3209 4238 2522 4238 
z
M 2522 4750 
Q 3503 4750 4090 4092 
Q 4678 3434 4678 2328 
Q 4678 1225 4090 567 
Q 3503 -91 2522 -91 
Q 1538 -91 948 565 
Q 359 1222 359 2328 
Q 359 3434 948 4092 
Q 1538 4750 2522 4750 
z
" transform="scale(0.015625)"/>
       <path id="DejaVuSans-72" d="M 2631 2963 
Q 2534 3019 2420 3045 
Q 2306 3072 2169 3072 
Q 1681 3072 1420 2755 
Q 1159 2438 1159 1844 
L 1159 0 
L 581 0 
L 581 3500 
L 1159 3500 
L 1159 2956 
Q 1341 3275 1631 3429 
Q 1922 3584 2338 3584 
Q 2397 3584 2469 3576 
Q 2541 3569 2628 3553 
L 2631 2963 
z
" transform="scale(0.015625)"/>
       <path id="DejaVuSans-69" d="M 603 3500 
L 1178 3500 
L 1178 0 
L 603 0 
L 603 3500 
z
M 603 4863 
L 1178 4863 
L 1178 4134 
L 603 4134 
L 603 4863 
z
" transform="scale(0.015625)"/>
       <path id="DejaVuSans-67" d="M 2906 1791 
Q 2906 2416 2648 2759 
Q 2391 3103 1925 3103 
Q 1463 3103 1205 2759 
Q 947 2416 947 1791 
Q 947 1169 1205 825 
Q 1463 481 1925 481 
Q 2391 481 2648 825 
Q 2906 1169 2906 1791 
z
M 3481 434 
Q 3481 -459 3084 -895 
Q 2688 -1331 1869 -1331 
Q 1566 -1331 1297 -1286 
Q 1028 -1241 775 -1147 
L 775 -588 
Q 1028 -725 1275 -790 
Q 1522 -856 1778 -856 
Q 2344 -856 2625 -561 
Q 2906 -266 2906 331 
L 2906 616 
Q 2728 306 2450 153 
Q 2172 0 1784 0 
Q 1141 0 747 490 
Q 353 981 353 1791 
Q 353 2603 747 3093 
Q 1141 3584 1784 3584 
Q 2172 3584 2450 3431 
Q 2728 3278 2906 2969 
L 2906 3500 
L 3481 3500 
L 3481 434 
z
" transform="scale(0.015625)"/>
       <path id="DejaVuSans-6e" d="M 3513 2113 
L 3513 0 
L 2938 0 
L 2938 2094 
Q 2938 2591 2744 2837 
Q 2550 3084 2163 3084 
Q 1697 3084 1428 2787 
Q 1159 2491 1159 1978 
L 1159 0 
L 581 0 
L 581 3500 
L 1159 3500 
L 1159 2956 
Q 1366 3272 1645 3428 
Q 1925 3584 2291 3584 
Q 2894 3584 3203 3211 
Q 3513 2838 3513 2113 
z
" transform="scale(0.015625)"/>
      </defs>
      <use xlink:href="#DejaVuSans-4f"/>
      <use xlink:href="#DejaVuSans-72" x="78.710938"/>
      <use xlink:href="#DejaVuSans-69" x="119.824219"/>
      <use xlink:href="#DejaVuSans-67" x="147.607422"/>
      <use xlink:href="#DejaVuSans-69" x="211.083984"/>
      <use xlink:href="#DejaVuSans-6e" x="238.867188"/>
     </g>
    </g>
    <g id="Path3DCollection_5">
     <defs>
      <path id="m9e3b82915b" d="M 0 1.118034 
C 0.296506 1.118034 0.580908 1.000231 0.790569 0.790569 
C 1.000231 0.580908 1.118034 0.296506 1.118034 0 
C 1.118034 -0.296506 1.000231 -0.580908 0.790569 -0.790569 
C 0.580908 -1.000231 0.296506 -1.118034 0 -1.118034 
C -0.296506 -1.118034 -0.580908 -1.000231 -0.790569 -0.790569 
C -1.000231 -0.580908 -1.118034 -0.296506 -1.118034 0 
C -1.118034 0.296506 -1.000231 0.580908 -0.790569 0.790569 
C -0.580908 1.000231 -0.296506 1.118034 0 1.118034 
z
" style="stroke: #228b22"/>
     </defs>
     <g>
      <use xlink:href="#m9e3b82915b" x="266.542562" y="70.123563" style="fill: #228b22; stroke: #228b22"/>
     </g>
    </g>
    <g id="text_23">
     <!-- Prior Samples -->
     <g transform="translate(284.542562 72.748563) scale(0.1 -0.1)">
      <defs>
       <path id="DejaVuSans-50" d="M 1259 4147 
L 1259 2394 
L 2053 2394 
Q 2494 2394 2734 2622 
Q 2975 2850 2975 3272 
Q 2975 3691 2734 3919 
Q 2494 4147 2053 4147 
L 1259 4147 
z
M 628 4666 
L 2053 4666 
Q 2838 4666 3239 4311 
Q 3641 3956 3641 3272 
Q 3641 2581 3239 2228 
Q 2838 1875 2053 1875 
L 1259 1875 
L 1259 0 
L 628 0 
L 628 4666 
z
" transform="scale(0.015625)"/>
       <path id="DejaVuSans-6f" d="M 1959 3097 
Q 1497 3097 1228 2736 
Q 959 2375 959 1747 
Q 959 1119 1226 758 
Q 1494 397 1959 397 
Q 2419 397 2687 759 
Q 2956 1122 2956 1747 
Q 2956 2369 2687 2733 
Q 2419 3097 1959 3097 
z
M 1959 3584 
Q 2709 3584 3137 3096 
Q 3566 2609 3566 1747 
Q 3566 888 3137 398 
Q 2709 -91 1959 -91 
Q 1206 -91 779 398 
Q 353 888 353 1747 
Q 353 2609 779 3096 
Q 1206 3584 1959 3584 
z
" transform="scale(0.015625)"/>
       <path id="DejaVuSans-20" transform="scale(0.015625)"/>
       <path id="DejaVuSans-53" d="M 3425 4513 
L 3425 3897 
Q 3066 4069 2747 4153 
Q 2428 4238 2131 4238 
Q 1616 4238 1336 4038 
Q 1056 3838 1056 3469 
Q 1056 3159 1242 3001 
Q 1428 2844 1947 2747 
L 2328 2669 
Q 3034 2534 3370 2195 
Q 3706 1856 3706 1288 
Q 3706 609 3251 259 
Q 2797 -91 1919 -91 
Q 1588 -91 1214 -16 
Q 841 59 441 206 
L 441 856 
Q 825 641 1194 531 
Q 1563 422 1919 422 
Q 2459 422 2753 634 
Q 3047 847 3047 1241 
Q 3047 1584 2836 1778 
Q 2625 1972 2144 2069 
L 1759 2144 
Q 1053 2284 737 2584 
Q 422 2884 422 3419 
Q 422 4038 858 4394 
Q 1294 4750 2059 4750 
Q 2388 4750 2728 4690 
Q 3069 4631 3425 4513 
z
" transform="scale(0.015625)"/>
       <path id="DejaVuSans-61" d="M 2194 1759 
Q 1497 1759 1228 1600 
Q 959 1441 959 1056 
Q 959 750 1161 570 
Q 1363 391 1709 391 
Q 2188 391 2477 730 
Q 2766 1069 2766 1631 
L 2766 1759 
L 2194 1759 
z
M 3341 1997 
L 3341 0 
L 2766 0 
L 2766 531 
Q 2569 213 2275 61 
Q 1981 -91 1556 -91 
Q 1019 -91 701 211 
Q 384 513 384 1019 
Q 384 1609 779 1909 
Q 1175 2209 1959 2209 
L 2766 2209 
L 2766 2266 
Q 2766 2663 2505 2880 
Q 2244 3097 1772 3097 
Q 1472 3097 1187 3025 
Q 903 2953 641 2809 
L 641 3341 
Q 956 3463 1253 3523 
Q 1550 3584 1831 3584 
Q 2591 3584 2966 3190 
Q 3341 2797 3341 1997 
z
" transform="scale(0.015625)"/>
       <path id="DejaVuSans-6d" d="M 3328 2828 
Q 3544 3216 3844 3400 
Q 4144 3584 4550 3584 
Q 5097 3584 5394 3201 
Q 5691 2819 5691 2113 
L 5691 0 
L 5113 0 
L 5113 2094 
Q 5113 2597 4934 2840 
Q 4756 3084 4391 3084 
Q 3944 3084 3684 2787 
Q 3425 2491 3425 1978 
L 3425 0 
L 2847 0 
L 2847 2094 
Q 2847 2600 2669 2842 
Q 2491 3084 2119 3084 
Q 1678 3084 1418 2786 
Q 1159 2488 1159 1978 
L 1159 0 
L 581 0 
L 581 3500 
L 1159 3500 
L 1159 2956 
Q 1356 3278 1631 3431 
Q 1906 3584 2284 3584 
Q 2666 3584 2933 3390 
Q 3200 3197 3328 2828 
z
" transform="scale(0.015625)"/>
       <path id="DejaVuSans-70" d="M 1159 525 
L 1159 -1331 
L 581 -1331 
L 581 3500 
L 1159 3500 
L 1159 2969 
Q 1341 3281 1617 3432 
Q 1894 3584 2278 3584 
Q 2916 3584 3314 3078 
Q 3713 2572 3713 1747 
Q 3713 922 3314 415 
Q 2916 -91 2278 -91 
Q 1894 -91 1617 61 
Q 1341 213 1159 525 
z
M 3116 1747 
Q 3116 2381 2855 2742 
Q 2594 3103 2138 3103 
Q 1681 3103 1420 2742 
Q 1159 2381 1159 1747 
Q 1159 1113 1420 752 
Q 1681 391 2138 391 
Q 2594 391 2855 752 
Q 3116 1113 3116 1747 
z
" transform="scale(0.015625)"/>
       <path id="DejaVuSans-6c" d="M 603 4863 
L 1178 4863 
L 1178 0 
L 603 0 
L 603 4863 
z
" transform="scale(0.015625)"/>
       <path id="DejaVuSans-65" d="M 3597 1894 
L 3597 1613 
L 953 1613 
Q 991 1019 1311 708 
Q 1631 397 2203 397 
Q 2534 397 2845 478 
Q 3156 559 3463 722 
L 3463 178 
Q 3153 47 2828 -22 
Q 2503 -91 2169 -91 
Q 1331 -91 842 396 
Q 353 884 353 1716 
Q 353 2575 817 3079 
Q 1281 3584 2069 3584 
Q 2775 3584 3186 3129 
Q 3597 2675 3597 1894 
z
M 3022 2063 
Q 3016 2534 2758 2815 
Q 2500 3097 2075 3097 
Q 1594 3097 1305 2825 
Q 1016 2553 972 2059 
L 3022 2063 
z
" transform="scale(0.015625)"/>
       <path id="DejaVuSans-73" d="M 2834 3397 
L 2834 2853 
Q 2591 2978 2328 3040 
Q 2066 3103 1784 3103 
Q 1356 3103 1142 2972 
Q 928 2841 928 2578 
Q 928 2378 1081 2264 
Q 1234 2150 1697 2047 
L 1894 2003 
Q 2506 1872 2764 1633 
Q 3022 1394 3022 966 
Q 3022 478 2636 193 
Q 2250 -91 1575 -91 
Q 1294 -91 989 -36 
Q 684 19 347 128 
L 347 722 
Q 666 556 975 473 
Q 1284 391 1588 391 
Q 1994 391 2212 530 
Q 2431 669 2431 922 
Q 2431 1156 2273 1281 
Q 2116 1406 1581 1522 
L 1381 1569 
Q 847 1681 609 1914 
Q 372 2147 372 2553 
Q 372 3047 722 3315 
Q 1072 3584 1716 3584 
Q 2034 3584 2315 3537 
Q 2597 3491 2834 3397 
z
" transform="scale(0.015625)"/>
      </defs>
      <use xlink:href="#DejaVuSans-50"/>
      <use xlink:href="#DejaVuSans-72" x="58.552734"/>
      <use xlink:href="#DejaVuSans-69" x="99.666016"/>
      <use xlink:href="#DejaVuSans-6f" x="127.449219"/>
      <use xlink:href="#DejaVuSans-72" x="188.630859"/>
      <use xlink:href="#DejaVuSans-20" x="229.744141"/>
      <use xlink:href="#DejaVuSans-53" x="261.53125"/>
      <use xlink:href="#DejaVuSans-61" x="325.007812"/>
      <use xlink:href="#DejaVuSans-6d" x="386.287109"/>
      <use xlink:href="#DejaVuSans-70" x="483.699219"/>
      <use xlink:href="#DejaVuSans-6c" x="547.175781"/>
      <use xlink:href="#DejaVuSans-65" x="574.958984"/>
      <use xlink:href="#DejaVuSans-73" x="636.482422"/>
     </g>
    </g>
    <g id="Path3DCollection_6">
     <defs>
      <path id="m44e589d458" d="M 0 -2.236068 
L -0.502029 -0.690983 
L -2.126627 -0.690983 
L -0.812299 0.263932 
L -1.314328 1.809017 
L -0 0.854102 
L 1.314328 1.809017 
L 0.812299 0.263932 
L 2.126627 -0.690983 
L 0.502029 -0.690983 
z
" style="stroke: #ff0000; stroke-width: 4"/>
     </defs>
     <g>
      <use xlink:href="#m44e589d458" x="266.542562" y="84.801688" style="fill: #ff0000; stroke: #ff0000; stroke-width: 4"/>
     </g>
    </g>
    <g id="text_24">
     <!-- True Signal -->
     <g transform="translate(284.542562 87.426688) scale(0.1 -0.1)">
      <defs>
       <path id="DejaVuSans-54" d="M -19 4666 
L 3928 4666 
L 3928 4134 
L 2272 4134 
L 2272 0 
L 1638 0 
L 1638 4134 
L -19 4134 
L -19 4666 
z
" transform="scale(0.015625)"/>
       <path id="DejaVuSans-75" d="M 544 1381 
L 544 3500 
L 1119 3500 
L 1119 1403 
Q 1119 906 1312 657 
Q 1506 409 1894 409 
Q 2359 409 2629 706 
Q 2900 1003 2900 1516 
L 2900 3500 
L 3475 3500 
L 3475 0 
L 2900 0 
L 2900 538 
Q 2691 219 2414 64 
Q 2138 -91 1772 -91 
Q 1169 -91 856 284 
Q 544 659 544 1381 
z
M 1991 3584 
L 1991 3584 
z
" transform="scale(0.015625)"/>
      </defs>
      <use xlink:href="#DejaVuSans-54"/>
      <use xlink:href="#DejaVuSans-72" x="46.333984"/>
      <use xlink:href="#DejaVuSans-75" x="87.447266"/>
      <use xlink:href="#DejaVuSans-65" x="150.826172"/>
      <use xlink:href="#DejaVuSans-20" x="212.349609"/>
      <use xlink:href="#DejaVuSans-53" x="244.136719"/>
      <use xlink:href="#DejaVuSans-69" x="307.613281"/>
      <use xlink:href="#DejaVuSans-67" x="335.396484"/>
      <use xlink:href="#DejaVuSans-6e" x="398.873047"/>
      <use xlink:href="#DejaVuSans-61" x="462.251953"/>
      <use xlink:href="#DejaVuSans-6c" x="523.53125"/>
     </g>
    </g>
    <g id="line2d_24">
     <path d="M 256.542562 98.604813 
L 266.542562 98.604813 
L 276.542562 98.604813 
" style="fill: none; stroke-dasharray: 1.5,2.475; stroke-dashoffset: 0; stroke: #ff0000; stroke-width: 1.5"/>
    </g>
    <g id="text_25">
     <!-- Phase Manifold -->
     <g transform="translate(284.542562 102.104813) scale(0.1 -0.1)">
      <defs>
       <path id="DejaVuSans-68" d="M 3513 2113 
L 3513 0 
L 2938 0 
L 2938 2094 
Q 2938 2591 2744 2837 
Q 2550 3084 2163 3084 
Q 1697 3084 1428 2787 
Q 1159 2491 1159 1978 
L 1159 0 
L 581 0 
L 581 4863 
L 1159 4863 
L 1159 2956 
Q 1366 3272 1645 3428 
Q 1925 3584 2291 3584 
Q 2894 3584 3203 3211 
Q 3513 2838 3513 2113 
z
" transform="scale(0.015625)"/>
       <path id="DejaVuSans-4d" d="M 628 4666 
L 1569 4666 
L 2759 1491 
L 3956 4666 
L 4897 4666 
L 4897 0 
L 4281 0 
L 4281 4097 
L 3078 897 
L 2444 897 
L 1241 4097 
L 1241 0 
L 628 0 
L 628 4666 
z
" transform="scale(0.015625)"/>
       <path id="DejaVuSans-66" d="M 2375 4863 
L 2375 4384 
L 1825 4384 
Q 1516 4384 1395 4259 
Q 1275 4134 1275 3809 
L 1275 3500 
L 2222 3500 
L 2222 3053 
L 1275 3053 
L 1275 0 
L 697 0 
L 697 3053 
L 147 3053 
L 147 3500 
L 697 3500 
L 697 3744 
Q 697 4328 969 4595 
Q 1241 4863 1831 4863 
L 2375 4863 
z
" transform="scale(0.015625)"/>
       <path id="DejaVuSans-64" d="M 2906 2969 
L 2906 4863 
L 3481 4863 
L 3481 0 
L 2906 0 
L 2906 525 
Q 2725 213 2448 61 
Q 2172 -91 1784 -91 
Q 1150 -91 751 415 
Q 353 922 353 1747 
Q 353 2572 751 3078 
Q 1150 3584 1784 3584 
Q 2172 3584 2448 3432 
Q 2725 3281 2906 2969 
z
M 947 1747 
Q 947 1113 1208 752 
Q 1469 391 1925 391 
Q 2381 391 2643 752 
Q 2906 1113 2906 1747 
Q 2906 2381 2643 2742 
Q 2381 3103 1925 3103 
Q 1469 3103 1208 2742 
Q 947 2381 947 1747 
z
" transform="scale(0.015625)"/>
      </defs>
      <use xlink:href="#DejaVuSans-50"/>
      <use xlink:href="#DejaVuSans-68" x="60.302734"/>
      <use xlink:href="#DejaVuSans-61" x="123.681641"/>
      <use xlink:href="#DejaVuSans-73" x="184.960938"/>
      <use xlink:href="#DejaVuSans-65" x="237.060547"/>
      <use xlink:href="#DejaVuSans-20" x="298.583984"/>
      <use xlink:href="#DejaVuSans-4d" x="330.371094"/>
      <use xlink:href="#DejaVuSans-61" x="416.650391"/>
      <use xlink:href="#DejaVuSans-6e" x="477.929688"/>
      <use xlink:href="#DejaVuSans-69" x="541.308594"/>
      <use xlink:href="#DejaVuSans-66" x="569.091797"/>
      <use xlink:href="#DejaVuSans-6f" x="604.296875"/>
      <use xlink:href="#DejaVuSans-6c" x="665.478516"/>
      <use xlink:href="#DejaVuSans-64" x="693.261719"/>
     </g>
    </g>
   </g>
  </g>
 </g>
 <defs>
  <clipPath id="p27a1ab358a">
   <rect x="103.104" y="41.472" width="266.112" height="266.112"/>
  </clipPath>
 </defs>
</svg>
